<?xml version="1.0" encoding="utf-8" standalone="no"?>
<!DOCTYPE svg PUBLIC "-//W3C//DTD SVG 1.1//EN"
  "http://www.w3.org/Graphics/SVG/1.1/DTD/svg11.dtd">
<svg xmlns:xlink="http://www.w3.org/1999/xlink" width="576pt" height="302.4pt" viewBox="0 0 576 302.4" xmlns="http://www.w3.org/2000/svg" version="1.1">
 <metadata>
  <rdf:RDF xmlns:dc="http://purl.org/dc/elements/1.1/" xmlns:cc="http://creativecommons.org/ns#" xmlns:rdf="http://www.w3.org/1999/02/22-rdf-syntax-ns#">
   <cc:Work>
    <dc:type rdf:resource="http://purl.org/dc/dcmitype/StillImage"/>
    <dc:date>2025-11-05T18:45:53.977390</dc:date>
    <dc:format>image/svg+xml</dc:format>
    <dc:creator>
     <cc:Agent>
      <dc:title>Matplotlib v3.9.4, https://matplotlib.org/</dc:title>
     </cc:Agent>
    </dc:creator>
   </cc:Work>
  </rdf:RDF>
 </metadata>
 <defs>
  <style type="text/css">*{stroke-linejoin: round; stroke-linecap: butt}</style>
 </defs>
 <g id="figure_1">
  <g id="patch_1">
   <path d="M 0 302.4 
L 576 302.4 
L 576 0 
L 0 0 
z
" style="fill: #ffffff"/>
  </g>
  <g id="axes_1">
   <g id="patch_2">
    <path d="M 54.02 260.44 
L 565.2 260.44 
L 565.2 26.88 
L 54.02 26.88 
z
" style="fill: #ffffff"/>
   </g>
   <g id="matplotlib.axis_1">
    <g id="xtick_1">
     <g id="line2d_1">
      <path d="M 77.179806 260.44 
L 77.179806 26.88 
" clip-path="url(#p3618777855)" style="fill: none; stroke-dasharray: 2.96,1.28; stroke-dashoffset: 0; stroke: #b0b0b0; stroke-opacity: 0.3; stroke-width: 0.8"/>
     </g>
     <g id="line2d_2">
      <defs>
       <path id="m1d1e0c8396" d="M 0 0 
L 0 3.5 
" style="stroke: #000000; stroke-width: 0.8"/>
      </defs>
      <g>
       <use xlink:href="#m1d1e0c8396" x="77.179806" y="260.44" style="stroke: #000000; stroke-width: 0.8"/>
      </g>
     </g>
     <g id="text_1">
      <!-- 0 -->
      <g transform="translate(73.998556 275.038438) scale(0.1 -0.1)">
       <defs>
        <path id="DejaVuSans-30" d="M 2034 4250 
Q 1547 4250 1301 3770 
Q 1056 3291 1056 2328 
Q 1056 1369 1301 889 
Q 1547 409 2034 409 
Q 2525 409 2770 889 
Q 3016 1369 3016 2328 
Q 3016 3291 2770 3770 
Q 2525 4250 2034 4250 
z
M 2034 4750 
Q 2819 4750 3233 4129 
Q 3647 3509 3647 2328 
Q 3647 1150 3233 529 
Q 2819 -91 2034 -91 
Q 1250 -91 836 529 
Q 422 1150 422 2328 
Q 422 3509 836 4129 
Q 1250 4750 2034 4750 
z
" transform="scale(0.015625)"/>
       </defs>
       <use xlink:href="#DejaVuSans-30"/>
      </g>
     </g>
    </g>
    <g id="xtick_2">
     <g id="line2d_3">
      <path d="M 152.828364 260.44 
L 152.828364 26.88 
" clip-path="url(#p3618777855)" style="fill: none; stroke-dasharray: 2.96,1.28; stroke-dashoffset: 0; stroke: #b0b0b0; stroke-opacity: 0.3; stroke-width: 0.8"/>
     </g>
     <g id="line2d_4">
      <g>
       <use xlink:href="#m1d1e0c8396" x="152.828364" y="260.44" style="stroke: #000000; stroke-width: 0.8"/>
      </g>
     </g>
     <g id="text_2">
      <!-- 1000 -->
      <g transform="translate(140.103364 275.038438) scale(0.1 -0.1)">
       <defs>
        <path id="DejaVuSans-31" d="M 794 531 
L 1825 531 
L 1825 4091 
L 703 3866 
L 703 4441 
L 1819 4666 
L 2450 4666 
L 2450 531 
L 3481 531 
L 3481 0 
L 794 0 
L 794 531 
z
" transform="scale(0.015625)"/>
       </defs>
       <use xlink:href="#DejaVuSans-31"/>
       <use xlink:href="#DejaVuSans-30" x="63.623047"/>
       <use xlink:href="#DejaVuSans-30" x="127.246094"/>
       <use xlink:href="#DejaVuSans-30" x="190.869141"/>
      </g>
     </g>
    </g>
    <g id="xtick_3">
     <g id="line2d_5">
      <path d="M 228.476922 260.44 
L 228.476922 26.88 
" clip-path="url(#p3618777855)" style="fill: none; stroke-dasharray: 2.96,1.28; stroke-dashoffset: 0; stroke: #b0b0b0; stroke-opacity: 0.3; stroke-width: 0.8"/>
     </g>
     <g id="line2d_6">
      <g>
       <use xlink:href="#m1d1e0c8396" x="228.476922" y="260.44" style="stroke: #000000; stroke-width: 0.8"/>
      </g>
     </g>
     <g id="text_3">
      <!-- 2000 -->
      <g transform="translate(215.751922 275.038438) scale(0.1 -0.1)">
       <defs>
        <path id="DejaVuSans-32" d="M 1228 531 
L 3431 531 
L 3431 0 
L 469 0 
L 469 531 
Q 828 903 1448 1529 
Q 2069 2156 2228 2338 
Q 2531 2678 2651 2914 
Q 2772 3150 2772 3378 
Q 2772 3750 2511 3984 
Q 2250 4219 1831 4219 
Q 1534 4219 1204 4116 
Q 875 4013 500 3803 
L 500 4441 
Q 881 4594 1212 4672 
Q 1544 4750 1819 4750 
Q 2544 4750 2975 4387 
Q 3406 4025 3406 3419 
Q 3406 3131 3298 2873 
Q 3191 2616 2906 2266 
Q 2828 2175 2409 1742 
Q 1991 1309 1228 531 
z
" transform="scale(0.015625)"/>
       </defs>
       <use xlink:href="#DejaVuSans-32"/>
       <use xlink:href="#DejaVuSans-30" x="63.623047"/>
       <use xlink:href="#DejaVuSans-30" x="127.246094"/>
       <use xlink:href="#DejaVuSans-30" x="190.869141"/>
      </g>
     </g>
    </g>
    <g id="xtick_4">
     <g id="line2d_7">
      <path d="M 304.12548 260.44 
L 304.12548 26.88 
" clip-path="url(#p3618777855)" style="fill: none; stroke-dasharray: 2.96,1.28; stroke-dashoffset: 0; stroke: #b0b0b0; stroke-opacity: 0.3; stroke-width: 0.8"/>
     </g>
     <g id="line2d_8">
      <g>
       <use xlink:href="#m1d1e0c8396" x="304.12548" y="260.44" style="stroke: #000000; stroke-width: 0.8"/>
      </g>
     </g>
     <g id="text_4">
      <!-- 3000 -->
      <g transform="translate(291.40048 275.038438) scale(0.1 -0.1)">
       <defs>
        <path id="DejaVuSans-33" d="M 2597 2516 
Q 3050 2419 3304 2112 
Q 3559 1806 3559 1356 
Q 3559 666 3084 287 
Q 2609 -91 1734 -91 
Q 1441 -91 1130 -33 
Q 819 25 488 141 
L 488 750 
Q 750 597 1062 519 
Q 1375 441 1716 441 
Q 2309 441 2620 675 
Q 2931 909 2931 1356 
Q 2931 1769 2642 2001 
Q 2353 2234 1838 2234 
L 1294 2234 
L 1294 2753 
L 1863 2753 
Q 2328 2753 2575 2939 
Q 2822 3125 2822 3475 
Q 2822 3834 2567 4026 
Q 2313 4219 1838 4219 
Q 1578 4219 1281 4162 
Q 984 4106 628 3988 
L 628 4550 
Q 988 4650 1302 4700 
Q 1616 4750 1894 4750 
Q 2613 4750 3031 4423 
Q 3450 4097 3450 3541 
Q 3450 3153 3228 2886 
Q 3006 2619 2597 2516 
z
" transform="scale(0.015625)"/>
       </defs>
       <use xlink:href="#DejaVuSans-33"/>
       <use xlink:href="#DejaVuSans-30" x="63.623047"/>
       <use xlink:href="#DejaVuSans-30" x="127.246094"/>
       <use xlink:href="#DejaVuSans-30" x="190.869141"/>
      </g>
     </g>
    </g>
    <g id="xtick_5">
     <g id="line2d_9">
      <path d="M 379.774037 260.44 
L 379.774037 26.88 
" clip-path="url(#p3618777855)" style="fill: none; stroke-dasharray: 2.96,1.28; stroke-dashoffset: 0; stroke: #b0b0b0; stroke-opacity: 0.3; stroke-width: 0.8"/>
     </g>
     <g id="line2d_10">
      <g>
       <use xlink:href="#m1d1e0c8396" x="379.774037" y="260.44" style="stroke: #000000; stroke-width: 0.8"/>
      </g>
     </g>
     <g id="text_5">
      <!-- 4000 -->
      <g transform="translate(367.049037 275.038438) scale(0.1 -0.1)">
       <defs>
        <path id="DejaVuSans-34" d="M 2419 4116 
L 825 1625 
L 2419 1625 
L 2419 4116 
z
M 2253 4666 
L 3047 4666 
L 3047 1625 
L 3713 1625 
L 3713 1100 
L 3047 1100 
L 3047 0 
L 2419 0 
L 2419 1100 
L 313 1100 
L 313 1709 
L 2253 4666 
z
" transform="scale(0.015625)"/>
       </defs>
       <use xlink:href="#DejaVuSans-34"/>
       <use xlink:href="#DejaVuSans-30" x="63.623047"/>
       <use xlink:href="#DejaVuSans-30" x="127.246094"/>
       <use xlink:href="#DejaVuSans-30" x="190.869141"/>
      </g>
     </g>
    </g>
    <g id="xtick_6">
     <g id="line2d_11">
      <path d="M 455.422595 260.44 
L 455.422595 26.88 
" clip-path="url(#p3618777855)" style="fill: none; stroke-dasharray: 2.96,1.28; stroke-dashoffset: 0; stroke: #b0b0b0; stroke-opacity: 0.3; stroke-width: 0.8"/>
     </g>
     <g id="line2d_12">
      <g>
       <use xlink:href="#m1d1e0c8396" x="455.422595" y="260.44" style="stroke: #000000; stroke-width: 0.8"/>
      </g>
     </g>
     <g id="text_6">
      <!-- 5000 -->
      <g transform="translate(442.697595 275.038438) scale(0.1 -0.1)">
       <defs>
        <path id="DejaVuSans-35" d="M 691 4666 
L 3169 4666 
L 3169 4134 
L 1269 4134 
L 1269 2991 
Q 1406 3038 1543 3061 
Q 1681 3084 1819 3084 
Q 2600 3084 3056 2656 
Q 3513 2228 3513 1497 
Q 3513 744 3044 326 
Q 2575 -91 1722 -91 
Q 1428 -91 1123 -41 
Q 819 9 494 109 
L 494 744 
Q 775 591 1075 516 
Q 1375 441 1709 441 
Q 2250 441 2565 725 
Q 2881 1009 2881 1497 
Q 2881 1984 2565 2268 
Q 2250 2553 1709 2553 
Q 1456 2553 1204 2497 
Q 953 2441 691 2322 
L 691 4666 
z
" transform="scale(0.015625)"/>
       </defs>
       <use xlink:href="#DejaVuSans-35"/>
       <use xlink:href="#DejaVuSans-30" x="63.623047"/>
       <use xlink:href="#DejaVuSans-30" x="127.246094"/>
       <use xlink:href="#DejaVuSans-30" x="190.869141"/>
      </g>
     </g>
    </g>
    <g id="xtick_7">
     <g id="line2d_13">
      <path d="M 531.071153 260.44 
L 531.071153 26.88 
" clip-path="url(#p3618777855)" style="fill: none; stroke-dasharray: 2.96,1.28; stroke-dashoffset: 0; stroke: #b0b0b0; stroke-opacity: 0.3; stroke-width: 0.8"/>
     </g>
     <g id="line2d_14">
      <g>
       <use xlink:href="#m1d1e0c8396" x="531.071153" y="260.44" style="stroke: #000000; stroke-width: 0.8"/>
      </g>
     </g>
     <g id="text_7">
      <!-- 6000 -->
      <g transform="translate(518.346153 275.038438) scale(0.1 -0.1)">
       <defs>
        <path id="DejaVuSans-36" d="M 2113 2584 
Q 1688 2584 1439 2293 
Q 1191 2003 1191 1497 
Q 1191 994 1439 701 
Q 1688 409 2113 409 
Q 2538 409 2786 701 
Q 3034 994 3034 1497 
Q 3034 2003 2786 2293 
Q 2538 2584 2113 2584 
z
M 3366 4563 
L 3366 3988 
Q 3128 4100 2886 4159 
Q 2644 4219 2406 4219 
Q 1781 4219 1451 3797 
Q 1122 3375 1075 2522 
Q 1259 2794 1537 2939 
Q 1816 3084 2150 3084 
Q 2853 3084 3261 2657 
Q 3669 2231 3669 1497 
Q 3669 778 3244 343 
Q 2819 -91 2113 -91 
Q 1303 -91 875 529 
Q 447 1150 447 2328 
Q 447 3434 972 4092 
Q 1497 4750 2381 4750 
Q 2619 4750 2861 4703 
Q 3103 4656 3366 4563 
z
" transform="scale(0.015625)"/>
       </defs>
       <use xlink:href="#DejaVuSans-36"/>
       <use xlink:href="#DejaVuSans-30" x="63.623047"/>
       <use xlink:href="#DejaVuSans-30" x="127.246094"/>
       <use xlink:href="#DejaVuSans-30" x="190.869141"/>
      </g>
     </g>
    </g>
    <g id="text_8">
     <!-- round -->
     <g transform="translate(295.095937 288.716563) scale(0.1 -0.1)">
      <defs>
       <path id="DejaVuSans-72" d="M 2631 2963 
Q 2534 3019 2420 3045 
Q 2306 3072 2169 3072 
Q 1681 3072 1420 2755 
Q 1159 2438 1159 1844 
L 1159 0 
L 581 0 
L 581 3500 
L 1159 3500 
L 1159 2956 
Q 1341 3275 1631 3429 
Q 1922 3584 2338 3584 
Q 2397 3584 2469 3576 
Q 2541 3569 2628 3553 
L 2631 2963 
z
" transform="scale(0.015625)"/>
       <path id="DejaVuSans-6f" d="M 1959 3097 
Q 1497 3097 1228 2736 
Q 959 2375 959 1747 
Q 959 1119 1226 758 
Q 1494 397 1959 397 
Q 2419 397 2687 759 
Q 2956 1122 2956 1747 
Q 2956 2369 2687 2733 
Q 2419 3097 1959 3097 
z
M 1959 3584 
Q 2709 3584 3137 3096 
Q 3566 2609 3566 1747 
Q 3566 888 3137 398 
Q 2709 -91 1959 -91 
Q 1206 -91 779 398 
Q 353 888 353 1747 
Q 353 2609 779 3096 
Q 1206 3584 1959 3584 
z
" transform="scale(0.015625)"/>
       <path id="DejaVuSans-75" d="M 544 1381 
L 544 3500 
L 1119 3500 
L 1119 1403 
Q 1119 906 1312 657 
Q 1506 409 1894 409 
Q 2359 409 2629 706 
Q 2900 1003 2900 1516 
L 2900 3500 
L 3475 3500 
L 3475 0 
L 2900 0 
L 2900 538 
Q 2691 219 2414 64 
Q 2138 -91 1772 -91 
Q 1169 -91 856 284 
Q 544 659 544 1381 
z
M 1991 3584 
L 1991 3584 
z
" transform="scale(0.015625)"/>
       <path id="DejaVuSans-6e" d="M 3513 2113 
L 3513 0 
L 2938 0 
L 2938 2094 
Q 2938 2591 2744 2837 
Q 2550 3084 2163 3084 
Q 1697 3084 1428 2787 
Q 1159 2491 1159 1978 
L 1159 0 
L 581 0 
L 581 3500 
L 1159 3500 
L 1159 2956 
Q 1366 3272 1645 3428 
Q 1925 3584 2291 3584 
Q 2894 3584 3203 3211 
Q 3513 2838 3513 2113 
z
" transform="scale(0.015625)"/>
       <path id="DejaVuSans-64" d="M 2906 2969 
L 2906 4863 
L 3481 4863 
L 3481 0 
L 2906 0 
L 2906 525 
Q 2725 213 2448 61 
Q 2172 -91 1784 -91 
Q 1150 -91 751 415 
Q 353 922 353 1747 
Q 353 2572 751 3078 
Q 1150 3584 1784 3584 
Q 2172 3584 2448 3432 
Q 2725 3281 2906 2969 
z
M 947 1747 
Q 947 1113 1208 752 
Q 1469 391 1925 391 
Q 2381 391 2643 752 
Q 2906 1113 2906 1747 
Q 2906 2381 2643 2742 
Q 2381 3103 1925 3103 
Q 1469 3103 1208 2742 
Q 947 2381 947 1747 
z
" transform="scale(0.015625)"/>
      </defs>
      <use xlink:href="#DejaVuSans-72"/>
      <use xlink:href="#DejaVuSans-6f" x="38.863281"/>
      <use xlink:href="#DejaVuSans-75" x="100.044922"/>
      <use xlink:href="#DejaVuSans-6e" x="163.423828"/>
      <use xlink:href="#DejaVuSans-64" x="226.802734"/>
     </g>
    </g>
   </g>
   <g id="matplotlib.axis_2">
    <g id="ytick_1">
     <g id="line2d_15">
      <path d="M 54.02 230.950101 
L 565.2 230.950101 
" clip-path="url(#p3618777855)" style="fill: none; stroke-dasharray: 2.96,1.28; stroke-dashoffset: 0; stroke: #b0b0b0; stroke-opacity: 0.3; stroke-width: 0.8"/>
     </g>
     <g id="line2d_16">
      <defs>
       <path id="m7324ce492d" d="M 0 0 
L -3.5 0 
" style="stroke: #000000; stroke-width: 0.8"/>
      </defs>
      <g>
       <use xlink:href="#m7324ce492d" x="54.02" y="230.950101" style="stroke: #000000; stroke-width: 0.8"/>
      </g>
     </g>
     <g id="text_9">
      <!-- 0.80 -->
      <g transform="translate(24.754375 234.74932) scale(0.1 -0.1)">
       <defs>
        <path id="DejaVuSans-2e" d="M 684 794 
L 1344 794 
L 1344 0 
L 684 0 
L 684 794 
z
" transform="scale(0.015625)"/>
        <path id="DejaVuSans-38" d="M 2034 2216 
Q 1584 2216 1326 1975 
Q 1069 1734 1069 1313 
Q 1069 891 1326 650 
Q 1584 409 2034 409 
Q 2484 409 2743 651 
Q 3003 894 3003 1313 
Q 3003 1734 2745 1975 
Q 2488 2216 2034 2216 
z
M 1403 2484 
Q 997 2584 770 2862 
Q 544 3141 544 3541 
Q 544 4100 942 4425 
Q 1341 4750 2034 4750 
Q 2731 4750 3128 4425 
Q 3525 4100 3525 3541 
Q 3525 3141 3298 2862 
Q 3072 2584 2669 2484 
Q 3125 2378 3379 2068 
Q 3634 1759 3634 1313 
Q 3634 634 3220 271 
Q 2806 -91 2034 -91 
Q 1263 -91 848 271 
Q 434 634 434 1313 
Q 434 1759 690 2068 
Q 947 2378 1403 2484 
z
M 1172 3481 
Q 1172 3119 1398 2916 
Q 1625 2713 2034 2713 
Q 2441 2713 2670 2916 
Q 2900 3119 2900 3481 
Q 2900 3844 2670 4047 
Q 2441 4250 2034 4250 
Q 1625 4250 1398 4047 
Q 1172 3844 1172 3481 
z
" transform="scale(0.015625)"/>
       </defs>
       <use xlink:href="#DejaVuSans-30"/>
       <use xlink:href="#DejaVuSans-2e" x="63.623047"/>
       <use xlink:href="#DejaVuSans-38" x="95.410156"/>
       <use xlink:href="#DejaVuSans-30" x="159.033203"/>
      </g>
     </g>
    </g>
    <g id="ytick_2">
     <g id="line2d_17">
      <path d="M 54.02 182.586667 
L 565.2 182.586667 
" clip-path="url(#p3618777855)" style="fill: none; stroke-dasharray: 2.96,1.28; stroke-dashoffset: 0; stroke: #b0b0b0; stroke-opacity: 0.3; stroke-width: 0.8"/>
     </g>
     <g id="line2d_18">
      <g>
       <use xlink:href="#m7324ce492d" x="54.02" y="182.586667" style="stroke: #000000; stroke-width: 0.8"/>
      </g>
     </g>
     <g id="text_10">
      <!-- 0.85 -->
      <g transform="translate(24.754375 186.385885) scale(0.1 -0.1)">
       <use xlink:href="#DejaVuSans-30"/>
       <use xlink:href="#DejaVuSans-2e" x="63.623047"/>
       <use xlink:href="#DejaVuSans-38" x="95.410156"/>
       <use xlink:href="#DejaVuSans-35" x="159.033203"/>
      </g>
     </g>
    </g>
    <g id="ytick_3">
     <g id="line2d_19">
      <path d="M 54.02 134.223232 
L 565.2 134.223232 
" clip-path="url(#p3618777855)" style="fill: none; stroke-dasharray: 2.96,1.28; stroke-dashoffset: 0; stroke: #b0b0b0; stroke-opacity: 0.3; stroke-width: 0.8"/>
     </g>
     <g id="line2d_20">
      <g>
       <use xlink:href="#m7324ce492d" x="54.02" y="134.223232" style="stroke: #000000; stroke-width: 0.8"/>
      </g>
     </g>
     <g id="text_11">
      <!-- 0.90 -->
      <g transform="translate(24.754375 138.022451) scale(0.1 -0.1)">
       <defs>
        <path id="DejaVuSans-39" d="M 703 97 
L 703 672 
Q 941 559 1184 500 
Q 1428 441 1663 441 
Q 2288 441 2617 861 
Q 2947 1281 2994 2138 
Q 2813 1869 2534 1725 
Q 2256 1581 1919 1581 
Q 1219 1581 811 2004 
Q 403 2428 403 3163 
Q 403 3881 828 4315 
Q 1253 4750 1959 4750 
Q 2769 4750 3195 4129 
Q 3622 3509 3622 2328 
Q 3622 1225 3098 567 
Q 2575 -91 1691 -91 
Q 1453 -91 1209 -44 
Q 966 3 703 97 
z
M 1959 2075 
Q 2384 2075 2632 2365 
Q 2881 2656 2881 3163 
Q 2881 3666 2632 3958 
Q 2384 4250 1959 4250 
Q 1534 4250 1286 3958 
Q 1038 3666 1038 3163 
Q 1038 2656 1286 2365 
Q 1534 2075 1959 2075 
z
" transform="scale(0.015625)"/>
       </defs>
       <use xlink:href="#DejaVuSans-30"/>
       <use xlink:href="#DejaVuSans-2e" x="63.623047"/>
       <use xlink:href="#DejaVuSans-39" x="95.410156"/>
       <use xlink:href="#DejaVuSans-30" x="159.033203"/>
      </g>
     </g>
    </g>
    <g id="ytick_4">
     <g id="line2d_21">
      <path d="M 54.02 85.859798 
L 565.2 85.859798 
" clip-path="url(#p3618777855)" style="fill: none; stroke-dasharray: 2.96,1.28; stroke-dashoffset: 0; stroke: #b0b0b0; stroke-opacity: 0.3; stroke-width: 0.8"/>
     </g>
     <g id="line2d_22">
      <g>
       <use xlink:href="#m7324ce492d" x="54.02" y="85.859798" style="stroke: #000000; stroke-width: 0.8"/>
      </g>
     </g>
     <g id="text_12">
      <!-- 0.95 -->
      <g transform="translate(24.754375 89.659017) scale(0.1 -0.1)">
       <use xlink:href="#DejaVuSans-30"/>
       <use xlink:href="#DejaVuSans-2e" x="63.623047"/>
       <use xlink:href="#DejaVuSans-39" x="95.410156"/>
       <use xlink:href="#DejaVuSans-35" x="159.033203"/>
      </g>
     </g>
    </g>
    <g id="ytick_5">
     <g id="line2d_23">
      <path d="M 54.02 37.496364 
L 565.2 37.496364 
" clip-path="url(#p3618777855)" style="fill: none; stroke-dasharray: 2.96,1.28; stroke-dashoffset: 0; stroke: #b0b0b0; stroke-opacity: 0.3; stroke-width: 0.8"/>
     </g>
     <g id="line2d_24">
      <g>
       <use xlink:href="#m7324ce492d" x="54.02" y="37.496364" style="stroke: #000000; stroke-width: 0.8"/>
      </g>
     </g>
     <g id="text_13">
      <!-- 1.00 -->
      <g transform="translate(24.754375 41.295582) scale(0.1 -0.1)">
       <use xlink:href="#DejaVuSans-31"/>
       <use xlink:href="#DejaVuSans-2e" x="63.623047"/>
       <use xlink:href="#DejaVuSans-30" x="95.410156"/>
       <use xlink:href="#DejaVuSans-30" x="159.033203"/>
      </g>
     </g>
    </g>
    <g id="text_14">
     <!-- cumulative timely transfer rate -->
     <g transform="translate(18.674688 221.768594) rotate(-90) scale(0.1 -0.1)">
      <defs>
       <path id="DejaVuSans-63" d="M 3122 3366 
L 3122 2828 
Q 2878 2963 2633 3030 
Q 2388 3097 2138 3097 
Q 1578 3097 1268 2742 
Q 959 2388 959 1747 
Q 959 1106 1268 751 
Q 1578 397 2138 397 
Q 2388 397 2633 464 
Q 2878 531 3122 666 
L 3122 134 
Q 2881 22 2623 -34 
Q 2366 -91 2075 -91 
Q 1284 -91 818 406 
Q 353 903 353 1747 
Q 353 2603 823 3093 
Q 1294 3584 2113 3584 
Q 2378 3584 2631 3529 
Q 2884 3475 3122 3366 
z
" transform="scale(0.015625)"/>
       <path id="DejaVuSans-6d" d="M 3328 2828 
Q 3544 3216 3844 3400 
Q 4144 3584 4550 3584 
Q 5097 3584 5394 3201 
Q 5691 2819 5691 2113 
L 5691 0 
L 5113 0 
L 5113 2094 
Q 5113 2597 4934 2840 
Q 4756 3084 4391 3084 
Q 3944 3084 3684 2787 
Q 3425 2491 3425 1978 
L 3425 0 
L 2847 0 
L 2847 2094 
Q 2847 2600 2669 2842 
Q 2491 3084 2119 3084 
Q 1678 3084 1418 2786 
Q 1159 2488 1159 1978 
L 1159 0 
L 581 0 
L 581 3500 
L 1159 3500 
L 1159 2956 
Q 1356 3278 1631 3431 
Q 1906 3584 2284 3584 
Q 2666 3584 2933 3390 
Q 3200 3197 3328 2828 
z
" transform="scale(0.015625)"/>
       <path id="DejaVuSans-6c" d="M 603 4863 
L 1178 4863 
L 1178 0 
L 603 0 
L 603 4863 
z
" transform="scale(0.015625)"/>
       <path id="DejaVuSans-61" d="M 2194 1759 
Q 1497 1759 1228 1600 
Q 959 1441 959 1056 
Q 959 750 1161 570 
Q 1363 391 1709 391 
Q 2188 391 2477 730 
Q 2766 1069 2766 1631 
L 2766 1759 
L 2194 1759 
z
M 3341 1997 
L 3341 0 
L 2766 0 
L 2766 531 
Q 2569 213 2275 61 
Q 1981 -91 1556 -91 
Q 1019 -91 701 211 
Q 384 513 384 1019 
Q 384 1609 779 1909 
Q 1175 2209 1959 2209 
L 2766 2209 
L 2766 2266 
Q 2766 2663 2505 2880 
Q 2244 3097 1772 3097 
Q 1472 3097 1187 3025 
Q 903 2953 641 2809 
L 641 3341 
Q 956 3463 1253 3523 
Q 1550 3584 1831 3584 
Q 2591 3584 2966 3190 
Q 3341 2797 3341 1997 
z
" transform="scale(0.015625)"/>
       <path id="DejaVuSans-74" d="M 1172 4494 
L 1172 3500 
L 2356 3500 
L 2356 3053 
L 1172 3053 
L 1172 1153 
Q 1172 725 1289 603 
Q 1406 481 1766 481 
L 2356 481 
L 2356 0 
L 1766 0 
Q 1100 0 847 248 
Q 594 497 594 1153 
L 594 3053 
L 172 3053 
L 172 3500 
L 594 3500 
L 594 4494 
L 1172 4494 
z
" transform="scale(0.015625)"/>
       <path id="DejaVuSans-69" d="M 603 3500 
L 1178 3500 
L 1178 0 
L 603 0 
L 603 3500 
z
M 603 4863 
L 1178 4863 
L 1178 4134 
L 603 4134 
L 603 4863 
z
" transform="scale(0.015625)"/>
       <path id="DejaVuSans-76" d="M 191 3500 
L 800 3500 
L 1894 563 
L 2988 3500 
L 3597 3500 
L 2284 0 
L 1503 0 
L 191 3500 
z
" transform="scale(0.015625)"/>
       <path id="DejaVuSans-65" d="M 3597 1894 
L 3597 1613 
L 953 1613 
Q 991 1019 1311 708 
Q 1631 397 2203 397 
Q 2534 397 2845 478 
Q 3156 559 3463 722 
L 3463 178 
Q 3153 47 2828 -22 
Q 2503 -91 2169 -91 
Q 1331 -91 842 396 
Q 353 884 353 1716 
Q 353 2575 817 3079 
Q 1281 3584 2069 3584 
Q 2775 3584 3186 3129 
Q 3597 2675 3597 1894 
z
M 3022 2063 
Q 3016 2534 2758 2815 
Q 2500 3097 2075 3097 
Q 1594 3097 1305 2825 
Q 1016 2553 972 2059 
L 3022 2063 
z
" transform="scale(0.015625)"/>
       <path id="DejaVuSans-20" transform="scale(0.015625)"/>
       <path id="DejaVuSans-79" d="M 2059 -325 
Q 1816 -950 1584 -1140 
Q 1353 -1331 966 -1331 
L 506 -1331 
L 506 -850 
L 844 -850 
Q 1081 -850 1212 -737 
Q 1344 -625 1503 -206 
L 1606 56 
L 191 3500 
L 800 3500 
L 1894 763 
L 2988 3500 
L 3597 3500 
L 2059 -325 
z
" transform="scale(0.015625)"/>
       <path id="DejaVuSans-73" d="M 2834 3397 
L 2834 2853 
Q 2591 2978 2328 3040 
Q 2066 3103 1784 3103 
Q 1356 3103 1142 2972 
Q 928 2841 928 2578 
Q 928 2378 1081 2264 
Q 1234 2150 1697 2047 
L 1894 2003 
Q 2506 1872 2764 1633 
Q 3022 1394 3022 966 
Q 3022 478 2636 193 
Q 2250 -91 1575 -91 
Q 1294 -91 989 -36 
Q 684 19 347 128 
L 347 722 
Q 666 556 975 473 
Q 1284 391 1588 391 
Q 1994 391 2212 530 
Q 2431 669 2431 922 
Q 2431 1156 2273 1281 
Q 2116 1406 1581 1522 
L 1381 1569 
Q 847 1681 609 1914 
Q 372 2147 372 2553 
Q 372 3047 722 3315 
Q 1072 3584 1716 3584 
Q 2034 3584 2315 3537 
Q 2597 3491 2834 3397 
z
" transform="scale(0.015625)"/>
       <path id="DejaVuSans-66" d="M 2375 4863 
L 2375 4384 
L 1825 4384 
Q 1516 4384 1395 4259 
Q 1275 4134 1275 3809 
L 1275 3500 
L 2222 3500 
L 2222 3053 
L 1275 3053 
L 1275 0 
L 697 0 
L 697 3053 
L 147 3053 
L 147 3500 
L 697 3500 
L 697 3744 
Q 697 4328 969 4595 
Q 1241 4863 1831 4863 
L 2375 4863 
z
" transform="scale(0.015625)"/>
      </defs>
      <use xlink:href="#DejaVuSans-63"/>
      <use xlink:href="#DejaVuSans-75" x="54.980469"/>
      <use xlink:href="#DejaVuSans-6d" x="118.359375"/>
      <use xlink:href="#DejaVuSans-75" x="215.771484"/>
      <use xlink:href="#DejaVuSans-6c" x="279.150391"/>
      <use xlink:href="#DejaVuSans-61" x="306.933594"/>
      <use xlink:href="#DejaVuSans-74" x="368.212891"/>
      <use xlink:href="#DejaVuSans-69" x="407.421875"/>
      <use xlink:href="#DejaVuSans-76" x="435.205078"/>
      <use xlink:href="#DejaVuSans-65" x="494.384766"/>
      <use xlink:href="#DejaVuSans-20" x="555.908203"/>
      <use xlink:href="#DejaVuSans-74" x="587.695312"/>
      <use xlink:href="#DejaVuSans-69" x="626.904297"/>
      <use xlink:href="#DejaVuSans-6d" x="654.6875"/>
      <use xlink:href="#DejaVuSans-65" x="752.099609"/>
      <use xlink:href="#DejaVuSans-6c" x="813.623047"/>
      <use xlink:href="#DejaVuSans-79" x="841.40625"/>
      <use xlink:href="#DejaVuSans-20" x="900.585938"/>
      <use xlink:href="#DejaVuSans-74" x="932.373047"/>
      <use xlink:href="#DejaVuSans-72" x="971.582031"/>
      <use xlink:href="#DejaVuSans-61" x="1012.695312"/>
      <use xlink:href="#DejaVuSans-6e" x="1073.974609"/>
      <use xlink:href="#DejaVuSans-73" x="1137.353516"/>
      <use xlink:href="#DejaVuSans-66" x="1189.453125"/>
      <use xlink:href="#DejaVuSans-65" x="1224.658203"/>
      <use xlink:href="#DejaVuSans-72" x="1286.181641"/>
      <use xlink:href="#DejaVuSans-20" x="1327.294922"/>
      <use xlink:href="#DejaVuSans-72" x="1359.082031"/>
      <use xlink:href="#DejaVuSans-61" x="1400.195312"/>
      <use xlink:href="#DejaVuSans-74" x="1461.474609"/>
      <use xlink:href="#DejaVuSans-65" x="1500.683594"/>
     </g>
    </g>
   </g>
   <g id="line2d_25">
    <path d="M 77.255455 37.496364 
L 77.331103 249.823636 
L 77.406752 171.425874 
L 77.4824 141.132294 
L 77.633697 204.768392 
L 77.709346 180.106491 
L 77.784994 189.650989 
L 78.01194 154.235688 
L 78.163237 161.859481 
L 78.617129 120.602981 
L 78.768426 128.049177 
L 79.146668 109.509599 
L 79.222317 112.624029 
L 79.297966 110.041515 
L 79.373614 113.018844 
L 80.054451 94.588273 
L 80.65964 84.025477 
L 81.264828 76.336496 
L 81.870017 71.095543 
L 81.945665 76.187111 
L 82.021314 75.514012 
L 82.399556 73.040574 
L 82.475205 77.608217 
L 82.550854 77.184997 
L 83.080394 74.45532 
L 83.156042 78.623504 
L 83.231691 78.228894 
L 83.382988 77.357723 
L 83.458636 80.784623 
L 83.534285 80.169982 
L 83.912528 78.16509 
L 83.988176 81.753469 
L 84.063825 81.237652 
L 84.139473 82.495966 
L 84.215122 81.922984 
L 84.442068 79.916745 
L 85.122905 74.292649 
L 85.198553 73.759963 
L 85.274202 78.123062 
L 85.34985 77.66823 
L 85.652444 75.787551 
L 86.106336 94.031071 
L 86.181984 93.707913 
L 86.257633 93.963611 
L 86.40893 93.416585 
L 86.635876 100.309848 
L 86.787173 99.403885 
L 86.862821 102.86403 
L 86.93847 102.534868 
L 87.014119 103.36873 
L 87.694956 97.080115 
L 88.300144 92.301138 
L 88.375793 94.974129 
L 88.451441 94.326298 
L 88.829684 91.974715 
L 89.888764 86.662511 
L 89.964412 86.946505 
L 90.720898 84.102665 
L 90.796546 84.452963 
L 92.460815 76.716269 
L 93.066003 73.980679 
L 93.595543 71.983023 
L 93.671192 72.541346 
L 93.74684 72.321276 
L 93.822489 72.08956 
L 93.898137 72.541365 
L 94.125083 71.95744 
L 94.578974 74.703873 
L 94.730271 74.370974 
L 95.108514 82.619264 
L 95.259811 82.240271 
L 95.486757 81.840027 
L 95.638054 82.593526 
L 95.713703 84.110293 
L 95.789351 83.775472 
L 95.940648 83.185858 
L 96.016297 83.331368 
L 96.091945 83.480328 
L 97.453619 78.196756 
L 97.529268 79.235913 
L 97.604917 78.985095 
L 98.890942 75.17152 
L 99.042239 75.625959 
L 101.009102 70.485579 
L 101.160399 70.18061 
L 101.311696 71.355343 
L 101.387345 71.172149 
L 101.462993 70.988315 
L 101.765587 72.472137 
L 102.14383 71.507521 
L 102.219479 71.760652 
L 102.295127 71.579172 
L 102.370776 71.809216 
L 102.749019 70.912228 
L 102.900316 71.482404 
L 103.051613 71.15168 
L 103.127261 71.317418 
L 103.20291 71.167321 
L 103.278558 71.331414 
L 103.354207 71.159545 
L 103.429856 71.388095 
L 103.505504 71.229119 
L 103.581153 71.389699 
L 103.73245 71.033524 
L 103.808098 71.254775 
L 103.883747 71.091432 
L 103.959395 71.305795 
L 104.488935 70.124444 
L 104.564584 70.383744 
L 104.715881 70.107067 
L 104.867178 71.255819 
L 104.942827 71.140492 
L 105.169772 70.697128 
L 105.245421 70.938064 
L 105.396718 72.698524 
L 105.472367 72.566856 
L 105.548015 72.436169 
L 105.623664 73.267535 
L 105.699312 73.13531 
L 106.304501 72.077646 
L 106.380149 71.956042 
L 106.455798 72.584976 
L 106.531446 72.440562 
L 106.682744 72.125821 
L 106.758392 72.616228 
L 106.834041 72.474242 
L 106.909689 72.341194 
L 107.060986 73.589681 
L 107.136635 73.475803 
L 107.212283 73.360663 
L 107.287932 74.95239 
L 107.363581 74.823225 
L 107.666175 74.540028 
L 107.817472 77.416378 
L 107.89312 77.275476 
L 107.968769 77.144017 
L 108.044418 77.409681 
L 108.120066 77.255543 
L 108.347012 78.31493 
L 108.42266 78.172594 
L 109.027849 77.058657 
L 109.103497 77.466144 
L 109.179146 77.31165 
L 109.708686 76.272229 
L 109.784334 76.64693 
L 109.859983 76.500647 
L 110.086929 76.151758 
L 110.162577 76.66173 
L 110.238226 76.566251 
L 110.389523 76.328654 
L 110.465171 77.28602 
L 110.54082 77.188317 
L 110.616469 77.057548 
L 110.692117 77.51752 
L 110.767766 77.39959 
L 110.919063 77.184258 
L 110.994711 77.814175 
L 111.07036 77.685602 
L 111.221657 77.436404 
L 111.297306 77.911736 
L 111.372954 77.793708 
L 112.205088 76.648532 
L 112.280737 77.211409 
L 112.356385 77.122091 
L 112.810277 76.443686 
L 113.037222 77.560501 
L 113.793708 76.474703 
L 114.398896 75.669694 
L 115.004085 74.939273 
L 115.231031 75.929861 
L 115.609273 75.534592 
L 115.987516 76.968255 
L 117.87873 74.493781 
L 118.862161 73.441927 
L 118.93781 73.880179 
L 119.013458 73.799249 
L 119.391701 73.278741 
L 119.46735 73.603518 
L 119.542998 73.497258 
L 119.618647 73.417663 
L 119.694296 74.105803 
L 119.769944 74.027801 
L 119.921241 73.869055 
L 120.223835 74.898382 
L 120.299484 74.822418 
L 120.375133 75.247101 
L 120.450781 75.205053 
L 120.52643 75.152941 
L 120.602078 75.505611 
L 120.677727 76.507502 
L 120.753375 76.426582 
L 120.980321 76.144704 
L 121.05597 76.684412 
L 121.131618 76.628669 
L 121.207267 76.518947 
L 121.434212 77.850698 
L 121.509861 77.783414 
L 122.190698 77.051487 
L 122.417644 77.868673 
L 122.568941 77.730016 
L 122.644589 78.769686 
L 122.720238 78.68475 
L 123.098481 78.275487 
L 123.325426 79.218844 
L 123.401075 79.159157 
L 123.703669 80.370056 
L 123.779318 80.322501 
L 124.15756 79.983452 
L 124.233209 80.530685 
L 124.308858 80.479532 
L 124.460155 80.305997 
L 124.535803 80.541432 
L 124.611452 80.437364 
L 125.140992 79.832201 
L 125.21664 79.990289 
L 125.292289 79.902056 
L 125.594883 79.532975 
L 125.670532 79.996833 
L 125.74618 79.922168 
L 129.074717 76.531075 
L 129.150365 76.693791 
L 129.226014 76.620147 
L 129.301662 76.728168 
L 129.377311 76.653688 
L 130.587688 75.458952 
L 130.663336 75.69449 
L 130.738985 75.634286 
L 130.965931 75.553733 
L 131.268525 75.645857 
L 131.949362 75.189761 
L 132.02501 75.643748 
L 132.100659 75.595804 
L 133.159739 74.717277 
L 133.689279 74.300628 
L 133.764927 74.475339 
L 133.840576 74.410906 
L 134.294467 74.04123 
L 134.67271 75.280297 
L 134.748359 75.209549 
L 134.975304 76.693917 
L 135.050953 76.622812 
L 135.126601 76.552882 
L 135.580493 77.638634 
L 136.336978 76.978075 
L 136.412627 77.110406 
L 136.488275 77.054292 
L 138.001247 76.098656 
L 138.152544 76.591976 
L 138.228192 76.527216 
L 138.379489 76.418899 
L 138.530786 76.539069 
L 138.606435 76.484242 
L 138.984678 77.770263 
L 139.816812 77.066258 
L 139.89246 77.395448 
L 139.968109 77.335026 
L 140.195055 77.157379 
L 140.270703 77.348843 
L 140.346352 77.286406 
L 141.405432 76.601448 
L 141.556729 76.620623 
L 141.783674 76.447985 
L 141.934972 76.487101 
L 142.313214 76.20291 
L 142.464511 76.216259 
L 142.54016 76.173733 
L 142.615809 76.514026 
L 142.691457 76.472069 
L 143.0697 76.234705 
L 143.145348 76.373315 
L 143.220997 76.322497 
L 144.204428 75.653372 
L 144.280077 75.868678 
L 144.355725 75.827069 
L 145.263508 75.215057 
L 145.717399 74.917402 
L 146.625182 74.398899 
L 146.700831 74.541008 
L 146.776479 74.498915 
L 146.852128 74.459715 
L 147.079073 74.584048 
L 147.532965 74.314196 
L 147.684262 74.364985 
L 148.28945 74.127609 
L 148.365099 74.338402 
L 148.440747 74.303065 
L 149.121585 73.902839 
L 149.197233 74.140806 
L 149.272882 74.100099 
L 150.256313 73.52792 
L 150.558907 73.714991 
L 150.785853 73.577826 
L 150.861501 73.846028 
L 150.93715 73.814423 
L 151.693635 73.419848 
L 151.769284 73.677808 
L 151.844933 73.639162 
L 151.920581 73.599337 
L 151.99623 73.835067 
L 152.071878 73.788774 
L 152.223175 73.711669 
L 152.450121 74.076219 
L 154.416984 73.018773 
L 154.568281 73.056756 
L 155.854306 72.477512 
L 156.535143 72.238869 
L 156.610792 72.556299 
L 156.68644 72.520828 
L 156.913386 72.408597 
L 156.989035 72.586057 
L 157.064683 72.55018 
L 158.350709 71.962295 
L 158.426357 72.146313 
L 158.502006 72.113201 
L 158.955897 71.89787 
L 159.031546 72.076632 
L 159.107194 72.042765 
L 159.182843 72.00243 
L 159.258491 72.172379 
L 159.33414 72.137428 
L 159.788031 71.927574 
L 159.86368 72.097304 
L 159.939328 72.058938 
L 160.090625 72.073973 
L 160.166274 72.034146 
L 160.39322 72.187498 
L 160.544517 72.105321 
L 160.620165 72.350467 
L 160.695814 72.311701 
L 160.92276 72.302845 
L 161.149705 72.66545 
L 163.267865 71.90101 
L 163.343513 72.262827 
L 163.419162 72.233211 
L 164.326945 71.858332 
L 164.478242 71.943823 
L 167.050293 70.86378 
L 167.20159 71.059979 
L 168.865858 70.569536 
L 169.017155 70.625882 
L 169.546695 70.42483 
L 169.697992 70.515522 
L 170.378829 70.282881 
L 170.530126 70.367422 
L 170.908369 70.236762 
L 170.984018 70.629237 
L 171.059666 70.598969 
L 171.437909 70.452931 
L 171.589206 70.583305 
L 172.496989 70.242034 
L 172.648286 70.381686 
L 174.236906 69.894016 
L 174.388203 69.939042 
L 174.917743 69.859689 
L 180.213142 69.880757 
L 347.547752 69.989509 
L 347.925995 70.013954 
L 374.327341 70.110446 
L 374.705584 70.134885 
L 412.075972 70.243987 
L 412.832457 70.256202 
L 446.647363 70.340844 
L 446.647363 70.340844 
" clip-path="url(#p3618777855)" style="fill: none; stroke: #1f77b4; stroke-width: 1.8; stroke-linecap: square"/>
   </g>
   <g id="line2d_26">
    <path d="M 77.255455 125.429881 
L 77.406752 66.065481 
L 77.4824 58.202421 
L 77.558049 86.091202 
L 77.633697 77.719418 
L 77.709346 93.331908 
L 77.784994 88.48417 
L 77.860643 82.485605 
L 77.936292 90.642995 
L 78.01194 85.592597 
L 78.087589 91.233513 
L 78.54148 73.32113 
L 78.692777 79.993936 
L 79.07102 71.595707 
L 79.222317 69.409039 
L 79.297966 71.193084 
L 79.524911 67.881767 
L 79.60056 71.369586 
L 79.676208 70.235808 
L 79.827506 73.678484 
L 79.978803 71.773519 
L 80.054451 73.745092 
L 80.508343 68.920881 
L 80.583991 68.297657 
L 80.810937 73.554607 
L 80.886585 72.754947 
L 81.037882 76.19655 
L 81.18918 74.768935 
L 81.264828 75.358596 
L 81.340477 74.631792 
L 81.491774 77.019622 
L 81.567422 76.43566 
L 81.643071 78.561575 
L 81.718719 77.857503 
L 81.945665 75.966195 
L 82.021314 78.119028 
L 82.096962 77.438762 
L 82.399556 75.119111 
L 82.702151 79.051632 
L 82.777799 78.43981 
L 82.853448 80.252096 
L 82.929096 79.647259 
L 83.004745 80.997043 
L 83.080394 80.540743 
L 83.458636 77.949722 
L 83.534285 79.128546 
L 83.609933 78.695893 
L 83.685582 79.15042 
L 83.912528 77.686836 
L 83.988176 78.676582 
L 84.063825 78.266521 
L 84.669013 75.040143 
L 84.744662 74.815133 
L 84.82031 75.674873 
L 84.971607 74.870239 
L 85.047256 76.145328 
L 85.122905 75.75512 
L 85.576796 73.687428 
L 85.652444 74.475093 
L 85.728093 74.115918 
L 85.955039 73.105804 
L 86.030687 73.408786 
L 86.106336 73.079453 
L 86.181984 74.496817 
L 86.257633 74.20904 
L 86.40893 73.64671 
L 86.484579 74.024785 
L 86.862821 72.579135 
L 87.089767 74.140895 
L 87.165416 73.833828 
L 87.316713 75.724071 
L 87.46801 75.120219 
L 87.543658 77.189517 
L 87.619307 76.925205 
L 87.846253 76.078094 
L 87.921901 76.792182 
L 87.99755 76.553323 
L 88.375793 75.305706 
L 88.451441 75.912709 
L 88.52709 75.695973 
L 88.602738 75.897114 
L 88.678387 75.645738 
L 88.754035 76.47315 
L 88.829684 76.249616 
L 88.980981 75.77958 
L 89.05663 76.358811 
L 89.132278 76.092714 
L 89.207927 76.371655 
L 89.661818 74.894897 
L 89.737467 75.027199 
L 89.813115 74.781899 
L 89.888764 76.564219 
L 89.964412 76.349057 
L 90.040061 77.019929 
L 90.115709 76.790558 
L 90.493952 75.744525 
L 90.569601 76.344678 
L 90.645249 76.127678 
L 91.023492 75.126622 
L 91.099141 75.663378 
L 91.174789 75.442508 
L 91.477383 74.645089 
L 91.628681 75.566889 
L 92.385166 73.689542 
L 92.612112 74.821472 
L 92.763409 74.467626 
L 93.066003 76.540284 
L 93.141652 76.339976 
L 93.2173 76.709192 
L 93.519894 76.037631 
L 93.595543 76.231507 
L 93.898137 75.469004 
L 93.973786 75.987886 
L 94.049434 75.835534 
L 94.27638 75.421148 
L 94.352029 76.146762 
L 94.427677 75.969379 
L 94.503326 76.044069 
L 94.654623 75.703399 
L 94.80592 76.864953 
L 95.33546 75.755317 
L 95.411108 76.283078 
L 95.486757 76.121409 
L 95.789351 75.455325 
L 95.940648 76.239545 
L 96.39454 75.354052 
L 96.470188 75.894286 
L 96.545837 75.75232 
L 96.621485 76.15712 
L 96.697134 76.017153 
L 97.226674 75.040314 
L 97.302322 75.143867 
L 97.453619 74.860026 
L 97.529268 75.197294 
L 97.604917 75.044158 
L 97.680565 74.912902 
L 97.756214 75.295529 
L 97.831862 75.140318 
L 97.907511 75.416393 
L 97.983159 75.287489 
L 98.361402 74.632726 
L 98.437051 74.915214 
L 98.512699 74.797721 
L 99.117888 73.827269 
L 99.193536 73.686971 
L 99.269185 74.250589 
L 99.344833 74.136266 
L 99.647428 73.65252 
L 99.874373 74.208214 
L 100.02567 74.665188 
L 100.101319 74.525956 
L 100.176968 74.848622 
L 100.252616 74.714218 
L 101.311696 73.241361 
L 101.387345 73.335087 
L 102.295127 72.032595 
L 102.370776 72.353219 
L 102.446424 72.236219 
L 102.749019 71.848029 
L 102.824667 72.34008 
L 102.900316 72.23028 
L 102.975964 72.124964 
L 103.051613 72.859329 
L 103.127261 72.746373 
L 103.278558 72.521349 
L 103.354207 72.690004 
L 103.429856 72.591585 
L 103.73245 72.199661 
L 103.808098 72.522997 
L 103.883747 72.413103 
L 104.413287 71.746619 
L 104.488935 72.009519 
L 104.564584 71.912228 
L 104.867178 71.540064 
L 104.942827 72.141269 
L 105.018475 72.062717 
L 105.396718 71.59537 
L 105.472367 72.009479 
L 105.548015 71.913253 
L 106.758392 70.501171 
L 106.985338 70.886272 
L 107.212283 70.6164 
L 107.287932 70.981763 
L 107.363581 70.896192 
L 107.666175 70.53887 
L 107.741823 70.787876 
L 107.817472 70.707178 
L 108.120066 70.384263 
L 108.195715 70.501744 
L 108.271363 70.425904 
L 108.42266 70.253576 
L 108.498309 70.658369 
L 108.573957 70.573046 
L 108.649606 70.696154 
L 108.725255 70.621017 
L 109.027849 70.280301 
L 109.103497 70.508267 
L 109.179146 70.433714 
L 109.48174 70.117974 
L 109.557389 70.208641 
L 109.633037 70.629664 
L 109.708686 70.546547 
L 109.859983 70.401382 
L 109.935632 70.713845 
L 110.01128 70.630332 
L 110.162577 70.486128 
L 110.313874 70.962836 
L 110.389523 70.878716 
L 112.583331 68.92978 
L 112.65898 69.32063 
L 112.734628 69.254382 
L 113.264168 68.804762 
L 113.415465 68.812347 
L 115.079733 67.432843 
L 115.155382 67.67654 
L 115.231031 67.616364 
L 115.684922 67.260287 
L 115.76057 67.548159 
L 115.836219 67.481927 
L 115.911868 67.422495 
L 115.987516 67.800788 
L 116.063165 67.744613 
L 116.138813 67.693 
L 116.214462 68.023621 
L 116.29011 67.958603 
L 117.046596 67.366728 
L 117.197893 67.633782 
L 117.34919 67.511708 
L 117.576136 67.95359 
L 117.87873 67.715184 
L 117.954379 68.141052 
L 118.030027 68.080099 
L 118.181324 67.965856 
L 118.256973 68.300679 
L 118.332621 68.240577 
L 118.93781 67.800568 
L 119.013458 68.068963 
L 119.089107 68.015147 
L 119.921241 67.400133 
L 120.223835 68.066851 
L 120.299484 68.009307 
L 121.282915 67.329621 
L 121.358564 67.523711 
L 121.434212 67.471171 
L 121.736807 67.262838 
L 121.812455 67.390636 
L 121.888104 67.337632 
L 121.963752 67.383653 
L 122.039401 67.593456 
L 122.115049 67.537883 
L 122.568941 67.258783 
L 122.644589 67.384883 
L 122.720238 67.334681 
L 122.795886 67.283429 
L 122.871535 67.415555 
L 122.947183 67.361896 
L 123.249778 67.175595 
L 123.325426 67.318347 
L 123.401075 67.265384 
L 124.762749 66.389002 
L 124.914046 66.405848 
L 125.21664 66.216344 
L 125.292289 66.38068 
L 125.367937 66.336 
L 125.670532 66.142141 
L 125.821829 66.218316 
L 126.048774 66.083679 
L 126.200071 66.522507 
L 126.27572 66.486718 
L 126.502666 66.347707 
L 126.653963 66.41814 
L 126.729611 66.373039 
L 126.80526 66.511702 
L 126.880908 66.464423 
L 127.86434 65.915646 
L 128.091285 66.245684 
L 128.620825 65.949048 
L 128.696474 66.204613 
L 128.772122 66.157987 
L 129.226014 65.91185 
L 129.452959 66.3356 
L 129.528608 66.295591 
L 129.679905 66.218453 
L 129.755554 66.396903 
L 129.831202 66.352951 
L 129.982499 66.268996 
L 130.058148 66.412757 
L 130.133796 66.369041 
L 130.512039 66.174943 
L 130.587688 66.369049 
L 130.663336 66.328832 
L 130.890282 66.212336 
L 131.041579 66.278946 
L 131.268525 66.148654 
L 131.495471 66.65283 
L 131.571119 66.60843 
L 131.722416 66.527958 
L 131.798065 66.750102 
L 131.873713 66.712269 
L 132.251956 66.616885 
L 132.327605 66.753145 
L 132.403253 66.709778 
L 132.478902 66.666048 
L 132.55455 66.853321 
L 132.630199 66.810486 
L 133.235387 66.491478 
L 133.311036 66.642932 
L 133.386684 66.60243 
L 133.764927 66.487072 
L 133.840576 66.699744 
L 133.916224 66.658092 
L 134.14317 66.542855 
L 134.218819 66.706689 
L 134.294467 66.665784 
L 134.597061 66.520223 
L 134.748359 66.551779 
L 135.807438 66.020356 
L 135.958735 66.079104 
L 136.336978 65.980779 
L 136.412627 66.168776 
L 136.488275 66.137298 
L 136.942167 65.928612 
L 137.017815 66.254667 
L 137.093464 66.218936 
L 137.849949 65.984322 
L 138.152544 66.182025 
L 138.303841 66.112035 
L 138.455138 66.241106 
L 139.362921 65.870237 
L 139.438569 66.155854 
L 139.514218 66.126647 
L 139.89246 65.969612 
L 140.043758 66.119312 
L 140.346352 65.992192 
L 140.422 66.275268 
L 140.497649 66.241687 
L 140.800243 66.209085 
L 140.95154 66.363271 
L 141.102837 66.305726 
L 141.329783 66.538886 
L 142.237566 66.24638 
L 142.388863 66.362131 
L 142.54016 66.31343 
L 142.691457 66.520552 
L 142.842754 66.569066 
L 143.0697 66.800812 
L 143.750537 66.695991 
L 143.901834 66.824226 
L 146.473885 66.496173 
L 146.625182 66.554141 
L 147.230371 66.470377 
L 147.381668 66.650504 
L 148.667693 66.582122 
L 148.894639 66.899471 
L 149.197233 66.860521 
L 149.34853 66.944138 
L 149.651124 66.897518 
L 149.802422 67.008331 
L 155.62736 66.904296 
L 155.778658 67.030483 
L 156.610792 67.10904 
L 158.577654 67.161874 
L 158.8046 67.22339 
L 389.230107 67.123025 
L 389.230107 67.123025 
" clip-path="url(#p3618777855)" style="fill: none; stroke: #ff7f0e; stroke-width: 1.8; stroke-linecap: square"/>
   </g>
   <g id="line2d_27">
    <path d="M 77.255455 37.496364 
L 77.331103 52.492777 
L 77.406752 47.026104 
L 77.4824 44.480253 
L 77.558049 51.762863 
L 77.633697 70.932812 
L 77.709346 66.125881 
L 77.860643 59.163182 
L 77.936292 72.091095 
L 78.01194 68.982975 
L 78.087589 67.276804 
L 78.163237 78.165615 
L 78.238886 74.932495 
L 78.390183 70.27012 
L 78.465831 72.822698 
L 78.692777 67.500267 
L 78.768426 76.783187 
L 78.844074 74.600586 
L 79.146668 69.314413 
L 79.449263 65.546688 
L 79.524911 67.21691 
L 79.676208 65.289021 
L 79.751857 72.216735 
L 79.827506 71.400627 
L 79.903154 72.903222 
L 80.1301 69.916787 
L 80.205748 73.807845 
L 80.281397 72.933632 
L 80.432694 71.193514 
L 80.508343 72.652495 
L 80.65964 71.079981 
L 80.735288 76.542072 
L 80.810937 75.723749 
L 80.962234 77.695263 
L 81.416125 73.166241 
L 81.491774 73.997069 
L 81.643071 72.78097 
L 81.718719 74.040709 
L 81.794368 73.44754 
L 82.096962 71.367918 
L 82.172611 72.447735 
L 82.248259 71.982318 
L 82.323908 71.464335 
L 82.399556 72.372871 
L 82.550854 71.459725 
L 82.626502 72.581661 
L 82.702151 72.56177 
L 82.929096 71.040076 
L 83.004745 71.622513 
L 83.307339 69.778508 
L 83.458636 72.554428 
L 83.534285 72.260427 
L 83.609933 74.385112 
L 83.685582 73.960538 
L 83.761231 73.509992 
L 83.836879 74.934963 
L 83.912528 74.555273 
L 83.988176 75.096102 
L 84.215122 74.053146 
L 84.29077 75.497783 
L 84.366419 75.290597 
L 84.971607 72.482389 
L 85.198553 71.426387 
L 85.34985 70.721676 
L 85.425499 72.201163 
L 85.501147 71.870166 
L 85.803742 70.648718 
L 85.955039 73.649228 
L 86.030687 73.343111 
L 86.106336 73.024841 
L 86.257633 74.854702 
L 86.333281 74.562182 
L 86.40893 74.222329 
L 86.560227 75.588363 
L 86.635876 75.752433 
L 86.787173 78.334661 
L 87.165416 76.987351 
L 87.46801 75.883257 
L 87.543658 77.799226 
L 87.619307 77.458732 
L 87.770604 76.910523 
L 87.846253 77.161689 
L 88.148847 76.342877 
L 88.678387 74.625683 
L 88.754035 76.140161 
L 88.829684 75.882177 
L 88.905332 75.634641 
L 88.980981 75.733925 
L 89.207927 75.161775 
L 89.283575 74.915552 
L 89.359224 74.996732 
L 89.434872 75.119969 
L 89.510521 74.895153 
L 89.586169 76.490965 
L 89.661818 76.244142 
L 89.888764 75.679107 
L 89.964412 76.665665 
L 90.040061 76.438032 
L 90.645249 75.263227 
L 90.720898 75.516712 
L 90.947844 77.586453 
L 91.099141 77.179955 
L 91.174789 78.152403 
L 91.250438 77.939134 
L 91.401735 78.435441 
L 92.15822 76.819642 
L 92.233869 76.850206 
L 92.839057 75.314287 
L 92.914706 76.152454 
L 92.990355 75.998583 
L 93.066003 75.79096 
L 93.141652 76.273868 
L 93.2173 76.066824 
L 93.292949 75.867138 
L 93.519894 76.789651 
L 93.595543 76.613378 
L 93.74684 76.214903 
L 93.822489 76.277622 
L 93.973786 77.671858 
L 94.049434 77.511847 
L 94.503326 76.516724 
L 94.578974 77.057948 
L 94.654623 76.859159 
L 94.730271 76.679287 
L 94.80592 77.115118 
L 94.881569 76.964624 
L 95.032866 76.579112 
L 95.184163 77.292561 
L 95.33546 76.901473 
L 95.411108 77.526424 
L 95.486757 77.35838 
L 95.638054 77.04968 
L 95.713703 77.420408 
L 95.789351 77.276421 
L 95.865 77.119688 
L 95.940648 77.666536 
L 96.016297 77.585491 
L 96.545837 76.555491 
L 96.848431 76.009768 
L 96.92408 75.85091 
L 96.999728 76.059978 
L 97.604917 74.910508 
L 97.680565 75.315929 
L 97.756214 75.176189 
L 98.134457 74.47545 
L 98.285754 75.427494 
L 98.890942 74.406892 
L 98.966591 75.333015 
L 99.042239 75.184651 
L 100.02567 73.542218 
L 100.101319 74.448921 
L 100.176968 74.34252 
L 100.328265 74.093758 
L 100.403913 74.76677 
L 100.479562 74.683402 
L 100.55521 74.555606 
L 100.630859 75.172278 
L 100.706507 75.054133 
L 101.160399 74.378903 
L 101.236047 75.0869 
L 101.311696 74.951652 
L 101.387345 74.924193 
L 101.462993 75.513177 
L 101.538642 75.38457 
L 102.068182 74.540338 
L 102.14383 74.652177 
L 102.219479 74.5172 
L 102.370776 74.841201 
L 103.20291 73.693947 
L 103.354207 74.608158 
L 103.429856 74.510113 
L 103.73245 74.043933 
L 103.808098 74.166891 
L 104.26199 73.598564 
L 104.337638 73.804555 
L 104.413287 73.677814 
L 104.488935 73.885165 
L 104.564584 73.768939 
L 104.640232 73.80268 
L 105.094124 73.200662 
L 105.169772 73.372235 
L 105.245421 73.833562 
L 105.32107 73.717962 
L 105.774961 73.125285 
L 105.850609 73.313049 
L 105.926258 73.249878 
L 106.531446 72.484416 
L 106.607095 72.649153 
L 106.682744 72.582313 
L 106.909689 72.311158 
L 106.985338 72.637951 
L 107.060986 72.547896 
L 107.212283 72.467515 
L 107.439229 72.217944 
L 107.514878 72.631604 
L 107.590526 72.524431 
L 108.498309 71.503985 
L 108.573957 71.593033 
L 109.254795 70.931206 
L 109.406092 71.379922 
L 109.48174 71.314234 
L 109.557389 71.43222 
L 109.633037 71.359942 
L 110.01128 70.963447 
L 110.086929 71.32316 
L 110.162577 71.242344 
L 110.843414 70.676163 
L 110.919063 70.931514 
L 110.994711 70.869619 
L 112.583331 69.41874 
L 112.65898 69.631634 
L 112.734628 69.557434 
L 114.020654 68.46145 
L 114.323248 68.190356 
L 114.398896 68.408756 
L 114.474545 68.342499 
L 114.550194 68.445159 
L 114.625842 68.380887 
L 114.928436 68.156266 
L 115.004085 68.321349 
L 115.079733 68.265067 
L 116.29011 67.598698 
L 116.81965 67.20516 
L 116.895299 67.445379 
L 116.970947 67.383361 
L 117.651784 66.897889 
L 117.87873 67.257288 
L 118.256973 66.966037 
L 118.332621 67.071538 
L 118.40827 67.010134 
L 118.710864 66.786894 
L 118.786513 66.92665 
L 118.862161 66.87461 
L 119.694296 66.319964 
L 119.769944 66.732153 
L 119.845593 66.696464 
L 120.52643 66.235267 
L 120.602078 66.181417 
L 120.677727 66.300923 
L 120.753375 66.239272 
L 121.434212 65.852697 
L 121.509861 65.987899 
L 121.585509 65.939189 
L 122.493292 65.366072 
L 122.568941 65.320793 
L 122.644589 65.481979 
L 122.720238 65.428679 
L 123.098481 65.225357 
L 123.174129 65.378583 
L 123.249778 65.33455 
L 127.3348 63.1568 
L 127.486097 63.538373 
L 127.561746 63.497986 
L 127.788691 63.382012 
L 128.015637 63.626488 
L 128.469528 63.41412 
L 128.545177 63.758624 
L 128.620825 63.733124 
L 131.495471 62.489587 
L 131.646768 62.584413 
L 133.537982 61.785899 
L 134.370116 61.435196 
L 134.521413 61.569284 
L 138.757732 60.438678 
L 138.909029 60.601176 
L 139.362921 60.456099 
L 139.514218 60.684721 
L 140.800243 60.278126 
L 140.95154 60.837935 
L 141.783674 60.578216 
L 141.934972 60.702085 
L 143.59924 60.213748 
L 143.750537 60.288884 
L 147.079073 59.630372 
L 147.230371 59.70928 
L 151.088447 59.082916 
L 151.239744 59.181488 
L 152.147527 59.06928 
L 152.298824 59.155904 
L 155.476063 58.898015 
L 155.62736 58.990236 
L 160.92276 58.539392 
L 161.074057 58.615008 
L 163.419162 58.490427 
L 164.099999 58.458887 
L 164.251296 58.54864 
L 170.757072 58.309765 
L 221.517254 58.009768 
L 402.771199 58.119175 
L 403.452036 58.132886 
L 433.333216 58.226451 
L 433.711459 58.253864 
L 447.101254 58.363196 
L 447.933388 58.404301 
L 457.692052 58.513594 
L 458.372889 58.527292 
L 467.375067 58.635942 
L 467.75331 58.663328 
L 494.079008 58.758554 
L 494.457251 58.785933 
L 512.310311 58.880508 
L 512.688554 58.907879 
L 541.964545 58.921563 
L 541.964545 58.921563 
" clip-path="url(#p3618777855)" style="fill: none; stroke: #2ca02c; stroke-width: 1.8; stroke-linecap: square"/>
   </g>
   <g id="line2d_28">
    <path d="M 77.255455 37.496364 
L 77.633697 37.496364 
L 77.709346 69.384342 
L 77.784994 66.341354 
L 78.087589 57.874215 
L 78.238886 55.320725 
L 78.54148 51.27512 
L 78.844074 48.787438 
L 79.676208 45.05315 
L 80.205748 43.582366 
L 80.65964 42.755164 
L 80.735288 49.840097 
L 80.810937 49.503837 
L 80.886585 49.276361 
L 80.962234 51.928423 
L 81.037882 51.702333 
L 82.096962 48.463129 
L 82.323908 53.493856 
L 83.231691 51.136572 
L 83.912528 49.697742 
L 84.517716 48.713429 
L 84.669013 56.446804 
L 84.744662 56.295151 
L 85.198553 55.270449 
L 85.955039 53.846502 
L 86.030687 56.792817 
L 86.106336 56.636853 
L 88.602738 52.406498 
L 89.207927 51.670992 
L 89.510521 51.342347 
L 89.586169 52.989705 
L 89.661818 52.892602 
L 89.964412 52.479711 
L 90.040061 53.895486 
L 90.115709 53.801247 
L 90.872195 52.909608 
L 90.947844 54.235038 
L 91.023492 54.136054 
L 92.233869 52.767771 
L 93.066003 51.953439 
L 93.898137 51.227646 
L 94.80592 50.493465 
L 97.302322 48.749126 
L 97.529268 48.610402 
L 97.604917 49.5404 
L 97.680565 49.483269 
L 99.723076 48.366304 
L 99.798725 49.357383 
L 99.874373 49.311829 
L 101.236047 48.628923 
L 101.311696 49.614488 
L 101.387345 49.573937 
L 103.127261 48.735832 
L 103.20291 49.244748 
L 103.278558 49.208911 
L 105.472367 48.275335 
L 105.548015 48.814244 
L 105.623664 48.791259 
L 106.682744 48.371635 
L 106.758392 48.626148 
L 106.834041 48.587366 
L 107.439229 48.34947 
L 107.514878 48.778807 
L 107.590526 48.752104 
L 108.9522 48.247438 
L 109.027849 48.799883 
L 109.103497 48.776571 
L 111.524251 47.976091 
L 113.793708 47.343835 
L 113.869357 47.63823 
L 113.945005 47.618393 
L 115.836219 47.096081 
L 115.911868 47.551566 
L 115.987516 47.530209 
L 118.105676 46.986292 
L 118.181324 47.36215 
L 118.256973 47.339554 
L 119.46735 47.054139 
L 119.542998 47.555653 
L 119.618647 47.533367 
L 119.694296 47.515664 
L 119.769944 48.115001 
L 119.845593 48.098712 
L 123.930615 47.144256 
L 126.200071 46.701977 
L 127.107854 46.54465 
L 127.259151 46.838961 
L 129.755554 46.388829 
L 130.587688 46.250997 
L 130.738985 46.611423 
L 130.890282 46.586431 
L 131.041579 46.924183 
L 131.646768 46.833179 
L 131.798065 47.123758 
L 134.14317 46.765042 
L 134.294467 46.984348 
L 135.429196 46.822454 
L 135.580493 47.101379 
L 136.26133 47.013512 
L 136.412627 47.404692 
L 136.942167 47.331872 
L 137.093464 47.621881 
L 138.606435 47.416189 
L 138.833381 47.9367 
L 138.909029 47.927897 
L 139.135975 48.309961 
L 143.296646 47.829504 
L 143.447943 48.117763 
L 143.901834 48.06947 
L 144.053131 48.433449 
L 146.625182 48.180545 
L 146.776479 48.413696 
L 147.684262 48.33119 
L 147.835559 48.559384 
L 148.365099 48.511793 
L 148.516396 48.706974 
L 149.726773 48.652294 
L 149.87807 48.880413 
L 151.920581 48.696423 
L 152.071878 48.917034 
L 152.601418 48.871475 
L 152.752715 49.159652 
L 152.828364 49.152212 
L 152.979661 49.307153 
L 153.963092 49.219129 
L 154.114389 49.553158 
L 156.610792 49.346566 
L 156.762089 49.445358 
L 158.27506 49.338175 
L 158.426357 49.489487 
L 159.485437 49.418052 
L 159.636734 49.582439 
L 161.225354 49.476783 
L 161.376651 49.702693 
L 173.102177 49.269798 
L 173.253474 49.398854 
L 174.5395 49.333098 
L 174.690797 49.475154 
L 184.903352 49.089527 
L 185.054649 49.210665 
L 188.231889 49.183526 
L 188.383186 49.303559 
L 193.375991 49.11726 
L 193.527288 49.209846 
L 194.056828 49.275344 
L 194.208125 49.368192 
L 197.914904 49.318338 
L 198.14185 49.476328 
L 199.73047 49.508725 
L 204.798923 49.369669 
L 204.95022 49.461153 
L 210.472565 49.330318 
L 210.623862 49.420129 
L 211.909888 49.487188 
L 212.136833 49.561725 
L 218.113069 49.520732 
L 218.340015 49.595634 
L 219.777338 49.63313 
L 219.928635 49.734441 
L 224.770142 49.711826 
L 224.921439 49.800786 
L 226.510059 49.811368 
L 226.661356 49.899249 
L 229.687299 49.939497 
L 229.914244 50.00085 
L 231.956755 50.02823 
L 232.183701 50.101782 
L 232.561944 50.19825 
L 232.864538 50.232421 
L 234.528806 50.278912 
L 234.755752 50.341007 
L 236.268723 50.402897 
L 236.571317 50.528234 
L 240.353745 50.571037 
L 240.580691 50.697668 
L 243.909228 50.780377 
L 244.136173 50.868801 
L 245.87609 50.935103 
L 246.178684 50.972858 
L 248.826384 51.069728 
L 249.204627 51.193971 
L 251.398435 51.229546 
L 251.62538 51.30353 
L 254.27308 51.374861 
L 254.575674 51.524925 
L 257.072077 51.558726 
L 257.299022 51.633171 
L 258.358102 51.688865 
L 258.585048 51.750876 
L 259.946722 51.815805 
L 260.173667 51.889523 
L 262.216179 51.940421 
L 262.443124 52.001326 
L 265.393418 52.057889 
L 265.620364 52.119446 
L 266.074255 52.191366 
L 266.376849 52.22731 
L 269.781034 52.298264 
L 270.00798 52.347204 
L 270.840114 52.41815 
L 271.142708 52.454976 
L 273.941705 52.530448 
L 274.244299 52.566441 
L 278.102376 52.646462 
L 278.329321 52.695416 
L 278.858861 52.792095 
L 279.388401 52.865069 
L 281.128318 52.917943 
L 281.430912 52.992045 
L 284.305557 53.080999 
L 284.608152 53.116789 
L 285.818529 53.200128 
L 286.121123 53.236502 
L 287.3315 53.332162 
L 287.634094 53.443052 
L 290.130496 53.522251 
L 290.433091 53.620655 
L 293.005142 53.720218 
L 293.232087 53.769255 
L 295.123301 53.875621 
L 295.425895 53.911412 
L 296.863218 54.007244 
L 297.241461 54.030656 
L 300.343052 54.122962 
L 300.645646 54.15977 
L 302.309914 54.256311 
L 314.413683 54.360841 
L 314.640629 54.458292 
L 315.170169 54.556815 
L 315.62406 54.679941 
L 316.68314 54.777746 
L 316.910086 54.826751 
L 317.363977 54.924064 
L 318.498706 54.996291 
L 323.264565 55.106523 
L 324.02105 55.11882 
L 329.694692 55.204889 
L 329.921638 55.254064 
L 334.233606 55.363764 
L 334.611848 55.388343 
L 337.637791 55.474358 
L 337.864736 55.523503 
L 342.781893 55.621542 
L 343.160135 55.646107 
L 345.429592 55.756634 
L 345.732186 55.842582 
L 349.514614 55.940789 
L 349.892857 55.965337 
L 359.651521 56.073867 
L 359.878467 56.122944 
L 363.660895 56.19655 
L 363.88784 56.257879 
L 364.190434 56.294673 
L 375.613367 56.390089 
L 375.915961 56.426867 
L 383.85906 56.524928 
L 384.161654 56.561696 
L 389.154459 56.671238 
L 389.457053 56.707993 
L 398.232286 56.805993 
L 398.610528 56.830489 
L 429.47514 56.914712 
L 429.777734 56.951446 
L 436.359159 57.048629 
L 436.359159 57.048629 
" clip-path="url(#p3618777855)" style="fill: none; stroke: #d62728; stroke-width: 1.8; stroke-linecap: square"/>
   </g>
   <g id="line2d_29">
    <path d="M 77.255455 37.496364 
L 77.936292 37.496364 
L 78.01194 43.549359 
L 78.087589 42.948837 
L 78.465831 41.289574 
L 78.692777 40.716299 
L 78.768426 46.679294 
L 78.844074 46.210496 
L 79.373614 44.176396 
L 79.903154 42.87207 
L 80.886585 41.377859 
L 81.718719 40.64913 
L 82.626502 40.12624 
L 84.29077 39.502313 
L 86.257633 39.067625 
L 89.888764 38.61537 
L 96.848431 38.220331 
L 105.850609 37.992314 
L 122.947183 37.804955 
L 151.542338 37.702804 
L 174.236906 37.777819 
L 174.690797 37.925171 
L 175.371634 38.032291 
L 175.59858 38.112629 
L 176.203768 38.20632 
L 176.506362 38.246475 
L 177.565442 38.340157 
L 178.170631 38.460552 
L 180.213142 38.567477 
L 180.591385 38.594224 
L 182.255653 38.674441 
L 182.482599 38.727922 
L 183.163436 38.74124 
L 185.357244 38.848176 
L 185.735487 38.941726 
L 187.248458 39.035237 
L 187.853646 39.142084 
L 190.047454 39.235454 
L 190.425697 39.26216 
L 191.182183 39.355621 
L 191.484777 39.39567 
L 194.435071 39.502424 
L 194.888962 39.569063 
L 196.628879 39.66228 
L 197.007122 39.688868 
L 197.763607 39.76883 
L 198.066201 39.835506 
L 199.20093 39.928836 
L 199.503524 39.968829 
L 202.453818 40.061744 
L 202.907709 40.12826 
L 205.706706 40.221102 
L 206.084949 40.261057 
L 207.749217 40.354154 
L 208.051811 40.394097 
L 209.262188 40.500594 
L 209.791728 40.580451 
L 211.682942 40.686819 
L 212.061185 40.713429 
L 214.254993 40.806322 
L 214.557587 40.846223 
L 218.113069 40.951943 
L 218.415664 41.005117 
L 219.323446 41.111349 
L 219.701689 41.151216 
L 221.441606 41.25746 
L 221.819849 41.28403 
L 223.257171 41.390242 
L 224.164954 41.443311 
L 226.434411 41.549482 
L 226.888302 41.602586 
L 229.157759 41.708603 
L 231.20027 41.960271 
L 233.772321 42.052856 
L 234.150564 42.092635 
L 235.133995 42.198568 
L 235.512238 42.225014 
L 237.327803 42.304405 
L 237.630397 42.397163 
L 238.689477 42.489697 
L 238.992071 42.555927 
L 241.639771 42.661449 
L 241.942365 42.71441 
L 243.22839 42.833477 
L 244.28747 42.926121 
L 244.741362 42.992208 
L 246.481278 43.098049 
L 247.162115 43.111277 
L 249.280275 43.216856 
L 249.658518 43.243305 
L 252.306217 43.348522 
L 253.062703 43.374799 
L 255.634754 43.480045 
L 257.979859 43.783889 
L 260.854504 43.88909 
L 261.535341 43.902293 
L 264.107392 44.007184 
L 264.409987 44.059973 
L 266.225552 44.151882 
L 266.679443 44.204651 
L 268.797603 44.309892 
L 269.100197 44.349455 
L 272.806977 44.454749 
L 273.487814 44.467741 
L 275.984216 44.559336 
L 276.28681 44.598579 
L 276.967647 44.611562 
L 277.572836 44.703594 
L 277.951079 44.729643 
L 280.598778 44.834914 
L 282.489992 45.058747 
L 283.549072 45.150884 
L 284.078612 45.229632 
L 285.894177 45.334244 
L 286.196771 45.386859 
L 287.255851 45.491963 
L 287.936688 45.623446 
L 288.541877 45.71535 
L 288.995768 45.767923 
L 291.870413 45.845397 
L 292.324305 45.911083 
L 294.13987 46.015928 
L 294.66941 46.10785 
L 295.72849 46.199517 
L 296.031084 46.238898 
L 298.149243 46.343656 
L 299.435269 46.461383 
L 301.553429 46.565087 
L 302.00732 46.617543 
L 304.655019 46.722061 
L 305.638451 46.787352 
L 307.529665 46.891818 
L 307.983556 46.957336 
L 309.496527 47.035685 
L 309.723473 47.088083 
L 310.858201 47.166669 
L 311.160795 47.205958 
L 314.186738 47.296277 
L 314.564981 47.322459 
L 316.68314 47.413406 
L 316.910086 47.465752 
L 318.876948 47.556518 
L 319.179543 47.621925 
L 321.524648 47.699425 
L 321.827242 47.75173 
L 323.869753 47.855898 
L 324.247996 47.882042 
L 325.382724 47.986172 
L 326.366156 48.051508 
L 329.165152 48.155881 
L 329.770341 48.260376 
L 330.602475 48.298818 
L 331.8885 48.402828 
L 332.191095 48.455045 
L 333.628417 48.532306 
L 334.00666 48.61045 
L 336.276117 48.713445 
L 337.335196 48.790929 
L 338.545573 48.881893 
L 338.923816 48.960113 
L 340.81503 49.05088 
L 341.193273 49.128752 
L 341.647164 49.16784 
L 342.857541 49.245367 
L 343.160135 49.297308 
L 344.294864 49.401168 
L 345.278295 49.466108 
L 346.564321 49.570252 
L 347.774697 49.674041 
L 349.514614 49.777635 
L 350.876288 49.907717 
L 352.994448 50.011587 
L 353.372691 50.115603 
L 353.977879 50.206426 
L 354.658716 50.335864 
L 356.701227 50.439275 
L 357.230767 50.517212 
L 359.348927 50.620215 
L 359.72717 50.646184 
L 361.164492 50.736343 
L 361.542735 50.814222 
L 362.223572 50.943626 
L 363.207003 51.047414 
L 364.719974 51.202866 
L 365.552109 51.293068 
L 366.006 51.331584 
L 367.140728 51.433763 
L 368.578051 51.575526 
L 370.242319 51.678765 
L 371.150102 51.729407 
L 372.81437 51.832597 
L 373.87345 51.909873 
L 376.521149 52.011634 
L 377.201986 52.141005 
L 379.017552 52.244076 
L 379.395795 52.334593 
L 380.530523 52.424889 
L 383.102574 52.525031 
L 383.632114 52.589635 
L 384.539897 52.653612 
L 384.766842 52.718196 
L 385.977219 52.821095 
L 386.506759 52.884819 
L 386.809353 52.987669 
L 387.414542 53.078009 
L 388.624919 53.15543 
L 388.927513 53.207038 
L 391.953455 53.283582 
L 392.256049 53.322275 
L 393.466426 53.4119 
L 393.693372 53.463474 
L 396.643666 53.566606 
L 396.643666 53.566606 
" clip-path="url(#p3618777855)" style="fill: none; stroke: #9467bd; stroke-width: 1.8; stroke-linecap: square"/>
   </g>
   <g id="patch_3">
    <path d="M 54.02 260.44 
L 54.02 26.88 
" style="fill: none; stroke: #000000; stroke-width: 0.8; stroke-linejoin: miter; stroke-linecap: square"/>
   </g>
   <g id="patch_4">
    <path d="M 565.2 260.44 
L 565.2 26.88 
" style="fill: none; stroke: #000000; stroke-width: 0.8; stroke-linejoin: miter; stroke-linecap: square"/>
   </g>
   <g id="patch_5">
    <path d="M 54.02 260.44 
L 565.2 260.44 
" style="fill: none; stroke: #000000; stroke-width: 0.8; stroke-linejoin: miter; stroke-linecap: square"/>
   </g>
   <g id="patch_6">
    <path d="M 54.02 26.88 
L 565.2 26.88 
" style="fill: none; stroke: #000000; stroke-width: 0.8; stroke-linejoin: miter; stroke-linecap: square"/>
   </g>
   <g id="text_15">
    <!-- Timely Transfer Rate (Cumulative) -->
    <g transform="translate(207.187188 20.88) scale(0.12 -0.12)">
     <defs>
      <path id="DejaVuSans-54" d="M -19 4666 
L 3928 4666 
L 3928 4134 
L 2272 4134 
L 2272 0 
L 1638 0 
L 1638 4134 
L -19 4134 
L -19 4666 
z
" transform="scale(0.015625)"/>
      <path id="DejaVuSans-52" d="M 2841 2188 
Q 3044 2119 3236 1894 
Q 3428 1669 3622 1275 
L 4263 0 
L 3584 0 
L 2988 1197 
Q 2756 1666 2539 1819 
Q 2322 1972 1947 1972 
L 1259 1972 
L 1259 0 
L 628 0 
L 628 4666 
L 2053 4666 
Q 2853 4666 3247 4331 
Q 3641 3997 3641 3322 
Q 3641 2881 3436 2590 
Q 3231 2300 2841 2188 
z
M 1259 4147 
L 1259 2491 
L 2053 2491 
Q 2509 2491 2742 2702 
Q 2975 2913 2975 3322 
Q 2975 3731 2742 3939 
Q 2509 4147 2053 4147 
L 1259 4147 
z
" transform="scale(0.015625)"/>
      <path id="DejaVuSans-28" d="M 1984 4856 
Q 1566 4138 1362 3434 
Q 1159 2731 1159 2009 
Q 1159 1288 1364 580 
Q 1569 -128 1984 -844 
L 1484 -844 
Q 1016 -109 783 600 
Q 550 1309 550 2009 
Q 550 2706 781 3412 
Q 1013 4119 1484 4856 
L 1984 4856 
z
" transform="scale(0.015625)"/>
      <path id="DejaVuSans-43" d="M 4122 4306 
L 4122 3641 
Q 3803 3938 3442 4084 
Q 3081 4231 2675 4231 
Q 1875 4231 1450 3742 
Q 1025 3253 1025 2328 
Q 1025 1406 1450 917 
Q 1875 428 2675 428 
Q 3081 428 3442 575 
Q 3803 722 4122 1019 
L 4122 359 
Q 3791 134 3420 21 
Q 3050 -91 2638 -91 
Q 1578 -91 968 557 
Q 359 1206 359 2328 
Q 359 3453 968 4101 
Q 1578 4750 2638 4750 
Q 3056 4750 3426 4639 
Q 3797 4528 4122 4306 
z
" transform="scale(0.015625)"/>
      <path id="DejaVuSans-29" d="M 513 4856 
L 1013 4856 
Q 1481 4119 1714 3412 
Q 1947 2706 1947 2009 
Q 1947 1309 1714 600 
Q 1481 -109 1013 -844 
L 513 -844 
Q 928 -128 1133 580 
Q 1338 1288 1338 2009 
Q 1338 2731 1133 3434 
Q 928 4138 513 4856 
z
" transform="scale(0.015625)"/>
     </defs>
     <use xlink:href="#DejaVuSans-54"/>
     <use xlink:href="#DejaVuSans-69" x="57.958984"/>
     <use xlink:href="#DejaVuSans-6d" x="85.742188"/>
     <use xlink:href="#DejaVuSans-65" x="183.154297"/>
     <use xlink:href="#DejaVuSans-6c" x="244.677734"/>
     <use xlink:href="#DejaVuSans-79" x="272.460938"/>
     <use xlink:href="#DejaVuSans-20" x="331.640625"/>
     <use xlink:href="#DejaVuSans-54" x="363.427734"/>
     <use xlink:href="#DejaVuSans-72" x="409.761719"/>
     <use xlink:href="#DejaVuSans-61" x="450.875"/>
     <use xlink:href="#DejaVuSans-6e" x="512.154297"/>
     <use xlink:href="#DejaVuSans-73" x="575.533203"/>
     <use xlink:href="#DejaVuSans-66" x="627.632812"/>
     <use xlink:href="#DejaVuSans-65" x="662.837891"/>
     <use xlink:href="#DejaVuSans-72" x="724.361328"/>
     <use xlink:href="#DejaVuSans-20" x="765.474609"/>
     <use xlink:href="#DejaVuSans-52" x="797.261719"/>
     <use xlink:href="#DejaVuSans-61" x="864.494141"/>
     <use xlink:href="#DejaVuSans-74" x="925.773438"/>
     <use xlink:href="#DejaVuSans-65" x="964.982422"/>
     <use xlink:href="#DejaVuSans-20" x="1026.505859"/>
     <use xlink:href="#DejaVuSans-28" x="1058.292969"/>
     <use xlink:href="#DejaVuSans-43" x="1097.306641"/>
     <use xlink:href="#DejaVuSans-75" x="1167.130859"/>
     <use xlink:href="#DejaVuSans-6d" x="1230.509766"/>
     <use xlink:href="#DejaVuSans-75" x="1327.921875"/>
     <use xlink:href="#DejaVuSans-6c" x="1391.300781"/>
     <use xlink:href="#DejaVuSans-61" x="1419.083984"/>
     <use xlink:href="#DejaVuSans-74" x="1480.363281"/>
     <use xlink:href="#DejaVuSans-69" x="1519.572266"/>
     <use xlink:href="#DejaVuSans-76" x="1547.355469"/>
     <use xlink:href="#DejaVuSans-65" x="1606.535156"/>
     <use xlink:href="#DejaVuSans-29" x="1668.058594"/>
    </g>
   </g>
   <g id="legend_1">
    <g id="patch_7">
     <path d="M 473.826562 255.44 
L 558.2 255.44 
Q 560.2 255.44 560.2 253.44 
L 560.2 180.493125 
Q 560.2 178.493125 558.2 178.493125 
L 473.826562 178.493125 
Q 471.826562 178.493125 471.826562 180.493125 
L 471.826562 253.44 
Q 471.826562 255.44 473.826562 255.44 
z
" style="fill: #ffffff; opacity: 0.8; stroke: #cccccc; stroke-linejoin: miter"/>
    </g>
    <g id="line2d_30">
     <path d="M 475.826562 186.591563 
L 485.826562 186.591563 
L 495.826562 186.591563 
" style="fill: none; stroke: #1f77b4; stroke-width: 1.8; stroke-linecap: square"/>
    </g>
    <g id="text_16">
     <!-- SHEER -->
     <g transform="translate(503.826562 190.091563) scale(0.1 -0.1)">
      <defs>
       <path id="DejaVuSans-53" d="M 3425 4513 
L 3425 3897 
Q 3066 4069 2747 4153 
Q 2428 4238 2131 4238 
Q 1616 4238 1336 4038 
Q 1056 3838 1056 3469 
Q 1056 3159 1242 3001 
Q 1428 2844 1947 2747 
L 2328 2669 
Q 3034 2534 3370 2195 
Q 3706 1856 3706 1288 
Q 3706 609 3251 259 
Q 2797 -91 1919 -91 
Q 1588 -91 1214 -16 
Q 841 59 441 206 
L 441 856 
Q 825 641 1194 531 
Q 1563 422 1919 422 
Q 2459 422 2753 634 
Q 3047 847 3047 1241 
Q 3047 1584 2836 1778 
Q 2625 1972 2144 2069 
L 1759 2144 
Q 1053 2284 737 2584 
Q 422 2884 422 3419 
Q 422 4038 858 4394 
Q 1294 4750 2059 4750 
Q 2388 4750 2728 4690 
Q 3069 4631 3425 4513 
z
" transform="scale(0.015625)"/>
       <path id="DejaVuSans-48" d="M 628 4666 
L 1259 4666 
L 1259 2753 
L 3553 2753 
L 3553 4666 
L 4184 4666 
L 4184 0 
L 3553 0 
L 3553 2222 
L 1259 2222 
L 1259 0 
L 628 0 
L 628 4666 
z
" transform="scale(0.015625)"/>
       <path id="DejaVuSans-45" d="M 628 4666 
L 3578 4666 
L 3578 4134 
L 1259 4134 
L 1259 2753 
L 3481 2753 
L 3481 2222 
L 1259 2222 
L 1259 531 
L 3634 531 
L 3634 0 
L 628 0 
L 628 4666 
z
" transform="scale(0.015625)"/>
      </defs>
      <use xlink:href="#DejaVuSans-53"/>
      <use xlink:href="#DejaVuSans-48" x="63.476562"/>
      <use xlink:href="#DejaVuSans-45" x="138.671875"/>
      <use xlink:href="#DejaVuSans-45" x="201.855469"/>
      <use xlink:href="#DejaVuSans-52" x="265.039062"/>
     </g>
    </g>
    <g id="line2d_31">
     <path d="M 475.826562 201.269688 
L 485.826562 201.269688 
L 495.826562 201.269688 
" style="fill: none; stroke: #ff7f0e; stroke-width: 1.8; stroke-linecap: square"/>
    </g>
    <g id="text_17">
     <!-- ACTAR -->
     <g transform="translate(503.826562 204.769688) scale(0.1 -0.1)">
      <defs>
       <path id="DejaVuSans-41" d="M 2188 4044 
L 1331 1722 
L 3047 1722 
L 2188 4044 
z
M 1831 4666 
L 2547 4666 
L 4325 0 
L 3669 0 
L 3244 1197 
L 1141 1197 
L 716 0 
L 50 0 
L 1831 4666 
z
" transform="scale(0.015625)"/>
      </defs>
      <use xlink:href="#DejaVuSans-41"/>
      <use xlink:href="#DejaVuSans-43" x="66.658203"/>
      <use xlink:href="#DejaVuSans-54" x="136.482422"/>
      <use xlink:href="#DejaVuSans-41" x="189.816406"/>
      <use xlink:href="#DejaVuSans-52" x="258.224609"/>
     </g>
    </g>
    <g id="line2d_32">
     <path d="M 475.826562 215.947813 
L 485.826562 215.947813 
L 495.826562 215.947813 
" style="fill: none; stroke: #2ca02c; stroke-width: 1.8; stroke-linecap: square"/>
    </g>
    <g id="text_18">
     <!-- TFSM_DPC -->
     <g transform="translate(503.826562 219.447813) scale(0.1 -0.1)">
      <defs>
       <path id="DejaVuSans-46" d="M 628 4666 
L 3309 4666 
L 3309 4134 
L 1259 4134 
L 1259 2759 
L 3109 2759 
L 3109 2228 
L 1259 2228 
L 1259 0 
L 628 0 
L 628 4666 
z
" transform="scale(0.015625)"/>
       <path id="DejaVuSans-4d" d="M 628 4666 
L 1569 4666 
L 2759 1491 
L 3956 4666 
L 4897 4666 
L 4897 0 
L 4281 0 
L 4281 4097 
L 3078 897 
L 2444 897 
L 1241 4097 
L 1241 0 
L 628 0 
L 628 4666 
z
" transform="scale(0.015625)"/>
       <path id="DejaVuSans-5f" d="M 3263 -1063 
L 3263 -1509 
L -63 -1509 
L -63 -1063 
L 3263 -1063 
z
" transform="scale(0.015625)"/>
       <path id="DejaVuSans-44" d="M 1259 4147 
L 1259 519 
L 2022 519 
Q 2988 519 3436 956 
Q 3884 1394 3884 2338 
Q 3884 3275 3436 3711 
Q 2988 4147 2022 4147 
L 1259 4147 
z
M 628 4666 
L 1925 4666 
Q 3281 4666 3915 4102 
Q 4550 3538 4550 2338 
Q 4550 1131 3912 565 
Q 3275 0 1925 0 
L 628 0 
L 628 4666 
z
" transform="scale(0.015625)"/>
       <path id="DejaVuSans-50" d="M 1259 4147 
L 1259 2394 
L 2053 2394 
Q 2494 2394 2734 2622 
Q 2975 2850 2975 3272 
Q 2975 3691 2734 3919 
Q 2494 4147 2053 4147 
L 1259 4147 
z
M 628 4666 
L 2053 4666 
Q 2838 4666 3239 4311 
Q 3641 3956 3641 3272 
Q 3641 2581 3239 2228 
Q 2838 1875 2053 1875 
L 1259 1875 
L 1259 0 
L 628 0 
L 628 4666 
z
" transform="scale(0.015625)"/>
      </defs>
      <use xlink:href="#DejaVuSans-54"/>
      <use xlink:href="#DejaVuSans-46" x="61.083984"/>
      <use xlink:href="#DejaVuSans-53" x="116.853516"/>
      <use xlink:href="#DejaVuSans-4d" x="180.330078"/>
      <use xlink:href="#DejaVuSans-5f" x="266.609375"/>
      <use xlink:href="#DejaVuSans-44" x="316.609375"/>
      <use xlink:href="#DejaVuSans-50" x="393.611328"/>
      <use xlink:href="#DejaVuSans-43" x="453.914062"/>
     </g>
    </g>
    <g id="line2d_33">
     <path d="M 475.826562 230.904063 
L 485.826562 230.904063 
L 495.826562 230.904063 
" style="fill: none; stroke: #d62728; stroke-width: 1.8; stroke-linecap: square"/>
    </g>
    <g id="text_19">
     <!-- DST_WOA -->
     <g transform="translate(503.826562 234.404063) scale(0.1 -0.1)">
      <defs>
       <path id="DejaVuSans-57" d="M 213 4666 
L 850 4666 
L 1831 722 
L 2809 4666 
L 3519 4666 
L 4500 722 
L 5478 4666 
L 6119 4666 
L 4947 0 
L 4153 0 
L 3169 4050 
L 2175 0 
L 1381 0 
L 213 4666 
z
" transform="scale(0.015625)"/>
       <path id="DejaVuSans-4f" d="M 2522 4238 
Q 1834 4238 1429 3725 
Q 1025 3213 1025 2328 
Q 1025 1447 1429 934 
Q 1834 422 2522 422 
Q 3209 422 3611 934 
Q 4013 1447 4013 2328 
Q 4013 3213 3611 3725 
Q 3209 4238 2522 4238 
z
M 2522 4750 
Q 3503 4750 4090 4092 
Q 4678 3434 4678 2328 
Q 4678 1225 4090 567 
Q 3503 -91 2522 -91 
Q 1538 -91 948 565 
Q 359 1222 359 2328 
Q 359 3434 948 4092 
Q 1538 4750 2522 4750 
z
" transform="scale(0.015625)"/>
      </defs>
      <use xlink:href="#DejaVuSans-44"/>
      <use xlink:href="#DejaVuSans-53" x="77.001953"/>
      <use xlink:href="#DejaVuSans-54" x="140.478516"/>
      <use xlink:href="#DejaVuSans-5f" x="201.5625"/>
      <use xlink:href="#DejaVuSans-57" x="251.5625"/>
      <use xlink:href="#DejaVuSans-4f" x="350.439453"/>
      <use xlink:href="#DejaVuSans-41" x="427.400391"/>
     </g>
    </g>
    <g id="line2d_34">
     <path d="M 475.826562 245.860313 
L 485.826562 245.860313 
L 495.826562 245.860313 
" style="fill: none; stroke: #9467bd; stroke-width: 1.8; stroke-linecap: square"/>
    </g>
    <g id="text_20">
     <!-- TRAIL -->
     <g transform="translate(503.826562 249.360313) scale(0.1 -0.1)">
      <defs>
       <path id="DejaVuSans-49" d="M 628 4666 
L 1259 4666 
L 1259 0 
L 628 0 
L 628 4666 
z
" transform="scale(0.015625)"/>
       <path id="DejaVuSans-4c" d="M 628 4666 
L 1259 4666 
L 1259 531 
L 3531 531 
L 3531 0 
L 628 0 
L 628 4666 
z
" transform="scale(0.015625)"/>
      </defs>
      <use xlink:href="#DejaVuSans-54"/>
      <use xlink:href="#DejaVuSans-52" x="61.083984"/>
      <use xlink:href="#DejaVuSans-41" x="126.566406"/>
      <use xlink:href="#DejaVuSans-49" x="194.974609"/>
      <use xlink:href="#DejaVuSans-4c" x="224.466797"/>
     </g>
    </g>
   </g>
  </g>
 </g>
 <defs>
  <clipPath id="p3618777855">
   <rect x="54.02" y="26.88" width="511.18" height="233.56"/>
  </clipPath>
 </defs>
</svg>
