<?xml version="1.0" encoding="utf-8" standalone="no"?>
<!DOCTYPE svg PUBLIC "-//W3C//DTD SVG 1.1//EN"
  "http://www.w3.org/Graphics/SVG/1.1/DTD/svg11.dtd">
<svg xmlns:xlink="http://www.w3.org/1999/xlink" width="576pt" height="302.4pt" viewBox="0 0 576 302.4" xmlns="http://www.w3.org/2000/svg" version="1.1">
 <metadata>
  <rdf:RDF xmlns:dc="http://purl.org/dc/elements/1.1/" xmlns:cc="http://creativecommons.org/ns#" xmlns:rdf="http://www.w3.org/1999/02/22-rdf-syntax-ns#">
   <cc:Work>
    <dc:type rdf:resource="http://purl.org/dc/dcmitype/StillImage"/>
    <dc:date>2025-11-05T09:43:38.657047</dc:date>
    <dc:format>image/svg+xml</dc:format>
    <dc:creator>
     <cc:Agent>
      <dc:title>Matplotlib v3.9.4, https://matplotlib.org/</dc:title>
     </cc:Agent>
    </dc:creator>
   </cc:Work>
  </rdf:RDF>
 </metadata>
 <defs>
  <style type="text/css">*{stroke-linejoin: round; stroke-linecap: butt}</style>
 </defs>
 <g id="figure_1">
  <g id="patch_1">
   <path d="M 0 302.4 
L 576 302.4 
L 576 0 
L 0 0 
z
" style="fill: #ffffff"/>
  </g>
  <g id="axes_1">
   <g id="patch_2">
    <path d="M 54.11 260.44 
L 565.2 260.44 
L 565.2 26.88 
L 54.11 26.88 
z
" style="fill: #ffffff"/>
   </g>
   <g id="matplotlib.axis_1">
    <g id="xtick_1">
     <g id="line2d_1">
      <path d="M 77.287116 260.44 
L 77.287116 26.88 
" clip-path="url(#pd60d1b1313)" style="fill: none; stroke-dasharray: 2.96,1.28; stroke-dashoffset: 0; stroke: #b0b0b0; stroke-opacity: 0.3; stroke-width: 0.8"/>
     </g>
     <g id="line2d_2">
      <defs>
       <path id="mb5ee9a9a24" d="M 0 0 
L 0 3.5 
" style="stroke: #000000; stroke-width: 0.8"/>
      </defs>
      <g>
       <use xlink:href="#mb5ee9a9a24" x="77.287116" y="260.44" style="stroke: #000000; stroke-width: 0.8"/>
      </g>
     </g>
     <g id="text_1">
      <!-- 0 -->
      <g transform="translate(74.105866 275.038438) scale(0.1 -0.1)">
       <defs>
        <path id="DejaVuSans-30" d="M 2034 4250 
Q 1547 4250 1301 3770 
Q 1056 3291 1056 2328 
Q 1056 1369 1301 889 
Q 1547 409 2034 409 
Q 2525 409 2770 889 
Q 3016 1369 3016 2328 
Q 3016 3291 2770 3770 
Q 2525 4250 2034 4250 
z
M 2034 4750 
Q 2819 4750 3233 4129 
Q 3647 3509 3647 2328 
Q 3647 1150 3233 529 
Q 2819 -91 2034 -91 
Q 1250 -91 836 529 
Q 422 1150 422 2328 
Q 422 3509 836 4129 
Q 1250 4750 2034 4750 
z
" transform="scale(0.015625)"/>
       </defs>
       <use xlink:href="#DejaVuSans-30"/>
      </g>
     </g>
    </g>
    <g id="xtick_2">
     <g id="line2d_3">
      <path d="M 185.781518 260.44 
L 185.781518 26.88 
" clip-path="url(#pd60d1b1313)" style="fill: none; stroke-dasharray: 2.96,1.28; stroke-dashoffset: 0; stroke: #b0b0b0; stroke-opacity: 0.3; stroke-width: 0.8"/>
     </g>
     <g id="line2d_4">
      <g>
       <use xlink:href="#mb5ee9a9a24" x="185.781518" y="260.44" style="stroke: #000000; stroke-width: 0.8"/>
      </g>
     </g>
     <g id="text_2">
      <!-- 2000 -->
      <g transform="translate(173.056518 275.038438) scale(0.1 -0.1)">
       <defs>
        <path id="DejaVuSans-32" d="M 1228 531 
L 3431 531 
L 3431 0 
L 469 0 
L 469 531 
Q 828 903 1448 1529 
Q 2069 2156 2228 2338 
Q 2531 2678 2651 2914 
Q 2772 3150 2772 3378 
Q 2772 3750 2511 3984 
Q 2250 4219 1831 4219 
Q 1534 4219 1204 4116 
Q 875 4013 500 3803 
L 500 4441 
Q 881 4594 1212 4672 
Q 1544 4750 1819 4750 
Q 2544 4750 2975 4387 
Q 3406 4025 3406 3419 
Q 3406 3131 3298 2873 
Q 3191 2616 2906 2266 
Q 2828 2175 2409 1742 
Q 1991 1309 1228 531 
z
" transform="scale(0.015625)"/>
       </defs>
       <use xlink:href="#DejaVuSans-32"/>
       <use xlink:href="#DejaVuSans-30" x="63.623047"/>
       <use xlink:href="#DejaVuSans-30" x="127.246094"/>
       <use xlink:href="#DejaVuSans-30" x="190.869141"/>
      </g>
     </g>
    </g>
    <g id="xtick_3">
     <g id="line2d_5">
      <path d="M 294.275919 260.44 
L 294.275919 26.88 
" clip-path="url(#pd60d1b1313)" style="fill: none; stroke-dasharray: 2.96,1.28; stroke-dashoffset: 0; stroke: #b0b0b0; stroke-opacity: 0.3; stroke-width: 0.8"/>
     </g>
     <g id="line2d_6">
      <g>
       <use xlink:href="#mb5ee9a9a24" x="294.275919" y="260.44" style="stroke: #000000; stroke-width: 0.8"/>
      </g>
     </g>
     <g id="text_3">
      <!-- 4000 -->
      <g transform="translate(281.550919 275.038438) scale(0.1 -0.1)">
       <defs>
        <path id="DejaVuSans-34" d="M 2419 4116 
L 825 1625 
L 2419 1625 
L 2419 4116 
z
M 2253 4666 
L 3047 4666 
L 3047 1625 
L 3713 1625 
L 3713 1100 
L 3047 1100 
L 3047 0 
L 2419 0 
L 2419 1100 
L 313 1100 
L 313 1709 
L 2253 4666 
z
" transform="scale(0.015625)"/>
       </defs>
       <use xlink:href="#DejaVuSans-34"/>
       <use xlink:href="#DejaVuSans-30" x="63.623047"/>
       <use xlink:href="#DejaVuSans-30" x="127.246094"/>
       <use xlink:href="#DejaVuSans-30" x="190.869141"/>
      </g>
     </g>
    </g>
    <g id="xtick_4">
     <g id="line2d_7">
      <path d="M 402.77032 260.44 
L 402.77032 26.88 
" clip-path="url(#pd60d1b1313)" style="fill: none; stroke-dasharray: 2.96,1.28; stroke-dashoffset: 0; stroke: #b0b0b0; stroke-opacity: 0.3; stroke-width: 0.8"/>
     </g>
     <g id="line2d_8">
      <g>
       <use xlink:href="#mb5ee9a9a24" x="402.77032" y="260.44" style="stroke: #000000; stroke-width: 0.8"/>
      </g>
     </g>
     <g id="text_4">
      <!-- 6000 -->
      <g transform="translate(390.04532 275.038438) scale(0.1 -0.1)">
       <defs>
        <path id="DejaVuSans-36" d="M 2113 2584 
Q 1688 2584 1439 2293 
Q 1191 2003 1191 1497 
Q 1191 994 1439 701 
Q 1688 409 2113 409 
Q 2538 409 2786 701 
Q 3034 994 3034 1497 
Q 3034 2003 2786 2293 
Q 2538 2584 2113 2584 
z
M 3366 4563 
L 3366 3988 
Q 3128 4100 2886 4159 
Q 2644 4219 2406 4219 
Q 1781 4219 1451 3797 
Q 1122 3375 1075 2522 
Q 1259 2794 1537 2939 
Q 1816 3084 2150 3084 
Q 2853 3084 3261 2657 
Q 3669 2231 3669 1497 
Q 3669 778 3244 343 
Q 2819 -91 2113 -91 
Q 1303 -91 875 529 
Q 447 1150 447 2328 
Q 447 3434 972 4092 
Q 1497 4750 2381 4750 
Q 2619 4750 2861 4703 
Q 3103 4656 3366 4563 
z
" transform="scale(0.015625)"/>
       </defs>
       <use xlink:href="#DejaVuSans-36"/>
       <use xlink:href="#DejaVuSans-30" x="63.623047"/>
       <use xlink:href="#DejaVuSans-30" x="127.246094"/>
       <use xlink:href="#DejaVuSans-30" x="190.869141"/>
      </g>
     </g>
    </g>
    <g id="xtick_5">
     <g id="line2d_9">
      <path d="M 511.264721 260.44 
L 511.264721 26.88 
" clip-path="url(#pd60d1b1313)" style="fill: none; stroke-dasharray: 2.96,1.28; stroke-dashoffset: 0; stroke: #b0b0b0; stroke-opacity: 0.3; stroke-width: 0.8"/>
     </g>
     <g id="line2d_10">
      <g>
       <use xlink:href="#mb5ee9a9a24" x="511.264721" y="260.44" style="stroke: #000000; stroke-width: 0.8"/>
      </g>
     </g>
     <g id="text_5">
      <!-- 8000 -->
      <g transform="translate(498.539721 275.038438) scale(0.1 -0.1)">
       <defs>
        <path id="DejaVuSans-38" d="M 2034 2216 
Q 1584 2216 1326 1975 
Q 1069 1734 1069 1313 
Q 1069 891 1326 650 
Q 1584 409 2034 409 
Q 2484 409 2743 651 
Q 3003 894 3003 1313 
Q 3003 1734 2745 1975 
Q 2488 2216 2034 2216 
z
M 1403 2484 
Q 997 2584 770 2862 
Q 544 3141 544 3541 
Q 544 4100 942 4425 
Q 1341 4750 2034 4750 
Q 2731 4750 3128 4425 
Q 3525 4100 3525 3541 
Q 3525 3141 3298 2862 
Q 3072 2584 2669 2484 
Q 3125 2378 3379 2068 
Q 3634 1759 3634 1313 
Q 3634 634 3220 271 
Q 2806 -91 2034 -91 
Q 1263 -91 848 271 
Q 434 634 434 1313 
Q 434 1759 690 2068 
Q 947 2378 1403 2484 
z
M 1172 3481 
Q 1172 3119 1398 2916 
Q 1625 2713 2034 2713 
Q 2441 2713 2670 2916 
Q 2900 3119 2900 3481 
Q 2900 3844 2670 4047 
Q 2441 4250 2034 4250 
Q 1625 4250 1398 4047 
Q 1172 3844 1172 3481 
z
" transform="scale(0.015625)"/>
       </defs>
       <use xlink:href="#DejaVuSans-38"/>
       <use xlink:href="#DejaVuSans-30" x="63.623047"/>
       <use xlink:href="#DejaVuSans-30" x="127.246094"/>
       <use xlink:href="#DejaVuSans-30" x="190.869141"/>
      </g>
     </g>
    </g>
    <g id="text_6">
     <!-- round -->
     <g transform="translate(295.140937 288.716563) scale(0.1 -0.1)">
      <defs>
       <path id="DejaVuSans-72" d="M 2631 2963 
Q 2534 3019 2420 3045 
Q 2306 3072 2169 3072 
Q 1681 3072 1420 2755 
Q 1159 2438 1159 1844 
L 1159 0 
L 581 0 
L 581 3500 
L 1159 3500 
L 1159 2956 
Q 1341 3275 1631 3429 
Q 1922 3584 2338 3584 
Q 2397 3584 2469 3576 
Q 2541 3569 2628 3553 
L 2631 2963 
z
" transform="scale(0.015625)"/>
       <path id="DejaVuSans-6f" d="M 1959 3097 
Q 1497 3097 1228 2736 
Q 959 2375 959 1747 
Q 959 1119 1226 758 
Q 1494 397 1959 397 
Q 2419 397 2687 759 
Q 2956 1122 2956 1747 
Q 2956 2369 2687 2733 
Q 2419 3097 1959 3097 
z
M 1959 3584 
Q 2709 3584 3137 3096 
Q 3566 2609 3566 1747 
Q 3566 888 3137 398 
Q 2709 -91 1959 -91 
Q 1206 -91 779 398 
Q 353 888 353 1747 
Q 353 2609 779 3096 
Q 1206 3584 1959 3584 
z
" transform="scale(0.015625)"/>
       <path id="DejaVuSans-75" d="M 544 1381 
L 544 3500 
L 1119 3500 
L 1119 1403 
Q 1119 906 1312 657 
Q 1506 409 1894 409 
Q 2359 409 2629 706 
Q 2900 1003 2900 1516 
L 2900 3500 
L 3475 3500 
L 3475 0 
L 2900 0 
L 2900 538 
Q 2691 219 2414 64 
Q 2138 -91 1772 -91 
Q 1169 -91 856 284 
Q 544 659 544 1381 
z
M 1991 3584 
L 1991 3584 
z
" transform="scale(0.015625)"/>
       <path id="DejaVuSans-6e" d="M 3513 2113 
L 3513 0 
L 2938 0 
L 2938 2094 
Q 2938 2591 2744 2837 
Q 2550 3084 2163 3084 
Q 1697 3084 1428 2787 
Q 1159 2491 1159 1978 
L 1159 0 
L 581 0 
L 581 3500 
L 1159 3500 
L 1159 2956 
Q 1366 3272 1645 3428 
Q 1925 3584 2291 3584 
Q 2894 3584 3203 3211 
Q 3513 2838 3513 2113 
z
" transform="scale(0.015625)"/>
       <path id="DejaVuSans-64" d="M 2906 2969 
L 2906 4863 
L 3481 4863 
L 3481 0 
L 2906 0 
L 2906 525 
Q 2725 213 2448 61 
Q 2172 -91 1784 -91 
Q 1150 -91 751 415 
Q 353 922 353 1747 
Q 353 2572 751 3078 
Q 1150 3584 1784 3584 
Q 2172 3584 2448 3432 
Q 2725 3281 2906 2969 
z
M 947 1747 
Q 947 1113 1208 752 
Q 1469 391 1925 391 
Q 2381 391 2643 752 
Q 2906 1113 2906 1747 
Q 2906 2381 2643 2742 
Q 2381 3103 1925 3103 
Q 1469 3103 1208 2742 
Q 947 2381 947 1747 
z
" transform="scale(0.015625)"/>
      </defs>
      <use xlink:href="#DejaVuSans-72"/>
      <use xlink:href="#DejaVuSans-6f" x="38.863281"/>
      <use xlink:href="#DejaVuSans-75" x="100.044922"/>
      <use xlink:href="#DejaVuSans-6e" x="163.423828"/>
      <use xlink:href="#DejaVuSans-64" x="226.802734"/>
     </g>
    </g>
   </g>
   <g id="matplotlib.axis_2">
    <g id="ytick_1">
     <g id="line2d_11">
      <path d="M 54.11 233.899091 
L 565.2 233.899091 
" clip-path="url(#pd60d1b1313)" style="fill: none; stroke-dasharray: 2.96,1.28; stroke-dashoffset: 0; stroke: #b0b0b0; stroke-opacity: 0.3; stroke-width: 0.8"/>
     </g>
     <g id="line2d_12">
      <defs>
       <path id="m6e67789bcc" d="M 0 0 
L -3.5 0 
" style="stroke: #000000; stroke-width: 0.8"/>
      </defs>
      <g>
       <use xlink:href="#m6e67789bcc" x="54.11" y="233.899091" style="stroke: #000000; stroke-width: 0.8"/>
      </g>
     </g>
     <g id="text_7">
      <!-- 0.90 -->
      <g transform="translate(24.844375 237.69831) scale(0.1 -0.1)">
       <defs>
        <path id="DejaVuSans-2e" d="M 684 794 
L 1344 794 
L 1344 0 
L 684 0 
L 684 794 
z
" transform="scale(0.015625)"/>
        <path id="DejaVuSans-39" d="M 703 97 
L 703 672 
Q 941 559 1184 500 
Q 1428 441 1663 441 
Q 2288 441 2617 861 
Q 2947 1281 2994 2138 
Q 2813 1869 2534 1725 
Q 2256 1581 1919 1581 
Q 1219 1581 811 2004 
Q 403 2428 403 3163 
Q 403 3881 828 4315 
Q 1253 4750 1959 4750 
Q 2769 4750 3195 4129 
Q 3622 3509 3622 2328 
Q 3622 1225 3098 567 
Q 2575 -91 1691 -91 
Q 1453 -91 1209 -44 
Q 966 3 703 97 
z
M 1959 2075 
Q 2384 2075 2632 2365 
Q 2881 2656 2881 3163 
Q 2881 3666 2632 3958 
Q 2384 4250 1959 4250 
Q 1534 4250 1286 3958 
Q 1038 3666 1038 3163 
Q 1038 2656 1286 2365 
Q 1534 2075 1959 2075 
z
" transform="scale(0.015625)"/>
       </defs>
       <use xlink:href="#DejaVuSans-30"/>
       <use xlink:href="#DejaVuSans-2e" x="63.623047"/>
       <use xlink:href="#DejaVuSans-39" x="95.410156"/>
       <use xlink:href="#DejaVuSans-30" x="159.033203"/>
      </g>
     </g>
    </g>
    <g id="ytick_2">
     <g id="line2d_13">
      <path d="M 54.11 194.618545 
L 565.2 194.618545 
" clip-path="url(#pd60d1b1313)" style="fill: none; stroke-dasharray: 2.96,1.28; stroke-dashoffset: 0; stroke: #b0b0b0; stroke-opacity: 0.3; stroke-width: 0.8"/>
     </g>
     <g id="line2d_14">
      <g>
       <use xlink:href="#m6e67789bcc" x="54.11" y="194.618545" style="stroke: #000000; stroke-width: 0.8"/>
      </g>
     </g>
     <g id="text_8">
      <!-- 0.92 -->
      <g transform="translate(24.844375 198.417764) scale(0.1 -0.1)">
       <use xlink:href="#DejaVuSans-30"/>
       <use xlink:href="#DejaVuSans-2e" x="63.623047"/>
       <use xlink:href="#DejaVuSans-39" x="95.410156"/>
       <use xlink:href="#DejaVuSans-32" x="159.033203"/>
      </g>
     </g>
    </g>
    <g id="ytick_3">
     <g id="line2d_15">
      <path d="M 54.11 155.338 
L 565.2 155.338 
" clip-path="url(#pd60d1b1313)" style="fill: none; stroke-dasharray: 2.96,1.28; stroke-dashoffset: 0; stroke: #b0b0b0; stroke-opacity: 0.3; stroke-width: 0.8"/>
     </g>
     <g id="line2d_16">
      <g>
       <use xlink:href="#m6e67789bcc" x="54.11" y="155.338" style="stroke: #000000; stroke-width: 0.8"/>
      </g>
     </g>
     <g id="text_9">
      <!-- 0.94 -->
      <g transform="translate(24.844375 159.137219) scale(0.1 -0.1)">
       <use xlink:href="#DejaVuSans-30"/>
       <use xlink:href="#DejaVuSans-2e" x="63.623047"/>
       <use xlink:href="#DejaVuSans-39" x="95.410156"/>
       <use xlink:href="#DejaVuSans-34" x="159.033203"/>
      </g>
     </g>
    </g>
    <g id="ytick_4">
     <g id="line2d_17">
      <path d="M 54.11 116.057455 
L 565.2 116.057455 
" clip-path="url(#pd60d1b1313)" style="fill: none; stroke-dasharray: 2.96,1.28; stroke-dashoffset: 0; stroke: #b0b0b0; stroke-opacity: 0.3; stroke-width: 0.8"/>
     </g>
     <g id="line2d_18">
      <g>
       <use xlink:href="#m6e67789bcc" x="54.11" y="116.057455" style="stroke: #000000; stroke-width: 0.8"/>
      </g>
     </g>
     <g id="text_10">
      <!-- 0.96 -->
      <g transform="translate(24.844375 119.856673) scale(0.1 -0.1)">
       <use xlink:href="#DejaVuSans-30"/>
       <use xlink:href="#DejaVuSans-2e" x="63.623047"/>
       <use xlink:href="#DejaVuSans-39" x="95.410156"/>
       <use xlink:href="#DejaVuSans-36" x="159.033203"/>
      </g>
     </g>
    </g>
    <g id="ytick_5">
     <g id="line2d_19">
      <path d="M 54.11 76.776909 
L 565.2 76.776909 
" clip-path="url(#pd60d1b1313)" style="fill: none; stroke-dasharray: 2.96,1.28; stroke-dashoffset: 0; stroke: #b0b0b0; stroke-opacity: 0.3; stroke-width: 0.8"/>
     </g>
     <g id="line2d_20">
      <g>
       <use xlink:href="#m6e67789bcc" x="54.11" y="76.776909" style="stroke: #000000; stroke-width: 0.8"/>
      </g>
     </g>
     <g id="text_11">
      <!-- 0.98 -->
      <g transform="translate(24.844375 80.576128) scale(0.1 -0.1)">
       <use xlink:href="#DejaVuSans-30"/>
       <use xlink:href="#DejaVuSans-2e" x="63.623047"/>
       <use xlink:href="#DejaVuSans-39" x="95.410156"/>
       <use xlink:href="#DejaVuSans-38" x="159.033203"/>
      </g>
     </g>
    </g>
    <g id="ytick_6">
     <g id="line2d_21">
      <path d="M 54.11 37.496364 
L 565.2 37.496364 
" clip-path="url(#pd60d1b1313)" style="fill: none; stroke-dasharray: 2.96,1.28; stroke-dashoffset: 0; stroke: #b0b0b0; stroke-opacity: 0.3; stroke-width: 0.8"/>
     </g>
     <g id="line2d_22">
      <g>
       <use xlink:href="#m6e67789bcc" x="54.11" y="37.496364" style="stroke: #000000; stroke-width: 0.8"/>
      </g>
     </g>
     <g id="text_12">
      <!-- 1.00 -->
      <g transform="translate(24.844375 41.295582) scale(0.1 -0.1)">
       <defs>
        <path id="DejaVuSans-31" d="M 794 531 
L 1825 531 
L 1825 4091 
L 703 3866 
L 703 4441 
L 1819 4666 
L 2450 4666 
L 2450 531 
L 3481 531 
L 3481 0 
L 794 0 
L 794 531 
z
" transform="scale(0.015625)"/>
       </defs>
       <use xlink:href="#DejaVuSans-31"/>
       <use xlink:href="#DejaVuSans-2e" x="63.623047"/>
       <use xlink:href="#DejaVuSans-30" x="95.410156"/>
       <use xlink:href="#DejaVuSans-30" x="159.033203"/>
      </g>
     </g>
    </g>
    <g id="text_13">
     <!-- cumulative timely transfer rate -->
     <g transform="translate(18.764688 221.768594) rotate(-90) scale(0.1 -0.1)">
      <defs>
       <path id="DejaVuSans-63" d="M 3122 3366 
L 3122 2828 
Q 2878 2963 2633 3030 
Q 2388 3097 2138 3097 
Q 1578 3097 1268 2742 
Q 959 2388 959 1747 
Q 959 1106 1268 751 
Q 1578 397 2138 397 
Q 2388 397 2633 464 
Q 2878 531 3122 666 
L 3122 134 
Q 2881 22 2623 -34 
Q 2366 -91 2075 -91 
Q 1284 -91 818 406 
Q 353 903 353 1747 
Q 353 2603 823 3093 
Q 1294 3584 2113 3584 
Q 2378 3584 2631 3529 
Q 2884 3475 3122 3366 
z
" transform="scale(0.015625)"/>
       <path id="DejaVuSans-6d" d="M 3328 2828 
Q 3544 3216 3844 3400 
Q 4144 3584 4550 3584 
Q 5097 3584 5394 3201 
Q 5691 2819 5691 2113 
L 5691 0 
L 5113 0 
L 5113 2094 
Q 5113 2597 4934 2840 
Q 4756 3084 4391 3084 
Q 3944 3084 3684 2787 
Q 3425 2491 3425 1978 
L 3425 0 
L 2847 0 
L 2847 2094 
Q 2847 2600 2669 2842 
Q 2491 3084 2119 3084 
Q 1678 3084 1418 2786 
Q 1159 2488 1159 1978 
L 1159 0 
L 581 0 
L 581 3500 
L 1159 3500 
L 1159 2956 
Q 1356 3278 1631 3431 
Q 1906 3584 2284 3584 
Q 2666 3584 2933 3390 
Q 3200 3197 3328 2828 
z
" transform="scale(0.015625)"/>
       <path id="DejaVuSans-6c" d="M 603 4863 
L 1178 4863 
L 1178 0 
L 603 0 
L 603 4863 
z
" transform="scale(0.015625)"/>
       <path id="DejaVuSans-61" d="M 2194 1759 
Q 1497 1759 1228 1600 
Q 959 1441 959 1056 
Q 959 750 1161 570 
Q 1363 391 1709 391 
Q 2188 391 2477 730 
Q 2766 1069 2766 1631 
L 2766 1759 
L 2194 1759 
z
M 3341 1997 
L 3341 0 
L 2766 0 
L 2766 531 
Q 2569 213 2275 61 
Q 1981 -91 1556 -91 
Q 1019 -91 701 211 
Q 384 513 384 1019 
Q 384 1609 779 1909 
Q 1175 2209 1959 2209 
L 2766 2209 
L 2766 2266 
Q 2766 2663 2505 2880 
Q 2244 3097 1772 3097 
Q 1472 3097 1187 3025 
Q 903 2953 641 2809 
L 641 3341 
Q 956 3463 1253 3523 
Q 1550 3584 1831 3584 
Q 2591 3584 2966 3190 
Q 3341 2797 3341 1997 
z
" transform="scale(0.015625)"/>
       <path id="DejaVuSans-74" d="M 1172 4494 
L 1172 3500 
L 2356 3500 
L 2356 3053 
L 1172 3053 
L 1172 1153 
Q 1172 725 1289 603 
Q 1406 481 1766 481 
L 2356 481 
L 2356 0 
L 1766 0 
Q 1100 0 847 248 
Q 594 497 594 1153 
L 594 3053 
L 172 3053 
L 172 3500 
L 594 3500 
L 594 4494 
L 1172 4494 
z
" transform="scale(0.015625)"/>
       <path id="DejaVuSans-69" d="M 603 3500 
L 1178 3500 
L 1178 0 
L 603 0 
L 603 3500 
z
M 603 4863 
L 1178 4863 
L 1178 4134 
L 603 4134 
L 603 4863 
z
" transform="scale(0.015625)"/>
       <path id="DejaVuSans-76" d="M 191 3500 
L 800 3500 
L 1894 563 
L 2988 3500 
L 3597 3500 
L 2284 0 
L 1503 0 
L 191 3500 
z
" transform="scale(0.015625)"/>
       <path id="DejaVuSans-65" d="M 3597 1894 
L 3597 1613 
L 953 1613 
Q 991 1019 1311 708 
Q 1631 397 2203 397 
Q 2534 397 2845 478 
Q 3156 559 3463 722 
L 3463 178 
Q 3153 47 2828 -22 
Q 2503 -91 2169 -91 
Q 1331 -91 842 396 
Q 353 884 353 1716 
Q 353 2575 817 3079 
Q 1281 3584 2069 3584 
Q 2775 3584 3186 3129 
Q 3597 2675 3597 1894 
z
M 3022 2063 
Q 3016 2534 2758 2815 
Q 2500 3097 2075 3097 
Q 1594 3097 1305 2825 
Q 1016 2553 972 2059 
L 3022 2063 
z
" transform="scale(0.015625)"/>
       <path id="DejaVuSans-20" transform="scale(0.015625)"/>
       <path id="DejaVuSans-79" d="M 2059 -325 
Q 1816 -950 1584 -1140 
Q 1353 -1331 966 -1331 
L 506 -1331 
L 506 -850 
L 844 -850 
Q 1081 -850 1212 -737 
Q 1344 -625 1503 -206 
L 1606 56 
L 191 3500 
L 800 3500 
L 1894 763 
L 2988 3500 
L 3597 3500 
L 2059 -325 
z
" transform="scale(0.015625)"/>
       <path id="DejaVuSans-73" d="M 2834 3397 
L 2834 2853 
Q 2591 2978 2328 3040 
Q 2066 3103 1784 3103 
Q 1356 3103 1142 2972 
Q 928 2841 928 2578 
Q 928 2378 1081 2264 
Q 1234 2150 1697 2047 
L 1894 2003 
Q 2506 1872 2764 1633 
Q 3022 1394 3022 966 
Q 3022 478 2636 193 
Q 2250 -91 1575 -91 
Q 1294 -91 989 -36 
Q 684 19 347 128 
L 347 722 
Q 666 556 975 473 
Q 1284 391 1588 391 
Q 1994 391 2212 530 
Q 2431 669 2431 922 
Q 2431 1156 2273 1281 
Q 2116 1406 1581 1522 
L 1381 1569 
Q 847 1681 609 1914 
Q 372 2147 372 2553 
Q 372 3047 722 3315 
Q 1072 3584 1716 3584 
Q 2034 3584 2315 3537 
Q 2597 3491 2834 3397 
z
" transform="scale(0.015625)"/>
       <path id="DejaVuSans-66" d="M 2375 4863 
L 2375 4384 
L 1825 4384 
Q 1516 4384 1395 4259 
Q 1275 4134 1275 3809 
L 1275 3500 
L 2222 3500 
L 2222 3053 
L 1275 3053 
L 1275 0 
L 697 0 
L 697 3053 
L 147 3053 
L 147 3500 
L 697 3500 
L 697 3744 
Q 697 4328 969 4595 
Q 1241 4863 1831 4863 
L 2375 4863 
z
" transform="scale(0.015625)"/>
      </defs>
      <use xlink:href="#DejaVuSans-63"/>
      <use xlink:href="#DejaVuSans-75" x="54.980469"/>
      <use xlink:href="#DejaVuSans-6d" x="118.359375"/>
      <use xlink:href="#DejaVuSans-75" x="215.771484"/>
      <use xlink:href="#DejaVuSans-6c" x="279.150391"/>
      <use xlink:href="#DejaVuSans-61" x="306.933594"/>
      <use xlink:href="#DejaVuSans-74" x="368.212891"/>
      <use xlink:href="#DejaVuSans-69" x="407.421875"/>
      <use xlink:href="#DejaVuSans-76" x="435.205078"/>
      <use xlink:href="#DejaVuSans-65" x="494.384766"/>
      <use xlink:href="#DejaVuSans-20" x="555.908203"/>
      <use xlink:href="#DejaVuSans-74" x="587.695312"/>
      <use xlink:href="#DejaVuSans-69" x="626.904297"/>
      <use xlink:href="#DejaVuSans-6d" x="654.6875"/>
      <use xlink:href="#DejaVuSans-65" x="752.099609"/>
      <use xlink:href="#DejaVuSans-6c" x="813.623047"/>
      <use xlink:href="#DejaVuSans-79" x="841.40625"/>
      <use xlink:href="#DejaVuSans-20" x="900.585938"/>
      <use xlink:href="#DejaVuSans-74" x="932.373047"/>
      <use xlink:href="#DejaVuSans-72" x="971.582031"/>
      <use xlink:href="#DejaVuSans-61" x="1012.695312"/>
      <use xlink:href="#DejaVuSans-6e" x="1073.974609"/>
      <use xlink:href="#DejaVuSans-73" x="1137.353516"/>
      <use xlink:href="#DejaVuSans-66" x="1189.453125"/>
      <use xlink:href="#DejaVuSans-65" x="1224.658203"/>
      <use xlink:href="#DejaVuSans-72" x="1286.181641"/>
      <use xlink:href="#DejaVuSans-20" x="1327.294922"/>
      <use xlink:href="#DejaVuSans-72" x="1359.082031"/>
      <use xlink:href="#DejaVuSans-61" x="1400.195312"/>
      <use xlink:href="#DejaVuSans-74" x="1461.474609"/>
      <use xlink:href="#DejaVuSans-65" x="1500.683594"/>
     </g>
    </g>
   </g>
   <g id="line2d_23">
    <path d="M 77.341364 37.496364 
L 79.945229 37.496364 
L 80.107971 82.133347 
L 80.216465 80.985539 
L 80.433454 140.798258 
L 80.487701 139.590049 
L 80.541948 156.187579 
L 80.596196 154.917755 
L 80.650443 153.242388 
L 80.70469 169.942917 
L 80.758937 168.66786 
L 81.301409 156.625887 
L 81.355656 168.501948 
L 81.409904 167.522729 
L 81.789634 157.703364 
L 81.898128 171.772662 
L 81.952376 170.682549 
L 82.115117 167.092959 
L 82.169364 173.661707 
L 82.223612 172.607124 
L 82.603342 164.072598 
L 82.928825 157.613058 
L 83.145814 187.520936 
L 83.200061 186.82611 
L 83.471297 227.400471 
L 83.688286 222.835141 
L 84.935972 185.799313 
L 84.990219 192.991145 
L 85.044466 191.765398 
L 85.424197 181.621458 
L 85.478444 190.53745 
L 85.532691 189.236817 
L 86.12941 176.10097 
L 86.237905 183.855258 
L 86.292152 182.912961 
L 87.214354 163.425631 
L 87.756826 154.523895 
L 88.570534 141.958997 
L 89.275748 133.179744 
L 89.81822 125.263493 
L 90.360692 118.650362 
L 90.957411 111.41629 
L 92.259344 100.518498 
L 92.367838 99.635732 
L 92.53058 102.932419 
L 92.693321 101.878499 
L 92.747569 103.543626 
L 92.801816 103.240174 
L 92.964557 102.286397 
L 93.018805 105.470134 
L 93.073052 105.110123 
L 93.452782 102.727469 
L 93.669771 112.232332 
L 93.832513 111.212307 
L 94.537726 107.60605 
L 95.188693 104.171157 
L 95.351434 105.443356 
L 95.514176 104.771781 
L 95.62267 108.494138 
L 95.731165 108.208943 
L 95.893906 107.387489 
L 95.948153 107.614484 
L 96.002401 107.373722 
L 96.056648 107.22599 
L 96.110895 111.172325 
L 96.165142 110.900694 
L 96.870356 105.905856 
L 96.924603 108.956214 
L 96.97885 108.684322 
L 97.304333 106.608334 
L 97.9553 102.88767 
L 98.931749 98.277556 
L 99.094491 102.351541 
L 99.148738 102.114857 
L 99.202985 101.876292 
L 99.257233 104.983823 
L 99.31148 104.781473 
L 99.365727 104.587761 
L 99.419974 106.335427 
L 99.474221 106.149745 
L 99.528469 105.96882 
L 99.582716 108.480126 
L 99.636963 108.302037 
L 101.210132 101.344395 
L 101.806851 98.96521 
L 101.861098 99.844965 
L 101.915345 99.610572 
L 102.674806 96.73494 
L 102.946042 95.8278 
L 103.054537 98.282969 
L 103.163031 97.883231 
L 104.193728 94.633468 
L 104.35647 97.136394 
L 104.7362 95.928023 
L 105.495661 93.810656 
L 105.549908 94.283323 
L 105.604155 94.17204 
L 105.929638 93.331034 
L 106.09238 96.728112 
L 106.146627 96.636931 
L 106.363616 96.237735 
L 106.417863 96.551664 
L 106.47211 96.457316 
L 106.526358 96.297832 
L 106.580605 96.95734 
L 106.634852 96.777647 
L 106.689099 96.649026 
L 106.743346 97.298361 
L 106.797594 97.147368 
L 107.231571 96.136697 
L 107.394313 99.683776 
L 107.44856 99.557356 
L 107.611302 102.322647 
L 107.719796 102.152837 
L 107.882538 101.870275 
L 107.936785 103.083734 
L 107.991032 103.000753 
L 108.045279 102.897321 
L 108.587751 110.586845 
L 108.750493 110.073693 
L 108.967482 112.777081 
L 109.455706 111.494457 
L 109.618448 113.721869 
L 109.726942 113.429933 
L 110.377909 111.633297 
L 110.54065 113.73565 
L 110.703392 113.209009 
L 110.757639 114.439954 
L 110.811886 114.315474 
L 110.974628 113.857655 
L 111.734089 111.532428 
L 111.788336 112.759308 
L 111.842583 112.656117 
L 112.439302 111.047103 
L 113.198763 108.961056 
L 113.361505 108.545276 
L 113.469999 110.025218 
L 113.524246 109.898492 
L 115.260157 105.673404 
L 115.314404 105.932863 
L 115.368651 105.784259 
L 115.422898 105.638123 
L 115.477146 106.250429 
L 115.531393 106.098387 
L 115.58564 106.132849 
L 116.779078 103.457561 
L 116.833326 103.823927 
L 116.887573 103.734382 
L 116.996067 103.482258 
L 117.050314 104.1545 
L 117.104562 104.03148 
L 117.267303 103.721742 
L 117.32155 104.493325 
L 117.375798 104.357286 
L 117.430045 104.233485 
L 117.484292 105.272175 
L 117.538539 105.150543 
L 118.406494 103.457657 
L 118.460742 103.463329 
L 118.514989 103.964121 
L 118.569236 103.858245 
L 118.840472 103.41754 
L 118.948966 104.938229 
L 119.003214 104.820788 
L 119.057461 104.716561 
L 119.111708 105.714129 
L 119.165955 105.618576 
L 119.545686 104.813115 
L 119.599933 105.716353 
L 119.65418 105.631772 
L 120.196652 104.592711 
L 120.250899 105.145138 
L 120.305146 105.03488 
L 121.281596 103.402433 
L 121.98681 102.288572 
L 122.149551 103.408791 
L 122.258046 103.182036 
L 122.420787 103.974014 
L 124.265192 100.848157 
L 124.319439 101.472512 
L 124.373687 101.377688 
L 125.024653 100.384721 
L 125.187395 100.100525 
L 125.241642 100.516455 
L 125.295889 100.415067 
L 125.892608 99.572423 
L 126.326586 98.911974 
L 126.380833 99.30061 
L 126.43508 99.229199 
L 126.706316 98.825646 
L 127.086047 98.228942 
L 127.140294 98.566346 
L 127.194541 98.477171 
L 128.225238 97.061488 
L 128.387979 96.864278 
L 128.604968 98.292207 
L 128.713463 98.157921 
L 128.984699 97.809754 
L 129.038946 97.987564 
L 129.093193 97.918515 
L 129.798407 96.985371 
L 129.852654 97.511172 
L 129.906901 97.447142 
L 130.178137 97.067952 
L 130.340879 98.106021 
L 130.395126 98.040958 
L 130.937598 97.369311 
L 131.263081 96.959006 
L 131.317328 97.052029 
L 131.371575 96.994604 
L 131.697059 96.557657 
L 131.751306 96.961625 
L 131.805553 96.891387 
L 132.131036 96.534512 
L 132.185283 96.782384 
L 132.239531 96.701706 
L 132.510767 96.378152 
L 132.565014 97.753733 
L 132.619261 97.673416 
L 133.161733 97.045554 
L 133.21598 97.129998 
L 133.270227 97.065581 
L 133.487216 96.804317 
L 133.541463 97.006347 
L 133.595711 96.944475 
L 133.975441 96.517894 
L 134.029688 96.745108 
L 134.083935 96.672284 
L 134.57216 96.122114 
L 134.626407 96.330319 
L 134.680655 96.279097 
L 135.277374 95.557105 
L 135.385868 96.02203 
L 135.440115 95.952013 
L 135.874093 95.484211 
L 135.92834 95.721937 
L 135.982587 95.664145 
L 136.850543 94.704344 
L 136.90479 95.002988 
L 136.959037 94.946977 
L 137.013284 94.886571 
L 137.067531 95.217506 
L 137.121779 95.152438 
L 137.28452 94.966184 
L 137.338767 95.533764 
L 137.393015 95.47232 
L 137.501509 95.356115 
L 137.555756 95.542526 
L 137.610003 95.492113 
L 138.6407 94.38918 
L 138.694947 94.655255 
L 138.749195 94.596247 
L 139.020431 94.285013 
L 139.074678 95.003068 
L 139.128925 94.938945 
L 139.237419 94.817161 
L 139.291667 95.051897 
L 139.345914 95.006115 
L 140.051127 94.243009 
L 140.647847 93.629513 
L 140.702094 93.745286 
L 140.756341 93.699226 
L 141.081824 93.40004 
L 141.136071 93.827491 
L 141.190319 93.776792 
L 141.244566 93.710693 
L 141.298813 93.964175 
L 141.35306 93.905348 
L 141.732791 93.519501 
L 141.841285 94.19191 
L 141.895532 94.134215 
L 142.383757 93.632155 
L 142.438004 94.122043 
L 142.492251 94.072249 
L 142.926229 93.680983 
L 142.980476 93.974582 
L 143.034724 93.927741 
L 143.631443 93.349106 
L 143.68569 93.521719 
L 143.739937 93.468031 
L 144.553645 92.770996 
L 144.607892 92.716466 
L 144.66214 92.953971 
L 144.716387 92.895585 
L 144.987623 92.649748 
L 145.04187 93.213828 
L 145.096117 93.160081 
L 145.367353 92.917619 
L 145.530095 93.667448 
L 146.289556 93.039855 
L 146.343803 93.118026 
L 146.39805 93.060374 
L 146.940522 92.704566 
L 148.079713 92.689263 
L 169.561605 92.764848 
L 169.724346 92.840426 
L 246.97236 92.939724 
L 247.135101 93.015287 
L 251.637619 93.088643 
L 251.854608 93.139008 
L 287.928996 93.239732 
L 288.145985 93.29009 
L 292.106031 93.334551 
L 292.268772 93.410071 
L 297.693492 93.484847 
L 297.856234 93.585521 
L 300.622841 93.66102 
L 300.785583 93.736514 
L 320.151833 93.808287 
L 320.314575 93.908921 
L 324.817093 93.959234 
L 324.979834 94.059852 
L 334.74433 94.132321 
L 335.015566 94.232915 
L 339.246848 94.308354 
L 339.463837 94.358643 
L 343.85786 94.459213 
L 344.129096 94.484354 
L 345.051298 94.484354 
L 345.21404 94.610049 
L 349.119838 94.660322 
L 349.28258 94.735727 
L 354.273322 94.808104 
L 354.436064 94.883493 
L 359.535301 94.930722 
L 359.698043 95.006097 
L 363.441099 95.006097 
L 363.441099 95.006097 
" clip-path="url(#pd60d1b1313)" style="fill: none; stroke: #1f77b4; stroke-width: 1.8; stroke-linecap: square"/>
   </g>
   <g id="line2d_24">
    <path d="M 77.341364 37.496364 
L 77.504105 37.496364 
L 77.6126 85.399468 
L 77.666847 79.284178 
L 77.721094 73.755329 
L 77.829588 129.40897 
L 77.883836 120.329922 
L 77.99233 141.442097 
L 78.046577 134.0046 
L 78.263566 112.984937 
L 78.426308 131.985648 
L 78.589049 119.82086 
L 78.643296 127.62381 
L 78.697544 124.625115 
L 78.806038 118.766458 
L 78.860285 122.391973 
L 78.914532 119.363633 
L 79.34851 102.340439 
L 79.402757 108.705286 
L 79.457004 106.83589 
L 79.619746 102.48256 
L 79.673993 107.988784 
L 79.72824 106.298181 
L 80.053724 98.710352 
L 80.107971 102.979311 
L 80.162218 101.653684 
L 80.433454 96.558598 
L 80.541948 104.319181 
L 80.596196 103.453986 
L 81.030173 96.050338 
L 81.138668 94.355193 
L 81.192915 96.194534 
L 81.247162 95.566159 
L 81.301409 94.835415 
L 81.355656 96.065765 
L 81.409904 95.214716 
L 81.518398 93.682776 
L 81.572645 97.031037 
L 81.626892 96.21941 
L 81.843881 93.503643 
L 82.006623 100.553746 
L 82.223612 97.709763 
L 82.332106 101.326593 
L 82.386353 100.575749 
L 82.603342 97.977751 
L 82.657589 100.288108 
L 82.711836 99.695439 
L 82.766084 99.007903 
L 82.874578 103.121313 
L 82.928825 102.558278 
L 82.983072 101.883107 
L 83.03732 102.718972 
L 83.091567 102.069615 
L 83.308556 100.014156 
L 83.41705 100.100003 
L 83.471297 104.25489 
L 83.525544 103.599547 
L 84.285005 96.604737 
L 84.447747 99.08027 
L 84.501994 98.574164 
L 84.664736 101.250691 
L 84.718983 100.817656 
L 84.935972 103.56932 
L 84.990219 103.130028 
L 85.152961 104.606656 
L 85.207208 104.161347 
L 85.315702 103.288227 
L 85.369949 104.476031 
L 85.424197 103.993645 
L 85.641185 102.497752 
L 85.803927 104.432381 
L 85.858174 104.115574 
L 85.966669 107.02892 
L 86.075163 106.237318 
L 86.292152 107.213805 
L 86.346399 109.983204 
L 86.400646 109.532041 
L 86.509141 108.729768 
L 86.563388 109.453951 
L 86.617635 111.860098 
L 86.671882 111.399973 
L 86.726129 110.924505 
L 86.888871 114.606298 
L 86.943118 114.212962 
L 87.10586 113.05667 
L 87.160107 114.477527 
L 87.214354 114.459403 
L 87.377096 113.222966 
L 87.48559 115.620686 
L 87.539837 115.158078 
L 87.648332 114.434207 
L 87.702579 115.405664 
L 87.756826 115.108857 
L 88.082309 112.761529 
L 88.136557 114.682538 
L 88.190804 114.2618 
L 88.245051 113.855033 
L 88.46204 117.961074 
L 88.516287 117.559524 
L 88.570534 117.214425 
L 88.624781 117.615389 
L 88.679029 117.259136 
L 88.733276 116.868557 
L 88.896017 118.264586 
L 88.950265 117.862568 
L 89.004512 118.995968 
L 89.058759 118.621924 
L 89.167253 117.870334 
L 89.329995 121.456464 
L 89.81822 118.075095 
L 89.872467 118.786791 
L 89.926714 118.409382 
L 90.089456 117.348326 
L 90.306445 119.084982 
L 90.469186 118.004918 
L 90.523433 119.135147 
L 90.577681 118.828934 
L 90.631928 118.504556 
L 90.686175 119.581897 
L 90.740422 119.224289 
L 91.120153 116.952411 
L 91.1744 117.612139 
L 91.228647 117.267779 
L 91.391389 116.432896 
L 91.445636 117.317393 
L 91.499883 117.056144 
L 91.825366 115.729965 
L 91.879613 116.680783 
L 91.933861 116.422284 
L 92.096602 115.496992 
L 92.150849 115.819197 
L 92.205097 115.511965 
L 92.367838 114.663024 
L 92.422085 115.408334 
L 92.476333 115.101512 
L 92.639074 114.329778 
L 92.693321 114.984281 
L 92.747569 114.687819 
L 92.964557 113.612314 
L 93.018805 114.026715 
L 93.073052 113.740048 
L 93.344288 112.485599 
L 93.398535 112.708154 
L 93.778265 110.895526 
L 93.88676 112.308887 
L 93.941007 112.043615 
L 94.429232 109.848391 
L 94.537726 111.241858 
L 94.591973 111.027499 
L 94.917457 109.610482 
L 94.971704 110.009254 
L 95.025951 109.770905 
L 95.405681 108.200184 
L 95.459929 108.490533 
L 95.514176 108.305285 
L 95.568423 108.105473 
L 95.62267 108.593347 
L 95.676917 108.368119 
L 96.056648 106.924595 
L 96.219389 107.771639 
L 96.653367 106.19523 
L 96.707614 107.403337 
L 96.761861 107.19919 
L 97.087345 106.401457 
L 97.141592 106.664827 
L 97.195839 106.490605 
L 97.358581 105.911594 
L 97.412828 106.755129 
L 97.467075 106.553342 
L 97.521322 106.38229 
L 97.575569 107.279867 
L 97.629817 107.096516 
L 97.901053 106.182891 
L 97.9553 106.622303 
L 98.009547 106.42848 
L 98.443525 105.014064 
L 98.497772 105.47098 
L 98.552019 105.280994 
L 98.985997 103.878021 
L 99.040244 104.604494 
L 99.094491 104.466868 
L 99.474221 103.318457 
L 99.528469 103.912745 
L 99.582716 103.765599 
L 100.070941 102.393855 
L 100.125188 102.889238 
L 100.179435 102.719401 
L 100.559165 101.60993 
L 100.721907 102.579998 
L 100.830401 102.250017 
L 101.04739 103.615952 
L 101.264379 102.989409 
L 101.318626 103.267022 
L 101.372873 103.132376 
L 102.186581 101.048944 
L 102.783301 99.50747 
L 102.837548 99.878955 
L 102.891795 99.736125 
L 103.000289 99.452418 
L 103.054537 99.995525 
L 103.108784 99.858498 
L 103.325773 99.343227 
L 103.38002 99.959429 
L 103.434267 99.836906 
L 103.75975 99.071433 
L 103.813998 99.525544 
L 103.868245 99.391907 
L 103.922492 99.272743 
L 104.193728 100.112454 
L 104.302222 99.861027 
L 104.35647 100.308544 
L 104.410717 100.176035 
L 104.681953 99.553425 
L 104.7362 100.036818 
L 104.790447 99.930907 
L 105.766897 97.724883 
L 105.929638 98.494961 
L 106.09238 98.164273 
L 106.146627 98.493527 
L 106.200874 98.388386 
L 107.014582 96.662795 
L 107.06883 96.984486 
L 107.123077 96.865398 
L 107.665549 95.776486 
L 107.774043 96.451786 
L 107.82829 96.337874 
L 108.045279 95.896657 
L 108.153774 96.611139 
L 108.208021 96.507256 
L 108.696246 95.545615 
L 108.750493 95.812529 
L 108.80474 95.724306 
L 109.075976 95.198125 
L 109.130223 95.504402 
L 109.18447 95.415318 
L 109.347212 95.099723 
L 109.401459 95.560583 
L 109.455706 95.465041 
L 109.726942 94.960359 
L 109.78119 95.420597 
L 109.835437 95.324082 
L 110.594898 93.976716 
L 110.649145 94.382961 
L 110.703392 94.286203 
L 110.974628 93.839355 
L 111.028875 94.283064 
L 111.083122 94.187559 
L 111.300111 93.84266 
L 111.462853 94.507811 
L 111.5171 94.412051 
L 111.625594 94.217127 
L 111.679842 94.577238 
L 111.734089 94.485284 
L 111.788336 94.387089 
L 111.842583 94.648908 
L 111.89683 94.551821 
L 112.059572 94.26792 
L 112.113819 94.735028 
L 112.168066 94.639679 
L 112.385055 94.291342 
L 112.439302 94.824608 
L 112.49355 94.736445 
L 113.036022 93.887214 
L 113.090269 94.089682 
L 113.144516 94.00004 
L 114.175213 92.458304 
L 114.22946 92.86462 
L 114.283707 92.776613 
L 114.500696 92.45565 
L 114.663438 93.085644 
L 114.934674 92.663346 
L 114.988921 92.999911 
L 115.043168 92.917377 
L 115.260157 92.599265 
L 115.314404 92.992584 
L 115.368651 92.923276 
L 115.748382 92.374043 
L 115.802629 92.728106 
L 115.856876 92.645832 
L 116.236606 92.117438 
L 116.290854 92.401864 
L 116.345101 92.3211 
L 116.724831 91.785051 
L 116.779078 92.171258 
L 116.833326 92.092754 
L 117.267303 91.492358 
L 117.430045 92.161203 
L 117.538539 92.008851 
L 117.592786 92.323328 
L 117.647034 92.246237 
L 118.189506 91.514955 
L 118.243753 91.916451 
L 118.298 91.843783 
L 118.840472 91.119128 
L 118.948966 91.916195 
L 119.003214 91.839617 
L 119.65418 91.006261 
L 119.708427 91.211209 
L 119.762674 91.151144 
L 120.576382 90.125341 
L 120.63063 90.424712 
L 120.684877 90.357145 
L 121.227349 89.70181 
L 121.281596 89.994874 
L 121.335843 89.932772 
L 121.39009 89.871599 
L 121.444338 90.36962 
L 121.498585 90.31675 
L 121.878315 89.984605 
L 121.98681 90.795872 
L 122.041057 90.746992 
L 122.800518 90.164269 
L 122.854765 90.41444 
L 122.909012 90.374242 
L 123.505731 89.98244 
L 123.776967 89.796642 
L 123.831215 90.102211 
L 123.885462 90.065777 
L 124.102451 89.91149 
L 124.156698 90.605653 
L 124.210945 90.588099 
L 124.590675 90.338257 
L 124.644923 90.808082 
L 124.69917 90.778379 
L 125.946855 90.079761 
L 126.001103 90.381472 
L 126.05535 90.352426 
L 127.194541 89.806553 
L 127.248788 90.159685 
L 127.303035 90.140619 
L 129.364429 89.610171 
L 131.751306 89.401971 
L 133.487216 89.269054 
L 137.230273 89.133996 
L 166.903492 89.212351 
L 167.120481 89.342929 
L 167.554458 89.41914 
L 167.7172 89.523576 
L 168.042683 89.59905 
L 168.585155 90.016627 
L 169.019133 90.093466 
L 169.181874 90.171733 
L 170.42956 90.249993 
L 170.592301 90.302163 
L 171.406009 90.35433 
L 171.568751 90.432576 
L 174.335358 90.483289 
L 174.4981 90.561522 
L 177.535943 90.638298 
L 177.698685 90.716516 
L 180.682281 90.820796 
L 180.953517 90.846864 
L 182.038461 90.925065 
L 182.201202 91.003259 
L 188.168394 91.079985 
L 188.331136 91.132105 
L 194.895047 91.181294 
L 195.057789 91.259461 
L 269.539195 91.336152 
L 269.701937 91.388254 
L 292.106031 91.490241 
L 292.377267 91.516287 
L 294.764143 91.620464 
L 294.926885 91.672548 
L 303.17246 91.775968 
L 303.443696 91.802006 
L 310.061854 91.878632 
L 310.224596 91.9307 
L 324.166126 92.034827 
L 324.437362 92.060858 
L 333.062667 92.164971 
L 333.333903 92.190997 
L 344.346085 92.293603 
L 344.617321 92.319625 
L 371.95791 92.422958 
L 371.95791 92.422958 
" clip-path="url(#pd60d1b1313)" style="fill: none; stroke: #ff7f0e; stroke-width: 1.8; stroke-linecap: square"/>
   </g>
   <g id="line2d_25">
    <path d="M 77.341364 244.236077 
L 77.504105 90.578182 
L 77.721094 64.82196 
L 77.829588 92.97736 
L 77.883836 87.5991 
L 78.155072 71.712867 
L 78.209319 84.297342 
L 78.263566 82.168357 
L 78.643296 68.946828 
L 78.860285 64.892607 
L 78.914532 74.967335 
L 78.96878 73.493287 
L 79.185768 69.236655 
L 79.240016 74.411337 
L 79.294263 73.405818 
L 79.34851 74.066422 
L 79.72824 68.090558 
L 79.890982 77.807072 
L 79.945229 76.897301 
L 80.216465 73.260138 
L 80.270712 79.990861 
L 80.32496 79.253542 
L 80.596196 76.271525 
L 80.650443 82.376203 
L 80.70469 81.731212 
L 80.758937 81.860079 
L 80.813184 81.15955 
L 80.867432 84.575075 
L 80.921679 83.928207 
L 80.975926 83.20776 
L 81.030173 86.000369 
L 81.08442 85.3254 
L 81.464151 81.003297 
L 81.518398 84.908623 
L 81.572645 84.557179 
L 81.898128 81.267374 
L 81.952376 82.317271 
L 82.006623 81.763061 
L 82.4406 78.0324 
L 82.494848 82.620802 
L 82.549095 82.20862 
L 82.711836 80.986306 
L 82.766084 85.905487 
L 82.820331 85.586363 
L 83.200061 82.509959 
L 83.254308 82.685937 
L 83.308556 82.831319 
L 83.579792 80.835914 
L 83.742533 83.679329 
L 84.3935 79.26229 
L 84.447747 78.893678 
L 84.501994 79.417754 
L 84.556241 79.134385 
L 84.77323 78.034169 
L 84.881725 83.256732 
L 84.935972 82.93067 
L 85.098713 81.924584 
L 85.152961 82.175657 
L 85.207208 83.175717 
L 85.261455 82.868112 
L 85.424197 81.985976 
L 85.478444 83.171416 
L 85.532691 82.844693 
L 85.966669 80.493183 
L 86.075163 84.527986 
L 86.12941 84.219608 
L 86.563388 81.954828 
L 86.617635 82.772032 
L 86.671882 82.510819 
L 86.997365 80.998075 
L 87.10586 82.298557 
L 87.160107 81.999383 
L 87.648332 79.887461 
L 87.702579 81.231462 
L 87.756826 80.977799 
L 88.082309 79.790174 
L 88.190804 81.043455 
L 88.245051 80.813655 
L 88.299298 80.60948 
L 88.353545 81.179425 
L 88.407793 81.11222 
L 88.46204 80.932085 
L 88.516287 82.559589 
L 88.570534 82.345455 
L 88.733276 81.700711 
L 88.896017 83.633342 
L 88.950265 83.386604 
L 89.655478 80.986047 
L 89.709725 82.940831 
L 89.763973 82.742325 
L 89.926714 82.207249 
L 89.980961 83.730527 
L 90.035209 83.57325 
L 90.252197 82.87068 
L 90.306445 83.336839 
L 90.360692 83.158339 
L 90.631928 82.168357 
L 90.794669 84.950833 
L 91.120153 83.899089 
L 91.1744 85.647804 
L 91.228647 85.440679 
L 91.716872 84.076906 
L 91.771119 83.884315 
L 91.825366 84.815013 
L 91.879613 84.637853 
L 91.933861 84.454817 
L 92.042355 87.289165 
L 92.096602 87.082994 
L 92.150849 88.089137 
L 92.205097 87.883795 
L 92.259344 87.670097 
L 92.313591 88.764975 
L 92.367838 88.556793 
L 92.693321 87.518889 
L 92.801816 89.798544 
L 92.91031 89.433389 
L 93.073052 88.848944 
L 93.127299 90.788595 
L 93.181546 90.578182 
L 93.290041 90.177041 
L 93.344288 90.464643 
L 93.398535 90.275672 
L 93.832513 89.209303 
L 93.88676 90.315152 
L 93.941007 90.118403 
L 93.995254 90.191278 
L 94.103749 89.849483 
L 94.157996 90.810894 
L 94.212243 90.639101 
L 94.429232 89.953717 
L 94.483479 90.126324 
L 94.700468 89.46055 
L 94.808962 90.888046 
L 94.863209 90.754159 
L 94.971704 90.463747 
L 95.025951 91.21349 
L 95.080198 91.017261 
L 95.188693 90.720035 
L 95.24294 91.243694 
L 95.297187 91.067415 
L 95.514176 90.399726 
L 95.568423 91.541846 
L 95.62267 91.383206 
L 95.893906 90.684982 
L 95.948153 90.984833 
L 96.002401 90.830811 
L 96.110895 90.474852 
L 96.165142 91.961901 
L 96.219389 91.826302 
L 96.490625 91.126911 
L 96.544873 91.719615 
L 96.59912 91.561941 
L 96.707614 91.346889 
L 96.761861 91.512598 
L 96.816109 91.338386 
L 96.97885 92.703072 
L 97.087345 92.418577 
L 97.141592 92.718626 
L 97.195839 92.581232 
L 97.304333 92.314652 
L 97.358581 92.870726 
L 97.412828 92.722042 
L 97.9553 91.291647 
L 98.009547 92.702839 
L 98.063794 92.555255 
L 98.552019 91.440552 
L 98.660513 91.172674 
L 98.714761 91.525572 
L 98.769008 91.393022 
L 99.040244 90.754662 
L 99.094491 91.293249 
L 99.148738 91.145002 
L 99.31148 90.836002 
L 99.582716 90.233518 
L 99.799705 91.480976 
L 100.179435 90.607905 
L 100.396424 93.247496 
L 100.721907 92.52299 
L 100.776154 93.771675 
L 100.884649 93.752988 
L 101.04739 93.381799 
L 101.155885 95.156107 
L 101.264379 94.893384 
L 101.318626 95.113411 
L 101.372873 94.990876 
L 101.806851 94.049908 
L 101.969593 95.581643 
L 102.240829 94.921283 
L 102.40357 95.51558 
L 103.651256 93.135168 
L 103.705503 93.821826 
L 103.75975 93.712415 
L 103.813998 93.592234 
L 103.868245 93.793341 
L 103.922492 93.679906 
L 104.139481 93.266815 
L 104.35647 95.56669 
L 104.410717 95.434047 
L 104.681953 95.008381 
L 104.7362 95.529113 
L 104.790447 95.395184 
L 104.898942 95.200185 
L 105.061683 95.381345 
L 105.278672 94.892449 
L 105.441414 95.452476 
L 105.658402 95.089713 
L 105.71265 95.680874 
L 105.766897 95.557461 
L 106.526358 94.043228 
L 106.580605 93.973228 
L 106.634852 95.076016 
L 106.689099 94.965075 
L 107.014582 94.443513 
L 107.06883 95.28827 
L 107.123077 95.166745 
L 107.231571 94.939713 
L 107.285818 96.283575 
L 107.340066 96.202223 
L 107.665549 95.649154 
L 107.774043 95.464225 
L 107.936785 97.668173 
L 108.045279 97.463709 
L 108.153774 97.215199 
L 108.208021 97.771203 
L 108.262268 97.659302 
L 108.42501 97.39301 
L 108.479257 97.939706 
L 108.533504 97.847426 
L 109.292965 96.393029 
L 110.16092 94.923532 
L 110.269414 94.893955 
L 111.13737 93.395297 
L 111.191617 93.790838 
L 111.245864 93.699108 
L 111.408606 93.464243 
L 111.462853 94.114535 
L 111.5171 94.014195 
L 112.113819 93.131739 
L 112.222314 93.850507 
L 112.981774 92.679761 
L 113.090269 92.516971 
L 113.144516 93.271308 
L 113.198763 93.181619 
L 113.307258 93.031214 
L 113.361505 93.49082 
L 113.415752 93.441308 
L 113.903977 92.703263 
L 113.958224 93.110869 
L 114.012471 93.031377 
L 114.22946 92.744117 
L 114.283707 93.433593 
L 114.337954 93.378395 
L 114.60919 93.074481 
L 114.663438 93.270769 
L 114.717685 93.177755 
L 114.988921 92.767465 
L 115.043168 93.200814 
L 115.097415 93.114485 
L 115.96537 91.953765 
L 116.182359 91.664478 
L 116.236606 92.083644 
L 116.290854 92.028142 
L 116.507842 91.768153 
L 117.375798 90.675349 
L 117.430045 90.984575 
L 117.484292 90.907268 
L 117.972517 90.377292 
L 118.623483 89.627389 
L 118.67773 90.360718 
L 118.731978 90.318613 
L 118.894719 90.159613 
L 118.948966 90.640844 
L 119.003214 90.586007 
L 119.925416 89.685809 
L 120.088158 89.527795 
L 120.142405 90.137697 
L 120.196652 90.076176 
L 120.359394 89.934754 
L 120.413641 90.475498 
L 120.467888 90.435673 
L 121.118854 89.801888 
L 121.498585 89.438151 
L 121.552832 89.940258 
L 121.607079 89.881438 
L 121.769821 89.724925 
L 121.824068 89.803698 
L 121.878315 90.530064 
L 121.932562 90.480189 
L 122.583529 89.899744 
L 122.637776 90.101218 
L 122.692023 90.054174 
L 122.74627 90.009018 
L 122.800518 90.426017 
L 122.854765 90.37156 
L 123.614226 89.754148 
L 123.776967 89.718056 
L 124.048203 89.533222 
L 124.102451 89.720928 
L 124.156698 89.674357 
L 124.753417 89.286595 
L 124.807664 89.571975 
L 124.861911 89.532902 
L 125.404383 89.155626 
L 125.946855 88.8792 
L 126.218091 88.72569 
L 126.272339 89.039717 
L 126.326586 88.996636 
L 126.923305 88.692904 
L 126.977552 88.981847 
L 127.031799 88.955035 
L 127.248788 88.823062 
L 127.303035 89.138535 
L 127.357283 89.118438 
L 127.899755 88.856943 
L 127.954002 89.207125 
L 128.008249 89.181292 
L 128.279485 89.056658 
L 128.333732 89.344891 
L 128.387979 89.31575 
L 130.178137 88.592047 
L 130.232384 88.787812 
L 130.286631 88.769147 
L 131.534317 88.300524 
L 132.131036 88.18628 
L 132.185283 88.439202 
L 132.239531 88.422512 
L 133.053239 88.203378 
L 133.107486 88.461339 
L 133.161733 88.446306 
L 133.378722 88.378373 
L 133.432969 88.597413 
L 133.487216 88.579206 
L 135.168879 88.138322 
L 135.277374 88.326818 
L 135.331621 88.311218 
L 136.687801 88.047466 
L 136.850543 88.137247 
L 137.121779 88.074742 
L 137.28452 88.200431 
L 138.043981 88.079474 
L 138.206723 88.31794 
L 138.857689 88.205514 
L 139.400161 88.125731 
L 139.562903 88.213123 
L 141.732791 88.04618 
L 146.39805 87.896657 
L 146.560792 87.97185 
L 162.943446 87.398053 
L 192.50817 87.454801 
L 192.670912 87.567758 
L 193.10489 87.678482 
L 193.321878 87.846381 
L 193.701609 87.931059 
L 194.081339 88.183555 
L 194.298328 88.239986 
L 194.569564 88.38105 
L 195.383272 88.490879 
L 195.600261 88.603696 
L 196.088486 88.687545 
L 196.305474 88.77214 
L 270.40715 88.827776 
L 270.569892 88.884164 
L 275.506387 88.994654 
L 275.669129 89.05103 
L 282.938254 89.135588 
L 283.100995 89.191956 
L 286.464322 89.246795 
L 286.627063 89.303154 
L 290.695603 89.408214 
L 290.858345 89.464555 
L 292.865491 89.520127 
L 293.028233 89.604627 
L 295.577851 89.659419 
L 295.740593 89.715743 
L 296.717043 89.798682 
L 296.879784 89.854996 
L 301.002572 89.966069 
L 301.273808 89.993448 
L 302.955471 90.077897 
L 303.335201 90.162338 
L 305.559336 90.245995 
L 305.830572 90.273361 
L 308.59718 90.301502 
L 308.759921 90.385922 
L 314.998349 90.464874 
L 315.215338 90.54927 
L 316.625765 90.5774 
L 316.788507 90.661786 
L 321.236777 90.745381 
L 321.508013 90.773505 
L 333.38815 90.856302 
L 333.550892 90.912541 
L 361.596695 90.996893 
L 361.759436 91.053124 
L 367.401145 91.161627 
L 367.726628 91.217844 
L 371.95791 91.272475 
L 371.95791 91.272475 
" clip-path="url(#pd60d1b1313)" style="fill: none; stroke: #2ca02c; stroke-width: 1.8; stroke-linecap: square"/>
   </g>
   <g id="line2d_26">
    <path d="M 77.341364 37.496364 
L 77.6126 37.496364 
L 77.721094 126.939731 
L 77.829588 108.272121 
L 78.100824 85.594991 
L 78.480555 70.071799 
L 79.131521 59.128605 
L 79.511252 55.466876 
L 80.216465 51.100016 
L 80.650443 49.310062 
L 80.70469 53.018436 
L 80.758937 52.806686 
L 81.247162 50.919873 
L 81.68114 49.643421 
L 82.332106 47.952007 
L 83.579792 45.810806 
L 84.122264 45.114409 
L 84.176511 48.140857 
L 84.230758 48.072076 
L 84.990219 46.965105 
L 85.641185 46.267823 
L 86.780377 45.21997 
L 86.834624 47.225186 
L 86.888871 47.172211 
L 88.84177 45.577614 
L 90.631928 44.556754 
L 91.933861 43.924704 
L 91.988108 45.928078 
L 92.096602 45.868176 
L 92.693321 45.539942 
L 92.747569 48.713882 
L 92.856063 48.633913 
L 94.700468 47.442005 
L 97.033097 46.26658 
L 97.521322 46.076113 
L 97.575569 47.108376 
L 97.684064 47.059984 
L 102.620559 45.170632 
L 102.783301 45.120894 
L 102.837548 46.587292 
L 102.946042 46.55014 
L 104.139481 46.151982 
L 104.410717 46.060171 
L 104.464964 46.887536 
L 104.573458 46.849162 
L 105.658402 46.495277 
L 106.960335 46.078705 
L 107.991032 45.762696 
L 108.045279 47.181336 
L 108.153774 47.141614 
L 110.486403 46.418635 
L 110.54065 47.137142 
L 110.649145 47.105776 
L 113.25301 46.406491 
L 113.307258 47.167145 
L 113.415752 47.140517 
L 115.151662 46.71452 
L 115.20591 47.304025 
L 115.314404 47.275753 
L 115.58564 47.211888 
L 115.639887 47.796834 
L 115.748382 47.776338 
L 116.019618 47.706774 
L 116.073865 48.326854 
L 116.182359 48.295341 
L 116.670584 48.179462 
L 116.724831 48.458145 
L 116.779078 48.444257 
L 117.701281 48.210346 
L 117.755528 48.926438 
L 117.864022 48.894917 
L 118.135258 48.829377 
L 118.189506 49.261334 
L 118.298 49.235893 
L 118.948966 49.084829 
L 119.057461 50.279249 
L 119.111708 50.265911 
L 121.227349 49.926916 
L 121.715574 49.823917 
L 121.769821 50.189555 
L 121.878315 50.164122 
L 122.74627 49.993139 
L 122.800518 50.612786 
L 122.909012 50.591846 
L 123.831215 50.413287 
L 124.373687 50.305786 
L 124.427934 50.836491 
L 124.536428 50.812291 
L 125.892608 50.579035 
L 125.946855 51.238231 
L 126.05535 51.223417 
L 127.41153 50.994475 
L 127.574271 51.109943 
L 129.635665 50.772753 
L 129.689912 51.239793 
L 129.798407 51.223273 
L 129.961148 51.20209 
L 130.015395 51.564073 
L 130.12389 51.543373 
L 131.534317 51.32894 
L 131.697059 51.498475 
L 132.022542 51.449441 
L 132.131036 51.764179 
L 132.185283 51.753917 
L 132.565014 51.703538 
L 132.782003 52.358778 
L 133.270227 52.299445 
L 133.432969 53.118939 
L 134.734902 52.939404 
L 134.789149 53.31666 
L 134.897643 53.299619 
L 135.602857 53.213683 
L 135.765599 53.449309 
L 138.152475 53.1973 
L 138.694947 53.144117 
L 138.857689 53.374791 
L 139.508655 53.303487 
L 139.671397 53.626476 
L 140.213869 53.572901 
L 140.376611 53.834946 
L 140.539352 53.814417 
L 140.702094 54.047675 
L 142.70924 53.847019 
L 142.871982 54.378335 
L 143.088971 54.349623 
L 143.30596 54.785336 
L 144.282409 54.684995 
L 144.445151 54.91367 
L 145.204612 54.826722 
L 145.367353 54.991398 
L 146.615039 54.861085 
L 146.77778 55.114822 
L 148.405196 54.962631 
L 148.567938 55.241471 
L 148.839174 55.215717 
L 149.001916 55.61085 
L 149.273152 55.587863 
L 149.435893 55.830956 
L 149.49014 55.826582 
L 149.652882 55.956201 
L 150.358096 55.889353 
L 150.520837 56.105697 
L 151.171804 56.039706 
L 151.334545 56.22762 
L 152.2025 56.145024 
L 152.473736 56.550596 
L 153.884164 56.507328 
L 154.53513 56.446002 
L 154.697872 56.658996 
L 154.806366 56.647874 
L 154.969108 56.855642 
L 155.999804 56.779056 
L 156.162546 57.247435 
L 156.433782 57.224095 
L 156.596524 57.526488 
L 157.084748 57.489912 
L 157.24749 57.646312 
L 158.006951 57.699395 
L 158.169692 57.824358 
L 158.440928 57.806041 
L 158.60367 57.904977 
L 159.525872 57.834917 
L 159.742861 58.34686 
L 160.176839 58.311905 
L 160.33958 58.547181 
L 160.502322 58.756051 
L 160.773558 58.728339 
L 160.9363 58.909475 
L 161.641513 58.851721 
L 161.804255 59.059588 
L 167.337469 58.686102 
L 167.500211 58.786485 
L 169.344616 58.696266 
L 169.507357 58.82269 
L 170.321065 58.790078 
L 170.538054 59.104342 
L 170.80929 59.097798 
L 170.972032 59.226096 
L 173.196167 59.146846 
L 173.358909 59.463662 
L 174.715089 59.416191 
L 174.932077 59.703174 
L 175.094819 59.697407 
L 175.257561 59.824309 
L 175.85428 59.806019 
L 176.017021 59.962918 
L 176.125516 59.958626 
L 176.288257 60.166256 
L 176.776482 60.229276 
L 176.993471 60.409837 
L 179.054865 60.42296 
L 179.217606 60.495841 
L 179.488842 60.595663 
L 179.705831 60.775739 
L 182.63518 60.711125 
L 182.797922 60.866879 
L 183.394641 60.855495 
L 183.557382 60.985508 
L 184.479585 61.077756 
L 184.642326 61.207008 
L 185.456034 61.195794 
L 185.618776 61.324304 
L 188.331136 61.412387 
L 188.493878 61.515088 
L 189.199091 61.505053 
L 189.361833 61.659642 
L 190.555271 61.719781 
L 190.718013 61.848726 
L 191.965698 61.933435 
L 192.12844 62.087646 
L 193.48462 62.145009 
L 193.647362 62.299352 
L 194.244081 62.290691 
L 194.406822 62.444262 
L 197.17343 62.399454 
L 197.336171 62.57902 
L 198.583857 62.663389 
L 198.746598 62.713283 
L 199.343318 62.70046 
L 199.506059 62.854757 
L 200.807992 62.885572 
L 200.970734 63.013439 
L 201.458958 63.004915 
L 201.6217 63.1845 
L 202.97788 63.26983 
L 203.140622 63.370562 
L 206.015723 63.438372 
L 206.66669 63.63734 
L 208.185611 63.72279 
L 208.348353 63.851074 
L 209.433297 63.83845 
L 209.596039 64.018558 
L 210.247005 64.01115 
L 210.409747 64.190105 
L 210.572488 64.18762 
L 210.73523 64.341821 
L 210.897971 64.338966 
L 211.060713 64.465938 
L 211.874421 64.455545 
L 212.037163 64.609251 
L 213.610331 64.670567 
L 213.773073 64.745547 
L 214.152803 64.84513 
L 214.315545 64.998637 
L 216.973658 65.073628 
L 217.51613 65.170453 
L 217.678871 65.322968 
L 218.655321 65.313014 
L 218.818063 65.440158 
L 219.631771 65.482185 
L 219.794512 65.582502 
L 221.530423 65.667874 
L 221.693164 65.768461 
L 221.855906 65.766965 
L 222.018648 65.893879 
L 222.886603 65.984238 
L 223.049344 66.086223 
L 223.754558 66.12945 
L 223.9173 66.254686 
L 224.839502 66.270374 
L 225.002244 66.371869 
L 226.304176 66.438231 
L 226.466918 66.565596 
L 228.148581 66.652384 
L 229.559008 66.715482 
L 229.72175 66.816002 
L 230.209975 66.913786 
L 230.372716 67.013866 
L 233.030829 67.092465 
L 233.193571 67.168904 
L 234.332762 67.26023 
L 234.495504 67.335057 
L 236.12292 67.422331 
L 238.130066 67.459035 
L 238.292808 67.559587 
L 239.269257 67.629144 
L 239.431999 67.679198 
L 242.198606 67.743932 
L 242.361348 67.845571 
L 243.175056 67.946799 
L 243.337797 68.023012 
L 244.476989 68.099219 
L 244.63973 68.200819 
L 245.453438 68.277012 
L 245.61618 68.353199 
L 247.080854 68.402769 
L 247.243596 68.478944 
L 251.637619 68.5805 
L 251.800361 68.631274 
L 300.4601 68.732814 
L 300.622841 68.834343 
L 302.521493 68.909246 
L 302.684235 68.960001 
L 305.88482 69.034471 
L 306.047561 69.085217 
L 307.349494 69.16133 
L 307.512236 69.212069 
L 308.163202 69.288172 
L 308.325944 69.364269 
L 310.929809 69.44036 
L 311.092551 69.516446 
L 315.432327 69.565482 
L 315.595068 69.666909 
L 316.517271 69.692264 
L 316.680012 69.793678 
L 319.012642 69.869731 
L 319.175384 69.971127 
L 321.508013 70.02182 
L 321.670755 70.097856 
L 324.654351 70.19751 
L 324.817093 70.298866 
L 326.986981 70.400211 
L 327.149722 70.476212 
L 328.722891 70.577538 
L 328.93988 70.628197 
L 330.892779 70.70331 
L 331.109768 70.753961 
L 341.579478 70.855255 
L 341.850714 70.880577 
L 351.289726 70.981858 
L 351.560962 71.007177 
L 354.924289 71.082688 
L 355.08703 71.158633 
L 357.094177 71.208817 
L 357.256918 71.284751 
L 365.882223 71.384209 
L 366.044965 71.460126 
L 373.585326 71.561338 
L 373.748067 71.63724 
L 379.064293 71.737535 
L 379.335529 71.762831 
L 380.583215 71.838716 
L 380.745956 71.914594 
L 381.342676 72.015756 
L 381.505417 72.116907 
L 386.224924 72.191399 
L 386.441912 72.241965 
L 389.859486 72.316439 
L 390.022228 72.392274 
L 391.32416 72.493378 
L 391.541149 72.543925 
L 392.463352 72.619742 
L 392.68034 72.670283 
L 399.406993 72.768585 
L 399.569735 72.844378 
L 427.235807 72.919701 
L 427.452796 72.970222 
L 441.936799 73.067994 
L 442.208035 73.093249 
L 451.321564 73.193793 
L 451.321564 73.193793 
" clip-path="url(#pd60d1b1313)" style="fill: none; stroke: #d62728; stroke-width: 1.8; stroke-linecap: square"/>
   </g>
   <g id="line2d_27">
    <path d="M 77.341364 177.784026 
L 77.395611 249.823636 
L 77.558352 121.294861 
L 77.6126 106.409601 
L 77.721094 131.175296 
L 77.775341 122.761021 
L 77.829588 146.60899 
L 77.883836 136.42157 
L 78.155072 112.909765 
L 78.37206 97.327658 
L 78.426308 100.97253 
L 78.480555 97.655758 
L 78.534802 94.83202 
L 78.589049 101.785309 
L 78.643296 98.968266 
L 78.914532 88.510059 
L 78.96878 103.320487 
L 79.023027 101.341216 
L 79.511252 87.535275 
L 80.053724 77.324547 
L 80.70469 69.693532 
L 80.867432 68.334868 
L 80.921679 69.388552 
L 80.975926 68.908833 
L 81.952376 62.327533 
L 82.657589 59.005919 
L 83.742533 55.301057 
L 84.610489 53.113392 
L 85.641185 51.119674 
L 87.10586 49.083545 
L 88.245051 47.874315 
L 90.035209 46.386238 
L 91.445636 45.504241 
L 93.018805 44.704433 
L 97.629817 43.059055 
L 99.094491 42.697773 
L 101.698357 42.135146 
L 106.417863 41.386719 
L 114.60919 40.557924 
L 121.878315 40.083366 
L 127.357283 39.915826 
L 151.768523 39.826039 
L 151.931264 39.936838 
L 154.046905 40.019929 
L 154.209647 40.130706 
L 160.285333 40.241471 
L 160.448075 40.296849 
L 166.306773 40.379746 
L 166.469514 40.490477 
L 168.042683 40.573516 
L 168.205425 40.7119 
L 173.250414 40.822499 
L 173.413156 40.933176 
L 175.637291 41.04384 
L 175.908527 41.071505 
L 185.72727 41.154493 
L 185.890012 41.209814 
L 200.048531 41.29204 
L 200.211273 41.374993 
L 202.869386 41.485249 
L 203.032127 41.59582 
L 209.813027 41.70626 
L 209.975769 41.761533 
L 215.617478 41.816315 
L 215.780219 41.954461 
L 231.186424 42.036891 
L 231.349166 42.119754 
L 238.509796 42.201283 
L 238.672538 42.284109 
L 243.012314 42.366585 
L 243.175056 42.476991 
L 244.368494 42.559787 
L 244.531236 42.670172 
L 248.057304 42.66988 
L 248.220045 42.807835 
L 257.333575 42.918109 
L 257.496317 42.973279 
L 260.371418 43.028367 
L 260.53416 43.110794 
L 264.114475 43.22102 
L 264.385711 43.248594 
L 265.796138 43.358884 
L 266.284363 43.496729 
L 269.267959 43.57934 
L 269.430701 43.634467 
L 279.683422 43.744624 
L 279.90041 43.827298 
L 288.417221 43.937429 
L 288.742704 43.992534 
L 292.811244 44.102735 
L 293.08248 44.130284 
L 294.492907 44.240469 
L 294.655649 44.350642 
L 296.77129 44.432971 
L 296.934031 44.515583 
L 304.854123 44.597788 
L 305.125359 44.735438 
L 308.488685 44.818019 
L 308.705674 44.900594 
L 318.415923 45.010576 
L 318.578664 45.065615 
L 321.453766 45.147952 
L 321.616508 45.202981 
L 333.279656 45.284643 
L 333.442397 45.394671 
L 335.992016 45.504686 
L 336.154757 45.58719 
L 339.029859 45.642188 
L 339.192601 45.752176 
L 341.904961 45.86168 
L 342.067702 45.91666 
L 344.291838 45.971161 
L 344.454579 46.053615 
L 351.506715 46.080254 
L 351.669457 46.190169 
L 358.667346 46.298711 
L 358.830087 46.408585 
L 369.137055 46.518446 
L 369.299797 46.655755 
L 371.252696 46.710673 
L 371.415438 46.8205 
L 378.250585 46.902862 
L 378.413327 46.957767 
L 396.206408 47.067297 
L 396.36915 47.149636 
L 401.902365 47.259411 
L 402.065106 47.341734 
L 403.312792 47.341734 
L 403.475533 47.478923 
L 405.916657 47.588661 
L 406.079399 47.670956 
L 411.124389 47.780528 
L 411.395625 47.807665 
L 416.766097 47.889939 
L 416.928839 47.944784 
L 419.586952 48.054464 
L 419.749694 48.136717 
L 426.693335 48.21806 
L 426.856077 48.272882 
L 433.040258 48.382516 
L 433.202999 48.464734 
L 438.193742 48.491984 
L 438.356483 48.628993 
L 446.547811 48.683791 
L 446.710552 48.765982 
L 448.826193 48.87556 
L 448.988935 48.930344 
L 457.831228 49.039904 
L 457.99397 49.122065 
L 467.86696 49.230945 
L 468.029702 49.285706 
L 471.013298 49.394885 
L 471.17604 49.504383 
L 479.584356 49.610981 
L 479.855592 49.638344 
L 481.971233 49.692726 
L 482.133974 49.774803 
L 483.110424 49.856874 
L 483.273165 49.938938 
L 485.768537 49.992767 
L 485.931278 50.074285 
L 512.675148 50.183132 
L 512.83789 50.292495 
L 519.99852 50.346452 
L 520.161262 50.45579 
L 523.090611 50.565117 
L 523.578835 50.701758 
L 530.793713 50.728342 
L 530.956455 50.864953 
L 532.909354 50.94691 
L 533.126343 51.22005 
L 538.334074 51.301977 
L 538.496816 51.438507 
L 541.968636 51.438507 
L 541.968636 51.438507 
" clip-path="url(#pd60d1b1313)" style="fill: none; stroke: #9467bd; stroke-width: 1.8; stroke-linecap: square"/>
   </g>
   <g id="patch_3">
    <path d="M 54.11 260.44 
L 54.11 26.88 
" style="fill: none; stroke: #000000; stroke-width: 0.8; stroke-linejoin: miter; stroke-linecap: square"/>
   </g>
   <g id="patch_4">
    <path d="M 565.2 260.44 
L 565.2 26.88 
" style="fill: none; stroke: #000000; stroke-width: 0.8; stroke-linejoin: miter; stroke-linecap: square"/>
   </g>
   <g id="patch_5">
    <path d="M 54.11 260.44 
L 565.2 260.44 
" style="fill: none; stroke: #000000; stroke-width: 0.8; stroke-linejoin: miter; stroke-linecap: square"/>
   </g>
   <g id="patch_6">
    <path d="M 54.11 26.88 
L 565.2 26.88 
" style="fill: none; stroke: #000000; stroke-width: 0.8; stroke-linejoin: miter; stroke-linecap: square"/>
   </g>
   <g id="text_14">
    <!-- Timely Transfer Rate (Cumulative) -->
    <g transform="translate(207.232187 20.88) scale(0.12 -0.12)">
     <defs>
      <path id="DejaVuSans-54" d="M -19 4666 
L 3928 4666 
L 3928 4134 
L 2272 4134 
L 2272 0 
L 1638 0 
L 1638 4134 
L -19 4134 
L -19 4666 
z
" transform="scale(0.015625)"/>
      <path id="DejaVuSans-52" d="M 2841 2188 
Q 3044 2119 3236 1894 
Q 3428 1669 3622 1275 
L 4263 0 
L 3584 0 
L 2988 1197 
Q 2756 1666 2539 1819 
Q 2322 1972 1947 1972 
L 1259 1972 
L 1259 0 
L 628 0 
L 628 4666 
L 2053 4666 
Q 2853 4666 3247 4331 
Q 3641 3997 3641 3322 
Q 3641 2881 3436 2590 
Q 3231 2300 2841 2188 
z
M 1259 4147 
L 1259 2491 
L 2053 2491 
Q 2509 2491 2742 2702 
Q 2975 2913 2975 3322 
Q 2975 3731 2742 3939 
Q 2509 4147 2053 4147 
L 1259 4147 
z
" transform="scale(0.015625)"/>
      <path id="DejaVuSans-28" d="M 1984 4856 
Q 1566 4138 1362 3434 
Q 1159 2731 1159 2009 
Q 1159 1288 1364 580 
Q 1569 -128 1984 -844 
L 1484 -844 
Q 1016 -109 783 600 
Q 550 1309 550 2009 
Q 550 2706 781 3412 
Q 1013 4119 1484 4856 
L 1984 4856 
z
" transform="scale(0.015625)"/>
      <path id="DejaVuSans-43" d="M 4122 4306 
L 4122 3641 
Q 3803 3938 3442 4084 
Q 3081 4231 2675 4231 
Q 1875 4231 1450 3742 
Q 1025 3253 1025 2328 
Q 1025 1406 1450 917 
Q 1875 428 2675 428 
Q 3081 428 3442 575 
Q 3803 722 4122 1019 
L 4122 359 
Q 3791 134 3420 21 
Q 3050 -91 2638 -91 
Q 1578 -91 968 557 
Q 359 1206 359 2328 
Q 359 3453 968 4101 
Q 1578 4750 2638 4750 
Q 3056 4750 3426 4639 
Q 3797 4528 4122 4306 
z
" transform="scale(0.015625)"/>
      <path id="DejaVuSans-29" d="M 513 4856 
L 1013 4856 
Q 1481 4119 1714 3412 
Q 1947 2706 1947 2009 
Q 1947 1309 1714 600 
Q 1481 -109 1013 -844 
L 513 -844 
Q 928 -128 1133 580 
Q 1338 1288 1338 2009 
Q 1338 2731 1133 3434 
Q 928 4138 513 4856 
z
" transform="scale(0.015625)"/>
     </defs>
     <use xlink:href="#DejaVuSans-54"/>
     <use xlink:href="#DejaVuSans-69" x="57.958984"/>
     <use xlink:href="#DejaVuSans-6d" x="85.742188"/>
     <use xlink:href="#DejaVuSans-65" x="183.154297"/>
     <use xlink:href="#DejaVuSans-6c" x="244.677734"/>
     <use xlink:href="#DejaVuSans-79" x="272.460938"/>
     <use xlink:href="#DejaVuSans-20" x="331.640625"/>
     <use xlink:href="#DejaVuSans-54" x="363.427734"/>
     <use xlink:href="#DejaVuSans-72" x="409.761719"/>
     <use xlink:href="#DejaVuSans-61" x="450.875"/>
     <use xlink:href="#DejaVuSans-6e" x="512.154297"/>
     <use xlink:href="#DejaVuSans-73" x="575.533203"/>
     <use xlink:href="#DejaVuSans-66" x="627.632812"/>
     <use xlink:href="#DejaVuSans-65" x="662.837891"/>
     <use xlink:href="#DejaVuSans-72" x="724.361328"/>
     <use xlink:href="#DejaVuSans-20" x="765.474609"/>
     <use xlink:href="#DejaVuSans-52" x="797.261719"/>
     <use xlink:href="#DejaVuSans-61" x="864.494141"/>
     <use xlink:href="#DejaVuSans-74" x="925.773438"/>
     <use xlink:href="#DejaVuSans-65" x="964.982422"/>
     <use xlink:href="#DejaVuSans-20" x="1026.505859"/>
     <use xlink:href="#DejaVuSans-28" x="1058.292969"/>
     <use xlink:href="#DejaVuSans-43" x="1097.306641"/>
     <use xlink:href="#DejaVuSans-75" x="1167.130859"/>
     <use xlink:href="#DejaVuSans-6d" x="1230.509766"/>
     <use xlink:href="#DejaVuSans-75" x="1327.921875"/>
     <use xlink:href="#DejaVuSans-6c" x="1391.300781"/>
     <use xlink:href="#DejaVuSans-61" x="1419.083984"/>
     <use xlink:href="#DejaVuSans-74" x="1480.363281"/>
     <use xlink:href="#DejaVuSans-69" x="1519.572266"/>
     <use xlink:href="#DejaVuSans-76" x="1547.355469"/>
     <use xlink:href="#DejaVuSans-65" x="1606.535156"/>
     <use xlink:href="#DejaVuSans-29" x="1668.058594"/>
    </g>
   </g>
   <g id="legend_1">
    <g id="patch_7">
     <path d="M 473.826562 255.44 
L 558.2 255.44 
Q 560.2 255.44 560.2 253.44 
L 560.2 180.493125 
Q 560.2 178.493125 558.2 178.493125 
L 473.826562 178.493125 
Q 471.826562 178.493125 471.826562 180.493125 
L 471.826562 253.44 
Q 471.826562 255.44 473.826562 255.44 
z
" style="fill: #ffffff; opacity: 0.8; stroke: #cccccc; stroke-linejoin: miter"/>
    </g>
    <g id="line2d_28">
     <path d="M 475.826562 186.591563 
L 485.826562 186.591563 
L 495.826562 186.591563 
" style="fill: none; stroke: #1f77b4; stroke-width: 1.8; stroke-linecap: square"/>
    </g>
    <g id="text_15">
     <!-- SHEER -->
     <g transform="translate(503.826562 190.091563) scale(0.1 -0.1)">
      <defs>
       <path id="DejaVuSans-53" d="M 3425 4513 
L 3425 3897 
Q 3066 4069 2747 4153 
Q 2428 4238 2131 4238 
Q 1616 4238 1336 4038 
Q 1056 3838 1056 3469 
Q 1056 3159 1242 3001 
Q 1428 2844 1947 2747 
L 2328 2669 
Q 3034 2534 3370 2195 
Q 3706 1856 3706 1288 
Q 3706 609 3251 259 
Q 2797 -91 1919 -91 
Q 1588 -91 1214 -16 
Q 841 59 441 206 
L 441 856 
Q 825 641 1194 531 
Q 1563 422 1919 422 
Q 2459 422 2753 634 
Q 3047 847 3047 1241 
Q 3047 1584 2836 1778 
Q 2625 1972 2144 2069 
L 1759 2144 
Q 1053 2284 737 2584 
Q 422 2884 422 3419 
Q 422 4038 858 4394 
Q 1294 4750 2059 4750 
Q 2388 4750 2728 4690 
Q 3069 4631 3425 4513 
z
" transform="scale(0.015625)"/>
       <path id="DejaVuSans-48" d="M 628 4666 
L 1259 4666 
L 1259 2753 
L 3553 2753 
L 3553 4666 
L 4184 4666 
L 4184 0 
L 3553 0 
L 3553 2222 
L 1259 2222 
L 1259 0 
L 628 0 
L 628 4666 
z
" transform="scale(0.015625)"/>
       <path id="DejaVuSans-45" d="M 628 4666 
L 3578 4666 
L 3578 4134 
L 1259 4134 
L 1259 2753 
L 3481 2753 
L 3481 2222 
L 1259 2222 
L 1259 531 
L 3634 531 
L 3634 0 
L 628 0 
L 628 4666 
z
" transform="scale(0.015625)"/>
      </defs>
      <use xlink:href="#DejaVuSans-53"/>
      <use xlink:href="#DejaVuSans-48" x="63.476562"/>
      <use xlink:href="#DejaVuSans-45" x="138.671875"/>
      <use xlink:href="#DejaVuSans-45" x="201.855469"/>
      <use xlink:href="#DejaVuSans-52" x="265.039062"/>
     </g>
    </g>
    <g id="line2d_29">
     <path d="M 475.826562 201.269688 
L 485.826562 201.269688 
L 495.826562 201.269688 
" style="fill: none; stroke: #ff7f0e; stroke-width: 1.8; stroke-linecap: square"/>
    </g>
    <g id="text_16">
     <!-- ACTAR -->
     <g transform="translate(503.826562 204.769688) scale(0.1 -0.1)">
      <defs>
       <path id="DejaVuSans-41" d="M 2188 4044 
L 1331 1722 
L 3047 1722 
L 2188 4044 
z
M 1831 4666 
L 2547 4666 
L 4325 0 
L 3669 0 
L 3244 1197 
L 1141 1197 
L 716 0 
L 50 0 
L 1831 4666 
z
" transform="scale(0.015625)"/>
      </defs>
      <use xlink:href="#DejaVuSans-41"/>
      <use xlink:href="#DejaVuSans-43" x="66.658203"/>
      <use xlink:href="#DejaVuSans-54" x="136.482422"/>
      <use xlink:href="#DejaVuSans-41" x="189.816406"/>
      <use xlink:href="#DejaVuSans-52" x="258.224609"/>
     </g>
    </g>
    <g id="line2d_30">
     <path d="M 475.826562 215.947813 
L 485.826562 215.947813 
L 495.826562 215.947813 
" style="fill: none; stroke: #2ca02c; stroke-width: 1.8; stroke-linecap: square"/>
    </g>
    <g id="text_17">
     <!-- TFSM_DPC -->
     <g transform="translate(503.826562 219.447813) scale(0.1 -0.1)">
      <defs>
       <path id="DejaVuSans-46" d="M 628 4666 
L 3309 4666 
L 3309 4134 
L 1259 4134 
L 1259 2759 
L 3109 2759 
L 3109 2228 
L 1259 2228 
L 1259 0 
L 628 0 
L 628 4666 
z
" transform="scale(0.015625)"/>
       <path id="DejaVuSans-4d" d="M 628 4666 
L 1569 4666 
L 2759 1491 
L 3956 4666 
L 4897 4666 
L 4897 0 
L 4281 0 
L 4281 4097 
L 3078 897 
L 2444 897 
L 1241 4097 
L 1241 0 
L 628 0 
L 628 4666 
z
" transform="scale(0.015625)"/>
       <path id="DejaVuSans-5f" d="M 3263 -1063 
L 3263 -1509 
L -63 -1509 
L -63 -1063 
L 3263 -1063 
z
" transform="scale(0.015625)"/>
       <path id="DejaVuSans-44" d="M 1259 4147 
L 1259 519 
L 2022 519 
Q 2988 519 3436 956 
Q 3884 1394 3884 2338 
Q 3884 3275 3436 3711 
Q 2988 4147 2022 4147 
L 1259 4147 
z
M 628 4666 
L 1925 4666 
Q 3281 4666 3915 4102 
Q 4550 3538 4550 2338 
Q 4550 1131 3912 565 
Q 3275 0 1925 0 
L 628 0 
L 628 4666 
z
" transform="scale(0.015625)"/>
       <path id="DejaVuSans-50" d="M 1259 4147 
L 1259 2394 
L 2053 2394 
Q 2494 2394 2734 2622 
Q 2975 2850 2975 3272 
Q 2975 3691 2734 3919 
Q 2494 4147 2053 4147 
L 1259 4147 
z
M 628 4666 
L 2053 4666 
Q 2838 4666 3239 4311 
Q 3641 3956 3641 3272 
Q 3641 2581 3239 2228 
Q 2838 1875 2053 1875 
L 1259 1875 
L 1259 0 
L 628 0 
L 628 4666 
z
" transform="scale(0.015625)"/>
      </defs>
      <use xlink:href="#DejaVuSans-54"/>
      <use xlink:href="#DejaVuSans-46" x="61.083984"/>
      <use xlink:href="#DejaVuSans-53" x="116.853516"/>
      <use xlink:href="#DejaVuSans-4d" x="180.330078"/>
      <use xlink:href="#DejaVuSans-5f" x="266.609375"/>
      <use xlink:href="#DejaVuSans-44" x="316.609375"/>
      <use xlink:href="#DejaVuSans-50" x="393.611328"/>
      <use xlink:href="#DejaVuSans-43" x="453.914062"/>
     </g>
    </g>
    <g id="line2d_31">
     <path d="M 475.826562 230.904063 
L 485.826562 230.904063 
L 495.826562 230.904063 
" style="fill: none; stroke: #d62728; stroke-width: 1.8; stroke-linecap: square"/>
    </g>
    <g id="text_18">
     <!-- DST_WOA -->
     <g transform="translate(503.826562 234.404063) scale(0.1 -0.1)">
      <defs>
       <path id="DejaVuSans-57" d="M 213 4666 
L 850 4666 
L 1831 722 
L 2809 4666 
L 3519 4666 
L 4500 722 
L 5478 4666 
L 6119 4666 
L 4947 0 
L 4153 0 
L 3169 4050 
L 2175 0 
L 1381 0 
L 213 4666 
z
" transform="scale(0.015625)"/>
       <path id="DejaVuSans-4f" d="M 2522 4238 
Q 1834 4238 1429 3725 
Q 1025 3213 1025 2328 
Q 1025 1447 1429 934 
Q 1834 422 2522 422 
Q 3209 422 3611 934 
Q 4013 1447 4013 2328 
Q 4013 3213 3611 3725 
Q 3209 4238 2522 4238 
z
M 2522 4750 
Q 3503 4750 4090 4092 
Q 4678 3434 4678 2328 
Q 4678 1225 4090 567 
Q 3503 -91 2522 -91 
Q 1538 -91 948 565 
Q 359 1222 359 2328 
Q 359 3434 948 4092 
Q 1538 4750 2522 4750 
z
" transform="scale(0.015625)"/>
      </defs>
      <use xlink:href="#DejaVuSans-44"/>
      <use xlink:href="#DejaVuSans-53" x="77.001953"/>
      <use xlink:href="#DejaVuSans-54" x="140.478516"/>
      <use xlink:href="#DejaVuSans-5f" x="201.5625"/>
      <use xlink:href="#DejaVuSans-57" x="251.5625"/>
      <use xlink:href="#DejaVuSans-4f" x="350.439453"/>
      <use xlink:href="#DejaVuSans-41" x="427.400391"/>
     </g>
    </g>
    <g id="line2d_32">
     <path d="M 475.826562 245.860313 
L 485.826562 245.860313 
L 495.826562 245.860313 
" style="fill: none; stroke: #9467bd; stroke-width: 1.8; stroke-linecap: square"/>
    </g>
    <g id="text_19">
     <!-- TRAIL -->
     <g transform="translate(503.826562 249.360313) scale(0.1 -0.1)">
      <defs>
       <path id="DejaVuSans-49" d="M 628 4666 
L 1259 4666 
L 1259 0 
L 628 0 
L 628 4666 
z
" transform="scale(0.015625)"/>
       <path id="DejaVuSans-4c" d="M 628 4666 
L 1259 4666 
L 1259 531 
L 3531 531 
L 3531 0 
L 628 0 
L 628 4666 
z
" transform="scale(0.015625)"/>
      </defs>
      <use xlink:href="#DejaVuSans-54"/>
      <use xlink:href="#DejaVuSans-52" x="61.083984"/>
      <use xlink:href="#DejaVuSans-41" x="126.566406"/>
      <use xlink:href="#DejaVuSans-49" x="194.974609"/>
      <use xlink:href="#DejaVuSans-4c" x="224.466797"/>
     </g>
    </g>
   </g>
  </g>
 </g>
 <defs>
  <clipPath id="pd60d1b1313">
   <rect x="54.11" y="26.88" width="511.09" height="233.56"/>
  </clipPath>
 </defs>
</svg>
