<?xml version="1.0" encoding="utf-8" standalone="no"?>
<!DOCTYPE svg PUBLIC "-//W3C//DTD SVG 1.1//EN"
  "http://www.w3.org/Graphics/SVG/1.1/DTD/svg11.dtd">
<svg xmlns:xlink="http://www.w3.org/1999/xlink" width="576pt" height="302.4pt" viewBox="0 0 576 302.4" xmlns="http://www.w3.org/2000/svg" version="1.1">
 <metadata>
  <rdf:RDF xmlns:dc="http://purl.org/dc/elements/1.1/" xmlns:cc="http://creativecommons.org/ns#" xmlns:rdf="http://www.w3.org/1999/02/22-rdf-syntax-ns#">
   <cc:Work>
    <dc:type rdf:resource="http://purl.org/dc/dcmitype/StillImage"/>
    <dc:date>2025-11-05T09:52:55.306401</dc:date>
    <dc:format>image/svg+xml</dc:format>
    <dc:creator>
     <cc:Agent>
      <dc:title>Matplotlib v3.9.4, https://matplotlib.org/</dc:title>
     </cc:Agent>
    </dc:creator>
   </cc:Work>
  </rdf:RDF>
 </metadata>
 <defs>
  <style type="text/css">*{stroke-linejoin: round; stroke-linecap: butt}</style>
 </defs>
 <g id="figure_1">
  <g id="patch_1">
   <path d="M 0 302.4 
L 576 302.4 
L 576 0 
L 0 0 
z
" style="fill: #ffffff"/>
  </g>
  <g id="axes_1">
   <g id="patch_2">
    <path d="M 47.72 260.44 
L 565.2 260.44 
L 565.2 26.88 
L 47.72 26.88 
z
" style="fill: #ffffff"/>
   </g>
   <g id="matplotlib.axis_1">
    <g id="xtick_1">
     <g id="line2d_1">
      <path d="M 71.198101 260.44 
L 71.198101 26.88 
" clip-path="url(#p8ac05e3594)" style="fill: none; stroke-dasharray: 2.96,1.28; stroke-dashoffset: 0; stroke: #b0b0b0; stroke-opacity: 0.3; stroke-width: 0.8"/>
     </g>
     <g id="line2d_2">
      <defs>
       <path id="mdcfc8140ca" d="M 0 0 
L 0 3.5 
" style="stroke: #000000; stroke-width: 0.8"/>
      </defs>
      <g>
       <use xlink:href="#mdcfc8140ca" x="71.198101" y="260.44" style="stroke: #000000; stroke-width: 0.8"/>
      </g>
     </g>
     <g id="text_1">
      <!-- 0 -->
      <g transform="translate(68.016851 275.038438) scale(0.1 -0.1)">
       <defs>
        <path id="DejaVuSans-30" d="M 2034 4250 
Q 1547 4250 1301 3770 
Q 1056 3291 1056 2328 
Q 1056 1369 1301 889 
Q 1547 409 2034 409 
Q 2525 409 2770 889 
Q 3016 1369 3016 2328 
Q 3016 3291 2770 3770 
Q 2525 4250 2034 4250 
z
M 2034 4750 
Q 2819 4750 3233 4129 
Q 3647 3509 3647 2328 
Q 3647 1150 3233 529 
Q 2819 -91 2034 -91 
Q 1250 -91 836 529 
Q 422 1150 422 2328 
Q 422 3509 836 4129 
Q 1250 4750 2034 4750 
z
" transform="scale(0.015625)"/>
       </defs>
       <use xlink:href="#DejaVuSans-30"/>
      </g>
     </g>
    </g>
    <g id="xtick_2">
     <g id="line2d_3">
      <path d="M 158.631679 260.44 
L 158.631679 26.88 
" clip-path="url(#p8ac05e3594)" style="fill: none; stroke-dasharray: 2.96,1.28; stroke-dashoffset: 0; stroke: #b0b0b0; stroke-opacity: 0.3; stroke-width: 0.8"/>
     </g>
     <g id="line2d_4">
      <g>
       <use xlink:href="#mdcfc8140ca" x="158.631679" y="260.44" style="stroke: #000000; stroke-width: 0.8"/>
      </g>
     </g>
     <g id="text_2">
      <!-- 2000 -->
      <g transform="translate(145.906679 275.038438) scale(0.1 -0.1)">
       <defs>
        <path id="DejaVuSans-32" d="M 1228 531 
L 3431 531 
L 3431 0 
L 469 0 
L 469 531 
Q 828 903 1448 1529 
Q 2069 2156 2228 2338 
Q 2531 2678 2651 2914 
Q 2772 3150 2772 3378 
Q 2772 3750 2511 3984 
Q 2250 4219 1831 4219 
Q 1534 4219 1204 4116 
Q 875 4013 500 3803 
L 500 4441 
Q 881 4594 1212 4672 
Q 1544 4750 1819 4750 
Q 2544 4750 2975 4387 
Q 3406 4025 3406 3419 
Q 3406 3131 3298 2873 
Q 3191 2616 2906 2266 
Q 2828 2175 2409 1742 
Q 1991 1309 1228 531 
z
" transform="scale(0.015625)"/>
       </defs>
       <use xlink:href="#DejaVuSans-32"/>
       <use xlink:href="#DejaVuSans-30" x="63.623047"/>
       <use xlink:href="#DejaVuSans-30" x="127.246094"/>
       <use xlink:href="#DejaVuSans-30" x="190.869141"/>
      </g>
     </g>
    </g>
    <g id="xtick_3">
     <g id="line2d_5">
      <path d="M 246.065256 260.44 
L 246.065256 26.88 
" clip-path="url(#p8ac05e3594)" style="fill: none; stroke-dasharray: 2.96,1.28; stroke-dashoffset: 0; stroke: #b0b0b0; stroke-opacity: 0.3; stroke-width: 0.8"/>
     </g>
     <g id="line2d_6">
      <g>
       <use xlink:href="#mdcfc8140ca" x="246.065256" y="260.44" style="stroke: #000000; stroke-width: 0.8"/>
      </g>
     </g>
     <g id="text_3">
      <!-- 4000 -->
      <g transform="translate(233.340256 275.038438) scale(0.1 -0.1)">
       <defs>
        <path id="DejaVuSans-34" d="M 2419 4116 
L 825 1625 
L 2419 1625 
L 2419 4116 
z
M 2253 4666 
L 3047 4666 
L 3047 1625 
L 3713 1625 
L 3713 1100 
L 3047 1100 
L 3047 0 
L 2419 0 
L 2419 1100 
L 313 1100 
L 313 1709 
L 2253 4666 
z
" transform="scale(0.015625)"/>
       </defs>
       <use xlink:href="#DejaVuSans-34"/>
       <use xlink:href="#DejaVuSans-30" x="63.623047"/>
       <use xlink:href="#DejaVuSans-30" x="127.246094"/>
       <use xlink:href="#DejaVuSans-30" x="190.869141"/>
      </g>
     </g>
    </g>
    <g id="xtick_4">
     <g id="line2d_7">
      <path d="M 333.498834 260.44 
L 333.498834 26.88 
" clip-path="url(#p8ac05e3594)" style="fill: none; stroke-dasharray: 2.96,1.28; stroke-dashoffset: 0; stroke: #b0b0b0; stroke-opacity: 0.3; stroke-width: 0.8"/>
     </g>
     <g id="line2d_8">
      <g>
       <use xlink:href="#mdcfc8140ca" x="333.498834" y="260.44" style="stroke: #000000; stroke-width: 0.8"/>
      </g>
     </g>
     <g id="text_4">
      <!-- 6000 -->
      <g transform="translate(320.773834 275.038438) scale(0.1 -0.1)">
       <defs>
        <path id="DejaVuSans-36" d="M 2113 2584 
Q 1688 2584 1439 2293 
Q 1191 2003 1191 1497 
Q 1191 994 1439 701 
Q 1688 409 2113 409 
Q 2538 409 2786 701 
Q 3034 994 3034 1497 
Q 3034 2003 2786 2293 
Q 2538 2584 2113 2584 
z
M 3366 4563 
L 3366 3988 
Q 3128 4100 2886 4159 
Q 2644 4219 2406 4219 
Q 1781 4219 1451 3797 
Q 1122 3375 1075 2522 
Q 1259 2794 1537 2939 
Q 1816 3084 2150 3084 
Q 2853 3084 3261 2657 
Q 3669 2231 3669 1497 
Q 3669 778 3244 343 
Q 2819 -91 2113 -91 
Q 1303 -91 875 529 
Q 447 1150 447 2328 
Q 447 3434 972 4092 
Q 1497 4750 2381 4750 
Q 2619 4750 2861 4703 
Q 3103 4656 3366 4563 
z
" transform="scale(0.015625)"/>
       </defs>
       <use xlink:href="#DejaVuSans-36"/>
       <use xlink:href="#DejaVuSans-30" x="63.623047"/>
       <use xlink:href="#DejaVuSans-30" x="127.246094"/>
       <use xlink:href="#DejaVuSans-30" x="190.869141"/>
      </g>
     </g>
    </g>
    <g id="xtick_5">
     <g id="line2d_9">
      <path d="M 420.932411 260.44 
L 420.932411 26.88 
" clip-path="url(#p8ac05e3594)" style="fill: none; stroke-dasharray: 2.96,1.28; stroke-dashoffset: 0; stroke: #b0b0b0; stroke-opacity: 0.3; stroke-width: 0.8"/>
     </g>
     <g id="line2d_10">
      <g>
       <use xlink:href="#mdcfc8140ca" x="420.932411" y="260.44" style="stroke: #000000; stroke-width: 0.8"/>
      </g>
     </g>
     <g id="text_5">
      <!-- 8000 -->
      <g transform="translate(408.207411 275.038438) scale(0.1 -0.1)">
       <defs>
        <path id="DejaVuSans-38" d="M 2034 2216 
Q 1584 2216 1326 1975 
Q 1069 1734 1069 1313 
Q 1069 891 1326 650 
Q 1584 409 2034 409 
Q 2484 409 2743 651 
Q 3003 894 3003 1313 
Q 3003 1734 2745 1975 
Q 2488 2216 2034 2216 
z
M 1403 2484 
Q 997 2584 770 2862 
Q 544 3141 544 3541 
Q 544 4100 942 4425 
Q 1341 4750 2034 4750 
Q 2731 4750 3128 4425 
Q 3525 4100 3525 3541 
Q 3525 3141 3298 2862 
Q 3072 2584 2669 2484 
Q 3125 2378 3379 2068 
Q 3634 1759 3634 1313 
Q 3634 634 3220 271 
Q 2806 -91 2034 -91 
Q 1263 -91 848 271 
Q 434 634 434 1313 
Q 434 1759 690 2068 
Q 947 2378 1403 2484 
z
M 1172 3481 
Q 1172 3119 1398 2916 
Q 1625 2713 2034 2713 
Q 2441 2713 2670 2916 
Q 2900 3119 2900 3481 
Q 2900 3844 2670 4047 
Q 2441 4250 2034 4250 
Q 1625 4250 1398 4047 
Q 1172 3844 1172 3481 
z
" transform="scale(0.015625)"/>
       </defs>
       <use xlink:href="#DejaVuSans-38"/>
       <use xlink:href="#DejaVuSans-30" x="63.623047"/>
       <use xlink:href="#DejaVuSans-30" x="127.246094"/>
       <use xlink:href="#DejaVuSans-30" x="190.869141"/>
      </g>
     </g>
    </g>
    <g id="xtick_6">
     <g id="line2d_11">
      <path d="M 508.365989 260.44 
L 508.365989 26.88 
" clip-path="url(#p8ac05e3594)" style="fill: none; stroke-dasharray: 2.96,1.28; stroke-dashoffset: 0; stroke: #b0b0b0; stroke-opacity: 0.3; stroke-width: 0.8"/>
     </g>
     <g id="line2d_12">
      <g>
       <use xlink:href="#mdcfc8140ca" x="508.365989" y="260.44" style="stroke: #000000; stroke-width: 0.8"/>
      </g>
     </g>
     <g id="text_6">
      <!-- 10000 -->
      <g transform="translate(492.459739 275.038438) scale(0.1 -0.1)">
       <defs>
        <path id="DejaVuSans-31" d="M 794 531 
L 1825 531 
L 1825 4091 
L 703 3866 
L 703 4441 
L 1819 4666 
L 2450 4666 
L 2450 531 
L 3481 531 
L 3481 0 
L 794 0 
L 794 531 
z
" transform="scale(0.015625)"/>
       </defs>
       <use xlink:href="#DejaVuSans-31"/>
       <use xlink:href="#DejaVuSans-30" x="63.623047"/>
       <use xlink:href="#DejaVuSans-30" x="127.246094"/>
       <use xlink:href="#DejaVuSans-30" x="190.869141"/>
       <use xlink:href="#DejaVuSans-30" x="254.492188"/>
      </g>
     </g>
    </g>
    <g id="text_7">
     <!-- round -->
     <g transform="translate(291.945937 288.716563) scale(0.1 -0.1)">
      <defs>
       <path id="DejaVuSans-72" d="M 2631 2963 
Q 2534 3019 2420 3045 
Q 2306 3072 2169 3072 
Q 1681 3072 1420 2755 
Q 1159 2438 1159 1844 
L 1159 0 
L 581 0 
L 581 3500 
L 1159 3500 
L 1159 2956 
Q 1341 3275 1631 3429 
Q 1922 3584 2338 3584 
Q 2397 3584 2469 3576 
Q 2541 3569 2628 3553 
L 2631 2963 
z
" transform="scale(0.015625)"/>
       <path id="DejaVuSans-6f" d="M 1959 3097 
Q 1497 3097 1228 2736 
Q 959 2375 959 1747 
Q 959 1119 1226 758 
Q 1494 397 1959 397 
Q 2419 397 2687 759 
Q 2956 1122 2956 1747 
Q 2956 2369 2687 2733 
Q 2419 3097 1959 3097 
z
M 1959 3584 
Q 2709 3584 3137 3096 
Q 3566 2609 3566 1747 
Q 3566 888 3137 398 
Q 2709 -91 1959 -91 
Q 1206 -91 779 398 
Q 353 888 353 1747 
Q 353 2609 779 3096 
Q 1206 3584 1959 3584 
z
" transform="scale(0.015625)"/>
       <path id="DejaVuSans-75" d="M 544 1381 
L 544 3500 
L 1119 3500 
L 1119 1403 
Q 1119 906 1312 657 
Q 1506 409 1894 409 
Q 2359 409 2629 706 
Q 2900 1003 2900 1516 
L 2900 3500 
L 3475 3500 
L 3475 0 
L 2900 0 
L 2900 538 
Q 2691 219 2414 64 
Q 2138 -91 1772 -91 
Q 1169 -91 856 284 
Q 544 659 544 1381 
z
M 1991 3584 
L 1991 3584 
z
" transform="scale(0.015625)"/>
       <path id="DejaVuSans-6e" d="M 3513 2113 
L 3513 0 
L 2938 0 
L 2938 2094 
Q 2938 2591 2744 2837 
Q 2550 3084 2163 3084 
Q 1697 3084 1428 2787 
Q 1159 2491 1159 1978 
L 1159 0 
L 581 0 
L 581 3500 
L 1159 3500 
L 1159 2956 
Q 1366 3272 1645 3428 
Q 1925 3584 2291 3584 
Q 2894 3584 3203 3211 
Q 3513 2838 3513 2113 
z
" transform="scale(0.015625)"/>
       <path id="DejaVuSans-64" d="M 2906 2969 
L 2906 4863 
L 3481 4863 
L 3481 0 
L 2906 0 
L 2906 525 
Q 2725 213 2448 61 
Q 2172 -91 1784 -91 
Q 1150 -91 751 415 
Q 353 922 353 1747 
Q 353 2572 751 3078 
Q 1150 3584 1784 3584 
Q 2172 3584 2448 3432 
Q 2725 3281 2906 2969 
z
M 947 1747 
Q 947 1113 1208 752 
Q 1469 391 1925 391 
Q 2381 391 2643 752 
Q 2906 1113 2906 1747 
Q 2906 2381 2643 2742 
Q 2381 3103 1925 3103 
Q 1469 3103 1208 2742 
Q 947 2381 947 1747 
z
" transform="scale(0.015625)"/>
      </defs>
      <use xlink:href="#DejaVuSans-72"/>
      <use xlink:href="#DejaVuSans-6f" x="38.863281"/>
      <use xlink:href="#DejaVuSans-75" x="100.044922"/>
      <use xlink:href="#DejaVuSans-6e" x="163.423828"/>
      <use xlink:href="#DejaVuSans-64" x="226.802734"/>
     </g>
    </g>
   </g>
   <g id="matplotlib.axis_2">
    <g id="ytick_1">
     <g id="line2d_13">
      <path d="M 47.72 249.823636 
L 565.2 249.823636 
" clip-path="url(#p8ac05e3594)" style="fill: none; stroke-dasharray: 2.96,1.28; stroke-dashoffset: 0; stroke: #b0b0b0; stroke-opacity: 0.3; stroke-width: 0.8"/>
     </g>
     <g id="line2d_14">
      <defs>
       <path id="m364641a3f5" d="M 0 0 
L -3.5 0 
" style="stroke: #000000; stroke-width: 0.8"/>
      </defs>
      <g>
       <use xlink:href="#m364641a3f5" x="47.72" y="249.823636" style="stroke: #000000; stroke-width: 0.8"/>
      </g>
     </g>
     <g id="text_8">
      <!-- 0.5 -->
      <g transform="translate(24.816875 253.622855) scale(0.1 -0.1)">
       <defs>
        <path id="DejaVuSans-2e" d="M 684 794 
L 1344 794 
L 1344 0 
L 684 0 
L 684 794 
z
" transform="scale(0.015625)"/>
        <path id="DejaVuSans-35" d="M 691 4666 
L 3169 4666 
L 3169 4134 
L 1269 4134 
L 1269 2991 
Q 1406 3038 1543 3061 
Q 1681 3084 1819 3084 
Q 2600 3084 3056 2656 
Q 3513 2228 3513 1497 
Q 3513 744 3044 326 
Q 2575 -91 1722 -91 
Q 1428 -91 1123 -41 
Q 819 9 494 109 
L 494 744 
Q 775 591 1075 516 
Q 1375 441 1709 441 
Q 2250 441 2565 725 
Q 2881 1009 2881 1497 
Q 2881 1984 2565 2268 
Q 2250 2553 1709 2553 
Q 1456 2553 1204 2497 
Q 953 2441 691 2322 
L 691 4666 
z
" transform="scale(0.015625)"/>
       </defs>
       <use xlink:href="#DejaVuSans-30"/>
       <use xlink:href="#DejaVuSans-2e" x="63.623047"/>
       <use xlink:href="#DejaVuSans-35" x="95.410156"/>
      </g>
     </g>
    </g>
    <g id="ytick_2">
     <g id="line2d_15">
      <path d="M 47.72 207.358182 
L 565.2 207.358182 
" clip-path="url(#p8ac05e3594)" style="fill: none; stroke-dasharray: 2.96,1.28; stroke-dashoffset: 0; stroke: #b0b0b0; stroke-opacity: 0.3; stroke-width: 0.8"/>
     </g>
     <g id="line2d_16">
      <g>
       <use xlink:href="#m364641a3f5" x="47.72" y="207.358182" style="stroke: #000000; stroke-width: 0.8"/>
      </g>
     </g>
     <g id="text_9">
      <!-- 0.6 -->
      <g transform="translate(24.816875 211.157401) scale(0.1 -0.1)">
       <use xlink:href="#DejaVuSans-30"/>
       <use xlink:href="#DejaVuSans-2e" x="63.623047"/>
       <use xlink:href="#DejaVuSans-36" x="95.410156"/>
      </g>
     </g>
    </g>
    <g id="ytick_3">
     <g id="line2d_17">
      <path d="M 47.72 164.892727 
L 565.2 164.892727 
" clip-path="url(#p8ac05e3594)" style="fill: none; stroke-dasharray: 2.96,1.28; stroke-dashoffset: 0; stroke: #b0b0b0; stroke-opacity: 0.3; stroke-width: 0.8"/>
     </g>
     <g id="line2d_18">
      <g>
       <use xlink:href="#m364641a3f5" x="47.72" y="164.892727" style="stroke: #000000; stroke-width: 0.8"/>
      </g>
     </g>
     <g id="text_10">
      <!-- 0.7 -->
      <g transform="translate(24.816875 168.691946) scale(0.1 -0.1)">
       <defs>
        <path id="DejaVuSans-37" d="M 525 4666 
L 3525 4666 
L 3525 4397 
L 1831 0 
L 1172 0 
L 2766 4134 
L 525 4134 
L 525 4666 
z
" transform="scale(0.015625)"/>
       </defs>
       <use xlink:href="#DejaVuSans-30"/>
       <use xlink:href="#DejaVuSans-2e" x="63.623047"/>
       <use xlink:href="#DejaVuSans-37" x="95.410156"/>
      </g>
     </g>
    </g>
    <g id="ytick_4">
     <g id="line2d_19">
      <path d="M 47.72 122.427273 
L 565.2 122.427273 
" clip-path="url(#p8ac05e3594)" style="fill: none; stroke-dasharray: 2.96,1.28; stroke-dashoffset: 0; stroke: #b0b0b0; stroke-opacity: 0.3; stroke-width: 0.8"/>
     </g>
     <g id="line2d_20">
      <g>
       <use xlink:href="#m364641a3f5" x="47.72" y="122.427273" style="stroke: #000000; stroke-width: 0.8"/>
      </g>
     </g>
     <g id="text_11">
      <!-- 0.8 -->
      <g transform="translate(24.816875 126.226491) scale(0.1 -0.1)">
       <use xlink:href="#DejaVuSans-30"/>
       <use xlink:href="#DejaVuSans-2e" x="63.623047"/>
       <use xlink:href="#DejaVuSans-38" x="95.410156"/>
      </g>
     </g>
    </g>
    <g id="ytick_5">
     <g id="line2d_21">
      <path d="M 47.72 79.961818 
L 565.2 79.961818 
" clip-path="url(#p8ac05e3594)" style="fill: none; stroke-dasharray: 2.96,1.28; stroke-dashoffset: 0; stroke: #b0b0b0; stroke-opacity: 0.3; stroke-width: 0.8"/>
     </g>
     <g id="line2d_22">
      <g>
       <use xlink:href="#m364641a3f5" x="47.72" y="79.961818" style="stroke: #000000; stroke-width: 0.8"/>
      </g>
     </g>
     <g id="text_12">
      <!-- 0.9 -->
      <g transform="translate(24.816875 83.761037) scale(0.1 -0.1)">
       <defs>
        <path id="DejaVuSans-39" d="M 703 97 
L 703 672 
Q 941 559 1184 500 
Q 1428 441 1663 441 
Q 2288 441 2617 861 
Q 2947 1281 2994 2138 
Q 2813 1869 2534 1725 
Q 2256 1581 1919 1581 
Q 1219 1581 811 2004 
Q 403 2428 403 3163 
Q 403 3881 828 4315 
Q 1253 4750 1959 4750 
Q 2769 4750 3195 4129 
Q 3622 3509 3622 2328 
Q 3622 1225 3098 567 
Q 2575 -91 1691 -91 
Q 1453 -91 1209 -44 
Q 966 3 703 97 
z
M 1959 2075 
Q 2384 2075 2632 2365 
Q 2881 2656 2881 3163 
Q 2881 3666 2632 3958 
Q 2384 4250 1959 4250 
Q 1534 4250 1286 3958 
Q 1038 3666 1038 3163 
Q 1038 2656 1286 2365 
Q 1534 2075 1959 2075 
z
" transform="scale(0.015625)"/>
       </defs>
       <use xlink:href="#DejaVuSans-30"/>
       <use xlink:href="#DejaVuSans-2e" x="63.623047"/>
       <use xlink:href="#DejaVuSans-39" x="95.410156"/>
      </g>
     </g>
    </g>
    <g id="ytick_6">
     <g id="line2d_23">
      <path d="M 47.72 37.496364 
L 565.2 37.496364 
" clip-path="url(#p8ac05e3594)" style="fill: none; stroke-dasharray: 2.96,1.28; stroke-dashoffset: 0; stroke: #b0b0b0; stroke-opacity: 0.3; stroke-width: 0.8"/>
     </g>
     <g id="line2d_24">
      <g>
       <use xlink:href="#m364641a3f5" x="47.72" y="37.496364" style="stroke: #000000; stroke-width: 0.8"/>
      </g>
     </g>
     <g id="text_13">
      <!-- 1.0 -->
      <g transform="translate(24.816875 41.295582) scale(0.1 -0.1)">
       <use xlink:href="#DejaVuSans-31"/>
       <use xlink:href="#DejaVuSans-2e" x="63.623047"/>
       <use xlink:href="#DejaVuSans-30" x="95.410156"/>
      </g>
     </g>
    </g>
    <g id="text_14">
     <!-- cumulative timely transfer rate -->
     <g transform="translate(18.737188 221.768594) rotate(-90) scale(0.1 -0.1)">
      <defs>
       <path id="DejaVuSans-63" d="M 3122 3366 
L 3122 2828 
Q 2878 2963 2633 3030 
Q 2388 3097 2138 3097 
Q 1578 3097 1268 2742 
Q 959 2388 959 1747 
Q 959 1106 1268 751 
Q 1578 397 2138 397 
Q 2388 397 2633 464 
Q 2878 531 3122 666 
L 3122 134 
Q 2881 22 2623 -34 
Q 2366 -91 2075 -91 
Q 1284 -91 818 406 
Q 353 903 353 1747 
Q 353 2603 823 3093 
Q 1294 3584 2113 3584 
Q 2378 3584 2631 3529 
Q 2884 3475 3122 3366 
z
" transform="scale(0.015625)"/>
       <path id="DejaVuSans-6d" d="M 3328 2828 
Q 3544 3216 3844 3400 
Q 4144 3584 4550 3584 
Q 5097 3584 5394 3201 
Q 5691 2819 5691 2113 
L 5691 0 
L 5113 0 
L 5113 2094 
Q 5113 2597 4934 2840 
Q 4756 3084 4391 3084 
Q 3944 3084 3684 2787 
Q 3425 2491 3425 1978 
L 3425 0 
L 2847 0 
L 2847 2094 
Q 2847 2600 2669 2842 
Q 2491 3084 2119 3084 
Q 1678 3084 1418 2786 
Q 1159 2488 1159 1978 
L 1159 0 
L 581 0 
L 581 3500 
L 1159 3500 
L 1159 2956 
Q 1356 3278 1631 3431 
Q 1906 3584 2284 3584 
Q 2666 3584 2933 3390 
Q 3200 3197 3328 2828 
z
" transform="scale(0.015625)"/>
       <path id="DejaVuSans-6c" d="M 603 4863 
L 1178 4863 
L 1178 0 
L 603 0 
L 603 4863 
z
" transform="scale(0.015625)"/>
       <path id="DejaVuSans-61" d="M 2194 1759 
Q 1497 1759 1228 1600 
Q 959 1441 959 1056 
Q 959 750 1161 570 
Q 1363 391 1709 391 
Q 2188 391 2477 730 
Q 2766 1069 2766 1631 
L 2766 1759 
L 2194 1759 
z
M 3341 1997 
L 3341 0 
L 2766 0 
L 2766 531 
Q 2569 213 2275 61 
Q 1981 -91 1556 -91 
Q 1019 -91 701 211 
Q 384 513 384 1019 
Q 384 1609 779 1909 
Q 1175 2209 1959 2209 
L 2766 2209 
L 2766 2266 
Q 2766 2663 2505 2880 
Q 2244 3097 1772 3097 
Q 1472 3097 1187 3025 
Q 903 2953 641 2809 
L 641 3341 
Q 956 3463 1253 3523 
Q 1550 3584 1831 3584 
Q 2591 3584 2966 3190 
Q 3341 2797 3341 1997 
z
" transform="scale(0.015625)"/>
       <path id="DejaVuSans-74" d="M 1172 4494 
L 1172 3500 
L 2356 3500 
L 2356 3053 
L 1172 3053 
L 1172 1153 
Q 1172 725 1289 603 
Q 1406 481 1766 481 
L 2356 481 
L 2356 0 
L 1766 0 
Q 1100 0 847 248 
Q 594 497 594 1153 
L 594 3053 
L 172 3053 
L 172 3500 
L 594 3500 
L 594 4494 
L 1172 4494 
z
" transform="scale(0.015625)"/>
       <path id="DejaVuSans-69" d="M 603 3500 
L 1178 3500 
L 1178 0 
L 603 0 
L 603 3500 
z
M 603 4863 
L 1178 4863 
L 1178 4134 
L 603 4134 
L 603 4863 
z
" transform="scale(0.015625)"/>
       <path id="DejaVuSans-76" d="M 191 3500 
L 800 3500 
L 1894 563 
L 2988 3500 
L 3597 3500 
L 2284 0 
L 1503 0 
L 191 3500 
z
" transform="scale(0.015625)"/>
       <path id="DejaVuSans-65" d="M 3597 1894 
L 3597 1613 
L 953 1613 
Q 991 1019 1311 708 
Q 1631 397 2203 397 
Q 2534 397 2845 478 
Q 3156 559 3463 722 
L 3463 178 
Q 3153 47 2828 -22 
Q 2503 -91 2169 -91 
Q 1331 -91 842 396 
Q 353 884 353 1716 
Q 353 2575 817 3079 
Q 1281 3584 2069 3584 
Q 2775 3584 3186 3129 
Q 3597 2675 3597 1894 
z
M 3022 2063 
Q 3016 2534 2758 2815 
Q 2500 3097 2075 3097 
Q 1594 3097 1305 2825 
Q 1016 2553 972 2059 
L 3022 2063 
z
" transform="scale(0.015625)"/>
       <path id="DejaVuSans-20" transform="scale(0.015625)"/>
       <path id="DejaVuSans-79" d="M 2059 -325 
Q 1816 -950 1584 -1140 
Q 1353 -1331 966 -1331 
L 506 -1331 
L 506 -850 
L 844 -850 
Q 1081 -850 1212 -737 
Q 1344 -625 1503 -206 
L 1606 56 
L 191 3500 
L 800 3500 
L 1894 763 
L 2988 3500 
L 3597 3500 
L 2059 -325 
z
" transform="scale(0.015625)"/>
       <path id="DejaVuSans-73" d="M 2834 3397 
L 2834 2853 
Q 2591 2978 2328 3040 
Q 2066 3103 1784 3103 
Q 1356 3103 1142 2972 
Q 928 2841 928 2578 
Q 928 2378 1081 2264 
Q 1234 2150 1697 2047 
L 1894 2003 
Q 2506 1872 2764 1633 
Q 3022 1394 3022 966 
Q 3022 478 2636 193 
Q 2250 -91 1575 -91 
Q 1294 -91 989 -36 
Q 684 19 347 128 
L 347 722 
Q 666 556 975 473 
Q 1284 391 1588 391 
Q 1994 391 2212 530 
Q 2431 669 2431 922 
Q 2431 1156 2273 1281 
Q 2116 1406 1581 1522 
L 1381 1569 
Q 847 1681 609 1914 
Q 372 2147 372 2553 
Q 372 3047 722 3315 
Q 1072 3584 1716 3584 
Q 2034 3584 2315 3537 
Q 2597 3491 2834 3397 
z
" transform="scale(0.015625)"/>
       <path id="DejaVuSans-66" d="M 2375 4863 
L 2375 4384 
L 1825 4384 
Q 1516 4384 1395 4259 
Q 1275 4134 1275 3809 
L 1275 3500 
L 2222 3500 
L 2222 3053 
L 1275 3053 
L 1275 0 
L 697 0 
L 697 3053 
L 147 3053 
L 147 3500 
L 697 3500 
L 697 3744 
Q 697 4328 969 4595 
Q 1241 4863 1831 4863 
L 2375 4863 
z
" transform="scale(0.015625)"/>
      </defs>
      <use xlink:href="#DejaVuSans-63"/>
      <use xlink:href="#DejaVuSans-75" x="54.980469"/>
      <use xlink:href="#DejaVuSans-6d" x="118.359375"/>
      <use xlink:href="#DejaVuSans-75" x="215.771484"/>
      <use xlink:href="#DejaVuSans-6c" x="279.150391"/>
      <use xlink:href="#DejaVuSans-61" x="306.933594"/>
      <use xlink:href="#DejaVuSans-74" x="368.212891"/>
      <use xlink:href="#DejaVuSans-69" x="407.421875"/>
      <use xlink:href="#DejaVuSans-76" x="435.205078"/>
      <use xlink:href="#DejaVuSans-65" x="494.384766"/>
      <use xlink:href="#DejaVuSans-20" x="555.908203"/>
      <use xlink:href="#DejaVuSans-74" x="587.695312"/>
      <use xlink:href="#DejaVuSans-69" x="626.904297"/>
      <use xlink:href="#DejaVuSans-6d" x="654.6875"/>
      <use xlink:href="#DejaVuSans-65" x="752.099609"/>
      <use xlink:href="#DejaVuSans-6c" x="813.623047"/>
      <use xlink:href="#DejaVuSans-79" x="841.40625"/>
      <use xlink:href="#DejaVuSans-20" x="900.585938"/>
      <use xlink:href="#DejaVuSans-74" x="932.373047"/>
      <use xlink:href="#DejaVuSans-72" x="971.582031"/>
      <use xlink:href="#DejaVuSans-61" x="1012.695312"/>
      <use xlink:href="#DejaVuSans-6e" x="1073.974609"/>
      <use xlink:href="#DejaVuSans-73" x="1137.353516"/>
      <use xlink:href="#DejaVuSans-66" x="1189.453125"/>
      <use xlink:href="#DejaVuSans-65" x="1224.658203"/>
      <use xlink:href="#DejaVuSans-72" x="1286.181641"/>
      <use xlink:href="#DejaVuSans-20" x="1327.294922"/>
      <use xlink:href="#DejaVuSans-72" x="1359.082031"/>
      <use xlink:href="#DejaVuSans-61" x="1400.195312"/>
      <use xlink:href="#DejaVuSans-74" x="1461.474609"/>
      <use xlink:href="#DejaVuSans-65" x="1500.683594"/>
     </g>
    </g>
   </g>
   <g id="line2d_25">
    <path d="M 71.241818 249.823636 
L 71.329252 244.379347 
L 71.460402 171.970303 
L 71.504119 187.54097 
L 71.547836 199.154628 
L 71.591552 187.242967 
L 71.722703 159.607327 
L 71.76642 170.403511 
L 71.853853 183.054054 
L 72.159871 135.355445 
L 72.597039 104.676836 
L 72.99049 89.739417 
L 73.383941 80.355017 
L 73.427658 84.510323 
L 73.515091 82.563239 
L 74.039693 75.846223 
L 74.258277 73.568538 
L 74.34571 79.566528 
L 74.433144 78.636498 
L 74.782878 75.025146 
L 74.826595 76.507928 
L 74.914028 75.790886 
L 75.132612 73.809416 
L 75.30748 76.181707 
L 75.657214 73.002597 
L 75.700931 74.353173 
L 75.788364 73.704165 
L 75.832081 73.388158 
L 76.006948 77.051181 
L 76.050665 76.723712 
L 76.181815 80.696763 
L 76.225532 80.515172 
L 76.269249 80.281374 
L 76.444116 83.740743 
L 76.6627 82.196842 
L 76.706417 81.779406 
L 76.837567 84.733577 
L 76.881284 84.415124 
L 77.187301 82.093406 
L 77.231018 83.304145 
L 77.274735 82.88945 
L 77.537036 80.550837 
L 77.624469 84.740714 
L 77.711903 83.674718 
L 77.88677 82.001083 
L 77.930487 83.69574 
L 78.01792 82.990613 
L 78.192788 81.392968 
L 78.323938 82.499875 
L 78.455088 81.347184 
L 78.629955 84.618892 
L 78.717389 83.895415 
L 78.848539 86.681302 
L 78.935973 86.055049 
L 80.422344 73.795518 
L 80.509777 75.127747 
L 80.553494 74.82701 
L 80.597211 74.46732 
L 80.640928 74.976523 
L 80.815795 76.012356 
L 81.55898 72.091439 
L 81.602697 72.35926 
L 81.690131 72.929208 
L 81.777564 72.869528 
L 81.952431 71.772133 
L 82.171015 74.78553 
L 82.214732 74.650196 
L 82.302166 74.734291 
L 82.433316 74.15835 
L 82.52075 75.617975 
L 82.564466 75.45165 
L 82.826767 74.16923 
L 82.914201 74.429365 
L 83.089068 73.381979 
L 83.132785 73.651536 
L 83.220218 74.166756 
L 83.263935 73.946587 
L 83.74482 71.998712 
L 83.832253 73.441532 
L 83.87597 73.285797 
L 83.919687 73.175381 
L 84.050837 73.677308 
L 84.094554 73.535422 
L 84.181988 74.84769 
L 84.225704 74.751204 
L 84.794023 72.097265 
L 84.837739 72.329024 
L 84.881456 72.558161 
L 84.925173 72.465641 
L 85.143757 71.822227 
L 85.231191 71.479241 
L 85.274907 71.918722 
L 85.318624 71.764903 
L 85.712075 70.263357 
L 85.930659 72.61661 
L 86.19296 71.755738 
L 86.280394 72.142306 
L 86.32411 71.979839 
L 86.979862 69.270745 
L 87.067296 69.445011 
L 87.28588 70.797416 
L 87.329596 70.696308 
L 87.810481 69.191594 
L 87.854198 69.339186 
L 87.897915 69.22263 
L 87.941631 69.104865 
L 88.116499 69.89426 
L 88.203932 70.191173 
L 88.422516 72.026729 
L 88.50995 71.842259 
L 88.553667 72.196376 
L 88.6411 72.021123 
L 88.728534 71.843422 
L 89.296852 74.85878 
L 89.384286 74.675353 
L 89.428002 74.791077 
L 89.602869 76.112439 
L 89.646586 76.008197 
L 89.821453 76.924101 
L 89.86517 76.779367 
L 89.908887 76.626885 
L 89.996321 77.166197 
L 90.040037 77.155668 
L 90.083754 77.323174 
L 90.127471 77.178006 
L 90.608356 75.547282 
L 90.695789 75.782692 
L 90.739506 75.91336 
L 90.783223 75.797061 
L 90.95809 75.366161 
L 91.001807 75.598824 
L 91.045523 75.506912 
L 91.132957 75.287736 
L 91.264107 76.070082 
L 91.307824 75.980548 
L 91.351541 75.875971 
L 91.526408 77.120075 
L 91.570125 77.033457 
L 91.613842 77.078881 
L 91.701275 77.346337 
L 91.788709 77.22561 
L 91.832426 77.185455 
L 92.007293 77.916061 
L 92.05101 77.841533 
L 92.138443 77.685527 
L 92.18216 77.951353 
L 92.225877 77.88126 
L 92.357027 77.6436 
L 92.444461 78.055189 
L 92.488178 77.951178 
L 92.619328 78.233922 
L 92.794195 78.021591 
L 92.837912 78.247736 
L 92.881629 78.119427 
L 93.100213 77.775355 
L 93.27508 78.348477 
L 93.318796 78.269181 
L 93.449947 78.94557 
L 93.493664 78.8566 
L 93.581097 78.787214 
L 93.712248 79.5735 
L 93.755964 79.44933 
L 93.887115 79.653532 
L 94.018265 79.407921 
L 94.061982 79.506706 
L 94.367999 80.210621 
L 94.6303 79.868614 
L 94.674017 80.065558 
L 94.761451 79.990386 
L 94.805167 79.960034 
L 95.417202 83.317883 
L 95.679503 83.981296 
L 95.85437 84.518242 
L 95.985521 84.674521 
L 96.029237 84.619671 
L 96.072954 84.527284 
L 96.247821 85.333343 
L 96.291538 85.26494 
L 96.378972 85.397316 
L 96.510122 85.685299 
L 96.553839 85.583056 
L 96.597556 85.713182 
L 96.684989 85.84262 
L 96.772423 85.613428 
L 96.81614 85.772395 
L 96.859856 85.729382 
L 96.903573 85.830627 
L 96.991007 85.940283 
L 97.165874 86.499979 
L 97.253307 86.321975 
L 97.340741 86.589656 
L 97.384458 86.511136 
L 97.559325 86.160885 
L 97.909059 87.201597 
L 97.952776 87.133158 
L 97.996493 87.053857 
L 98.215077 87.881486 
L 98.258794 87.796491 
L 98.30251 87.909133 
L 98.477378 88.67015 
L 98.521094 88.909523 
L 98.564811 88.805462 
L 98.783395 88.449445 
L 99.089413 90.417611 
L 99.133129 90.282072 
L 99.220563 90.594858 
L 99.26428 90.507885 
L 99.39543 90.366949 
L 99.570297 90.720083 
L 100.48835 88.569116 
L 100.663217 88.340052 
L 100.706934 88.351876 
L 100.881801 88.092746 
L 100.925518 88.172106 
L 100.969235 88.094196 
L 101.187818 87.727507 
L 101.231535 88.003449 
L 101.275252 87.885468 
L 102.411889 85.781107 
L 102.543039 85.934607 
L 102.630472 85.776851 
L 102.674189 85.926836 
L 102.717906 85.811179 
L 102.892773 85.585484 
L 102.93649 85.753691 
L 102.980207 85.681827 
L 103.679675 84.666801 
L 103.723392 84.908958 
L 103.767109 84.848544 
L 103.898259 84.589847 
L 104.02941 84.779303 
L 104.29171 84.537451 
L 104.379144 84.994796 
L 104.466578 84.963534 
L 104.728878 84.617076 
L 104.772595 84.648068 
L 104.816312 84.585213 
L 105.034896 84.233667 
L 105.209763 84.637248 
L 105.25348 84.552832 
L 105.38463 84.807037 
L 105.515781 84.578973 
L 105.603214 84.639065 
L 105.646931 84.874343 
L 105.734364 84.744739 
L 105.778081 84.818996 
L 105.821798 84.725964 
L 105.865515 84.649332 
L 105.909232 84.736921 
L 105.952948 84.814348 
L 105.996665 84.752719 
L 106.084099 84.643414 
L 106.127816 84.697353 
L 106.215249 85.23013 
L 106.258966 85.127737 
L 106.390116 84.931587 
L 106.433833 85.019619 
L 106.47755 85.129007 
L 106.521267 85.107664 
L 106.652417 84.865213 
L 106.696134 85.000349 
L 106.739851 84.953315 
L 106.783567 85.085475 
L 106.871001 85.033362 
L 107.045868 84.91153 
L 107.177019 85.201883 
L 107.264452 85.075726 
L 107.308169 85.105843 
L 107.526753 85.631036 
L 107.614186 85.525084 
L 108.007638 85.119524 
L 108.138788 85.518036 
L 108.182505 85.469026 
L 108.357372 85.283996 
L 108.444805 85.515395 
L 108.488522 85.458719 
L 108.663389 85.216408 
L 108.707106 85.344477 
L 108.750823 85.263414 
L 108.79454 85.195123 
L 108.838256 85.244868 
L 109.100557 85.832738 
L 109.275424 85.798775 
L 109.362858 85.777655 
L 109.537725 85.523476 
L 109.581442 85.665072 
L 109.625159 85.600221 
L 109.712592 85.515508 
L 109.843743 85.751894 
L 110.01861 85.670558 
L 110.062327 85.834669 
L 110.106043 85.768254 
L 110.412061 85.330925 
L 110.455778 85.368892 
L 110.543211 85.300705 
L 111.024096 84.882951 
L 111.286397 84.876068 
L 111.37383 85.188293 
L 111.417547 85.131648 
L 111.504981 85.041712 
L 111.548697 85.151978 
L 111.592414 85.285004 
L 111.636131 85.227483 
L 111.810998 84.986364 
L 111.854715 85.105984 
L 112.029582 84.950017 
L 112.073299 85.090603 
L 112.160732 85.359084 
L 112.204449 85.348243 
L 112.860201 84.751209 
L 113.166219 84.919668 
L 113.428519 84.788893 
L 113.515953 84.680202 
L 113.55967 84.778639 
L 113.647103 84.713568 
L 113.69082 84.660597 
L 113.734537 84.744809 
L 113.778254 84.824947 
L 113.82197 84.753442 
L 113.996838 84.575135 
L 114.127988 84.96401 
L 114.171705 84.898811 
L 114.434005 84.762863 
L 114.477722 84.858787 
L 114.521439 84.824038 
L 114.565156 84.754887 
L 114.696306 85.041171 
L 114.740023 84.97199 
L 114.871173 84.960724 
L 114.91489 85.074216 
L 114.958607 85.021619 
L 115.002324 84.972952 
L 115.04604 85.225188 
L 115.133474 85.130624 
L 115.308341 85.082727 
L 115.352058 85.209028 
L 115.439492 85.154525 
L 115.701792 85.07741 
L 115.745509 85.122425 
L 115.789226 85.064234 
L 116.051527 84.800371 
L 116.226394 84.992202 
L 116.401261 84.942278 
L 116.488695 84.944535 
L 116.619845 85.116186 
L 116.794712 85.009816 
L 116.969579 85.192981 
L 117.013296 85.162832 
L 117.23188 85.070761 
L 117.712765 85.024414 
L 117.843915 84.876664 
L 117.887632 84.98915 
L 117.931349 84.954326 
L 118.018782 84.898957 
L 118.106216 84.944733 
L 118.412233 84.73561 
L 118.45595 84.784743 
L 118.499667 84.731975 
L 118.630817 84.661842 
L 118.936835 84.765376 
L 119.067985 84.655923 
L 119.111702 84.797167 
L 119.199135 84.726053 
L 119.330286 84.691416 
L 119.505153 84.597704 
L 119.767454 84.492276 
L 119.81117 84.58972 
L 119.854887 84.525059 
L 119.898604 84.47668 
L 119.942321 84.56957 
L 120.160905 84.518204 
L 120.204622 84.595481 
L 120.248338 84.545638 
L 120.423206 84.372434 
L 120.554356 84.663386 
L 120.947807 84.434001 
L 120.991524 84.516028 
L 121.035241 84.471225 
L 121.341258 84.236265 
L 121.472408 84.310078 
L 121.734709 84.134042 
L 121.86586 84.28115 
L 121.909576 84.256028 
L 121.99701 84.201825 
L 122.215594 84.67939 
L 122.259311 84.628295 
L 122.346744 84.562765 
L 122.390461 84.626807 
L 122.434178 84.72708 
L 122.477895 84.685047 
L 122.652762 84.650442 
L 122.696479 84.760575 
L 122.740195 84.709908 
L 122.783912 84.67218 
L 122.915062 84.902541 
L 123.264797 84.631826 
L 124.007982 84.322512 
L 124.051699 84.416492 
L 124.139133 84.356054 
L 124.314 84.305432 
L 124.44515 84.175703 
L 124.488867 84.272852 
L 124.663734 84.299613 
L 124.838601 84.171115 
L 124.882318 84.268287 
L 124.969752 84.195405 
L 125.144619 84.167741 
L 125.232052 84.149713 
L 125.712937 83.767941 
L 125.844087 83.734249 
L 126.062671 83.518837 
L 126.106388 83.608574 
L 126.193822 83.782659 
L 126.281255 83.703552 
L 127.024441 83.213698 
L 127.243025 83.28641 
L 127.592759 83.259316 
L 187.397326 83.358869 
L 187.703343 83.376558 
L 206.414129 83.485684 
L 206.720146 83.503359 
L 220.884386 83.605791 
L 221.146687 83.62934 
L 236.666147 83.737567 
L 236.972164 83.755216 
L 277.585061 83.850151 
L 277.847362 83.873666 
L 291.836734 83.971404 
L 292.099035 83.994902 
L 308.011946 84.101412 
L 308.973715 84.119022 
L 335.422373 84.220293 
L 335.684673 84.243755 
L 351.772452 84.340576 
L 352.034752 84.363291 
L 362.00218 84.459973 
L 362.264481 84.483398 
L 368.035097 84.588776 
L 368.341114 84.606333 
L 379.401462 84.716754 
L 379.70748 84.734297 
L 394.527471 84.840962 
L 395.35809 84.843872 
L 407.46764 84.936529 
L 407.729941 84.95988 
L 417.260201 85.054677 
L 417.522502 85.078011 
L 425.17294 85.174201 
L 425.435241 85.209177 
L 440.82355 85.316846 
L 441.129568 85.334318 
L 454.944073 85.440385 
L 455.949559 85.46366 
L 468.933445 85.57269 
L 469.895215 85.590133 
L 480.16866 85.602376 
L 480.16866 85.602376 
" clip-path="url(#p8ac05e3594)" style="fill: none; stroke: #1f77b4; stroke-width: 1.8; stroke-linecap: square"/>
   </g>
   <g id="line2d_26">
    <path d="M 71.241818 37.496364 
L 71.285535 37.496364 
L 71.460402 93.341345 
L 71.504119 92.759626 
L 71.591552 79.592553 
L 71.635269 82.335663 
L 71.722703 97.135754 
L 71.76642 93.411731 
L 71.89757 83.438522 
L 71.941287 87.000719 
L 71.985004 84.033848 
L 72.072437 90.097078 
L 72.116154 87.419909 
L 72.203588 83.01489 
L 72.247304 85.276711 
L 72.291021 92.975013 
L 72.378455 89.831392 
L 72.422171 87.522908 
L 72.465888 90.1891 
L 72.509605 89.824485 
L 72.597039 87.298996 
L 72.640755 88.582625 
L 72.684472 89.104358 
L 72.728189 87.225646 
L 72.771906 90.420133 
L 72.815623 88.974966 
L 72.903056 87.163562 
L 72.946773 90.236497 
L 72.99049 88.893667 
L 73.165357 85.98336 
L 73.209074 90.647752 
L 73.296507 89.440236 
L 73.383941 87.531579 
L 73.427658 88.095654 
L 73.471374 87.929512 
L 73.558808 89.529134 
L 73.602525 89.415591 
L 73.733675 86.778641 
L 73.777392 87.520252 
L 74.039693 93.14007 
L 74.083409 92.907294 
L 74.127126 93.316339 
L 74.389427 90.256743 
L 74.433144 91.68155 
L 74.476861 90.760741 
L 74.695444 89.045902 
L 74.739161 90.126891 
L 74.782878 89.517537 
L 74.826595 88.836832 
L 74.914028 89.018071 
L 74.957745 89.35683 
L 75.001462 90.996735 
L 75.088896 90.113591 
L 75.176329 90.07741 
L 75.263763 90.883902 
L 75.30748 90.336115 
L 75.351196 90.458281 
L 75.394913 91.49397 
L 75.482347 90.950773 
L 75.526063 90.438773 
L 75.613497 90.706554 
L 75.657214 91.449935 
L 75.744647 91.068743 
L 75.832081 91.106017 
L 75.875798 91.881733 
L 75.919515 91.252379 
L 75.963231 90.733978 
L 76.006948 90.909805 
L 76.094382 91.401492 
L 76.138099 91.037268 
L 76.181815 91.068168 
L 76.225532 91.359936 
L 76.269249 90.766242 
L 76.312966 91.483025 
L 76.356682 91.42771 
L 76.400399 91.480173 
L 76.487833 90.924425 
L 76.706417 93.494204 
L 76.750134 93.715525 
L 76.968718 91.675417 
L 77.012434 91.798037 
L 77.231018 93.980265 
L 77.274735 93.464318 
L 77.318452 93.42267 
L 77.493319 94.870093 
L 77.537036 94.673286 
L 77.624469 93.858733 
L 77.668186 94.477519 
L 77.711903 94.159994 
L 77.75562 94.279084 
L 77.843053 94.645189 
L 78.01792 93.859902 
L 78.105354 94.127772 
L 78.323938 92.957915 
L 78.411372 93.346445 
L 78.455088 93.210855 
L 78.542522 92.685436 
L 78.586239 92.983444 
L 78.717389 93.098775 
L 78.761106 93.523307 
L 78.848539 93.460577 
L 78.935973 92.977591 
L 78.97969 93.017844 
L 79.023407 93.712776 
L 79.067123 93.46219 
L 79.11084 93.139283 
L 79.198274 93.705286 
L 79.460574 92.293786 
L 79.635442 93.724602 
L 79.679158 93.483486 
L 79.722875 93.482091 
L 79.854026 93.160628 
L 79.897742 93.178732 
L 79.941459 93.59975 
L 79.985176 93.329982 
L 80.028893 93.232471 
L 80.07261 93.2897 
L 80.116326 93.75509 
L 80.160043 93.498541 
L 80.20376 93.227999 
L 80.247477 93.367889 
L 80.422344 93.813537 
L 80.509777 93.404358 
L 80.553494 93.740614 
L 80.597211 93.472878 
L 80.684645 92.964212 
L 80.728361 93.005804 
L 80.772078 93.183022 
L 80.815795 92.931563 
L 80.990662 92.296017 
L 81.034379 92.735518 
L 81.078096 92.489226 
L 81.515264 90.665943 
L 81.55898 90.799944 
L 81.690131 91.081202 
L 81.733847 90.848369 
L 81.777564 91.005043 
L 81.952431 91.330909 
L 82.083582 90.877863 
L 82.171015 91.505555 
L 82.258449 91.131379 
L 82.564466 89.929798 
L 82.608183 89.764165 
L 82.695617 90.133286 
L 82.739334 89.962775 
L 82.870484 89.848094 
L 83.089068 89.238901 
L 83.220218 89.848495 
L 83.263935 89.880116 
L 83.395085 89.61171 
L 83.526236 90.025599 
L 83.569953 89.833795 
L 83.613669 90.041324 
L 83.701103 89.85012 
L 83.87597 89.029985 
L 83.919687 89.187749 
L 83.963404 89.157923 
L 84.138271 88.742229 
L 84.225704 88.943788 
L 84.269421 88.730195 
L 84.400572 89.512872 
L 84.444288 89.359053 
L 84.488005 89.634482 
L 84.531722 89.611167 
L 84.706589 89.316593 
L 84.750306 89.392439 
L 84.794023 89.178003 
L 84.837739 89.198212 
L 84.96889 89.674136 
L 85.056323 89.371435 
L 85.10004 89.644118 
L 85.143757 89.480246 
L 85.318624 88.768435 
L 85.362341 88.854492 
L 85.537208 89.912814 
L 85.580925 89.738982 
L 85.712075 89.725376 
L 85.974376 90.463342 
L 86.105526 90.225046 
L 86.236677 90.45869 
L 86.280394 90.332889 
L 86.498977 89.935369 
L 86.542694 90.099316 
L 86.586411 89.980947 
L 86.761278 89.694116 
L 86.804995 89.576135 
L 86.892429 89.974401 
L 86.936145 89.858772 
L 87.111012 89.618767 
L 87.329596 89.339412 
L 87.373313 89.433149 
L 87.41703 89.938074 
L 87.460747 89.763114 
L 87.766764 89.140589 
L 87.810481 89.414584 
L 87.897915 89.310712 
L 88.116499 88.804957 
L 88.247649 88.964703 
L 88.291366 88.834663 
L 88.335083 88.668152 
L 88.422516 88.699964 
L 88.466233 88.743061 
L 88.553667 88.499719 
L 88.597383 88.597264 
L 88.6411 88.713462 
L 88.684817 88.611894 
L 88.77225 88.465659 
L 88.990834 88.860961 
L 89.034551 88.706764 
L 89.078268 88.901506 
L 89.209418 88.895428 
L 89.340569 88.615727 
L 89.384286 88.67444 
L 89.428002 88.709224 
L 89.515436 88.442804 
L 89.559153 88.84432 
L 89.602869 88.711436 
L 89.821453 88.270924 
L 89.86517 88.346793 
L 90.083754 88.575233 
L 90.433488 87.670231 
L 90.477205 87.958345 
L 90.564639 87.896342 
L 90.739506 87.583386 
L 90.870656 87.903223 
L 90.914373 87.933399 
L 91.08924 87.728361 
L 91.132957 87.892298 
L 91.176674 87.780388 
L 91.264107 87.62373 
L 91.438975 87.301273 
L 91.482691 87.325699 
L 91.526408 87.337999 
L 91.876142 86.662953 
L 92.05101 87.04447 
L 92.138443 86.922309 
L 92.31331 86.685308 
L 92.400744 87.056304 
L 92.531894 86.854077 
L 92.575611 86.797104 
L 92.619328 87.000555 
L 92.663045 86.874799 
L 92.794195 86.626468 
L 92.969062 86.987893 
L 93.187646 86.711128 
L 93.27508 86.955526 
L 93.318796 86.842351 
L 93.449947 86.580278 
L 93.493664 86.623817 
L 93.53738 86.747058 
L 93.581097 86.692718 
L 93.668531 86.486465 
L 93.712248 86.611409 
L 93.755964 86.592417 
L 93.799681 86.754336 
L 93.843398 86.652517 
L 94.061982 86.395612 
L 94.280566 86.398876 
L 94.411716 86.598309 
L 94.848884 85.723955 
L 94.980034 85.690687 
L 95.067468 85.534731 
L 95.111185 85.579161 
L 95.242335 85.880676 
L 95.286052 85.814191 
L 95.329769 85.851171 
L 95.417202 85.919087 
L 95.460919 85.809062 
L 95.548353 85.886046 
L 96.204105 84.900533 
L 96.335255 85.096208 
L 96.378972 85.009242 
L 96.466405 84.93315 
L 96.553839 84.779122 
L 96.641272 85.009932 
L 96.684989 84.940959 
L 96.94729 84.582656 
L 96.991007 84.687325 
L 97.034724 84.750129 
L 97.07844 84.684936 
L 97.122157 84.603403 
L 97.165874 84.648357 
L 97.297024 84.673161 
L 97.428175 84.428051 
L 97.471891 84.581184 
L 97.559325 84.552509 
L 97.777909 84.29913 
L 97.821626 84.444553 
L 97.865343 84.377168 
L 97.909059 84.295196 
L 98.083926 84.717769 
L 98.389944 84.413646 
L 98.521094 84.60185 
L 98.783395 84.328787 
L 98.914545 84.633872 
L 99.701448 83.789799 
L 99.876315 83.793288 
L 100.051182 83.686456 
L 100.182332 83.976108 
L 100.226049 83.887755 
L 100.357199 83.779671 
L 100.400916 83.937496 
L 100.48835 83.882923 
L 100.575783 83.858697 
L 100.881801 83.543803 
L 100.969235 83.479189 
L 101.187818 83.21437 
L 101.406402 83.323971 
L 101.450119 83.256041 
L 101.58127 83.074897 
L 101.624986 83.167409 
L 101.668703 83.11479 
L 101.931004 82.940526 
L 102.062154 83.181892 
L 102.149588 83.067698 
L 102.499322 82.999475 
L 102.630472 83.616272 
L 102.674189 83.565761 
L 102.80534 83.36954 
L 102.849056 83.544083 
L 102.93649 83.497126 
L 103.286224 83.16804 
L 103.373658 83.193174 
L 103.504808 83.418348 
L 103.723392 83.248335 
L 103.767109 83.189988 
L 103.854543 83.31693 
L 103.898259 83.269632 
L 104.02941 83.213927 
L 104.204277 83.39278 
L 104.29171 83.395734 
L 104.335427 83.543643 
L 104.379144 83.473412 
L 104.554011 83.370356 
L 104.641445 83.459283 
L 104.685162 83.384515 
L 104.728878 83.321507 
L 104.772595 83.510242 
L 104.860029 83.395899 
L 104.947462 83.342997 
L 105.078613 83.429994 
L 105.166046 83.32216 
L 105.209763 83.51086 
L 105.297197 83.466496 
L 105.646931 83.471955 
L 105.778081 83.304626 
L 105.821798 83.395073 
L 106.084099 83.406456 
L 106.171532 83.26869 
L 106.215249 83.31239 
L 106.3464 83.427202 
L 106.6087 83.261315 
L 106.871001 83.02624 
L 106.914718 83.102236 
L 106.958435 83.053409 
L 107.308169 82.878009 
L 107.483036 83.012436 
L 107.57047 82.892195 
L 107.614186 82.946671 
L 107.70162 83.095178 
L 107.745337 83.03441 
L 107.963921 82.94818 
L 108.007638 83.087397 
L 108.095071 83.035104 
L 108.226221 82.976985 
L 108.269938 82.933969 
L 108.313655 83.082891 
L 108.357372 83.027927 
L 108.881973 82.634551 
L 109.013124 82.59534 
L 109.362858 82.399984 
L 109.494008 82.294734 
L 109.668875 82.482367 
L 109.931176 82.336514 
L 110.062327 82.338525 
L 110.412061 82.126712 
L 110.455778 82.219827 
L 110.543211 82.174633 
L 110.805512 82.102305 
L 111.11153 82.292885 
L 111.854715 81.883208 
L 112.117016 81.9465 
L 112.291883 81.926865 
L 112.3356 82.019757 
L 112.423033 81.966283 
L 112.554184 81.995674 
L 112.729051 82.08255 
L 112.860201 82.118582 
L 112.903918 82.28054 
L 112.991351 82.235911 
L 113.515953 82.008305 
L 113.865687 81.913218 
L 113.996838 82.002813 
L 114.608873 81.905977 
L 114.740023 81.948227 
L 115.745509 81.764635 
L 119.155419 81.542529 
L 123.745681 81.505378 
L 166.500701 81.612018 
L 167.33132 81.618071 
L 202.1736 81.725305 
L 203.004219 81.731353 
L 214.807752 81.837368 
L 215.24492 81.849457 
L 227.398188 81.957193 
L 228.31624 81.97531 
L 248.863131 82.081146 
L 249.69375 82.085765 
L 262.939937 82.182653 
L 263.245954 82.200744 
L 275.836389 82.303198 
L 276.142407 82.321272 
L 284.842048 82.426121 
L 285.279216 82.438162 
L 292.273902 82.542926 
L 292.754787 82.560975 
L 301.541861 82.663505 
L 301.847879 82.681539 
L 308.711415 82.787828 
L 309.148583 82.799841 
L 318.678842 82.901708 
L 319.11601 82.913711 
L 325.280078 83.023372 
L 325.848396 83.076614 
L 328.908571 83.113525 
L 329.170872 83.143488 
L 337.214761 83.240988 
L 337.520778 83.258953 
L 346.35157 83.361631 
L 346.788738 83.373598 
L 353.870857 83.478365 
L 354.176875 83.494124 
L 366.242709 83.598957 
L 366.679876 83.610905 
L 377.303056 83.71271 
L 377.609074 83.730616 
L 389.806058 83.836677 
L 390.112075 83.853838 
L 397.237912 83.963448 
L 397.762513 83.993243 
L 402.265343 84.032748 
L 402.265343 84.032748 
" clip-path="url(#p8ac05e3594)" style="fill: none; stroke: #ff7f0e; stroke-width: 1.8; stroke-linecap: square"/>
   </g>
   <g id="line2d_27">
    <path d="M 71.241818 129.504848 
L 71.372969 106.985289 
L 71.678986 82.05471 
L 71.722703 87.59949 
L 71.76642 83.074469 
L 71.853853 83.822314 
L 71.941287 91.414116 
L 71.985004 88.64523 
L 72.02872 86.233407 
L 72.116154 98.112098 
L 72.159871 95.523693 
L 72.247304 100.587896 
L 72.291021 100.344083 
L 72.509605 92.484003 
L 72.553322 92.150081 
L 72.815623 85.941441 
L 72.946773 84.323543 
L 73.034207 82.540986 
L 73.165357 86.501398 
L 73.340224 83.346746 
L 73.383941 85.363784 
L 73.427658 84.729097 
L 73.515091 82.849187 
L 73.602525 83.188759 
L 73.777392 87.411235 
L 73.952259 83.822314 
L 74.039693 88.36937 
L 74.083409 88.0212 
L 74.21456 86.56517 
L 74.695444 80.906742 
L 74.739161 81.142952 
L 74.826595 79.970798 
L 74.870312 81.502475 
L 74.957745 81.13949 
L 75.001462 80.67286 
L 75.045179 81.074636 
L 75.132612 82.323782 
L 75.176329 81.777424 
L 75.351196 80.526143 
L 75.394913 81.281586 
L 75.43863 80.697151 
L 75.526063 79.655343 
L 75.657214 83.780238 
L 75.744647 83.671428 
L 75.788364 83.115194 
L 75.832081 83.991895 
L 75.875798 83.606448 
L 76.181815 80.791424 
L 76.269249 81.858507 
L 76.312966 82.644245 
L 76.356682 82.272439 
L 76.400399 82.102414 
L 76.53155 83.845267 
L 76.575266 83.409792 
L 76.618983 83.033033 
L 76.6627 84.255946 
L 76.706417 83.858319 
L 76.968718 82.484022 
L 77.143585 84.770248 
L 77.187301 84.435819 
L 77.318452 83.678397 
L 77.405885 85.455402 
L 77.449602 85.101995 
L 77.537036 84.28803 
L 77.580753 84.580024 
L 77.624469 85.018895 
L 77.668186 84.835066 
L 77.930487 83.650312 
L 77.974204 83.966737 
L 78.01792 83.625727 
L 78.149071 82.809545 
L 78.192788 83.422375 
L 78.236504 83.337925 
L 78.498805 82.047373 
L 78.586239 83.410901 
L 78.629955 83.368464 
L 78.804823 82.455794 
L 78.848539 83.362768 
L 78.935973 82.93833 
L 78.97969 83.171537 
L 79.023407 82.905132 
L 79.154557 82.359685 
L 79.241991 82.628536 
L 79.416858 81.686705 
L 79.460574 81.953927 
L 79.504291 81.953366 
L 79.635442 81.648395 
L 79.810309 82.329808 
L 80.07261 81.066622 
L 80.116326 81.452538 
L 80.247477 82.558368 
L 80.291193 82.281495 
L 80.597211 81.198071 
L 80.640928 81.250954 
L 80.815795 80.92617 
L 81.034379 79.988334 
L 81.209246 80.581038 
L 81.29668 80.635157 
L 81.515264 79.805003 
L 81.690131 81.262473 
L 81.864998 80.620833 
L 81.996148 81.544177 
L 82.083582 81.192442 
L 82.127299 81.983136 
L 82.214732 81.610591 
L 82.258449 82.027452 
L 82.302166 81.838036 
L 82.345883 81.641177 
L 82.389599 81.74205 
L 82.433316 81.824161 
L 82.739334 81.016861 
L 82.78305 81.162354 
L 82.826767 81.033545 
L 82.957918 80.425697 
L 83.132785 81.577777 
L 83.176502 81.658503 
L 83.263935 81.265582 
L 83.307652 81.794764 
L 83.395085 81.563294 
L 83.438802 81.533835 
L 83.482519 82.162453 
L 83.569953 82.151776 
L 83.919687 81.241613 
L 83.963404 81.367193 
L 84.00712 81.20675 
L 84.094554 80.899525 
L 84.181988 80.942379 
L 84.269421 81.072683 
L 84.313138 82.271369 
L 84.400572 82.117622 
L 84.444288 82.425932 
L 84.488005 82.285654 
L 84.531722 82.110904 
L 84.575439 82.470205 
L 84.619156 82.31359 
L 84.706589 82.114576 
L 84.750306 82.425604 
L 84.794023 82.281112 
L 84.837739 82.098106 
L 84.881456 82.199303 
L 84.925173 82.215239 
L 84.96889 82.053861 
L 85.187474 83.563064 
L 85.231191 83.402501 
L 85.406058 83.050584 
L 85.449775 82.901233 
L 85.493491 83.083916 
L 85.537208 83.330107 
L 85.580925 83.185915 
L 85.624642 83.186059 
L 85.712075 83.021835 
L 85.843226 83.488937 
L 86.280394 82.183453 
L 86.455261 81.822202 
L 86.586411 82.107043 
L 86.717561 81.898347 
L 86.761278 81.903742 
L 86.804995 82.10836 
L 86.848712 81.9688 
L 87.023579 81.587725 
L 87.067296 81.804286 
L 87.111012 81.743374 
L 87.28588 81.378857 
L 87.504464 82.726073 
L 87.54818 82.603471 
L 87.591897 82.456812 
L 87.635614 82.754551 
L 87.679331 82.602007 
L 87.897915 82.218915 
L 88.072782 81.980389 
L 88.903401 80.800842 
L 89.034551 80.504113 
L 89.078268 80.736644 
L 89.165702 80.667413 
L 89.384286 80.303928 
L 89.646586 79.833837 
L 89.777737 80.416407 
L 89.86517 80.264374 
L 89.908887 80.377845 
L 89.952604 80.524759 
L 90.040037 80.450744 
L 90.302338 80.051794 
L 90.346055 80.169615 
L 90.477205 80.397598 
L 90.608356 80.150335 
L 90.695789 80.459301 
L 90.783223 80.383714 
L 90.82694 80.274195 
L 90.870656 80.57375 
L 90.95809 80.543933 
L 91.001807 80.462582 
L 91.08924 80.67237 
L 91.132957 80.563871 
L 91.220391 80.466038 
L 91.570125 79.817012 
L 91.613842 79.882606 
L 91.657559 79.805348 
L 91.744992 79.610227 
L 91.788709 79.723464 
L 91.919859 79.841182 
L 92.007293 79.779367 
L 92.05101 79.893534 
L 92.094726 79.80132 
L 92.31331 79.349156 
L 92.357027 79.40896 
L 92.400744 79.53694 
L 92.444461 79.455923 
L 92.663045 79.006496 
L 92.750478 79.335622 
L 92.794195 79.231849 
L 93.187646 78.829962 
L 93.27508 78.91525 
L 93.318796 78.810784 
L 93.362513 78.763599 
L 93.40623 78.862518 
L 93.449947 78.958988 
L 93.493664 78.90497 
L 93.712248 78.67635 
L 93.755964 78.715147 
L 93.887115 78.742855 
L 93.974548 78.59017 
L 94.105699 78.903498 
L 94.324283 78.544249 
L 94.49915 78.377651 
L 94.674017 78.646785 
L 94.805167 78.553457 
L 95.023751 78.343859 
L 95.067468 78.421332 
L 95.111185 78.352456 
L 95.198618 78.234379 
L 95.242335 78.524007 
L 95.329769 78.374447 
L 95.72322 77.802121 
L 95.810653 77.744509 
L 95.985521 77.638282 
L 96.116671 77.864696 
L 96.160388 77.787058 
L 96.247821 77.606409 
L 96.291538 77.677782 
L 96.422688 78.360292 
L 96.466405 78.290579 
L 96.728706 78.883025 
L 96.859856 78.741511 
L 96.991007 78.910288 
L 97.253307 78.583791 
L 97.471891 78.629832 
L 97.515608 78.670639 
L 97.559325 78.603516 
L 97.996493 77.98098 
L 98.083926 77.981406 
L 98.389944 77.627206 
L 98.521094 77.907909 
L 99.220563 77.357175 
L 99.307997 77.25421 
L 99.351713 77.334974 
L 99.39543 77.426301 
L 99.439147 77.370762 
L 99.614014 77.209069 
L 99.745164 77.658346 
L 99.788881 77.595901 
L 99.963748 77.464236 
L 100.007465 77.625072 
L 100.051182 77.551944 
L 100.226049 77.423187 
L 100.269766 77.505068 
L 100.357199 77.693199 
L 100.400916 77.650377 
L 100.881801 77.190049 
L 101.318969 77.14054 
L 101.537553 77.004666 
L 101.624986 77.258878 
L 101.71242 77.132301 
L 101.931004 76.970022 
L 101.974721 77.129832 
L 102.018437 77.063055 
L 102.280738 76.699763 
L 102.324455 76.75108 
L 102.411889 76.706872 
L 103.198791 75.965197 
L 103.242508 76.214866 
L 103.329941 76.09954 
L 103.548525 75.845408 
L 103.635959 75.998894 
L 103.679675 75.947005 
L 103.898259 75.833366 
L 104.02941 76.028979 
L 104.073127 75.979455 
L 105.209763 75.119291 
L 105.25348 75.187322 
L 105.297197 75.133218 
L 105.603214 74.948351 
L 105.646931 75.033217 
L 105.690648 74.989557 
L 105.821798 74.866401 
L 105.865515 74.977131 
L 105.909232 74.928168 
L 106.084099 74.76867 
L 106.127816 74.907676 
L 106.215249 74.839336 
L 106.258966 74.788641 
L 106.302683 74.842865 
L 106.3464 74.900889 
L 106.390116 74.843218 
L 106.783567 74.607359 
L 106.827284 74.682022 
L 106.871001 74.652528 
L 107.045868 74.468862 
L 107.133302 74.670798 
L 107.177019 74.633854 
L 107.614186 74.355568 
L 107.876487 74.288009 
L 108.007638 74.475628 
L 108.051354 74.450154 
L 108.269938 74.288393 
L 108.401089 74.572836 
L 108.838256 74.216203 
L 109.187991 74.008733 
L 109.231708 74.16147 
L 109.319141 74.123143 
L 110.01861 73.709778 
L 111.898432 73.177245 
L 111.942148 73.272592 
L 112.029582 73.223415 
L 112.510467 73.163784 
L 112.5979 73.199692 
L 112.729051 73.370835 
L 112.903918 73.390564 
L 114.259138 73.002597 
L 114.346572 73.07029 
L 114.390289 73.042388 
L 114.608873 73.009215 
L 115.04604 72.938094 
L 115.439492 72.888076 
L 115.701792 72.870857 
L 115.832943 72.916076 
L 116.13896 72.907743 
L 116.313827 72.948288 
L 117.188163 72.763284 
L 117.36303 72.798679 
L 117.669048 72.803246 
L 117.800198 72.886751 
L 118.368516 72.821781 
L 119.54887 72.687578 
L 119.767454 72.793175 
L 120.292055 72.785435 
L 120.466922 72.895963 
L 120.991524 72.862083 
L 121.166391 72.863331 
L 121.822143 72.811849 
L 121.99701 72.825397 
L 123.833115 72.622335 
L 124.095416 72.60924 
L 124.620017 72.583791 
L 124.751168 72.645651 
L 126.499839 72.544003 
L 126.674706 72.615236 
L 128.467095 72.576584 
L 130.871518 72.466064 
L 134.937179 72.357501 
L 163.440526 72.447296 
L 163.65911 72.473446 
L 173.276803 72.576831 
L 173.582821 72.59643 
L 177.255031 72.665916 
L 177.473615 72.73773 
L 178.304234 72.80715 
L 178.479101 72.849854 
L 180.839808 72.936992 
L 181.058391 72.963065 
L 185.473787 73.058987 
L 185.779805 73.078525 
L 188.402812 73.159586 
L 188.621396 73.192128 
L 189.408298 73.241791 
L 189.626882 73.267812 
L 191.375554 73.341059 
L 191.550421 73.386563 
L 193.255376 73.482232 
L 193.430243 73.521206 
L 195.353781 73.599591 
L 195.528649 73.638534 
L 196.709002 73.712164 
L 197.452187 73.716231 
L 199.069708 73.807435 
L 199.244576 73.852803 
L 201.430415 73.962936 
L 201.648999 73.995316 
L 208.381384 74.070329 
L 208.556252 74.109153 
L 213.102798 74.208973 
L 213.496249 74.267157 
L 217.037309 74.370256 
L 217.343326 74.385946 
L 219.835183 74.480329 
L 220.053767 74.506145 
L 221.496421 74.552832 
L 221.846155 74.604433 
L 223.376243 74.627757 
L 225.955534 74.727803 
L 226.217834 74.785791 
L 228.971992 74.88884 
L 229.365443 74.901717 
L 230.589513 74.945535 
L 230.808097 74.977093 
L 232.119601 75.075663 
L 232.600485 75.114247 
L 233.693405 75.161302 
L 235.223493 75.26161 
L 235.442077 75.293727 
L 237.540483 75.401755 
L 237.97765 75.491585 
L 239.988623 75.591037 
L 240.29464 75.610269 
L 242.830214 75.718018 
L 243.005081 75.762851 
L 243.8357 75.862108 
L 244.098001 75.887707 
L 245.890389 75.987517 
L 246.15269 76.057854 
L 249.562599 76.159477 
L 249.8249 76.185034 
L 252.447908 76.279526 
L 252.666491 76.311444 
L 253.977995 76.41671 
L 254.152862 76.461359 
L 258.349674 76.561353 
L 258.786842 76.574099 
L 260.535513 76.674736 
L 260.841531 76.693842 
L 263.639405 76.800773 
L 263.814273 76.838956 
L 267.049315 76.926068 
L 267.311616 76.951506 
L 270.634092 77.056317 
L 271.639578 77.09183 
L 276.841876 77.193261 
L 277.497627 77.280158 
L 281.913023 77.37509 
L 282.219041 77.394113 
L 284.710898 77.504919 
L 284.973198 77.530264 
L 288.120807 77.620652 
L 288.383108 77.645978 
L 291.924168 77.75159 
L 292.71107 77.757917 
L 297.039032 77.862128 
L 297.4762 77.874774 
L 301.629295 77.979566 
L 301.891596 78.00484 
L 304.296019 78.099586 
L 304.68947 78.1677 
L 307.399911 78.254043 
L 307.618495 78.285587 
L 311.115838 78.376828 
L 311.378139 78.402045 
L 313.257961 78.501532 
L 313.607695 78.545629 
L 315.706101 78.645033 
L 316.186985 78.670213 
L 319.596895 78.762772 
L 319.859196 78.787931 
L 323.356539 78.892957 
L 323.706273 78.93066 
L 328.821137 79.027234 
L 329.170872 79.064901 
L 330.96326 79.165308 
L 331.444145 79.196675 
L 333.761135 79.293591 
L 334.067152 79.312397 
L 336.515292 79.406401 
L 336.733876 79.434979 
L 342.067324 79.530362 
L 342.329625 79.567918 
L 345.346084 79.660448 
L 345.652101 79.67921 
L 348.406259 79.789674 
L 348.66856 79.833419 
L 352.384487 79.92713 
L 352.777938 79.989564 
L 357.892802 80.081091 
L 358.111386 80.130998 
L 360.690676 80.129606 
L 360.690676 80.129606 
" clip-path="url(#p8ac05e3594)" style="fill: none; stroke: #2ca02c; stroke-width: 1.8; stroke-linecap: square"/>
   </g>
   <g id="line2d_28">
    <path d="M 71.241818 37.496364 
L 71.372969 72.339814 
L 71.416685 65.116171 
L 71.504119 57.839096 
L 71.591552 77.336022 
L 71.635269 72.356065 
L 71.678986 73.137013 
L 71.722703 69.227307 
L 71.76642 74.910861 
L 71.941287 69.87334 
L 71.985004 71.988347 
L 72.02872 80.047781 
L 72.116154 75.960042 
L 72.334738 67.482669 
L 72.465888 71.229332 
L 72.509605 69.960706 
L 72.553322 71.378375 
L 72.684472 68.720963 
L 72.815623 66.003755 
L 72.859339 68.71172 
L 72.903056 68.122466 
L 73.165357 64.115433 
L 73.209074 63.74005 
L 73.340224 67.438893 
L 73.471374 66.627105 
L 73.646242 73.281048 
L 73.689958 72.636279 
L 73.952259 69.663232 
L 73.995976 70.426162 
L 74.039693 69.969209 
L 74.34571 66.417091 
L 74.389427 67.623882 
L 74.433144 67.367709 
L 74.564294 65.966573 
L 74.608011 68.807298 
L 74.695444 68.189417 
L 75.132612 64.374353 
L 75.351196 63.156269 
L 75.394913 64.006011 
L 75.43863 63.661864 
L 75.657214 62.197323 
L 75.700931 62.205211 
L 75.744647 62.94525 
L 75.788364 62.674996 
L 76.138099 61.127124 
L 76.181815 60.827514 
L 76.225532 61.19865 
L 76.269249 62.480026 
L 76.356682 62.034028 
L 76.400399 61.816948 
L 76.487833 61.860199 
L 76.575266 62.214397 
L 76.618983 62.078301 
L 76.6627 61.860762 
L 76.706417 61.936021 
L 76.750134 62.234118 
L 76.79385 62.014384 
L 77.231018 60.154351 
L 77.274735 60.883621 
L 77.362169 60.586197 
L 77.449602 60.246684 
L 77.537036 60.856114 
L 77.580753 60.660305 
L 77.799336 59.870911 
L 77.88677 60.832369 
L 77.974204 60.58467 
L 78.192788 59.782992 
L 78.236504 59.980907 
L 78.280221 59.818929 
L 78.97969 58.104727 
L 79.023407 58.876842 
L 79.11084 58.696773 
L 79.591725 57.529927 
L 79.635442 58.084692 
L 79.722875 57.859259 
L 79.810309 57.657533 
L 79.854026 58.192951 
L 79.941459 57.993158 
L 80.116326 57.559686 
L 80.160043 57.8013 
L 80.20376 57.671233 
L 80.33491 57.361938 
L 80.378627 57.663384 
L 80.422344 57.572416 
L 80.597211 57.136276 
L 80.640928 57.26025 
L 80.859512 57.030825 
L 80.990662 58.140255 
L 81.034379 58.031383 
L 81.252963 57.524385 
L 81.29668 57.65105 
L 81.340396 57.565608 
L 81.384113 57.468398 
L 81.55898 59.246803 
L 81.864998 58.594856 
L 81.908715 58.917826 
L 81.996148 58.740009 
L 82.127299 58.687509 
L 82.171015 59.16022 
L 82.258449 58.994005 
L 82.608183 58.242756 
L 82.695617 59.345229 
L 82.739334 59.263102 
L 83.132785 58.418055 
L 83.176502 58.720746 
L 83.263935 58.557948 
L 83.438802 58.239732 
L 83.482519 58.526101 
L 83.569953 58.399536 
L 83.788537 58.055687 
L 83.832253 58.425955 
L 83.919687 58.300689 
L 84.094554 57.984649 
L 84.138271 58.509455 
L 84.225704 58.400704 
L 84.269421 58.443677 
L 84.313138 58.349822 
L 84.662872 57.927413 
L 84.706589 58.4016 
L 84.794023 58.264319 
L 85.143757 57.713473 
L 85.187474 58.100763 
L 85.274907 57.996603 
L 85.406058 57.77468 
L 85.449775 58.017145 
L 85.537208 57.88866 
L 85.886942 57.345082 
L 85.974376 57.990756 
L 86.018093 57.922954 
L 87.591897 55.874987 
L 87.635614 56.175478 
L 87.723048 56.077365 
L 88.116499 55.646654 
L 88.247649 56.135117 
L 88.378799 56.004635 
L 88.422516 56.192328 
L 88.50995 56.107708 
L 89.078268 55.730911 
L 89.340569 55.435422 
L 89.471719 55.886844 
L 89.515436 55.827808 
L 89.559153 56.023362 
L 89.646586 55.933297 
L 89.952604 55.649535 
L 90.214904 55.391101 
L 90.346055 55.579181 
L 91.395258 54.841156 
L 91.438975 55.020605 
L 91.526408 54.949913 
L 91.613842 54.86136 
L 91.657559 55.053224 
L 91.744992 54.974621 
L 92.05101 54.714853 
L 92.094726 54.906415 
L 92.18216 54.83335 
L 92.444461 54.628999 
L 92.488178 54.870417 
L 92.575611 54.797559 
L 92.663045 54.738345 
L 92.706761 55.197303 
L 92.794195 55.118083 
L 93.012779 54.940704 
L 93.143929 55.184073 
L 93.187646 55.143066 
L 93.53738 54.866059 
L 93.581097 55.210449 
L 93.668531 55.12711 
L 93.712248 55.090858 
L 93.755964 55.26233 
L 93.843398 55.205386 
L 94.061982 55.128286 
L 94.805167 54.571246 
L 94.848884 54.75582 
L 94.936318 54.675814 
L 95.154902 54.592155 
L 95.286052 55.017958 
L 95.329769 54.97999 
L 95.679503 54.727949 
L 95.72322 54.827029 
L 95.810653 54.752925 
L 95.941804 54.665578 
L 96.116671 55.091028 
L 96.335255 54.942586 
L 96.378972 55.195162 
L 96.466405 55.132205 
L 96.728706 54.96018 
L 96.772423 55.269515 
L 96.859856 55.214682 
L 96.991007 55.122292 
L 97.034724 55.250282 
L 97.122157 55.187157 
L 97.428175 54.978921 
L 97.559325 55.132587 
L 97.603042 55.092615 
L 97.646759 55.440728 
L 97.734192 55.383663 
L 97.777909 55.348567 
L 97.821626 55.472065 
L 97.909059 55.425084 
L 98.258794 55.187294 
L 98.30251 55.452209 
L 98.389944 55.393452 
L 98.608528 55.254688 
L 98.652245 55.490502 
L 98.739678 55.424856 
L 99.220563 55.214556 
L 99.307997 55.272492 
L 99.351713 55.239525 
L 99.570297 55.113162 
L 99.614014 55.226643 
L 99.701448 55.173141 
L 99.876315 55.064276 
L 99.920032 55.248474 
L 100.007465 55.206817 
L 100.138616 55.310018 
L 100.182332 55.445691 
L 100.269766 55.38033 
L 101.100385 54.971144 
L 101.187818 55.202042 
L 101.231535 55.175426 
L 101.275252 55.15518 
L 101.318969 55.353499 
L 101.406402 55.301473 
L 101.71242 55.188527 
L 101.756137 55.376555 
L 101.84357 55.330517 
L 102.062154 55.202599 
L 102.105871 55.37445 
L 102.193305 55.326733 
L 102.674189 55.0568 
L 102.717906 55.48574 
L 102.80534 55.445605 
L 103.198791 55.251848 
L 103.329941 55.567417 
L 103.373658 55.545423 
L 103.854543 55.301104 
L 103.898259 55.540213 
L 103.985693 55.494505 
L 104.02941 55.476793 
L 104.073127 55.599555 
L 104.16056 55.554321 
L 104.379144 55.458268 
L 104.422861 55.647866 
L 104.510294 55.607122 
L 104.728878 55.511656 
L 104.816312 55.8413 
L 104.947462 55.778319 
L 105.559497 55.638099 
L 105.603214 55.817759 
L 105.690648 55.781096 
L 105.734364 55.758102 
L 105.865515 55.981494 
L 105.909232 55.96662 
L 106.084099 56.087405 
L 106.47755 55.994201 
L 106.521267 56.278441 
L 106.6087 56.238398 
L 106.739851 56.180084 
L 106.827284 56.296997 
L 106.871001 56.273163 
L 107.220735 56.142746 
L 107.308169 56.503335 
L 107.395602 56.466365 
L 108.007638 56.287672 
L 108.226221 56.524501 
L 108.750823 56.409519 
L 108.881973 56.465894 
L 109.013124 56.537527 
L 109.144274 56.619891 
L 109.187991 56.613075 
L 109.319141 56.70921 
L 109.931176 56.639146 
L 110.106043 56.653051 
L 110.412061 56.715303 
L 110.499494 56.896559 
L 110.543211 56.880204 
L 111.24268 56.785088 
L 111.37383 57.060885 
L 111.417547 57.042613 
L 111.592414 57.098452 
L 111.854715 57.202269 
L 112.073299 57.233624 
L 112.204449 57.348725 
L 113.253652 57.306058 
L 113.428519 57.49383 
L 113.472236 57.483561 
L 113.603386 57.575721 
L 113.953121 57.548082 
L 114.127988 57.654596 
L 114.434005 57.684831 
L 114.740023 57.601971 
L 114.871173 57.845218 
L 115.133474 57.803031 
L 115.308341 58.098465 
L 115.395775 58.161796 
L 115.526925 58.230408 
L 115.701792 58.269066 
L 115.832943 58.363748 
L 116.00781 58.377271 
L 116.313827 58.380347 
L 116.444978 58.413227 
L 116.576128 58.39804 
L 116.707278 58.478665 
L 117.144446 58.47523 
L 117.319314 58.61303 
L 117.494181 58.658684 
L 117.625331 58.770079 
L 118.412233 58.680799 
L 118.543384 58.747425 
L 118.849401 58.75095 
L 119.024268 58.767983 
L 119.111702 58.846425 
L 119.242852 58.920291 
L 120.160905 58.84029 
L 120.292055 58.877045 
L 120.598073 58.891986 
L 120.729223 58.942298 
L 121.122674 58.972482 
L 121.253825 59.039578 
L 121.822143 59.035968 
L 121.99701 59.159882 
L 122.303027 59.173846 
L 122.609045 59.422175 
L 123.08993 59.394952 
L 123.22108 59.436925 
L 123.789398 59.446516 
L 123.920549 59.490697 
L 124.270283 59.437127 
L 124.401433 59.567979 
L 124.532584 59.599798 
L 125.100902 59.555752 
L 125.232052 59.703726 
L 126.456122 59.609976 
L 126.587273 59.660492 
L 127.505325 59.593621 
L 127.723909 59.585094 
L 129.297714 59.756747 
L 130.128333 59.722637 
L 130.3032 59.75228 
L 130.784084 59.733047 
L 130.958952 59.802682 
L 131.920721 59.746357 
L 132.051871 59.79462 
L 132.576473 59.780038 
L 132.795057 60.003693 
L 133.581959 59.975932 
L 133.756826 60.118828 
L 134.10656 60.116704 
L 134.281428 60.198089 
L 136.248683 60.143759 
L 136.379833 60.222665 
L 137.38532 60.3067 
L 137.603903 60.35028 
L 137.997355 60.381686 
L 138.172222 60.486635 
L 139.352575 60.515517 
L 140.838946 60.616822 
L 141.013813 60.740131 
L 141.800715 60.802136 
L 141.975582 60.82493 
L 142.41275 60.884815 
L 142.718768 61.057664 
L 143.199652 61.121525 
L 143.37452 61.220734 
L 143.50567 61.21421 
L 143.680537 61.392532 
L 143.942838 61.420081 
L 144.073988 61.477807 
L 144.292572 61.526178 
L 144.642306 61.633787 
L 145.604076 61.64336 
L 145.778943 61.671837 
L 146.609562 61.685504 
L 146.871863 61.748576 
L 148.052216 61.803644 
L 148.227083 61.825987 
L 151.068674 61.805891 
L 151.243542 61.832384 
L 152.205311 61.787832 
L 152.336461 61.848478 
L 152.773629 61.918368 
L 152.992213 61.97523 
L 153.910266 61.999994 
L 154.085133 62.042372 
L 154.828318 62.099381 
L 155.003185 62.132569 
L 155.61522 62.20519 
L 155.964955 62.292557 
L 156.533273 62.327274 
L 156.70814 62.361333 
L 157.363892 62.415128 
L 160.730085 62.508628 
L 160.904952 62.589468 
L 161.997872 62.63636 
L 162.172739 62.669604 
L 164.926896 62.680044 
L 165.101764 62.71849 
L 165.670082 62.799865 
L 165.976099 62.811573 
L 167.724771 62.821193 
L 167.899638 62.868256 
L 168.55539 62.930964 
L 168.773974 63.043909 
L 170.304061 63.136345 
L 170.478929 63.169554 
L 171.047247 63.272409 
L 171.222114 63.318037 
L 173.18937 63.329419 
L 173.364237 63.36893 
L 174.151139 63.437948 
L 174.326006 63.47177 
L 175.681226 63.565003 
L 175.856094 63.605567 
L 176.774146 63.703198 
L 176.949013 63.748924 
L 178.347951 63.814408 
L 178.522818 63.854453 
L 179.659454 63.962521 
L 179.834321 64.0033 
L 180.052905 64.096005 
L 180.621224 64.292781 
L 180.796091 64.357389 
L 180.970958 64.413561 
L 182.107594 64.518501 
L 182.544762 64.700726 
L 182.894497 64.800091 
L 183.113081 64.862395 
L 184.07485 64.936971 
L 186.085822 65.040458 
L 186.260689 65.074471 
L 187.091308 65.156707 
L 187.353609 65.218694 
L 189.714316 65.312745 
L 190.020333 65.326774 
L 191.069536 65.409833 
L 191.28812 65.436079 
L 192.468473 65.523652 
L 192.818208 65.588642 
L 237.059598 65.684421 
L 237.365615 65.702131 
L 249.8249 65.812566 
L 250.174634 65.836161 
L 259.22401 65.944813 
L 259.530027 65.962495 
L 273.169665 66.048761 
L 273.344533 66.107661 
L 285.541517 66.207572 
L 285.847534 66.225222 
L 291.180982 66.284043 
L 291.355849 66.336967 
L 295.377794 66.41167 
L 295.596378 66.499807 
L 300.011774 66.603359 
L 300.186641 66.650321 
L 304.164869 66.746172 
L 304.383453 66.775499 
L 307.968229 66.88104 
L 308.186813 66.927929 
L 312.908226 67.012316 
L 313.12681 67.059168 
L 315.968402 67.168199 
L 316.186985 67.203308 
L 319.902913 67.287084 
L 320.121496 67.386471 
L 322.613353 67.396389 
L 325.10521 67.494008 
L 325.323794 67.523204 
L 327.29105 67.612594 
L 327.553351 67.659271 
L 329.039721 67.770085 
L 329.345739 67.863353 
L 335.028921 67.96592 
L 335.291222 68.034419 
L 336.777593 68.144962 
L 336.95246 68.185673 
L 339.488034 68.287593 
L 339.662901 68.334081 
L 342.373342 68.436814 
L 342.766793 68.535506 
L 346.132986 68.626513 
L 346.395287 68.661315 
L 348.012808 68.771483 
L 348.318825 68.812055 
L 349.936346 68.916346 
L 350.286081 68.951098 
L 354.745193 69.048597 
L 355.138644 69.094898 
L 357.936519 69.199036 
L 358.155103 69.233736 
L 361.696163 69.316714 
L 361.914747 69.374503 
L 366.330142 69.47814 
L 366.592443 69.501233 
L 371.619874 69.606855 
L 371.969608 69.641454 
L 373.062528 69.685685 
L 373.237395 69.725557 
L 374.636332 69.829263 
L 375.335801 69.909886 
L 376.559871 70.018295 
L 376.865888 70.035557 
L 378.701993 70.140537 
L 378.964294 70.163535 
L 380.625532 70.255019 
L 380.887833 70.278003 
L 383.860574 70.373728 
L 384.079158 70.402438 
L 390.068358 70.495607 
L 390.330659 70.552969 
L 392.735083 70.640345 
L 392.953667 70.691926 
L 397.80623 70.793098 
L 398.068531 70.833184 
L 401.522157 70.935588 
L 402.003042 70.947031 
L 408.254543 71.047691 
L 408.473127 71.074797 
L 415.77383 71.169466 
L 415.77383 71.169466 
" clip-path="url(#p8ac05e3594)" style="fill: none; stroke: #d62728; stroke-width: 1.8; stroke-linecap: square"/>
   </g>
   <g id="line2d_29">
    <path d="M 71.241818 49.292323 
L 71.285535 62.293709 
L 71.329252 54.149483 
L 71.372969 54.861419 
L 71.547836 76.176138 
L 71.635269 67.285563 
L 71.722703 69.011607 
L 71.76642 69.564098 
L 71.853853 64.523557 
L 71.89757 65.626837 
L 71.941287 66.621697 
L 71.985004 65.235894 
L 72.247304 60.023769 
L 72.291021 59.292792 
L 72.334738 59.821334 
L 72.378455 60.562879 
L 72.422171 59.92925 
L 72.597039 57.156296 
L 72.640755 57.799329 
L 72.684472 57.192088 
L 73.034207 53.073339 
L 73.077923 53.791083 
L 73.12164 53.398439 
L 73.209074 52.700371 
L 73.25279 53.262601 
L 73.296507 52.929147 
L 73.558808 51.083527 
L 73.602525 52.245107 
L 73.689958 51.771355 
L 74.170843 49.502304 
L 75.088896 46.627992 
L 76.138099 44.639195 
L 77.143585 43.407114 
L 78.761106 42.131581 
L 81.42783 40.929817 
L 83.87597 40.27646 
L 86.06181 39.870406 
L 89.602869 39.417942 
L 94.280566 39.02663 
L 102.411889 38.629179 
L 109.800026 38.464519 
L 122.215594 38.412811 
L 146.478412 38.458117 
L 146.653279 38.518926 
L 150.981241 38.613412 
L 151.156108 38.674173 
L 154.522301 38.768656 
L 154.740885 38.795643 
L 158.238228 38.876342 
L 158.413095 38.937017 
L 160.555218 39.037784 
L 160.730085 39.0984 
L 163.79026 39.192306 
L 164.008844 39.225952 
L 165.976099 39.319843 
L 166.150967 39.373454 
L 167.025302 39.433884 
L 167.156453 39.51451 
L 171.615565 39.614442 
L 171.921583 39.634577 
L 175.156625 39.681411 
L 175.331492 39.782026 
L 177.517332 39.88922 
L 177.735916 39.989733 
L 180.271489 40.049653 
L 180.446356 40.109913 
L 182.588479 40.216652 
L 182.894497 40.236722 
L 184.380867 40.329862 
L 184.599451 40.363287 
L 186.042105 40.436709 
L 186.216973 40.490158 
L 188.271662 40.596965 
L 188.446529 40.650372 
L 188.665113 40.67707 
L 190.588651 40.757041 
L 190.763519 40.817076 
L 192.075022 40.863224 
L 192.249889 40.929884 
L 193.167942 41.022781 
L 193.342809 41.082723 
L 195.222631 41.169277 
L 195.441215 41.195901 
L 199.157142 41.295113 
L 199.550593 41.361618 
L 202.873069 41.466978 
L 203.26652 41.480267 
L 205.670944 41.559209 
L 205.889528 41.652152 
L 207.550765 41.711547 
L 207.725633 41.771252 
L 211.44156 41.86962 
L 212.272179 42.01539 
L 213.8897 42.114356 
L 214.108284 42.140835 
L 215.157487 42.233407 
L 215.376071 42.25987 
L 217.69306 42.338704 
L 217.867928 42.404814 
L 222.764208 42.502522 
L 223.157659 42.575164 
L 225.649516 42.674181 
L 225.955534 42.740167 
L 226.523852 42.832512 
L 226.742436 42.858889 
L 227.835355 42.931151 
L 228.010223 42.983874 
L 233.824556 43.075406 
L 233.999423 43.13467 
L 236.403846 43.233406 
L 236.797297 43.246567 
L 239.289154 43.357024 
L 239.551455 43.508204 
L 240.600658 43.554099 
L 241.125259 43.593509 
L 241.25641 43.672309 
L 246.458707 43.721506 
L 246.633575 43.826444 
L 248.251096 43.90431 
L 248.425963 43.943629 
L 249.737467 44.022244 
L 249.956051 44.054992 
L 253.016226 44.158498 
L 253.191093 44.21739 
L 255.988967 44.29376 
L 256.294985 44.397805 
L 258.524541 44.501235 
L 258.830559 44.520824 
L 260.535513 44.584005 
L 260.754097 44.610105 
L 262.459052 44.699632 
L 262.677636 44.764711 
L 263.901706 44.862461 
L 264.207724 44.882006 
L 264.601175 44.953654 
L 264.776042 45.070842 
L 267.879934 45.178703 
L 268.098518 45.289223 
L 273.737984 45.385708 
L 274.000284 45.476627 
L 275.180638 45.567506 
L 275.399222 45.684292 
L 276.885592 45.748888 
L 277.06046 45.800754 
L 278.328246 45.876834 
L 281.038687 45.972542 
L 281.213555 46.01786 
L 283.705411 46.114534 
L 283.880279 46.185691 
L 284.667181 46.282684 
L 284.842048 46.327932 
L 287.202755 46.410968 
L 287.377622 46.456183 
L 289.825762 46.5456 
L 290.000629 46.597234 
L 292.099035 46.672098 
L 292.273902 46.723686 
L 293.760273 46.820379 
L 293.93514 46.865487 
L 296.339563 46.968114 
L 296.601864 47.077563 
L 298.175669 47.154786 
L 298.350536 47.257705 
L 300.317791 47.366083 
L 300.580092 47.391789 
L 302.285047 47.494581 
L 302.503631 47.526693 
L 305.126638 47.621431 
L 305.520089 47.692017 
L 307.793362 47.761943 
L 307.924512 47.845298 
L 311.072121 47.946549 
L 311.246988 47.991391 
L 312.339908 48.093359 
L 312.514775 48.144567 
L 314.35088 48.245616 
L 314.525748 48.290386 
L 316.230702 48.340366 
L 316.405569 48.403946 
L 316.66787 48.480618 
L 316.842737 48.538103 
L 317.061321 48.608341 
L 320.820965 48.715805 
L 321.258133 48.792354 
L 325.498661 48.878816 
L 325.673529 48.948914 
L 328.077952 49.016147 
L 328.252819 49.060716 
L 330.482375 49.154753 
L 330.744676 49.180202 
L 331.181844 49.192926 
L 334.285736 49.271256 
L 334.460603 49.315748 
L 335.247505 49.417409 
L 335.466089 49.449167 
L 337.826796 49.554327 
L 338.001663 49.611437 
L 340.36237 49.706022 
L 340.537237 49.769428 
L 344.340597 49.869695 
L 344.559181 49.901371 
L 349.89263 50.000592 
L 350.198647 50.051231 
L 352.34077 50.1588 
L 352.909088 50.2094 
L 354.439176 50.285278 
L 354.614043 50.323207 
L 355.226078 50.399043 
L 355.400945 50.443268 
L 358.242536 50.530489 
L 358.417403 50.593618 
L 360.64696 50.699071 
L 361.040411 50.749528 
L 363.269967 50.798137 
L 363.444834 50.917875 
L 366.155275 51.018032 
L 366.330142 51.062106 
L 369.740052 51.166394 
L 369.914919 51.229264 
L 371.488723 51.310333 
L 371.707307 51.44852 
L 372.363059 51.509373 
L 372.537926 51.590518 
L 375.248367 51.68567 
L 375.423234 51.760876 
L 379.663763 51.855848 
L 379.882347 51.88715 
L 382.767655 51.974769 
L 382.942522 52.02482 
L 385.478096 52.117296 
L 385.652963 52.167307 
L 386.745883 52.267294 
L 387.008183 52.342252 
L 387.18305 52.404697 
L 387.357918 52.46088 
L 387.882519 52.510122 
L 388.057386 52.57875 
L 388.888005 52.669986 
L 389.062872 52.751013 
L 392.735083 52.853652 
L 392.953667 52.95878 
L 393.259684 52.977451 
L 395.270656 53.063845 
L 395.48924 53.129641 
L 395.926408 53.185587 
L 396.101275 53.253945 
L 396.975611 53.340912 
L 397.150478 53.378173 
L 399.511185 53.477397 
L 399.729769 53.527023 
L 401.653307 53.617837 
L 401.871891 53.646133 
L 402.70251 53.738326 
L 402.877378 53.781678 
L 404.276315 53.888391 
L 404.451182 53.925512 
L 405.544102 54.030651 
L 405.718969 54.067746 
L 407.20534 54.128045 
L 407.380207 54.189831 
L 410.833833 54.297947 
L 411.0087 54.353498 
L 411.489585 54.463529 
L 411.795602 54.482032 
L 412.626221 54.58659 
L 413.063389 54.598917 
L 414.943211 54.705669 
L 415.118078 54.754934 
L 416.954184 54.852642 
L 417.260201 54.901869 
L 418.571705 54.975687 
L 418.746572 55.018735 
L 422.768516 55.122977 
L 423.161968 55.172138 
L 424.298604 55.268278 
L 424.866922 55.391055 
L 426.615594 55.470278 
L 426.746744 55.543878 
L 428.932584 55.610501 
L 429.107451 55.665663 
L 430.550105 55.750339 
L 430.724972 55.787087 
L 434.091165 55.882835 
L 434.309749 55.913435 
L 434.878067 55.974622 
L 435.052934 56.029674 
L 435.839836 56.109168 
L 436.014703 56.164184 
L 439.512047 56.271627 
L 439.73063 56.381541 
L 442.309921 56.479191 
L 442.484788 56.534099 
L 443.708858 56.595091 
L 443.883725 56.649967 
L 447.162485 56.741395 
L 447.337352 56.777955 
L 452.6708 56.88206 
L 452.976817 56.900322 
L 458.616283 57.0095 
L 458.79115 57.045987 
L 459.403185 57.129038 
L 459.621769 57.159423 
L 461.632742 57.261218 
L 461.807609 57.309797 
L 463.949731 57.418161 
L 464.386899 57.430297 
L 464.998934 57.533423 
L 465.304952 57.557681 
L 468.32141 57.658929 
L 468.627428 57.677109 
L 469.807781 57.778581 
L 469.982648 57.83308 
L 472.168488 57.923879 
L 472.387072 57.978339 
L 474.135743 58.079936 
L 474.354327 58.188751 
L 475.665831 58.273344 
L 475.840698 58.308653 
L 477.064768 58.392255 
L 477.239635 58.44658 
L 479.425475 58.53709 
L 479.600342 58.579314 
L 480.999279 58.669765 
L 481.174146 58.717988 
L 482.529367 58.778252 
L 482.704234 58.838497 
L 484.584056 58.945292 
L 484.846356 58.96937 
L 488.824584 59.075433 
L 488.999451 59.111523 
L 490.79184 59.201718 
L 490.966707 59.261825 
L 495.207235 59.363778 
L 495.644403 59.375787 
L 496.431305 59.453833 
L 496.649889 59.537848 
L 499.535197 59.643177 
L 500.409533 59.882872 
L 501.852187 59.988298 
L 502.027054 60.036172 
L 506.617317 60.115214 
L 506.792184 60.192938 
L 507.010768 60.222824 
L 510.726695 60.304785 
L 510.945279 60.405292 
L 514.398906 60.487657 
L 514.573773 60.53538 
L 516.890763 60.62174 
L 517.06563 60.674353 
L 518.552001 60.779176 
L 518.770585 60.814907 
L 520.475539 60.898254 
L 520.694123 60.933964 
L 520.956424 60.957767 
L 522.573945 61.054706 
L 522.792529 61.090381 
L 523.798015 61.167656 
L 523.972882 61.227077 
L 524.366333 61.333992 
L 524.672351 61.351805 
L 526.508456 61.452719 
L 526.770757 61.506123 
L 527.81996 61.601029 
L 527.994827 61.654394 
L 530.093233 61.737922 
L 530.311817 61.767544 
L 532.191639 61.862303 
L 532.410223 61.897827 
L 534.202611 61.986607 
L 534.464912 62.045773 
L 536.213583 62.131574 
L 536.38845 62.184779 
L 541.678182 62.260141 
L 541.678182 62.260141 
" clip-path="url(#p8ac05e3594)" style="fill: none; stroke: #9467bd; stroke-width: 1.8; stroke-linecap: square"/>
   </g>
   <g id="patch_3">
    <path d="M 47.72 260.44 
L 47.72 26.88 
" style="fill: none; stroke: #000000; stroke-width: 0.8; stroke-linejoin: miter; stroke-linecap: square"/>
   </g>
   <g id="patch_4">
    <path d="M 565.2 260.44 
L 565.2 26.88 
" style="fill: none; stroke: #000000; stroke-width: 0.8; stroke-linejoin: miter; stroke-linecap: square"/>
   </g>
   <g id="patch_5">
    <path d="M 47.72 260.44 
L 565.2 260.44 
" style="fill: none; stroke: #000000; stroke-width: 0.8; stroke-linejoin: miter; stroke-linecap: square"/>
   </g>
   <g id="patch_6">
    <path d="M 47.72 26.88 
L 565.2 26.88 
" style="fill: none; stroke: #000000; stroke-width: 0.8; stroke-linejoin: miter; stroke-linecap: square"/>
   </g>
   <g id="text_15">
    <!-- Timely Transfer Rate (Cumulative) -->
    <g transform="translate(204.037187 20.88) scale(0.12 -0.12)">
     <defs>
      <path id="DejaVuSans-54" d="M -19 4666 
L 3928 4666 
L 3928 4134 
L 2272 4134 
L 2272 0 
L 1638 0 
L 1638 4134 
L -19 4134 
L -19 4666 
z
" transform="scale(0.015625)"/>
      <path id="DejaVuSans-52" d="M 2841 2188 
Q 3044 2119 3236 1894 
Q 3428 1669 3622 1275 
L 4263 0 
L 3584 0 
L 2988 1197 
Q 2756 1666 2539 1819 
Q 2322 1972 1947 1972 
L 1259 1972 
L 1259 0 
L 628 0 
L 628 4666 
L 2053 4666 
Q 2853 4666 3247 4331 
Q 3641 3997 3641 3322 
Q 3641 2881 3436 2590 
Q 3231 2300 2841 2188 
z
M 1259 4147 
L 1259 2491 
L 2053 2491 
Q 2509 2491 2742 2702 
Q 2975 2913 2975 3322 
Q 2975 3731 2742 3939 
Q 2509 4147 2053 4147 
L 1259 4147 
z
" transform="scale(0.015625)"/>
      <path id="DejaVuSans-28" d="M 1984 4856 
Q 1566 4138 1362 3434 
Q 1159 2731 1159 2009 
Q 1159 1288 1364 580 
Q 1569 -128 1984 -844 
L 1484 -844 
Q 1016 -109 783 600 
Q 550 1309 550 2009 
Q 550 2706 781 3412 
Q 1013 4119 1484 4856 
L 1984 4856 
z
" transform="scale(0.015625)"/>
      <path id="DejaVuSans-43" d="M 4122 4306 
L 4122 3641 
Q 3803 3938 3442 4084 
Q 3081 4231 2675 4231 
Q 1875 4231 1450 3742 
Q 1025 3253 1025 2328 
Q 1025 1406 1450 917 
Q 1875 428 2675 428 
Q 3081 428 3442 575 
Q 3803 722 4122 1019 
L 4122 359 
Q 3791 134 3420 21 
Q 3050 -91 2638 -91 
Q 1578 -91 968 557 
Q 359 1206 359 2328 
Q 359 3453 968 4101 
Q 1578 4750 2638 4750 
Q 3056 4750 3426 4639 
Q 3797 4528 4122 4306 
z
" transform="scale(0.015625)"/>
      <path id="DejaVuSans-29" d="M 513 4856 
L 1013 4856 
Q 1481 4119 1714 3412 
Q 1947 2706 1947 2009 
Q 1947 1309 1714 600 
Q 1481 -109 1013 -844 
L 513 -844 
Q 928 -128 1133 580 
Q 1338 1288 1338 2009 
Q 1338 2731 1133 3434 
Q 928 4138 513 4856 
z
" transform="scale(0.015625)"/>
     </defs>
     <use xlink:href="#DejaVuSans-54"/>
     <use xlink:href="#DejaVuSans-69" x="57.958984"/>
     <use xlink:href="#DejaVuSans-6d" x="85.742188"/>
     <use xlink:href="#DejaVuSans-65" x="183.154297"/>
     <use xlink:href="#DejaVuSans-6c" x="244.677734"/>
     <use xlink:href="#DejaVuSans-79" x="272.460938"/>
     <use xlink:href="#DejaVuSans-20" x="331.640625"/>
     <use xlink:href="#DejaVuSans-54" x="363.427734"/>
     <use xlink:href="#DejaVuSans-72" x="409.761719"/>
     <use xlink:href="#DejaVuSans-61" x="450.875"/>
     <use xlink:href="#DejaVuSans-6e" x="512.154297"/>
     <use xlink:href="#DejaVuSans-73" x="575.533203"/>
     <use xlink:href="#DejaVuSans-66" x="627.632812"/>
     <use xlink:href="#DejaVuSans-65" x="662.837891"/>
     <use xlink:href="#DejaVuSans-72" x="724.361328"/>
     <use xlink:href="#DejaVuSans-20" x="765.474609"/>
     <use xlink:href="#DejaVuSans-52" x="797.261719"/>
     <use xlink:href="#DejaVuSans-61" x="864.494141"/>
     <use xlink:href="#DejaVuSans-74" x="925.773438"/>
     <use xlink:href="#DejaVuSans-65" x="964.982422"/>
     <use xlink:href="#DejaVuSans-20" x="1026.505859"/>
     <use xlink:href="#DejaVuSans-28" x="1058.292969"/>
     <use xlink:href="#DejaVuSans-43" x="1097.306641"/>
     <use xlink:href="#DejaVuSans-75" x="1167.130859"/>
     <use xlink:href="#DejaVuSans-6d" x="1230.509766"/>
     <use xlink:href="#DejaVuSans-75" x="1327.921875"/>
     <use xlink:href="#DejaVuSans-6c" x="1391.300781"/>
     <use xlink:href="#DejaVuSans-61" x="1419.083984"/>
     <use xlink:href="#DejaVuSans-74" x="1480.363281"/>
     <use xlink:href="#DejaVuSans-69" x="1519.572266"/>
     <use xlink:href="#DejaVuSans-76" x="1547.355469"/>
     <use xlink:href="#DejaVuSans-65" x="1606.535156"/>
     <use xlink:href="#DejaVuSans-29" x="1668.058594"/>
    </g>
   </g>
   <g id="legend_1">
    <g id="patch_7">
     <path d="M 473.826562 255.44 
L 558.2 255.44 
Q 560.2 255.44 560.2 253.44 
L 560.2 180.493125 
Q 560.2 178.493125 558.2 178.493125 
L 473.826562 178.493125 
Q 471.826562 178.493125 471.826562 180.493125 
L 471.826562 253.44 
Q 471.826562 255.44 473.826562 255.44 
z
" style="fill: #ffffff; opacity: 0.8; stroke: #cccccc; stroke-linejoin: miter"/>
    </g>
    <g id="line2d_30">
     <path d="M 475.826562 186.591563 
L 485.826562 186.591563 
L 495.826562 186.591563 
" style="fill: none; stroke: #1f77b4; stroke-width: 1.8; stroke-linecap: square"/>
    </g>
    <g id="text_16">
     <!-- SHEER -->
     <g transform="translate(503.826562 190.091563) scale(0.1 -0.1)">
      <defs>
       <path id="DejaVuSans-53" d="M 3425 4513 
L 3425 3897 
Q 3066 4069 2747 4153 
Q 2428 4238 2131 4238 
Q 1616 4238 1336 4038 
Q 1056 3838 1056 3469 
Q 1056 3159 1242 3001 
Q 1428 2844 1947 2747 
L 2328 2669 
Q 3034 2534 3370 2195 
Q 3706 1856 3706 1288 
Q 3706 609 3251 259 
Q 2797 -91 1919 -91 
Q 1588 -91 1214 -16 
Q 841 59 441 206 
L 441 856 
Q 825 641 1194 531 
Q 1563 422 1919 422 
Q 2459 422 2753 634 
Q 3047 847 3047 1241 
Q 3047 1584 2836 1778 
Q 2625 1972 2144 2069 
L 1759 2144 
Q 1053 2284 737 2584 
Q 422 2884 422 3419 
Q 422 4038 858 4394 
Q 1294 4750 2059 4750 
Q 2388 4750 2728 4690 
Q 3069 4631 3425 4513 
z
" transform="scale(0.015625)"/>
       <path id="DejaVuSans-48" d="M 628 4666 
L 1259 4666 
L 1259 2753 
L 3553 2753 
L 3553 4666 
L 4184 4666 
L 4184 0 
L 3553 0 
L 3553 2222 
L 1259 2222 
L 1259 0 
L 628 0 
L 628 4666 
z
" transform="scale(0.015625)"/>
       <path id="DejaVuSans-45" d="M 628 4666 
L 3578 4666 
L 3578 4134 
L 1259 4134 
L 1259 2753 
L 3481 2753 
L 3481 2222 
L 1259 2222 
L 1259 531 
L 3634 531 
L 3634 0 
L 628 0 
L 628 4666 
z
" transform="scale(0.015625)"/>
      </defs>
      <use xlink:href="#DejaVuSans-53"/>
      <use xlink:href="#DejaVuSans-48" x="63.476562"/>
      <use xlink:href="#DejaVuSans-45" x="138.671875"/>
      <use xlink:href="#DejaVuSans-45" x="201.855469"/>
      <use xlink:href="#DejaVuSans-52" x="265.039062"/>
     </g>
    </g>
    <g id="line2d_31">
     <path d="M 475.826562 201.269688 
L 485.826562 201.269688 
L 495.826562 201.269688 
" style="fill: none; stroke: #ff7f0e; stroke-width: 1.8; stroke-linecap: square"/>
    </g>
    <g id="text_17">
     <!-- ACTAR -->
     <g transform="translate(503.826562 204.769688) scale(0.1 -0.1)">
      <defs>
       <path id="DejaVuSans-41" d="M 2188 4044 
L 1331 1722 
L 3047 1722 
L 2188 4044 
z
M 1831 4666 
L 2547 4666 
L 4325 0 
L 3669 0 
L 3244 1197 
L 1141 1197 
L 716 0 
L 50 0 
L 1831 4666 
z
" transform="scale(0.015625)"/>
      </defs>
      <use xlink:href="#DejaVuSans-41"/>
      <use xlink:href="#DejaVuSans-43" x="66.658203"/>
      <use xlink:href="#DejaVuSans-54" x="136.482422"/>
      <use xlink:href="#DejaVuSans-41" x="189.816406"/>
      <use xlink:href="#DejaVuSans-52" x="258.224609"/>
     </g>
    </g>
    <g id="line2d_32">
     <path d="M 475.826562 215.947813 
L 485.826562 215.947813 
L 495.826562 215.947813 
" style="fill: none; stroke: #2ca02c; stroke-width: 1.8; stroke-linecap: square"/>
    </g>
    <g id="text_18">
     <!-- TFSM_DPC -->
     <g transform="translate(503.826562 219.447813) scale(0.1 -0.1)">
      <defs>
       <path id="DejaVuSans-46" d="M 628 4666 
L 3309 4666 
L 3309 4134 
L 1259 4134 
L 1259 2759 
L 3109 2759 
L 3109 2228 
L 1259 2228 
L 1259 0 
L 628 0 
L 628 4666 
z
" transform="scale(0.015625)"/>
       <path id="DejaVuSans-4d" d="M 628 4666 
L 1569 4666 
L 2759 1491 
L 3956 4666 
L 4897 4666 
L 4897 0 
L 4281 0 
L 4281 4097 
L 3078 897 
L 2444 897 
L 1241 4097 
L 1241 0 
L 628 0 
L 628 4666 
z
" transform="scale(0.015625)"/>
       <path id="DejaVuSans-5f" d="M 3263 -1063 
L 3263 -1509 
L -63 -1509 
L -63 -1063 
L 3263 -1063 
z
" transform="scale(0.015625)"/>
       <path id="DejaVuSans-44" d="M 1259 4147 
L 1259 519 
L 2022 519 
Q 2988 519 3436 956 
Q 3884 1394 3884 2338 
Q 3884 3275 3436 3711 
Q 2988 4147 2022 4147 
L 1259 4147 
z
M 628 4666 
L 1925 4666 
Q 3281 4666 3915 4102 
Q 4550 3538 4550 2338 
Q 4550 1131 3912 565 
Q 3275 0 1925 0 
L 628 0 
L 628 4666 
z
" transform="scale(0.015625)"/>
       <path id="DejaVuSans-50" d="M 1259 4147 
L 1259 2394 
L 2053 2394 
Q 2494 2394 2734 2622 
Q 2975 2850 2975 3272 
Q 2975 3691 2734 3919 
Q 2494 4147 2053 4147 
L 1259 4147 
z
M 628 4666 
L 2053 4666 
Q 2838 4666 3239 4311 
Q 3641 3956 3641 3272 
Q 3641 2581 3239 2228 
Q 2838 1875 2053 1875 
L 1259 1875 
L 1259 0 
L 628 0 
L 628 4666 
z
" transform="scale(0.015625)"/>
      </defs>
      <use xlink:href="#DejaVuSans-54"/>
      <use xlink:href="#DejaVuSans-46" x="61.083984"/>
      <use xlink:href="#DejaVuSans-53" x="116.853516"/>
      <use xlink:href="#DejaVuSans-4d" x="180.330078"/>
      <use xlink:href="#DejaVuSans-5f" x="266.609375"/>
      <use xlink:href="#DejaVuSans-44" x="316.609375"/>
      <use xlink:href="#DejaVuSans-50" x="393.611328"/>
      <use xlink:href="#DejaVuSans-43" x="453.914062"/>
     </g>
    </g>
    <g id="line2d_33">
     <path d="M 475.826562 230.904063 
L 485.826562 230.904063 
L 495.826562 230.904063 
" style="fill: none; stroke: #d62728; stroke-width: 1.8; stroke-linecap: square"/>
    </g>
    <g id="text_19">
     <!-- DST_WOA -->
     <g transform="translate(503.826562 234.404063) scale(0.1 -0.1)">
      <defs>
       <path id="DejaVuSans-57" d="M 213 4666 
L 850 4666 
L 1831 722 
L 2809 4666 
L 3519 4666 
L 4500 722 
L 5478 4666 
L 6119 4666 
L 4947 0 
L 4153 0 
L 3169 4050 
L 2175 0 
L 1381 0 
L 213 4666 
z
" transform="scale(0.015625)"/>
       <path id="DejaVuSans-4f" d="M 2522 4238 
Q 1834 4238 1429 3725 
Q 1025 3213 1025 2328 
Q 1025 1447 1429 934 
Q 1834 422 2522 422 
Q 3209 422 3611 934 
Q 4013 1447 4013 2328 
Q 4013 3213 3611 3725 
Q 3209 4238 2522 4238 
z
M 2522 4750 
Q 3503 4750 4090 4092 
Q 4678 3434 4678 2328 
Q 4678 1225 4090 567 
Q 3503 -91 2522 -91 
Q 1538 -91 948 565 
Q 359 1222 359 2328 
Q 359 3434 948 4092 
Q 1538 4750 2522 4750 
z
" transform="scale(0.015625)"/>
      </defs>
      <use xlink:href="#DejaVuSans-44"/>
      <use xlink:href="#DejaVuSans-53" x="77.001953"/>
      <use xlink:href="#DejaVuSans-54" x="140.478516"/>
      <use xlink:href="#DejaVuSans-5f" x="201.5625"/>
      <use xlink:href="#DejaVuSans-57" x="251.5625"/>
      <use xlink:href="#DejaVuSans-4f" x="350.439453"/>
      <use xlink:href="#DejaVuSans-41" x="427.400391"/>
     </g>
    </g>
    <g id="line2d_34">
     <path d="M 475.826562 245.860313 
L 485.826562 245.860313 
L 495.826562 245.860313 
" style="fill: none; stroke: #9467bd; stroke-width: 1.8; stroke-linecap: square"/>
    </g>
    <g id="text_20">
     <!-- TRAIL -->
     <g transform="translate(503.826562 249.360313) scale(0.1 -0.1)">
      <defs>
       <path id="DejaVuSans-49" d="M 628 4666 
L 1259 4666 
L 1259 0 
L 628 0 
L 628 4666 
z
" transform="scale(0.015625)"/>
       <path id="DejaVuSans-4c" d="M 628 4666 
L 1259 4666 
L 1259 531 
L 3531 531 
L 3531 0 
L 628 0 
L 628 4666 
z
" transform="scale(0.015625)"/>
      </defs>
      <use xlink:href="#DejaVuSans-54"/>
      <use xlink:href="#DejaVuSans-52" x="61.083984"/>
      <use xlink:href="#DejaVuSans-41" x="126.566406"/>
      <use xlink:href="#DejaVuSans-49" x="194.974609"/>
      <use xlink:href="#DejaVuSans-4c" x="224.466797"/>
     </g>
    </g>
   </g>
  </g>
 </g>
 <defs>
  <clipPath id="p8ac05e3594">
   <rect x="47.72" y="26.88" width="517.48" height="233.56"/>
  </clipPath>
 </defs>
</svg>
