<?xml version="1.0" encoding="utf-8" standalone="no"?>
<!DOCTYPE svg PUBLIC "-//W3C//DTD SVG 1.1//EN"
  "http://www.w3.org/Graphics/SVG/1.1/DTD/svg11.dtd">
<svg xmlns:xlink="http://www.w3.org/1999/xlink" width="576pt" height="302.4pt" viewBox="0 0 576 302.4" xmlns="http://www.w3.org/2000/svg" version="1.1">
 <metadata>
  <rdf:RDF xmlns:dc="http://purl.org/dc/elements/1.1/" xmlns:cc="http://creativecommons.org/ns#" xmlns:rdf="http://www.w3.org/1999/02/22-rdf-syntax-ns#">
   <cc:Work>
    <dc:type rdf:resource="http://purl.org/dc/dcmitype/StillImage"/>
    <dc:date>2025-11-06T14:36:25.519924</dc:date>
    <dc:format>image/svg+xml</dc:format>
    <dc:creator>
     <cc:Agent>
      <dc:title>Matplotlib v3.9.4, https://matplotlib.org/</dc:title>
     </cc:Agent>
    </dc:creator>
   </cc:Work>
  </rdf:RDF>
 </metadata>
 <defs>
  <style type="text/css">*{stroke-linejoin: round; stroke-linecap: butt}</style>
 </defs>
 <g id="figure_1">
  <g id="patch_1">
   <path d="M 0 302.4 
L 576 302.4 
L 576 0 
L 0 0 
z
" style="fill: #ffffff"/>
  </g>
  <g id="axes_1">
   <g id="patch_2">
    <path d="M 54.11 260.44 
L 551.555231 260.44 
L 551.555231 26.88 
L 54.11 26.88 
z
" style="fill: #ffffff"/>
   </g>
   <g id="matplotlib.axis_1">
    <g id="xtick_1">
     <g id="line2d_1">
      <path d="M 76.687399 260.44 
L 76.687399 26.88 
" clip-path="url(#p30ddcd06b1)" style="fill: none; stroke-dasharray: 2.96,1.28; stroke-dashoffset: 0; stroke: #b0b0b0; stroke-opacity: 0.3; stroke-width: 0.8"/>
     </g>
     <g id="line2d_2">
      <defs>
       <path id="m5915d01254" d="M 0 0 
L 0 3.5 
" style="stroke: #000000; stroke-width: 0.8"/>
      </defs>
      <g>
       <use xlink:href="#m5915d01254" x="76.687399" y="260.44" style="stroke: #000000; stroke-width: 0.8"/>
      </g>
     </g>
     <g id="text_1">
      <!-- 0 -->
      <g transform="translate(73.506149 275.038438) scale(0.1 -0.1)">
       <defs>
        <path id="DejaVuSans-30" d="M 2034 4250 
Q 1547 4250 1301 3770 
Q 1056 3291 1056 2328 
Q 1056 1369 1301 889 
Q 1547 409 2034 409 
Q 2525 409 2770 889 
Q 3016 1369 3016 2328 
Q 3016 3291 2770 3770 
Q 2525 4250 2034 4250 
z
M 2034 4750 
Q 2819 4750 3233 4129 
Q 3647 3509 3647 2328 
Q 3647 1150 3233 529 
Q 2819 -91 2034 -91 
Q 1250 -91 836 529 
Q 422 1150 422 2328 
Q 422 3509 836 4129 
Q 1250 4750 2034 4750 
z
" transform="scale(0.015625)"/>
       </defs>
       <use xlink:href="#DejaVuSans-30"/>
      </g>
     </g>
    </g>
    <g id="xtick_2">
     <g id="line2d_3">
      <path d="M 144.18336 260.44 
L 144.18336 26.88 
" clip-path="url(#p30ddcd06b1)" style="fill: none; stroke-dasharray: 2.96,1.28; stroke-dashoffset: 0; stroke: #b0b0b0; stroke-opacity: 0.3; stroke-width: 0.8"/>
     </g>
     <g id="line2d_4">
      <g>
       <use xlink:href="#m5915d01254" x="144.18336" y="260.44" style="stroke: #000000; stroke-width: 0.8"/>
      </g>
     </g>
     <g id="text_2">
      <!-- 2000 -->
      <g transform="translate(131.45836 275.038438) scale(0.1 -0.1)">
       <defs>
        <path id="DejaVuSans-32" d="M 1228 531 
L 3431 531 
L 3431 0 
L 469 0 
L 469 531 
Q 828 903 1448 1529 
Q 2069 2156 2228 2338 
Q 2531 2678 2651 2914 
Q 2772 3150 2772 3378 
Q 2772 3750 2511 3984 
Q 2250 4219 1831 4219 
Q 1534 4219 1204 4116 
Q 875 4013 500 3803 
L 500 4441 
Q 881 4594 1212 4672 
Q 1544 4750 1819 4750 
Q 2544 4750 2975 4387 
Q 3406 4025 3406 3419 
Q 3406 3131 3298 2873 
Q 3191 2616 2906 2266 
Q 2828 2175 2409 1742 
Q 1991 1309 1228 531 
z
" transform="scale(0.015625)"/>
       </defs>
       <use xlink:href="#DejaVuSans-32"/>
       <use xlink:href="#DejaVuSans-30" x="63.623047"/>
       <use xlink:href="#DejaVuSans-30" x="127.246094"/>
       <use xlink:href="#DejaVuSans-30" x="190.869141"/>
      </g>
     </g>
    </g>
    <g id="xtick_3">
     <g id="line2d_5">
      <path d="M 211.67932 260.44 
L 211.67932 26.88 
" clip-path="url(#p30ddcd06b1)" style="fill: none; stroke-dasharray: 2.96,1.28; stroke-dashoffset: 0; stroke: #b0b0b0; stroke-opacity: 0.3; stroke-width: 0.8"/>
     </g>
     <g id="line2d_6">
      <g>
       <use xlink:href="#m5915d01254" x="211.67932" y="260.44" style="stroke: #000000; stroke-width: 0.8"/>
      </g>
     </g>
     <g id="text_3">
      <!-- 4000 -->
      <g transform="translate(198.95432 275.038438) scale(0.1 -0.1)">
       <defs>
        <path id="DejaVuSans-34" d="M 2419 4116 
L 825 1625 
L 2419 1625 
L 2419 4116 
z
M 2253 4666 
L 3047 4666 
L 3047 1625 
L 3713 1625 
L 3713 1100 
L 3047 1100 
L 3047 0 
L 2419 0 
L 2419 1100 
L 313 1100 
L 313 1709 
L 2253 4666 
z
" transform="scale(0.015625)"/>
       </defs>
       <use xlink:href="#DejaVuSans-34"/>
       <use xlink:href="#DejaVuSans-30" x="63.623047"/>
       <use xlink:href="#DejaVuSans-30" x="127.246094"/>
       <use xlink:href="#DejaVuSans-30" x="190.869141"/>
      </g>
     </g>
    </g>
    <g id="xtick_4">
     <g id="line2d_7">
      <path d="M 279.175281 260.44 
L 279.175281 26.88 
" clip-path="url(#p30ddcd06b1)" style="fill: none; stroke-dasharray: 2.96,1.28; stroke-dashoffset: 0; stroke: #b0b0b0; stroke-opacity: 0.3; stroke-width: 0.8"/>
     </g>
     <g id="line2d_8">
      <g>
       <use xlink:href="#m5915d01254" x="279.175281" y="260.44" style="stroke: #000000; stroke-width: 0.8"/>
      </g>
     </g>
     <g id="text_4">
      <!-- 6000 -->
      <g transform="translate(266.450281 275.038438) scale(0.1 -0.1)">
       <defs>
        <path id="DejaVuSans-36" d="M 2113 2584 
Q 1688 2584 1439 2293 
Q 1191 2003 1191 1497 
Q 1191 994 1439 701 
Q 1688 409 2113 409 
Q 2538 409 2786 701 
Q 3034 994 3034 1497 
Q 3034 2003 2786 2293 
Q 2538 2584 2113 2584 
z
M 3366 4563 
L 3366 3988 
Q 3128 4100 2886 4159 
Q 2644 4219 2406 4219 
Q 1781 4219 1451 3797 
Q 1122 3375 1075 2522 
Q 1259 2794 1537 2939 
Q 1816 3084 2150 3084 
Q 2853 3084 3261 2657 
Q 3669 2231 3669 1497 
Q 3669 778 3244 343 
Q 2819 -91 2113 -91 
Q 1303 -91 875 529 
Q 447 1150 447 2328 
Q 447 3434 972 4092 
Q 1497 4750 2381 4750 
Q 2619 4750 2861 4703 
Q 3103 4656 3366 4563 
z
" transform="scale(0.015625)"/>
       </defs>
       <use xlink:href="#DejaVuSans-36"/>
       <use xlink:href="#DejaVuSans-30" x="63.623047"/>
       <use xlink:href="#DejaVuSans-30" x="127.246094"/>
       <use xlink:href="#DejaVuSans-30" x="190.869141"/>
      </g>
     </g>
    </g>
    <g id="xtick_5">
     <g id="line2d_9">
      <path d="M 346.671242 260.44 
L 346.671242 26.88 
" clip-path="url(#p30ddcd06b1)" style="fill: none; stroke-dasharray: 2.96,1.28; stroke-dashoffset: 0; stroke: #b0b0b0; stroke-opacity: 0.3; stroke-width: 0.8"/>
     </g>
     <g id="line2d_10">
      <g>
       <use xlink:href="#m5915d01254" x="346.671242" y="260.44" style="stroke: #000000; stroke-width: 0.8"/>
      </g>
     </g>
     <g id="text_5">
      <!-- 8000 -->
      <g transform="translate(333.946242 275.038438) scale(0.1 -0.1)">
       <defs>
        <path id="DejaVuSans-38" d="M 2034 2216 
Q 1584 2216 1326 1975 
Q 1069 1734 1069 1313 
Q 1069 891 1326 650 
Q 1584 409 2034 409 
Q 2484 409 2743 651 
Q 3003 894 3003 1313 
Q 3003 1734 2745 1975 
Q 2488 2216 2034 2216 
z
M 1403 2484 
Q 997 2584 770 2862 
Q 544 3141 544 3541 
Q 544 4100 942 4425 
Q 1341 4750 2034 4750 
Q 2731 4750 3128 4425 
Q 3525 4100 3525 3541 
Q 3525 3141 3298 2862 
Q 3072 2584 2669 2484 
Q 3125 2378 3379 2068 
Q 3634 1759 3634 1313 
Q 3634 634 3220 271 
Q 2806 -91 2034 -91 
Q 1263 -91 848 271 
Q 434 634 434 1313 
Q 434 1759 690 2068 
Q 947 2378 1403 2484 
z
M 1172 3481 
Q 1172 3119 1398 2916 
Q 1625 2713 2034 2713 
Q 2441 2713 2670 2916 
Q 2900 3119 2900 3481 
Q 2900 3844 2670 4047 
Q 2441 4250 2034 4250 
Q 1625 4250 1398 4047 
Q 1172 3844 1172 3481 
z
" transform="scale(0.015625)"/>
       </defs>
       <use xlink:href="#DejaVuSans-38"/>
       <use xlink:href="#DejaVuSans-30" x="63.623047"/>
       <use xlink:href="#DejaVuSans-30" x="127.246094"/>
       <use xlink:href="#DejaVuSans-30" x="190.869141"/>
      </g>
     </g>
    </g>
    <g id="xtick_6">
     <g id="line2d_11">
      <path d="M 414.167203 260.44 
L 414.167203 26.88 
" clip-path="url(#p30ddcd06b1)" style="fill: none; stroke-dasharray: 2.96,1.28; stroke-dashoffset: 0; stroke: #b0b0b0; stroke-opacity: 0.3; stroke-width: 0.8"/>
     </g>
     <g id="line2d_12">
      <g>
       <use xlink:href="#m5915d01254" x="414.167203" y="260.44" style="stroke: #000000; stroke-width: 0.8"/>
      </g>
     </g>
     <g id="text_6">
      <!-- 10000 -->
      <g transform="translate(398.260953 275.038438) scale(0.1 -0.1)">
       <defs>
        <path id="DejaVuSans-31" d="M 794 531 
L 1825 531 
L 1825 4091 
L 703 3866 
L 703 4441 
L 1819 4666 
L 2450 4666 
L 2450 531 
L 3481 531 
L 3481 0 
L 794 0 
L 794 531 
z
" transform="scale(0.015625)"/>
       </defs>
       <use xlink:href="#DejaVuSans-31"/>
       <use xlink:href="#DejaVuSans-30" x="63.623047"/>
       <use xlink:href="#DejaVuSans-30" x="127.246094"/>
       <use xlink:href="#DejaVuSans-30" x="190.869141"/>
       <use xlink:href="#DejaVuSans-30" x="254.492188"/>
      </g>
     </g>
    </g>
    <g id="xtick_7">
     <g id="line2d_13">
      <path d="M 481.663163 260.44 
L 481.663163 26.88 
" clip-path="url(#p30ddcd06b1)" style="fill: none; stroke-dasharray: 2.96,1.28; stroke-dashoffset: 0; stroke: #b0b0b0; stroke-opacity: 0.3; stroke-width: 0.8"/>
     </g>
     <g id="line2d_14">
      <g>
       <use xlink:href="#m5915d01254" x="481.663163" y="260.44" style="stroke: #000000; stroke-width: 0.8"/>
      </g>
     </g>
     <g id="text_7">
      <!-- 12000 -->
      <g transform="translate(465.756913 275.038438) scale(0.1 -0.1)">
       <use xlink:href="#DejaVuSans-31"/>
       <use xlink:href="#DejaVuSans-32" x="63.623047"/>
       <use xlink:href="#DejaVuSans-30" x="127.246094"/>
       <use xlink:href="#DejaVuSans-30" x="190.869141"/>
       <use xlink:href="#DejaVuSans-30" x="254.492188"/>
      </g>
     </g>
    </g>
    <g id="xtick_8">
     <g id="line2d_15">
      <path d="M 549.159124 260.44 
L 549.159124 26.88 
" clip-path="url(#p30ddcd06b1)" style="fill: none; stroke-dasharray: 2.96,1.28; stroke-dashoffset: 0; stroke: #b0b0b0; stroke-opacity: 0.3; stroke-width: 0.8"/>
     </g>
     <g id="line2d_16">
      <g>
       <use xlink:href="#m5915d01254" x="549.159124" y="260.44" style="stroke: #000000; stroke-width: 0.8"/>
      </g>
     </g>
     <g id="text_8">
      <!-- 14000 -->
      <g transform="translate(533.252874 275.038438) scale(0.1 -0.1)">
       <use xlink:href="#DejaVuSans-31"/>
       <use xlink:href="#DejaVuSans-34" x="63.623047"/>
       <use xlink:href="#DejaVuSans-30" x="127.246094"/>
       <use xlink:href="#DejaVuSans-30" x="190.869141"/>
       <use xlink:href="#DejaVuSans-30" x="254.492188"/>
      </g>
     </g>
    </g>
    <g id="text_9">
     <!-- round -->
     <g transform="translate(288.318553 288.716563) scale(0.1 -0.1)">
      <defs>
       <path id="DejaVuSans-72" d="M 2631 2963 
Q 2534 3019 2420 3045 
Q 2306 3072 2169 3072 
Q 1681 3072 1420 2755 
Q 1159 2438 1159 1844 
L 1159 0 
L 581 0 
L 581 3500 
L 1159 3500 
L 1159 2956 
Q 1341 3275 1631 3429 
Q 1922 3584 2338 3584 
Q 2397 3584 2469 3576 
Q 2541 3569 2628 3553 
L 2631 2963 
z
" transform="scale(0.015625)"/>
       <path id="DejaVuSans-6f" d="M 1959 3097 
Q 1497 3097 1228 2736 
Q 959 2375 959 1747 
Q 959 1119 1226 758 
Q 1494 397 1959 397 
Q 2419 397 2687 759 
Q 2956 1122 2956 1747 
Q 2956 2369 2687 2733 
Q 2419 3097 1959 3097 
z
M 1959 3584 
Q 2709 3584 3137 3096 
Q 3566 2609 3566 1747 
Q 3566 888 3137 398 
Q 2709 -91 1959 -91 
Q 1206 -91 779 398 
Q 353 888 353 1747 
Q 353 2609 779 3096 
Q 1206 3584 1959 3584 
z
" transform="scale(0.015625)"/>
       <path id="DejaVuSans-75" d="M 544 1381 
L 544 3500 
L 1119 3500 
L 1119 1403 
Q 1119 906 1312 657 
Q 1506 409 1894 409 
Q 2359 409 2629 706 
Q 2900 1003 2900 1516 
L 2900 3500 
L 3475 3500 
L 3475 0 
L 2900 0 
L 2900 538 
Q 2691 219 2414 64 
Q 2138 -91 1772 -91 
Q 1169 -91 856 284 
Q 544 659 544 1381 
z
M 1991 3584 
L 1991 3584 
z
" transform="scale(0.015625)"/>
       <path id="DejaVuSans-6e" d="M 3513 2113 
L 3513 0 
L 2938 0 
L 2938 2094 
Q 2938 2591 2744 2837 
Q 2550 3084 2163 3084 
Q 1697 3084 1428 2787 
Q 1159 2491 1159 1978 
L 1159 0 
L 581 0 
L 581 3500 
L 1159 3500 
L 1159 2956 
Q 1366 3272 1645 3428 
Q 1925 3584 2291 3584 
Q 2894 3584 3203 3211 
Q 3513 2838 3513 2113 
z
" transform="scale(0.015625)"/>
       <path id="DejaVuSans-64" d="M 2906 2969 
L 2906 4863 
L 3481 4863 
L 3481 0 
L 2906 0 
L 2906 525 
Q 2725 213 2448 61 
Q 2172 -91 1784 -91 
Q 1150 -91 751 415 
Q 353 922 353 1747 
Q 353 2572 751 3078 
Q 1150 3584 1784 3584 
Q 2172 3584 2448 3432 
Q 2725 3281 2906 2969 
z
M 947 1747 
Q 947 1113 1208 752 
Q 1469 391 1925 391 
Q 2381 391 2643 752 
Q 2906 1113 2906 1747 
Q 2906 2381 2643 2742 
Q 2381 3103 1925 3103 
Q 1469 3103 1208 2742 
Q 947 2381 947 1747 
z
" transform="scale(0.015625)"/>
      </defs>
      <use xlink:href="#DejaVuSans-72"/>
      <use xlink:href="#DejaVuSans-6f" x="38.863281"/>
      <use xlink:href="#DejaVuSans-75" x="100.044922"/>
      <use xlink:href="#DejaVuSans-6e" x="163.423828"/>
      <use xlink:href="#DejaVuSans-64" x="226.802734"/>
     </g>
    </g>
   </g>
   <g id="matplotlib.axis_2">
    <g id="ytick_1">
     <g id="line2d_17">
      <path d="M 54.11 241.330545 
L 551.555231 241.330545 
" clip-path="url(#p30ddcd06b1)" style="fill: none; stroke-dasharray: 2.96,1.28; stroke-dashoffset: 0; stroke: #b0b0b0; stroke-opacity: 0.3; stroke-width: 0.8"/>
     </g>
     <g id="line2d_18">
      <defs>
       <path id="md620bd8141" d="M 0 0 
L -3.5 0 
" style="stroke: #000000; stroke-width: 0.8"/>
      </defs>
      <g>
       <use xlink:href="#md620bd8141" x="54.11" y="241.330545" style="stroke: #000000; stroke-width: 0.8"/>
      </g>
     </g>
     <g id="text_10">
      <!-- 0.88 -->
      <g transform="translate(24.844375 245.129764) scale(0.1 -0.1)">
       <defs>
        <path id="DejaVuSans-2e" d="M 684 794 
L 1344 794 
L 1344 0 
L 684 0 
L 684 794 
z
" transform="scale(0.015625)"/>
       </defs>
       <use xlink:href="#DejaVuSans-30"/>
       <use xlink:href="#DejaVuSans-2e" x="63.623047"/>
       <use xlink:href="#DejaVuSans-38" x="95.410156"/>
       <use xlink:href="#DejaVuSans-38" x="159.033203"/>
      </g>
     </g>
    </g>
    <g id="ytick_2">
     <g id="line2d_19">
      <path d="M 54.11 207.358182 
L 551.555231 207.358182 
" clip-path="url(#p30ddcd06b1)" style="fill: none; stroke-dasharray: 2.96,1.28; stroke-dashoffset: 0; stroke: #b0b0b0; stroke-opacity: 0.3; stroke-width: 0.8"/>
     </g>
     <g id="line2d_20">
      <g>
       <use xlink:href="#md620bd8141" x="54.11" y="207.358182" style="stroke: #000000; stroke-width: 0.8"/>
      </g>
     </g>
     <g id="text_11">
      <!-- 0.90 -->
      <g transform="translate(24.844375 211.157401) scale(0.1 -0.1)">
       <defs>
        <path id="DejaVuSans-39" d="M 703 97 
L 703 672 
Q 941 559 1184 500 
Q 1428 441 1663 441 
Q 2288 441 2617 861 
Q 2947 1281 2994 2138 
Q 2813 1869 2534 1725 
Q 2256 1581 1919 1581 
Q 1219 1581 811 2004 
Q 403 2428 403 3163 
Q 403 3881 828 4315 
Q 1253 4750 1959 4750 
Q 2769 4750 3195 4129 
Q 3622 3509 3622 2328 
Q 3622 1225 3098 567 
Q 2575 -91 1691 -91 
Q 1453 -91 1209 -44 
Q 966 3 703 97 
z
M 1959 2075 
Q 2384 2075 2632 2365 
Q 2881 2656 2881 3163 
Q 2881 3666 2632 3958 
Q 2384 4250 1959 4250 
Q 1534 4250 1286 3958 
Q 1038 3666 1038 3163 
Q 1038 2656 1286 2365 
Q 1534 2075 1959 2075 
z
" transform="scale(0.015625)"/>
       </defs>
       <use xlink:href="#DejaVuSans-30"/>
       <use xlink:href="#DejaVuSans-2e" x="63.623047"/>
       <use xlink:href="#DejaVuSans-39" x="95.410156"/>
       <use xlink:href="#DejaVuSans-30" x="159.033203"/>
      </g>
     </g>
    </g>
    <g id="ytick_3">
     <g id="line2d_21">
      <path d="M 54.11 173.385818 
L 551.555231 173.385818 
" clip-path="url(#p30ddcd06b1)" style="fill: none; stroke-dasharray: 2.96,1.28; stroke-dashoffset: 0; stroke: #b0b0b0; stroke-opacity: 0.3; stroke-width: 0.8"/>
     </g>
     <g id="line2d_22">
      <g>
       <use xlink:href="#md620bd8141" x="54.11" y="173.385818" style="stroke: #000000; stroke-width: 0.8"/>
      </g>
     </g>
     <g id="text_12">
      <!-- 0.92 -->
      <g transform="translate(24.844375 177.185037) scale(0.1 -0.1)">
       <use xlink:href="#DejaVuSans-30"/>
       <use xlink:href="#DejaVuSans-2e" x="63.623047"/>
       <use xlink:href="#DejaVuSans-39" x="95.410156"/>
       <use xlink:href="#DejaVuSans-32" x="159.033203"/>
      </g>
     </g>
    </g>
    <g id="ytick_4">
     <g id="line2d_23">
      <path d="M 54.11 139.413455 
L 551.555231 139.413455 
" clip-path="url(#p30ddcd06b1)" style="fill: none; stroke-dasharray: 2.96,1.28; stroke-dashoffset: 0; stroke: #b0b0b0; stroke-opacity: 0.3; stroke-width: 0.8"/>
     </g>
     <g id="line2d_24">
      <g>
       <use xlink:href="#md620bd8141" x="54.11" y="139.413455" style="stroke: #000000; stroke-width: 0.8"/>
      </g>
     </g>
     <g id="text_13">
      <!-- 0.94 -->
      <g transform="translate(24.844375 143.212673) scale(0.1 -0.1)">
       <use xlink:href="#DejaVuSans-30"/>
       <use xlink:href="#DejaVuSans-2e" x="63.623047"/>
       <use xlink:href="#DejaVuSans-39" x="95.410156"/>
       <use xlink:href="#DejaVuSans-34" x="159.033203"/>
      </g>
     </g>
    </g>
    <g id="ytick_5">
     <g id="line2d_25">
      <path d="M 54.11 105.441091 
L 551.555231 105.441091 
" clip-path="url(#p30ddcd06b1)" style="fill: none; stroke-dasharray: 2.96,1.28; stroke-dashoffset: 0; stroke: #b0b0b0; stroke-opacity: 0.3; stroke-width: 0.8"/>
     </g>
     <g id="line2d_26">
      <g>
       <use xlink:href="#md620bd8141" x="54.11" y="105.441091" style="stroke: #000000; stroke-width: 0.8"/>
      </g>
     </g>
     <g id="text_14">
      <!-- 0.96 -->
      <g transform="translate(24.844375 109.24031) scale(0.1 -0.1)">
       <use xlink:href="#DejaVuSans-30"/>
       <use xlink:href="#DejaVuSans-2e" x="63.623047"/>
       <use xlink:href="#DejaVuSans-39" x="95.410156"/>
       <use xlink:href="#DejaVuSans-36" x="159.033203"/>
      </g>
     </g>
    </g>
    <g id="ytick_6">
     <g id="line2d_27">
      <path d="M 54.11 71.468727 
L 551.555231 71.468727 
" clip-path="url(#p30ddcd06b1)" style="fill: none; stroke-dasharray: 2.96,1.28; stroke-dashoffset: 0; stroke: #b0b0b0; stroke-opacity: 0.3; stroke-width: 0.8"/>
     </g>
     <g id="line2d_28">
      <g>
       <use xlink:href="#md620bd8141" x="54.11" y="71.468727" style="stroke: #000000; stroke-width: 0.8"/>
      </g>
     </g>
     <g id="text_15">
      <!-- 0.98 -->
      <g transform="translate(24.844375 75.267946) scale(0.1 -0.1)">
       <use xlink:href="#DejaVuSans-30"/>
       <use xlink:href="#DejaVuSans-2e" x="63.623047"/>
       <use xlink:href="#DejaVuSans-39" x="95.410156"/>
       <use xlink:href="#DejaVuSans-38" x="159.033203"/>
      </g>
     </g>
    </g>
    <g id="ytick_7">
     <g id="line2d_29">
      <path d="M 54.11 37.496364 
L 551.555231 37.496364 
" clip-path="url(#p30ddcd06b1)" style="fill: none; stroke-dasharray: 2.96,1.28; stroke-dashoffset: 0; stroke: #b0b0b0; stroke-opacity: 0.3; stroke-width: 0.8"/>
     </g>
     <g id="line2d_30">
      <g>
       <use xlink:href="#md620bd8141" x="54.11" y="37.496364" style="stroke: #000000; stroke-width: 0.8"/>
      </g>
     </g>
     <g id="text_16">
      <!-- 1.00 -->
      <g transform="translate(24.844375 41.295582) scale(0.1 -0.1)">
       <use xlink:href="#DejaVuSans-31"/>
       <use xlink:href="#DejaVuSans-2e" x="63.623047"/>
       <use xlink:href="#DejaVuSans-30" x="95.410156"/>
       <use xlink:href="#DejaVuSans-30" x="159.033203"/>
      </g>
     </g>
    </g>
    <g id="text_17">
     <!-- cumulative timely transfer rate -->
     <g transform="translate(18.764688 221.768594) rotate(-90) scale(0.1 -0.1)">
      <defs>
       <path id="DejaVuSans-63" d="M 3122 3366 
L 3122 2828 
Q 2878 2963 2633 3030 
Q 2388 3097 2138 3097 
Q 1578 3097 1268 2742 
Q 959 2388 959 1747 
Q 959 1106 1268 751 
Q 1578 397 2138 397 
Q 2388 397 2633 464 
Q 2878 531 3122 666 
L 3122 134 
Q 2881 22 2623 -34 
Q 2366 -91 2075 -91 
Q 1284 -91 818 406 
Q 353 903 353 1747 
Q 353 2603 823 3093 
Q 1294 3584 2113 3584 
Q 2378 3584 2631 3529 
Q 2884 3475 3122 3366 
z
" transform="scale(0.015625)"/>
       <path id="DejaVuSans-6d" d="M 3328 2828 
Q 3544 3216 3844 3400 
Q 4144 3584 4550 3584 
Q 5097 3584 5394 3201 
Q 5691 2819 5691 2113 
L 5691 0 
L 5113 0 
L 5113 2094 
Q 5113 2597 4934 2840 
Q 4756 3084 4391 3084 
Q 3944 3084 3684 2787 
Q 3425 2491 3425 1978 
L 3425 0 
L 2847 0 
L 2847 2094 
Q 2847 2600 2669 2842 
Q 2491 3084 2119 3084 
Q 1678 3084 1418 2786 
Q 1159 2488 1159 1978 
L 1159 0 
L 581 0 
L 581 3500 
L 1159 3500 
L 1159 2956 
Q 1356 3278 1631 3431 
Q 1906 3584 2284 3584 
Q 2666 3584 2933 3390 
Q 3200 3197 3328 2828 
z
" transform="scale(0.015625)"/>
       <path id="DejaVuSans-6c" d="M 603 4863 
L 1178 4863 
L 1178 0 
L 603 0 
L 603 4863 
z
" transform="scale(0.015625)"/>
       <path id="DejaVuSans-61" d="M 2194 1759 
Q 1497 1759 1228 1600 
Q 959 1441 959 1056 
Q 959 750 1161 570 
Q 1363 391 1709 391 
Q 2188 391 2477 730 
Q 2766 1069 2766 1631 
L 2766 1759 
L 2194 1759 
z
M 3341 1997 
L 3341 0 
L 2766 0 
L 2766 531 
Q 2569 213 2275 61 
Q 1981 -91 1556 -91 
Q 1019 -91 701 211 
Q 384 513 384 1019 
Q 384 1609 779 1909 
Q 1175 2209 1959 2209 
L 2766 2209 
L 2766 2266 
Q 2766 2663 2505 2880 
Q 2244 3097 1772 3097 
Q 1472 3097 1187 3025 
Q 903 2953 641 2809 
L 641 3341 
Q 956 3463 1253 3523 
Q 1550 3584 1831 3584 
Q 2591 3584 2966 3190 
Q 3341 2797 3341 1997 
z
" transform="scale(0.015625)"/>
       <path id="DejaVuSans-74" d="M 1172 4494 
L 1172 3500 
L 2356 3500 
L 2356 3053 
L 1172 3053 
L 1172 1153 
Q 1172 725 1289 603 
Q 1406 481 1766 481 
L 2356 481 
L 2356 0 
L 1766 0 
Q 1100 0 847 248 
Q 594 497 594 1153 
L 594 3053 
L 172 3053 
L 172 3500 
L 594 3500 
L 594 4494 
L 1172 4494 
z
" transform="scale(0.015625)"/>
       <path id="DejaVuSans-69" d="M 603 3500 
L 1178 3500 
L 1178 0 
L 603 0 
L 603 3500 
z
M 603 4863 
L 1178 4863 
L 1178 4134 
L 603 4134 
L 603 4863 
z
" transform="scale(0.015625)"/>
       <path id="DejaVuSans-76" d="M 191 3500 
L 800 3500 
L 1894 563 
L 2988 3500 
L 3597 3500 
L 2284 0 
L 1503 0 
L 191 3500 
z
" transform="scale(0.015625)"/>
       <path id="DejaVuSans-65" d="M 3597 1894 
L 3597 1613 
L 953 1613 
Q 991 1019 1311 708 
Q 1631 397 2203 397 
Q 2534 397 2845 478 
Q 3156 559 3463 722 
L 3463 178 
Q 3153 47 2828 -22 
Q 2503 -91 2169 -91 
Q 1331 -91 842 396 
Q 353 884 353 1716 
Q 353 2575 817 3079 
Q 1281 3584 2069 3584 
Q 2775 3584 3186 3129 
Q 3597 2675 3597 1894 
z
M 3022 2063 
Q 3016 2534 2758 2815 
Q 2500 3097 2075 3097 
Q 1594 3097 1305 2825 
Q 1016 2553 972 2059 
L 3022 2063 
z
" transform="scale(0.015625)"/>
       <path id="DejaVuSans-20" transform="scale(0.015625)"/>
       <path id="DejaVuSans-79" d="M 2059 -325 
Q 1816 -950 1584 -1140 
Q 1353 -1331 966 -1331 
L 506 -1331 
L 506 -850 
L 844 -850 
Q 1081 -850 1212 -737 
Q 1344 -625 1503 -206 
L 1606 56 
L 191 3500 
L 800 3500 
L 1894 763 
L 2988 3500 
L 3597 3500 
L 2059 -325 
z
" transform="scale(0.015625)"/>
       <path id="DejaVuSans-73" d="M 2834 3397 
L 2834 2853 
Q 2591 2978 2328 3040 
Q 2066 3103 1784 3103 
Q 1356 3103 1142 2972 
Q 928 2841 928 2578 
Q 928 2378 1081 2264 
Q 1234 2150 1697 2047 
L 1894 2003 
Q 2506 1872 2764 1633 
Q 3022 1394 3022 966 
Q 3022 478 2636 193 
Q 2250 -91 1575 -91 
Q 1294 -91 989 -36 
Q 684 19 347 128 
L 347 722 
Q 666 556 975 473 
Q 1284 391 1588 391 
Q 1994 391 2212 530 
Q 2431 669 2431 922 
Q 2431 1156 2273 1281 
Q 2116 1406 1581 1522 
L 1381 1569 
Q 847 1681 609 1914 
Q 372 2147 372 2553 
Q 372 3047 722 3315 
Q 1072 3584 1716 3584 
Q 2034 3584 2315 3537 
Q 2597 3491 2834 3397 
z
" transform="scale(0.015625)"/>
       <path id="DejaVuSans-66" d="M 2375 4863 
L 2375 4384 
L 1825 4384 
Q 1516 4384 1395 4259 
Q 1275 4134 1275 3809 
L 1275 3500 
L 2222 3500 
L 2222 3053 
L 1275 3053 
L 1275 0 
L 697 0 
L 697 3053 
L 147 3053 
L 147 3500 
L 697 3500 
L 697 3744 
Q 697 4328 969 4595 
Q 1241 4863 1831 4863 
L 2375 4863 
z
" transform="scale(0.015625)"/>
      </defs>
      <use xlink:href="#DejaVuSans-63"/>
      <use xlink:href="#DejaVuSans-75" x="54.980469"/>
      <use xlink:href="#DejaVuSans-6d" x="118.359375"/>
      <use xlink:href="#DejaVuSans-75" x="215.771484"/>
      <use xlink:href="#DejaVuSans-6c" x="279.150391"/>
      <use xlink:href="#DejaVuSans-61" x="306.933594"/>
      <use xlink:href="#DejaVuSans-74" x="368.212891"/>
      <use xlink:href="#DejaVuSans-69" x="407.421875"/>
      <use xlink:href="#DejaVuSans-76" x="435.205078"/>
      <use xlink:href="#DejaVuSans-65" x="494.384766"/>
      <use xlink:href="#DejaVuSans-20" x="555.908203"/>
      <use xlink:href="#DejaVuSans-74" x="587.695312"/>
      <use xlink:href="#DejaVuSans-69" x="626.904297"/>
      <use xlink:href="#DejaVuSans-6d" x="654.6875"/>
      <use xlink:href="#DejaVuSans-65" x="752.099609"/>
      <use xlink:href="#DejaVuSans-6c" x="813.623047"/>
      <use xlink:href="#DejaVuSans-79" x="841.40625"/>
      <use xlink:href="#DejaVuSans-20" x="900.585938"/>
      <use xlink:href="#DejaVuSans-74" x="932.373047"/>
      <use xlink:href="#DejaVuSans-72" x="971.582031"/>
      <use xlink:href="#DejaVuSans-61" x="1012.695312"/>
      <use xlink:href="#DejaVuSans-6e" x="1073.974609"/>
      <use xlink:href="#DejaVuSans-73" x="1137.353516"/>
      <use xlink:href="#DejaVuSans-66" x="1189.453125"/>
      <use xlink:href="#DejaVuSans-65" x="1224.658203"/>
      <use xlink:href="#DejaVuSans-72" x="1286.181641"/>
      <use xlink:href="#DejaVuSans-20" x="1327.294922"/>
      <use xlink:href="#DejaVuSans-72" x="1359.082031"/>
      <use xlink:href="#DejaVuSans-61" x="1400.195312"/>
      <use xlink:href="#DejaVuSans-74" x="1461.474609"/>
      <use xlink:href="#DejaVuSans-65" x="1500.683594"/>
     </g>
    </g>
   </g>
   <g id="line2d_31">
    <path d="M 76.721147 249.823636 
L 76.856139 79.961818 
L 76.923635 241.330545 
L 76.991131 199.784725 
L 77.024879 183.928966 
L 77.058627 219.491169 
L 77.193619 172.613719 
L 77.261115 218.317009 
L 77.32861 198.572226 
L 77.699838 139.972415 
L 78.138562 107.916464 
L 78.543538 92.130282 
L 79.01601 80.781615 
L 79.083505 94.582113 
L 79.151001 93.168482 
L 79.285993 90.431141 
L 79.387237 100.61688 
L 79.420985 99.790154 
L 80.197189 85.461239 
L 80.8384 76.314273 
L 81.209628 72.656911 
L 81.243376 75.336868 
L 81.310872 74.705315 
L 81.952084 70.013211 
L 81.985832 73.364621 
L 82.087076 72.706098 
L 82.323312 71.160937 
L 82.492051 78.07291 
L 82.525799 77.829274 
L 82.660791 83.172731 
L 82.694539 82.942837 
L 83.167011 79.442681 
L 83.808223 73.260474 
L 83.841971 75.196456 
L 83.909467 74.740656 
L 84.010711 74.191729 
L 84.111955 78.36588 
L 84.145703 78.212053 
L 84.719418 73.938349 
L 85.394378 69.332299 
L 86.305573 63.542847 
L 86.406817 63.615988 
L 86.508061 65.325666 
L 86.575557 64.922922 
L 87.284265 61.428054 
L 88.060468 58.403863 
L 88.19546 60.896238 
L 88.229208 60.767176 
L 88.296704 60.545725 
L 88.330452 62.491358 
L 88.431696 62.148044 
L 88.836672 60.881421 
L 89.646623 59.449426 
L 90.017851 58.538087 
L 90.895299 56.030354 
L 90.962795 55.858622 
L 91.165282 57.901462 
L 91.266526 57.654265 
L 91.435266 62.624461 
L 91.604006 62.280364 
L 91.637754 62.227125 
L 91.87399 65.64586 
L 91.941486 65.475465 
L 92.346462 64.22469 
L 92.38021 64.679522 
L 92.447706 64.467445 
L 92.852681 63.210085 
L 92.886429 63.383447 
L 92.953925 63.175707 
L 93.156413 62.601213 
L 93.257657 63.430115 
L 93.291405 63.336981 
L 93.392649 63.069124 
L 93.426397 63.825698 
L 93.493893 63.667297 
L 93.730129 63.10735 
L 93.932617 66.375745 
L 93.966365 66.310786 
L 94.033861 66.169704 
L 94.168853 68.93922 
L 94.202601 68.825255 
L 94.371341 71.732793 
L 94.472585 71.432204 
L 94.675072 70.749972 
L 94.70882 71.085279 
L 94.776316 70.841659 
L 95.21504 69.519029 
L 95.248788 70.607416 
L 95.316284 70.39819 
L 95.856252 68.916278 
L 95.89 69.368005 
L 95.957496 69.217026 
L 96.294975 68.408609 
L 96.328723 68.78823 
L 96.396219 68.637697 
L 96.531211 68.316652 
L 96.564959 68.618219 
L 96.632455 68.476893 
L 97.003683 67.887531 
L 97.509903 66.923705 
L 97.644895 66.68122 
L 97.813635 69.455812 
L 97.881131 69.349854 
L 98.016122 71.119696 
L 98.151114 72.165573 
L 98.21861 72.003852 
L 98.319854 71.783645 
L 98.353602 72.792917 
L 98.454846 72.55673 
L 98.55609 72.302963 
L 98.589838 72.661428 
L 98.657334 72.496436 
L 98.961066 71.808571 
L 99.129806 73.623326 
L 99.264798 73.321296 
L 99.332294 73.173292 
L 99.366042 73.642864 
L 99.433538 73.53509 
L 99.771017 72.96075 
L 99.804765 72.926827 
L 99.838513 73.209961 
L 99.906009 73.069792 
L 100.041001 72.8562 
L 100.209741 74.236557 
L 100.277237 74.123697 
L 100.344733 74.031274 
L 100.378481 74.283283 
L 100.445977 74.198513 
L 100.918449 73.204686 
L 100.952197 74.113874 
L 101.053441 73.913905 
L 102.268368 71.769891 
L 102.5721 71.265747 
L 102.605848 71.672329 
L 102.673344 71.556595 
L 102.74084 71.44435 
L 102.774588 71.643517 
L 102.842084 71.527991 
L 103.955767 69.794994 
L 104.023263 69.704503 
L 104.057011 69.958901 
L 104.124507 69.866712 
L 105.271938 68.477853 
L 105.305686 68.777657 
L 105.373182 68.676456 
L 105.57567 68.398988 
L 105.609418 68.696197 
L 105.676914 68.585881 
L 105.946898 68.17748 
L 106.149386 69.026932 
L 106.183134 68.991328 
L 106.25063 68.875108 
L 106.318126 69.555113 
L 106.453118 69.355635 
L 106.588109 69.163538 
L 106.655605 69.606703 
L 106.723101 69.511145 
L 106.959337 69.195994 
L 106.993085 69.889427 
L 107.094329 69.753741 
L 107.735541 69.150092 
L 107.769289 69.680633 
L 107.870533 69.572106 
L 107.971777 69.502004 
L 108.612988 68.777186 
L 108.815476 70.203854 
L 108.849224 70.150849 
L 109.08546 69.864964 
L 109.119208 70.097896 
L 109.186704 70.022227 
L 109.557932 69.575489 
L 109.59168 70.032068 
L 109.692924 69.919616 
L 109.962908 69.558833 
L 110.064151 70.536637 
L 110.097899 70.485608 
L 110.199143 70.368839 
L 110.232891 70.541633 
L 110.300387 70.45555 
L 110.334135 70.400087 
L 110.367883 70.560833 
L 110.435379 70.470758 
L 110.469127 70.417449 
L 110.570371 71.386336 
L 110.637867 71.289652 
L 110.975347 71.120433 
L 111.110339 71.65499 
L 111.346575 71.374794 
L 111.515315 72.423784 
L 111.582811 72.336947 
L 111.954038 71.888669 
L 112.055282 72.009329 
L 112.08903 72.666905 
L 112.190274 72.549194 
L 112.392762 72.319833 
L 112.42651 72.431712 
L 112.527754 73.267505 
L 112.628998 73.151406 
L 112.76399 72.998605 
L 112.831486 73.200638 
L 112.898982 73.125684 
L 113.135218 72.972712 
L 113.168966 73.281859 
L 113.236462 73.202611 
L 113.303958 73.118793 
L 113.472697 73.898864 
L 113.506445 73.86018 
L 113.675185 73.662436 
L 113.708933 73.706712 
L 113.742681 74.61437 
L 113.843925 74.50863 
L 114.080161 74.241946 
L 114.113909 74.409803 
L 114.181405 74.326173 
L 114.383893 74.060478 
L 114.417641 74.535327 
L 114.518885 74.415494 
L 114.653877 74.255095 
L 114.788869 75.018062 
L 115.463828 74.23329 
L 115.497576 74.275639 
L 115.565072 74.20483 
L 115.666316 74.122563 
L 115.700064 74.245706 
L 115.76756 74.169473 
L 116.27378 73.654234 
L 116.341276 73.591767 
L 116.510016 74.331692 
L 116.678756 74.16498 
L 116.712504 74.402759 
L 116.78 74.323202 
L 116.813748 74.280988 
L 116.847496 74.771435 
L 116.948739 74.661008 
L 118.366155 73.458871 
L 118.399903 74.193353 
L 118.501147 74.081292 
L 118.534895 74.04409 
L 118.568643 74.185256 
L 118.636138 74.12324 
L 119.007366 73.818022 
L 119.041114 74.005349 
L 119.10861 73.951841 
L 119.311098 73.755583 
L 119.344846 74.156659 
L 119.44609 74.05914 
L 119.851066 73.714235 
L 119.884814 74.049915 
L 119.986058 74.029927 
L 120.661017 73.425944 
L 120.762261 73.902394 
L 120.796009 73.865059 
L 120.863505 73.797649 
L 120.964749 74.365813 
L 120.998497 74.334825 
L 122.179676 73.444267 
L 123.597092 73.434146 
L 203.174829 73.545117 
L 203.377317 73.567406 
L 291.56079 73.678356 
L 291.763278 73.700641 
L 343.330192 73.810597 
L 343.330192 73.810597 
" clip-path="url(#p30ddcd06b1)" style="fill: none; stroke: #1f77b4; stroke-width: 1.8; stroke-linecap: square"/>
   </g>
   <g id="line2d_32">
    <path d="M 76.721147 37.496364 
L 76.923635 37.496364 
L 76.991131 90.578182 
L 77.092375 76.919389 
L 77.126123 73.637176 
L 77.261115 89.005942 
L 77.531098 73.143304 
L 77.564846 76.444558 
L 77.632342 73.605817 
L 77.733586 70.059858 
L 77.83483 81.639876 
L 77.868578 80.254683 
L 77.936074 77.886959 
L 78.00357 78.964484 
L 78.071066 90.310965 
L 78.138562 87.779676 
L 78.307302 82.615238 
L 78.34105 85.824194 
L 78.408546 84.061582 
L 78.476042 82.2583 
L 78.577286 82.341942 
L 78.611034 81.541298 
L 78.644782 84.345006 
L 78.712278 82.701525 
L 78.982262 78.24871 
L 79.151001 86.341111 
L 79.184749 85.648785 
L 79.353489 82.619961 
L 79.387237 85.106819 
L 79.454733 83.910787 
L 79.488481 83.325053 
L 79.522229 87.155021 
L 79.589725 86.048712 
L 79.825961 82.551377 
L 79.859709 85.353997 
L 79.960953 85.297099 
L 80.197189 82.724081 
L 80.230937 83.64913 
L 80.298433 82.805702 
L 80.703409 78.862487 
L 80.872148 77.275083 
L 80.905896 78.752307 
L 80.973392 78.452479 
L 81.310872 75.438267 
L 81.34462 76.056992 
L 81.412116 75.94002 
L 81.51336 75.137268 
L 81.614604 76.748657 
L 81.648352 76.462594 
L 81.6821 76.177491 
L 81.884588 78.2116 
L 82.255816 75.427037 
L 82.289564 76.440657 
L 82.35706 75.981162 
L 82.525799 75.166367 
L 82.559547 76.312397 
L 82.627043 75.847325 
L 82.964523 73.853105 
L 83.133263 74.819093 
L 83.200759 74.406518 
L 83.234507 76.018864 
L 83.302003 75.628393 
L 83.369499 75.23182 
L 83.403247 76.583294 
L 83.470743 76.21835 
L 83.605735 75.449801 
L 83.706979 76.221235 
L 83.740727 76.027034 
L 83.976963 74.793862 
L 84.078207 76.52442 
L 84.145703 76.184353 
L 84.449434 75.161336 
L 84.550678 75.802372 
L 84.584426 75.646673 
L 85.124394 73.406024 
L 85.158142 73.742579 
L 85.225638 73.445522 
L 85.461874 72.503799 
L 85.495622 72.837915 
L 85.563118 72.575494 
L 85.596866 72.436046 
L 85.664362 73.555979 
L 85.765606 73.155408 
L 85.799354 73.039375 
L 85.833102 73.4322 
L 85.900598 73.152931 
L 86.508061 71.191489 
L 86.643053 71.690146 
L 86.946785 70.669314 
L 86.980533 70.959331 
L 87.048029 70.737951 
L 87.554249 69.236049 
L 87.587997 69.57832 
L 87.655492 69.386349 
L 87.722988 69.182526 
L 87.756736 69.776087 
L 87.824232 69.577622 
L 87.891728 69.372251 
L 87.925476 69.702353 
L 87.992972 69.516717 
L 88.161712 69.031993 
L 88.229208 70.04156 
L 88.296704 69.846431 
L 88.431696 69.453087 
L 88.465444 69.590289 
L 88.499192 69.849875 
L 88.566688 69.65941 
L 88.667932 69.402378 
L 88.70168 69.659274 
L 88.769176 69.474142 
L 88.836672 69.297553 
L 88.87042 70.060103 
L 88.937916 69.876379 
L 89.03916 69.604116 
L 89.174152 70.423082 
L 89.410387 69.806294 
L 89.714119 71.251502 
L 89.984103 70.579551 
L 90.051599 70.687515 
L 90.287835 70.117919 
L 90.321583 70.649822 
L 90.389079 70.471864 
L 90.490323 70.23463 
L 90.591567 70.784988 
L 90.625315 70.697194 
L 90.659063 70.625354 
L 90.692811 71.08234 
L 90.760307 70.926353 
L 91.030291 70.393757 
L 91.064039 70.94266 
L 91.131534 70.780942 
L 91.300274 70.383867 
L 91.334022 70.632744 
L 91.401518 70.478326 
L 92.076478 69.035693 
L 92.110226 68.962245 
L 92.143974 69.340969 
L 92.21147 69.197831 
L 92.616446 68.525924 
L 92.650194 68.895958 
L 92.71769 68.760071 
L 92.818933 68.568647 
L 92.852681 68.890307 
L 92.920177 68.757703 
L 93.021421 68.560884 
L 93.055169 68.746805 
L 93.122665 68.614155 
L 93.190161 68.48569 
L 93.223909 69.17887 
L 93.325153 68.982335 
L 93.595137 68.468226 
L 93.730129 69.362475 
L 94.202601 68.507626 
L 94.236349 68.72343 
L 94.303845 68.602697 
L 94.337593 68.542322 
L 94.371341 68.834737 
L 94.438837 68.709487 
L 94.506333 68.583812 
L 94.54008 68.988885 
L 94.607576 68.864264 
L 94.70882 68.685518 
L 94.742568 69.007628 
L 94.843812 68.977665 
L 95.113796 68.523068 
L 95.147544 68.687057 
L 95.21504 68.567737 
L 95.518772 68.061719 
L 95.55252 68.588993 
L 95.620016 68.476646 
L 95.653764 68.419449 
L 95.687512 68.836988 
L 95.755008 68.724563 
L 95.923748 68.454858 
L 95.957496 68.724262 
L 96.024992 68.612482 
L 96.126236 68.445657 
L 96.159984 68.826614 
L 96.22748 68.715627 
L 96.564959 68.182965 
L 96.598707 68.684062 
L 96.666203 68.576667 
L 98.151114 66.438363 
L 98.454846 66.044034 
L 98.488594 66.219261 
L 98.55609 66.129381 
L 98.859822 65.835797 
L 98.89357 65.977533 
L 98.961066 65.888467 
L 99.028562 65.799441 
L 99.06231 66.281262 
L 99.163554 66.148274 
L 99.197302 66.22661 
L 99.264798 66.145244 
L 99.838513 65.577635 
L 100.648465 64.87061 
L 100.682213 65.032484 
L 100.749709 64.949998 
L 100.884701 64.79293 
L 100.952197 65.367791 
L 101.053441 65.246741 
L 101.154685 65.133173 
L 101.188433 65.292601 
L 101.255929 65.213859 
L 101.694652 64.811827 
L 101.7284 64.911243 
L 101.795896 64.834373 
L 101.930888 64.684111 
L 101.964636 65.276672 
L 102.06588 65.166211 
L 102.40336 64.815367 
L 102.437108 64.969232 
L 102.504604 64.897751 
L 102.673344 64.849228 
L 102.707092 65.025436 
L 102.774588 64.953276 
L 103.989515 63.783928 
L 104.023263 63.983412 
L 104.090759 63.940007 
L 104.394491 63.741776 
L 104.495735 64.272882 
L 104.596979 64.21182 
L 104.866962 64.046198 
L 104.90071 64.322267 
L 105.001954 64.261658 
L 105.643166 64.049869 
L 105.91315 63.921798 
L 105.946898 64.316651 
L 106.048142 64.27414 
L 106.183134 64.225286 
L 106.216882 64.358683 
L 106.318126 64.320848 
L 107.026833 64.08818 
L 107.060581 64.267751 
L 107.161825 64.229311 
L 107.803037 64.042467 
L 107.870533 64.593012 
L 107.938029 64.574856 
L 108.039273 64.54729 
L 108.073021 64.728814 
L 108.174265 64.703023 
L 108.241761 64.684468 
L 108.309256 65.140375 
L 108.376752 65.123467 
L 108.984216 64.982095 
L 109.017964 65.371822 
L 109.119208 65.350642 
L 109.996655 65.217753 
L 110.131647 65.36782 
L 110.199143 65.360544 
L 110.334135 65.511585 
L 110.604119 65.489289 
L 110.739111 65.662999 
L 112.021534 65.587483 
L 112.156526 65.76447 
L 112.224022 65.760218 
L 112.359014 65.91424 
L 112.42651 65.909968 
L 112.561502 66.08591 
L 112.628998 66.081614 
L 112.76399 66.189787 
L 112.831486 66.185869 
L 112.966478 66.316762 
L 114.653877 66.266887 
L 114.788869 66.332003 
L 115.868804 66.381753 
L 116.003796 66.491861 
L 116.847496 66.550945 
L 116.982487 66.617117 
L 117.488707 66.704398 
L 117.657447 66.749021 
L 117.961179 66.839451 
L 152.991582 66.929468 
L 153.19407 66.95217 
L 193.117931 67.041768 
L 193.320419 67.064466 
L 218.631404 67.155253 
L 218.833892 67.177948 
L 242.92995 67.268723 
L 243.09869 67.314106 
L 265.507349 67.404866 
L 265.709837 67.427555 
L 282.145103 67.517894 
L 282.347591 67.540579 
L 318.862906 67.630494 
L 319.031646 67.675856 
L 335.433164 67.765338 
L 335.433164 67.765338 
" clip-path="url(#p30ddcd06b1)" style="fill: none; stroke: #ff7f0e; stroke-width: 1.8; stroke-linecap: square"/>
   </g>
   <g id="line2d_33">
    <path d="M 76.721147 37.496364 
L 76.788643 37.496364 
L 76.822391 129.479298 
L 76.889887 95.668219 
L 77.126123 64.659767 
L 77.227367 77.586128 
L 77.261115 75.181401 
L 77.396106 68.297365 
L 77.463602 79.858496 
L 77.531098 76.468577 
L 77.83483 66.179784 
L 77.936074 81.381636 
L 77.969822 80.024359 
L 78.037318 77.84077 
L 78.071066 92.961447 
L 78.17231 88.904732 
L 78.408546 83.392559 
L 78.442294 86.477682 
L 78.50979 84.740401 
L 78.67853 81.101965 
L 78.712278 83.404963 
L 78.779774 82.176743 
L 78.914766 79.593023 
L 78.982262 85.147369 
L 79.049757 83.893647 
L 79.555977 77.892572 
L 79.589725 78.769634 
L 79.657221 77.907148 
L 79.792213 76.077624 
L 79.825961 77.418398 
L 79.893457 76.553747 
L 80.332181 73.020079 
L 80.635913 80.848568 
L 80.669661 80.486337 
L 80.737157 82.170244 
L 80.804652 81.397032 
L 81.00714 79.388409 
L 81.108384 82.182204 
L 81.17588 81.663722 
L 81.277124 80.639269 
L 81.34462 86.033336 
L 81.412116 85.300852 
L 81.715848 83.102298 
L 81.749596 84.908663 
L 81.817092 84.396603 
L 82.18832 81.446624 
L 82.222068 81.959715 
L 82.289564 81.368345 
L 82.35706 80.865952 
L 82.390808 80.922056 
L 82.424556 81.97923 
L 82.492051 81.458941 
L 82.930775 78.625767 
L 82.998271 78.270472 
L 83.032019 80.097367 
L 83.099515 79.63936 
L 83.133263 79.421868 
L 83.167011 79.927091 
L 83.436995 78.199238 
L 83.470743 78.829085 
L 83.571987 79.86391 
L 83.605735 79.622567 
L 83.639483 79.389745 
L 83.673231 80.67366 
L 83.774475 80.425057 
L 84.179451 78.517378 
L 84.213198 78.643486 
L 84.246946 78.421732 
L 84.314442 78.069304 
L 84.381938 80.030592 
L 84.483182 79.450438 
L 84.51693 79.559364 
L 84.550678 79.357162 
L 84.989402 77.664402 
L 85.090646 77.274377 
L 85.124394 78.084612 
L 85.19189 77.813947 
L 85.461874 77.059729 
L 85.664362 79.668074 
L 85.86685 79.112598 
L 85.900598 79.613795 
L 85.968093 79.325574 
L 86.136833 78.536223 
L 86.170581 79.406742 
L 86.238077 79.136707 
L 86.339321 78.697034 
L 86.373069 79.388644 
L 86.440565 79.162793 
L 86.811793 77.680291 
L 86.845541 78.36876 
L 86.946785 78.273394 
L 87.014281 77.984842 
L 87.048029 79.045298 
L 87.115525 78.731417 
L 87.216769 78.347538 
L 87.351761 79.612127 
L 87.419257 79.378434 
L 87.824232 77.864646 
L 87.891728 79.240583 
L 87.992972 78.802998 
L 88.02672 78.687621 
L 88.161712 79.253439 
L 88.70168 77.435083 
L 88.836672 77.060035 
L 89.072908 76.276398 
L 89.106656 76.837209 
L 89.174152 76.614868 
L 89.275396 76.270507 
L 89.376639 76.75109 
L 89.410387 76.63267 
L 89.477883 76.431527 
L 89.579127 77.677505 
L 89.612875 77.552162 
L 89.680371 77.356768 
L 89.781615 77.899633 
L 89.815363 77.782988 
L 89.882859 77.560443 
L 89.916607 78.036471 
L 89.984103 77.841841 
L 90.254087 77.262137 
L 90.287835 77.605128 
L 90.355331 77.39639 
L 90.422827 77.193979 
L 90.456575 77.504992 
L 90.524071 77.324322 
L 90.557819 77.255268 
L 90.591567 77.56615 
L 90.659063 77.392276 
L 90.929047 76.922927 
L 90.962795 77.063123 
L 90.996543 76.95124 
L 91.131534 76.580215 
L 91.266526 77.150419 
L 91.300274 77.060278 
L 91.401518 76.77559 
L 91.435266 77.103606 
L 91.502762 76.918219 
L 91.87399 76.142973 
L 92.008982 77.268522 
L 92.04273 77.192419 
L 92.177722 76.866383 
L 92.245218 77.325814 
L 92.312714 77.184439 
L 92.54895 76.568195 
L 92.582698 77.152418 
L 92.650194 76.957398 
L 92.818933 76.54156 
L 92.852681 76.955582 
L 92.920177 76.780088 
L 93.088917 76.376611 
L 93.122665 76.645118 
L 93.190161 76.450047 
L 93.223909 76.369623 
L 93.257657 76.897047 
L 93.325153 76.746636 
L 93.662633 76.006023 
L 93.696381 76.326596 
L 93.763877 76.160122 
L 93.932617 75.765065 
L 93.966365 76.021724 
L 94.033861 75.864574 
L 94.438837 75.012988 
L 94.472585 75.857748 
L 94.573828 75.641863 
L 95.38378 74.221583 
L 95.822504 73.625308 
L 95.856252 73.862281 
L 95.923748 73.732527 
L 96.193732 73.241235 
L 96.22748 73.990524 
L 96.328723 73.813438 
L 96.801195 73.061796 
L 96.834943 73.6981 
L 96.936187 73.51249 
L 97.104927 73.227422 
L 97.138675 73.449367 
L 97.206171 73.340498 
L 97.914879 72.182674 
L 98.454846 71.398114 
L 99.298546 70.261959 
L 99.332294 70.395224 
L 99.39979 70.289485 
L 100.547221 68.969074 
L 100.580969 69.146767 
L 100.783457 68.922099 
L 100.985945 68.85155 
L 101.019693 69.023564 
L 101.087189 68.944635 
L 101.424668 68.726822 
L 101.458416 68.829933 
L 101.525912 68.770061 
L 101.930888 68.346373 
L 101.964636 68.525767 
L 102.032132 68.456514 
L 102.774588 67.843383 
L 104.158255 66.785054 
L 104.731971 66.376409 
L 105.001954 66.283368 
L 108.106769 64.580071 
L 108.849224 64.295509 
L 109.861664 63.929816 
L 110.064151 63.869178 
L 110.199143 63.939046 
L 110.300387 63.909239 
L 110.334135 64.147204 
L 110.435379 64.116332 
L 111.549063 63.759081 
L 111.582811 63.967543 
L 111.684055 63.936478 
L 112.156526 63.921885 
L 112.291518 63.994708 
L 113.168966 63.806987 
L 114.755121 63.463188 
L 114.856365 63.657522 
L 114.890113 63.649648 
L 115.902552 63.478438 
L 116.037544 63.561979 
L 116.577512 63.481087 
L 116.678756 63.678072 
L 116.712504 63.669463 
L 117.049983 63.62119 
L 117.083731 63.827825 
L 117.184975 63.80809 
L 121.403473 63.609246 
L 121.605961 63.598401 
L 121.740953 63.747902 
L 121.808449 63.74548 
L 121.943441 63.921808 
L 123.698336 63.842831 
L 126.12819 63.750684 
L 129.570484 63.69786 
L 145.330791 63.737935 
L 145.465783 63.814294 
L 148.165621 63.91288 
L 148.300613 63.962965 
L 150.460484 64.062712 
L 150.595476 64.139024 
L 151.506671 64.187865 
L 151.641663 64.26416 
L 152.620355 64.340447 
L 152.755347 64.416728 
L 154.341502 64.518426 
L 154.476494 64.56927 
L 179.213763 64.643053 
L 179.348755 64.719299 
L 186.705815 64.794293 
L 186.840807 64.845113 
L 190.789321 64.946744 
L 190.924312 65.022959 
L 193.050435 65.072508 
L 193.185427 65.148708 
L 193.961631 65.22448 
L 194.096623 65.299819 
L 195.041566 65.375995 
L 195.176558 65.452164 
L 197.201437 65.55158 
L 197.336429 65.602346 
L 198.011388 65.677632 
L 198.14638 65.728388 
L 198.753844 65.779141 
L 198.888836 65.855265 
L 200.205007 65.930518 
L 200.339999 65.981257 
L 203.039837 66.08099 
L 203.174829 66.131717 
L 210.599385 66.232289 
L 210.801873 66.257647 
L 212.793004 66.333718 
L 212.927996 66.409782 
L 215.729078 66.51119 
L 215.86407 66.561889 
L 218.158933 66.662393 
L 218.293925 66.713081 
L 223.018642 66.811779 
L 223.22113 66.837117 
L 225.54974 66.93846 
L 225.684732 66.989127 
L 232.096848 67.063776 
L 232.23184 67.114433 
L 234.627947 67.189061 
L 234.762939 67.239708 
L 237.462777 67.340993 
L 237.597769 67.390724 
L 238.981436 67.441358 
L 239.116428 67.517302 
L 244.212373 67.617636 
L 244.347365 67.693562 
L 245.427301 67.794786 
L 245.562293 67.845393 
L 254.033036 67.945675 
L 254.235524 67.970974 
L 263.718706 68.071233 
L 263.853698 68.121821 
L 268.612163 68.196765 
L 268.747155 68.247343 
L 271.818221 68.323205 
L 271.953213 68.373775 
L 275.02428 68.47162 
L 275.159271 68.522176 
L 276.002971 68.597062 
L 276.137963 68.672881 
L 280.660192 68.773963 
L 280.795184 68.824499 
L 282.415087 68.900297 
L 282.550079 68.950826 
L 283.86625 69.026613 
L 284.001242 69.102393 
L 286.329853 69.203423 
L 286.464845 69.279187 
L 290.750838 69.378746 
L 290.88583 69.429243 
L 292.843213 69.504983 
L 292.978205 69.554501 
L 299.592809 69.653033 
L 299.795297 69.678271 
L 304.58751 69.776771 
L 304.789998 69.802003 
L 307.084861 69.902925 
L 307.219853 69.953381 
L 310.628399 70.051326 
L 310.763391 70.126989 
L 313.024505 70.202149 
L 313.159497 70.277797 
L 318.997898 70.37865 
L 318.997898 70.37865 
" clip-path="url(#p30ddcd06b1)" style="fill: none; stroke: #2ca02c; stroke-width: 1.8; stroke-linecap: square"/>
   </g>
   <g id="line2d_34">
    <path d="M 76.721147 37.496364 
L 76.856139 37.496364 
L 76.889887 58.363909 
L 76.957383 53.195238 
L 77.227367 46.136334 
L 77.531098 43.043778 
L 77.83483 41.613228 
L 78.34105 40.288307 
L 78.476042 40.049141 
L 78.543538 55.702874 
L 78.611034 55.081387 
L 79.083505 51.472097 
L 79.555977 49.040977 
L 80.028449 47.456565 
L 80.332181 46.692862 
L 80.365929 47.858305 
L 80.467173 47.541698 
L 82.390808 44.228008 
L 82.897027 43.68763 
L 82.930775 44.828739 
L 83.032019 44.691459 
L 83.538239 44.160748 
L 84.381938 43.454755 
L 85.090646 42.980377 
L 85.124394 44.053469 
L 85.225638 43.977578 
L 85.934345 43.460264 
L 88.19546 42.279856 
L 88.634184 42.090535 
L 88.667932 43.220499 
L 88.769176 43.173057 
L 88.937916 43.08932 
L 88.971664 44.410382 
L 89.072908 44.348007 
L 90.355331 43.720369 
L 91.097786 43.391482 
L 91.131534 43.816333 
L 91.232778 43.772433 
L 91.570258 43.620379 
L 91.604006 44.219449 
L 91.70525 44.169745 
L 92.818933 43.708272 
L 93.122665 43.598918 
L 93.156413 44.637136 
L 93.257657 44.590208 
L 96.733699 43.362292 
L 99.838513 42.596844 
L 99.872261 43.103407 
L 99.973505 43.081724 
L 100.175993 43.034785 
L 100.209741 43.573431 
L 100.310985 43.546098 
L 100.614717 43.469728 
L 100.648465 43.84548 
L 100.749709 43.823966 
L 101.222181 43.717447 
L 101.255929 44.013089 
L 101.357173 43.990323 
L 101.660904 43.924366 
L 101.694652 44.286261 
L 101.795896 44.260984 
L 102.302116 44.14599 
L 102.335864 44.572736 
L 102.437108 44.555182 
L 102.605848 44.516335 
L 102.639596 44.937186 
L 102.74084 44.914689 
L 103.112067 44.834874 
L 103.145815 45.39134 
L 103.247059 45.367495 
L 103.348303 45.345088 
L 103.382051 45.585355 
L 103.483295 45.56639 
L 104.731971 45.329567 
L 105.710662 45.169493 
L 105.74441 45.62817 
L 105.845654 45.608831 
L 106.385622 45.526648 
L 106.41937 45.913309 
L 106.520614 45.897758 
L 107.600549 45.739592 
L 107.634297 46.087062 
L 107.735541 46.068781 
L 108.545492 45.952852 
L 108.57924 46.293573 
L 108.680484 46.275809 
L 108.849224 46.251157 
L 108.984216 46.798626 
L 109.017964 46.79177 
L 109.490436 46.731533 
L 109.59168 47.150955 
L 109.659176 47.139675 
L 109.895412 47.107219 
L 109.92916 47.440639 
L 110.030403 47.424034 
L 110.064151 47.419891 
L 110.199143 47.585216 
L 110.570371 47.593708 
L 110.705363 47.820082 
L 110.941599 47.789727 
L 111.076591 47.989171 
L 111.346575 47.957702 
L 111.481567 48.152461 
L 112.662746 48.016529 
L 112.797738 48.209903 
L 113.371454 48.144055 
L 113.405202 48.495933 
L 113.506445 48.48366 
L 113.708933 48.460338 
L 113.843925 48.65168 
L 114.350145 48.588087 
L 114.417641 48.846685 
L 114.485137 48.837091 
L 115.531324 48.797111 
L 116.847496 48.651161 
L 116.982487 48.834765 
L 117.387463 48.797711 
L 117.454959 49.075394 
L 117.522455 49.066867 
L 119.378594 48.871725 
L 119.716074 48.836645 
L 119.851066 49.019023 
L 120.222294 48.984576 
L 120.357285 49.194149 
L 120.931001 49.140562 
L 121.065993 49.375005 
L 121.572213 49.328928 
L 121.774701 49.832207 
L 121.875945 49.932225 
L 122.044684 50.243659 
L 122.145928 50.235863 
L 122.28092 50.387028 
L 122.483408 50.366129 
L 122.6184 50.815548 
L 122.78714 50.794863 
L 122.989628 51.423469 
L 123.090872 51.410571 
L 123.158368 51.757935 
L 123.225864 51.750199 
L 123.563344 51.710289 
L 123.698336 51.854837 
L 123.732084 51.851416 
L 123.833327 52.108945 
L 123.867075 52.104539 
L 124.238303 52.068008 
L 124.373295 52.242665 
L 124.542035 52.224034 
L 124.677027 52.396523 
L 124.778271 52.387126 
L 124.845767 52.645391 
L 124.913263 52.635134 
L 125.183247 52.608007 
L 125.318239 52.751177 
L 125.588222 52.712714 
L 125.62197 52.974128 
L 125.723214 52.960086 
L 126.63441 52.85868 
L 126.80315 53.236027 
L 127.241873 53.184406 
L 127.376865 53.377188 
L 127.781841 53.3285 
L 127.916833 53.496399 
L 129.233004 53.455561 
L 129.367996 53.59284 
L 129.435492 53.584751 
L 129.570484 53.930353 
L 130.1442 53.944568 
L 130.279192 53.984805 
L 130.346688 53.975572 
L 130.48168 54.112974 
L 130.819159 54.078875 
L 130.954151 54.273535 
L 131.561615 54.222838 
L 131.696607 54.339127 
L 131.865347 54.324463 
L 132.000339 54.492993 
L 132.675298 54.44139 
L 132.81029 54.584363 
L 133.080274 54.563188 
L 133.215266 54.754211 
L 133.350258 54.869775 
L 135.948852 54.754677 
L 136.083844 54.89527 
L 136.556316 54.857455 
L 136.691308 55.069823 
L 136.99504 55.046129 
L 137.130032 55.208442 
L 137.197528 55.20196 
L 137.33252 55.414225 
L 137.669999 55.387526 
L 137.804991 55.523244 
L 137.872487 55.521139 
L 138.007479 55.681952 
L 138.817431 55.723365 
L 138.952423 55.936529 
L 139.49239 55.990655 
L 139.627382 56.149517 
L 139.964862 56.126576 
L 140.099854 56.287203 
L 140.234846 56.277969 
L 140.369838 56.439696 
L 140.572326 56.421925 
L 140.774814 56.82306 
L 141.888497 56.742296 
L 142.023489 56.926278 
L 142.327221 56.906777 
L 142.462213 57.117526 
L 142.968432 57.177669 
L 143.103424 57.384402 
L 143.272164 57.37332 
L 143.407156 57.487814 
L 144.284604 57.521078 
L 144.419595 57.582478 
L 144.588335 57.573336 
L 144.757075 57.779813 
L 145.364539 57.790603 
L 145.499531 57.925651 
L 146.950694 57.938228 
L 147.085686 58.02724 
L 147.828141 58.081033 
L 147.963133 58.121929 
L 148.098125 58.354153 
L 148.435605 58.333906 
L 148.570597 58.445136 
L 148.874329 58.431888 
L 149.009321 58.613068 
L 149.211809 58.86353 
L 149.886768 58.921921 
L 150.123004 59.170727 
L 150.224248 59.186012 
L 150.35924 59.297294 
L 150.899208 59.387058 
L 151.0342 59.473427 
L 151.540419 59.521547 
L 151.709159 59.582192 
L 152.384119 59.637751 
L 152.519111 59.631586 
L 152.654103 59.793092 
L 153.059078 59.779444 
L 153.19407 59.938922 
L 154.408998 59.893444 
L 154.54399 60.077037 
L 155.927657 60.036689 
L 156.062649 60.22051 
L 157.21008 60.259872 
L 157.345072 60.371953 
L 157.851292 60.453201 
L 160.078658 60.494927 
L 160.21365 60.607452 
L 160.55113 60.667735 
L 160.686122 60.75806 
L 162.441017 60.752325 
L 162.576009 60.816858 
L 164.56714 60.873124 
L 164.702132 60.983958 
L 165.309595 61.062782 
L 165.444587 61.150568 
L 166.153295 61.207626 
L 166.322035 61.25115 
L 167.773198 61.274838 
L 167.90819 61.341177 
L 178.302568 61.251489 
L 190.789321 61.141477 
L 193.792891 61.118514 
L 193.995379 61.207922 
L 194.63659 61.275689 
L 194.80533 61.320864 
L 195.277802 61.388622 
L 195.446542 61.546703 
L 196.458981 61.590888 
L 196.593973 61.658622 
L 197.403925 61.726349 
L 197.572665 61.770844 
L 198.247624 61.881729 
L 198.382616 61.949432 
L 200.373747 62.037047 
L 200.576235 62.127289 
L 200.711227 62.172406 
L 200.846219 62.240077 
L 201.082455 62.330297 
L 201.284942 62.533257 
L 201.453682 62.578352 
L 201.588674 62.667519 
L 202.128642 62.711926 
L 202.263634 62.779549 
L 202.432374 62.824287 
L 202.567366 62.8919 
L 205.50344 63.001485 
L 205.638432 63.069075 
L 206.1784 63.13666 
L 206.347139 63.181714 
L 208.00079 63.27112 
L 208.135782 63.338687 
L 209.586946 63.406248 
L 209.721937 63.473804 
L 213.501711 63.562467 
L 213.670451 63.607494 
L 214.615395 63.674677 
L 214.784135 63.719698 
L 215.35785 63.787224 
L 215.52659 63.832238 
L 218.36142 63.92226 
L 218.563908 63.944763 
L 225.381 64.034415 
L 225.583488 64.056916 
L 245.629789 64.146553 
L 245.832276 64.169051 
L 270.16457 64.256873 
L 270.33331 64.301857 
L 278.635313 64.412134 
L 278.905297 64.479591 
L 282.617575 64.568798 
L 282.820063 64.591279 
L 284.743698 64.681199 
L 284.912438 64.726156 
L 287.37604 64.816061 
L 287.54478 64.86101 
L 290.278367 64.928061 
L 290.447107 64.973003 
L 298.07415 65.039301 
L 298.24289 65.084236 
L 304.351274 65.173354 
L 304.486266 65.240742 
L 307.186105 65.285665 
L 307.321097 65.353044 
L 309.548463 65.420418 
L 309.717203 65.465331 
L 315.150628 65.531942 
L 315.319368 65.576848 
L 318.930402 65.665138 
L 319.065394 65.732481 
L 322.845168 65.843565 
L 323.013908 65.88845 
L 327.029917 65.978212 
L 327.198657 66.023089 
L 328.683568 66.112837 
L 328.81856 66.180141 
L 330.674699 66.269099 
L 330.843439 66.31396 
L 335.6694 66.358043 
L 335.6694 66.358043 
" clip-path="url(#p30ddcd06b1)" style="fill: none; stroke: #d62728; stroke-width: 1.8; stroke-linecap: square"/>
   </g>
   <g id="line2d_35">
    <path d="M 76.721147 60.144606 
L 76.754895 48.247112 
L 76.788643 88.309728 
L 76.889887 87.23068 
L 76.991131 69.685921 
L 77.092375 109.503004 
L 77.159871 99.178029 
L 77.396106 80.125777 
L 77.429854 82.306537 
L 77.463602 80.360555 
L 77.83483 66.331966 
L 78.374798 56.96866 
L 78.881018 52.436143 
L 79.825961 47.951643 
L 80.433425 46.210344 
L 81.209628 44.741734 
L 82.458304 43.136128 
L 83.268255 42.435209 
L 84.719418 41.539573 
L 86.204329 40.908837 
L 88.465444 40.259285 
L 90.659063 39.82183 
L 99.06231 38.957029 
L 104.596979 38.68974 
L 111.380323 38.581323 
L 121.605961 38.603003 
L 121.875945 38.676728 
L 144.892067 38.774981 
L 145.094555 38.799551 
L 177.08764 38.897783 
L 177.290128 38.922348 
L 207.055847 38.996019 
L 207.190839 39.045144 
L 225.819724 39.143336 
L 225.954716 39.19245 
L 241.715023 39.290644 
L 241.951259 39.339749 
L 268.308431 39.437922 
L 268.510919 39.462471 
L 281.098916 39.560597 
L 281.233908 39.609684 
L 314.711904 39.707754 
L 314.914392 39.732293 
L 366.24507 39.830339 
L 366.380062 39.879406 
L 422.23297 39.977461 
L 422.435458 40.00199 
L 448.590143 40.100024 
L 448.79263 40.124549 
L 471.370029 40.173325 
L 471.505021 40.246884 
L 497.25473 40.295838 
L 497.389722 40.369384 
L 504.038074 40.467392 
L 504.173066 40.516413 
L 513.183777 40.614446 
L 513.386265 40.638952 
L 524.354358 40.736924 
L 524.556846 40.761426 
L 528.944084 40.761426 
L 528.944084 40.761426 
" clip-path="url(#p30ddcd06b1)" style="fill: none; stroke: #9467bd; stroke-width: 1.8; stroke-linecap: square"/>
   </g>
   <g id="patch_3">
    <path d="M 54.11 260.44 
L 54.11 26.88 
" style="fill: none; stroke: #000000; stroke-width: 0.8; stroke-linejoin: miter; stroke-linecap: square"/>
   </g>
   <g id="patch_4">
    <path d="M 551.555231 260.44 
L 551.555231 26.88 
" style="fill: none; stroke: #000000; stroke-width: 0.8; stroke-linejoin: miter; stroke-linecap: square"/>
   </g>
   <g id="patch_5">
    <path d="M 54.11 260.44 
L 551.555231 260.44 
" style="fill: none; stroke: #000000; stroke-width: 0.8; stroke-linejoin: miter; stroke-linecap: square"/>
   </g>
   <g id="patch_6">
    <path d="M 54.11 26.88 
L 551.555231 26.88 
" style="fill: none; stroke: #000000; stroke-width: 0.8; stroke-linejoin: miter; stroke-linecap: square"/>
   </g>
   <g id="text_18">
    <!-- Timely Transfer Rate (Cumulative) -->
    <g transform="translate(200.409803 20.88) scale(0.12 -0.12)">
     <defs>
      <path id="DejaVuSans-54" d="M -19 4666 
L 3928 4666 
L 3928 4134 
L 2272 4134 
L 2272 0 
L 1638 0 
L 1638 4134 
L -19 4134 
L -19 4666 
z
" transform="scale(0.015625)"/>
      <path id="DejaVuSans-52" d="M 2841 2188 
Q 3044 2119 3236 1894 
Q 3428 1669 3622 1275 
L 4263 0 
L 3584 0 
L 2988 1197 
Q 2756 1666 2539 1819 
Q 2322 1972 1947 1972 
L 1259 1972 
L 1259 0 
L 628 0 
L 628 4666 
L 2053 4666 
Q 2853 4666 3247 4331 
Q 3641 3997 3641 3322 
Q 3641 2881 3436 2590 
Q 3231 2300 2841 2188 
z
M 1259 4147 
L 1259 2491 
L 2053 2491 
Q 2509 2491 2742 2702 
Q 2975 2913 2975 3322 
Q 2975 3731 2742 3939 
Q 2509 4147 2053 4147 
L 1259 4147 
z
" transform="scale(0.015625)"/>
      <path id="DejaVuSans-28" d="M 1984 4856 
Q 1566 4138 1362 3434 
Q 1159 2731 1159 2009 
Q 1159 1288 1364 580 
Q 1569 -128 1984 -844 
L 1484 -844 
Q 1016 -109 783 600 
Q 550 1309 550 2009 
Q 550 2706 781 3412 
Q 1013 4119 1484 4856 
L 1984 4856 
z
" transform="scale(0.015625)"/>
      <path id="DejaVuSans-43" d="M 4122 4306 
L 4122 3641 
Q 3803 3938 3442 4084 
Q 3081 4231 2675 4231 
Q 1875 4231 1450 3742 
Q 1025 3253 1025 2328 
Q 1025 1406 1450 917 
Q 1875 428 2675 428 
Q 3081 428 3442 575 
Q 3803 722 4122 1019 
L 4122 359 
Q 3791 134 3420 21 
Q 3050 -91 2638 -91 
Q 1578 -91 968 557 
Q 359 1206 359 2328 
Q 359 3453 968 4101 
Q 1578 4750 2638 4750 
Q 3056 4750 3426 4639 
Q 3797 4528 4122 4306 
z
" transform="scale(0.015625)"/>
      <path id="DejaVuSans-29" d="M 513 4856 
L 1013 4856 
Q 1481 4119 1714 3412 
Q 1947 2706 1947 2009 
Q 1947 1309 1714 600 
Q 1481 -109 1013 -844 
L 513 -844 
Q 928 -128 1133 580 
Q 1338 1288 1338 2009 
Q 1338 2731 1133 3434 
Q 928 4138 513 4856 
z
" transform="scale(0.015625)"/>
     </defs>
     <use xlink:href="#DejaVuSans-54"/>
     <use xlink:href="#DejaVuSans-69" x="57.958984"/>
     <use xlink:href="#DejaVuSans-6d" x="85.742188"/>
     <use xlink:href="#DejaVuSans-65" x="183.154297"/>
     <use xlink:href="#DejaVuSans-6c" x="244.677734"/>
     <use xlink:href="#DejaVuSans-79" x="272.460938"/>
     <use xlink:href="#DejaVuSans-20" x="331.640625"/>
     <use xlink:href="#DejaVuSans-54" x="363.427734"/>
     <use xlink:href="#DejaVuSans-72" x="409.761719"/>
     <use xlink:href="#DejaVuSans-61" x="450.875"/>
     <use xlink:href="#DejaVuSans-6e" x="512.154297"/>
     <use xlink:href="#DejaVuSans-73" x="575.533203"/>
     <use xlink:href="#DejaVuSans-66" x="627.632812"/>
     <use xlink:href="#DejaVuSans-65" x="662.837891"/>
     <use xlink:href="#DejaVuSans-72" x="724.361328"/>
     <use xlink:href="#DejaVuSans-20" x="765.474609"/>
     <use xlink:href="#DejaVuSans-52" x="797.261719"/>
     <use xlink:href="#DejaVuSans-61" x="864.494141"/>
     <use xlink:href="#DejaVuSans-74" x="925.773438"/>
     <use xlink:href="#DejaVuSans-65" x="964.982422"/>
     <use xlink:href="#DejaVuSans-20" x="1026.505859"/>
     <use xlink:href="#DejaVuSans-28" x="1058.292969"/>
     <use xlink:href="#DejaVuSans-43" x="1097.306641"/>
     <use xlink:href="#DejaVuSans-75" x="1167.130859"/>
     <use xlink:href="#DejaVuSans-6d" x="1230.509766"/>
     <use xlink:href="#DejaVuSans-75" x="1327.921875"/>
     <use xlink:href="#DejaVuSans-6c" x="1391.300781"/>
     <use xlink:href="#DejaVuSans-61" x="1419.083984"/>
     <use xlink:href="#DejaVuSans-74" x="1480.363281"/>
     <use xlink:href="#DejaVuSans-69" x="1519.572266"/>
     <use xlink:href="#DejaVuSans-76" x="1547.355469"/>
     <use xlink:href="#DejaVuSans-65" x="1606.535156"/>
     <use xlink:href="#DejaVuSans-29" x="1668.058594"/>
    </g>
   </g>
   <g id="legend_1">
    <g id="patch_7">
     <path d="M 460.181793 255.44 
L 544.555231 255.44 
Q 546.555231 255.44 546.555231 253.44 
L 546.555231 180.493125 
Q 546.555231 178.493125 544.555231 178.493125 
L 460.181793 178.493125 
Q 458.181793 178.493125 458.181793 180.493125 
L 458.181793 253.44 
Q 458.181793 255.44 460.181793 255.44 
z
" style="fill: #ffffff; opacity: 0.8; stroke: #cccccc; stroke-linejoin: miter"/>
    </g>
    <g id="line2d_36">
     <path d="M 462.181793 186.591563 
L 472.181793 186.591563 
L 482.181793 186.591563 
" style="fill: none; stroke: #1f77b4; stroke-width: 1.8; stroke-linecap: square"/>
    </g>
    <g id="text_19">
     <!-- SHEER -->
     <g transform="translate(490.181793 190.091563) scale(0.1 -0.1)">
      <defs>
       <path id="DejaVuSans-53" d="M 3425 4513 
L 3425 3897 
Q 3066 4069 2747 4153 
Q 2428 4238 2131 4238 
Q 1616 4238 1336 4038 
Q 1056 3838 1056 3469 
Q 1056 3159 1242 3001 
Q 1428 2844 1947 2747 
L 2328 2669 
Q 3034 2534 3370 2195 
Q 3706 1856 3706 1288 
Q 3706 609 3251 259 
Q 2797 -91 1919 -91 
Q 1588 -91 1214 -16 
Q 841 59 441 206 
L 441 856 
Q 825 641 1194 531 
Q 1563 422 1919 422 
Q 2459 422 2753 634 
Q 3047 847 3047 1241 
Q 3047 1584 2836 1778 
Q 2625 1972 2144 2069 
L 1759 2144 
Q 1053 2284 737 2584 
Q 422 2884 422 3419 
Q 422 4038 858 4394 
Q 1294 4750 2059 4750 
Q 2388 4750 2728 4690 
Q 3069 4631 3425 4513 
z
" transform="scale(0.015625)"/>
       <path id="DejaVuSans-48" d="M 628 4666 
L 1259 4666 
L 1259 2753 
L 3553 2753 
L 3553 4666 
L 4184 4666 
L 4184 0 
L 3553 0 
L 3553 2222 
L 1259 2222 
L 1259 0 
L 628 0 
L 628 4666 
z
" transform="scale(0.015625)"/>
       <path id="DejaVuSans-45" d="M 628 4666 
L 3578 4666 
L 3578 4134 
L 1259 4134 
L 1259 2753 
L 3481 2753 
L 3481 2222 
L 1259 2222 
L 1259 531 
L 3634 531 
L 3634 0 
L 628 0 
L 628 4666 
z
" transform="scale(0.015625)"/>
      </defs>
      <use xlink:href="#DejaVuSans-53"/>
      <use xlink:href="#DejaVuSans-48" x="63.476562"/>
      <use xlink:href="#DejaVuSans-45" x="138.671875"/>
      <use xlink:href="#DejaVuSans-45" x="201.855469"/>
      <use xlink:href="#DejaVuSans-52" x="265.039062"/>
     </g>
    </g>
    <g id="line2d_37">
     <path d="M 462.181793 201.269688 
L 472.181793 201.269688 
L 482.181793 201.269688 
" style="fill: none; stroke: #ff7f0e; stroke-width: 1.8; stroke-linecap: square"/>
    </g>
    <g id="text_20">
     <!-- ACTAR -->
     <g transform="translate(490.181793 204.769688) scale(0.1 -0.1)">
      <defs>
       <path id="DejaVuSans-41" d="M 2188 4044 
L 1331 1722 
L 3047 1722 
L 2188 4044 
z
M 1831 4666 
L 2547 4666 
L 4325 0 
L 3669 0 
L 3244 1197 
L 1141 1197 
L 716 0 
L 50 0 
L 1831 4666 
z
" transform="scale(0.015625)"/>
      </defs>
      <use xlink:href="#DejaVuSans-41"/>
      <use xlink:href="#DejaVuSans-43" x="66.658203"/>
      <use xlink:href="#DejaVuSans-54" x="136.482422"/>
      <use xlink:href="#DejaVuSans-41" x="189.816406"/>
      <use xlink:href="#DejaVuSans-52" x="258.224609"/>
     </g>
    </g>
    <g id="line2d_38">
     <path d="M 462.181793 215.947813 
L 472.181793 215.947813 
L 482.181793 215.947813 
" style="fill: none; stroke: #2ca02c; stroke-width: 1.8; stroke-linecap: square"/>
    </g>
    <g id="text_21">
     <!-- TFSM_DPC -->
     <g transform="translate(490.181793 219.447813) scale(0.1 -0.1)">
      <defs>
       <path id="DejaVuSans-46" d="M 628 4666 
L 3309 4666 
L 3309 4134 
L 1259 4134 
L 1259 2759 
L 3109 2759 
L 3109 2228 
L 1259 2228 
L 1259 0 
L 628 0 
L 628 4666 
z
" transform="scale(0.015625)"/>
       <path id="DejaVuSans-4d" d="M 628 4666 
L 1569 4666 
L 2759 1491 
L 3956 4666 
L 4897 4666 
L 4897 0 
L 4281 0 
L 4281 4097 
L 3078 897 
L 2444 897 
L 1241 4097 
L 1241 0 
L 628 0 
L 628 4666 
z
" transform="scale(0.015625)"/>
       <path id="DejaVuSans-5f" d="M 3263 -1063 
L 3263 -1509 
L -63 -1509 
L -63 -1063 
L 3263 -1063 
z
" transform="scale(0.015625)"/>
       <path id="DejaVuSans-44" d="M 1259 4147 
L 1259 519 
L 2022 519 
Q 2988 519 3436 956 
Q 3884 1394 3884 2338 
Q 3884 3275 3436 3711 
Q 2988 4147 2022 4147 
L 1259 4147 
z
M 628 4666 
L 1925 4666 
Q 3281 4666 3915 4102 
Q 4550 3538 4550 2338 
Q 4550 1131 3912 565 
Q 3275 0 1925 0 
L 628 0 
L 628 4666 
z
" transform="scale(0.015625)"/>
       <path id="DejaVuSans-50" d="M 1259 4147 
L 1259 2394 
L 2053 2394 
Q 2494 2394 2734 2622 
Q 2975 2850 2975 3272 
Q 2975 3691 2734 3919 
Q 2494 4147 2053 4147 
L 1259 4147 
z
M 628 4666 
L 2053 4666 
Q 2838 4666 3239 4311 
Q 3641 3956 3641 3272 
Q 3641 2581 3239 2228 
Q 2838 1875 2053 1875 
L 1259 1875 
L 1259 0 
L 628 0 
L 628 4666 
z
" transform="scale(0.015625)"/>
      </defs>
      <use xlink:href="#DejaVuSans-54"/>
      <use xlink:href="#DejaVuSans-46" x="61.083984"/>
      <use xlink:href="#DejaVuSans-53" x="116.853516"/>
      <use xlink:href="#DejaVuSans-4d" x="180.330078"/>
      <use xlink:href="#DejaVuSans-5f" x="266.609375"/>
      <use xlink:href="#DejaVuSans-44" x="316.609375"/>
      <use xlink:href="#DejaVuSans-50" x="393.611328"/>
      <use xlink:href="#DejaVuSans-43" x="453.914062"/>
     </g>
    </g>
    <g id="line2d_39">
     <path d="M 462.181793 230.904063 
L 472.181793 230.904063 
L 482.181793 230.904063 
" style="fill: none; stroke: #d62728; stroke-width: 1.8; stroke-linecap: square"/>
    </g>
    <g id="text_22">
     <!-- DST_WOA -->
     <g transform="translate(490.181793 234.404063) scale(0.1 -0.1)">
      <defs>
       <path id="DejaVuSans-57" d="M 213 4666 
L 850 4666 
L 1831 722 
L 2809 4666 
L 3519 4666 
L 4500 722 
L 5478 4666 
L 6119 4666 
L 4947 0 
L 4153 0 
L 3169 4050 
L 2175 0 
L 1381 0 
L 213 4666 
z
" transform="scale(0.015625)"/>
       <path id="DejaVuSans-4f" d="M 2522 4238 
Q 1834 4238 1429 3725 
Q 1025 3213 1025 2328 
Q 1025 1447 1429 934 
Q 1834 422 2522 422 
Q 3209 422 3611 934 
Q 4013 1447 4013 2328 
Q 4013 3213 3611 3725 
Q 3209 4238 2522 4238 
z
M 2522 4750 
Q 3503 4750 4090 4092 
Q 4678 3434 4678 2328 
Q 4678 1225 4090 567 
Q 3503 -91 2522 -91 
Q 1538 -91 948 565 
Q 359 1222 359 2328 
Q 359 3434 948 4092 
Q 1538 4750 2522 4750 
z
" transform="scale(0.015625)"/>
      </defs>
      <use xlink:href="#DejaVuSans-44"/>
      <use xlink:href="#DejaVuSans-53" x="77.001953"/>
      <use xlink:href="#DejaVuSans-54" x="140.478516"/>
      <use xlink:href="#DejaVuSans-5f" x="201.5625"/>
      <use xlink:href="#DejaVuSans-57" x="251.5625"/>
      <use xlink:href="#DejaVuSans-4f" x="350.439453"/>
      <use xlink:href="#DejaVuSans-41" x="427.400391"/>
     </g>
    </g>
    <g id="line2d_40">
     <path d="M 462.181793 245.860313 
L 472.181793 245.860313 
L 482.181793 245.860313 
" style="fill: none; stroke: #9467bd; stroke-width: 1.8; stroke-linecap: square"/>
    </g>
    <g id="text_23">
     <!-- TRAIL -->
     <g transform="translate(490.181793 249.360313) scale(0.1 -0.1)">
      <defs>
       <path id="DejaVuSans-49" d="M 628 4666 
L 1259 4666 
L 1259 0 
L 628 0 
L 628 4666 
z
" transform="scale(0.015625)"/>
       <path id="DejaVuSans-4c" d="M 628 4666 
L 1259 4666 
L 1259 531 
L 3531 531 
L 3531 0 
L 628 0 
L 628 4666 
z
" transform="scale(0.015625)"/>
      </defs>
      <use xlink:href="#DejaVuSans-54"/>
      <use xlink:href="#DejaVuSans-52" x="61.083984"/>
      <use xlink:href="#DejaVuSans-41" x="126.566406"/>
      <use xlink:href="#DejaVuSans-49" x="194.974609"/>
      <use xlink:href="#DejaVuSans-4c" x="224.466797"/>
     </g>
    </g>
   </g>
  </g>
 </g>
 <defs>
  <clipPath id="p30ddcd06b1">
   <rect x="54.11" y="26.88" width="497.445231" height="233.56"/>
  </clipPath>
 </defs>
</svg>
